<svg width="1680" height="960" viewBox="0 0 1680 960" fill="none" xmlns="http://www.w3.org/2000/svg">
<rect x="1" y="1" width="1678" height="958" fill="#023DFF"/>
<g clip-path="url(#clip0_0_11382)">
<path d="M786.939 4899.42V-191.26H1018.53V4899.42H786.939Z" fill="#023DFF" stroke="#000C33" stroke-width="0.5"/>
<path d="M1019.25 4899.42V-191.26H1250.84V4899.42H1019.25Z" fill="#0231CC" stroke="#000C33" stroke-width="0.5"/>
<path d="M1251.56 4899.42V-191.26H1483.14V4899.42H1251.56Z" fill="#023DFF" stroke="#000C33" stroke-width="0.5"/>
<path d="M1483.64 4899.42V-191.26H1715.23V4899.42H1483.64Z" fill="#0231CC" stroke="#000C33" stroke-width="0.5"/>
<path d="M787.25 1950.75V0.25H1018.75V1950.75H787.25Z" fill="#023DFF" stroke="#000C33" stroke-width="0.5"/>
<path d="M1019.25 1950.75V0.25H1250.75V1950.75H1019.25Z" fill="#0231CC" stroke="#000C33" stroke-width="0.5"/>
<path d="M1251.25 1950.75V0.25H1482.75V1950.75H1251.25Z" fill="#023DFF" stroke="#000C33" stroke-width="0.5"/>
<path d="M1483.25 1950.75V0.25H1714.75V1950.75H1483.25Z" fill="#0231CC" stroke="#000C33" stroke-width="0.5"/>
<path d="M786.438 3987.59H-606.252V1201.61V1201.36H-606.502H-1999.88V-191.26H2179.63V621.068C2179.63 940.976 1919.41 1201.36 1599.22 1201.36H786.688H786.438V1201.61V3987.59Z" fill="#0231CC" stroke="#000C33" stroke-width="0.5"/>
<path d="M-600.766 969.097H-1999.66V-191.26H1947.76V505.048C1947.76 760.991 1739.39 969.097 1483.61 969.097H671.085C606.748 969.097 554.57 1021.26 554.57 1085.59V3755.33H-606.061H-606.252V1085.59C-606.252 1046.99 -604.487 1008.18 -600.517 969.373L-600.489 969.097H-600.766Z" fill="#023DFF" stroke="#000C33" stroke-width="0.5"/>
<path d="M-580.69 734.153H-1999.88V-193.944H1715.45V386.344C1715.45 578.322 1559.37 734.374 1367.35 734.374H554.82C426.505 734.374 322.041 838.815 322.041 966.883V3520.61H-606.178L-606.252 3520.53V966.663C-606.473 889.703 -597.871 812.963 -580.446 734.458L-580.378 734.153H-580.69Z" fill="#0231CC" stroke="#000C33" stroke-width="0.5"/>
<mask id="path-13-inside-1_0_11382" fill="white">
<path d="M-2000.13 40.7494H-210.496C-294.109 107.582 -370.001 183.679 -429.788 272.789H-2000.13V505.048H-542.523C-581.572 614.451 -606.722 730.691 -606.722 853.327V3291.06H89.9829V853.327C89.9829 661.211 246.179 505.048 438.335 505.048H1251.08C1379.26 505.048 1483.39 400.94 1483.39 272.789V-191.51H-2000.13V40.7494ZM438.335 40.7494H1251.08V272.789H438.335C118.222 272.789 -142.326 533.281 -142.326 853.327V3059.02H-374.634V853.327C-374.634 405.351 -9.95618 40.7494 438.115 40.7494"/>
</mask>
<path d="M-2000.13 40.7494H-210.496C-294.109 107.582 -370.001 183.679 -429.788 272.789H-2000.13V505.048H-542.523C-581.572 614.451 -606.722 730.691 -606.722 853.327V3291.06H89.9829V853.327C89.9829 661.211 246.179 505.048 438.335 505.048H1251.08C1379.26 505.048 1483.39 400.94 1483.39 272.789V-191.51H-2000.13V40.7494ZM438.335 40.7494H1251.08V272.789H438.335C118.222 272.789 -142.326 533.281 -142.326 853.327V3059.02H-374.634V853.327C-374.634 405.351 -9.95618 40.7494 438.115 40.7494" fill="#023DFF"/>
<path d="M-210.496 40.7494L-210.184 41.14L-209.07 40.2494H-210.496V40.7494ZM-429.788 272.789V273.289H-429.522L-429.373 273.067L-429.788 272.789ZM-2000.13 272.789V272.289H-2000.63V272.789H-2000.13ZM-2000.13 505.048H-2000.63V505.548H-2000.13V505.048ZM-542.523 505.048L-542.052 505.216L-541.814 504.548H-542.523V505.048ZM-606.722 3291.06H-607.222V3291.56H-606.722V3291.06ZM89.9829 3291.06V3291.56H90.4829V3291.06H89.9829ZM1483.39 -191.51H1483.89V-192.01H1483.39V-191.51ZM-2000.13 -191.51V-192.01H-2000.63V-191.51H-2000.13ZM-2000.13 40.7494H-2000.63V41.2494H-2000.13V40.7494ZM1251.08 40.7494H1251.58V40.2494H1251.08V40.7494ZM1251.08 272.789V273.289H1251.58V272.789H1251.08ZM-142.326 3059.02V3059.52H-141.826V3059.02H-142.326ZM-374.634 3059.02H-375.134V3059.52H-374.634V3059.02ZM-2000.13 41.2494H-210.496V40.2494H-2000.13V41.2494ZM-210.808 40.3589C-294.45 107.214 -370.381 183.347 -430.203 272.51L-429.373 273.067C-369.622 184.01 -293.769 107.95 -210.184 41.14L-210.808 40.3589ZM-429.788 272.289H-2000.13V273.289H-429.788V272.289ZM-2000.63 272.789V505.048H-1999.63V272.789H-2000.63ZM-2000.13 505.548H-542.523V504.548H-2000.13V505.548ZM-542.994 504.88C-582.058 614.324 -607.222 730.622 -607.222 853.327H-606.222C-606.222 730.76 -581.086 614.577 -542.052 505.216L-542.994 504.88ZM-607.222 853.327V3291.06H-606.222V853.327H-607.222ZM-606.722 3291.56H89.9829V3290.56H-606.722V3291.56ZM90.4829 3291.06V853.327H89.4829V3291.06H90.4829ZM90.4829 853.327C90.4829 661.488 246.455 505.548 438.335 505.548V504.548C245.903 504.548 89.4829 660.935 89.4829 853.327H90.4829ZM438.335 505.548H1251.08V504.548H438.335V505.548ZM1251.08 505.548C1379.54 505.548 1483.89 401.216 1483.89 272.789H1482.89C1482.89 400.663 1378.99 504.548 1251.08 504.548V505.548ZM1483.89 272.789V-191.51H1482.89V272.789H1483.89ZM1483.39 -192.01H-2000.13V-191.01H1483.39V-192.01ZM-2000.63 -191.51V40.7494H-1999.63V-191.51H-2000.63ZM438.335 41.2494H1251.08V40.2494H438.335V41.2494ZM1250.58 40.7494V272.789H1251.58V40.7494H1250.58ZM1251.08 272.289H438.335V273.289H1251.08V272.289ZM438.335 272.289C117.946 272.289 -142.826 533.005 -142.826 853.327H-141.826C-141.826 533.557 118.498 273.289 438.335 273.289V272.289ZM-142.826 853.327V3059.02H-141.826V853.327H-142.826ZM-142.326 3058.52H-374.634V3059.52H-142.326V3058.52ZM-374.134 3059.02V853.327H-375.134V3059.02H-374.134ZM-374.134 853.327C-374.134 405.627 -9.68005 41.2494 438.115 41.2494V40.2494C-10.2322 40.2494 -375.134 405.075 -375.134 853.327H-374.134Z" fill="#000C33" mask="url(#path-13-inside-1_0_11382)"/>
</g>
<defs>
<clipPath id="clip0_0_11382">
<rect width="1680" height="960" fill="white"/>
</clipPath>
</defs>
</svg>
