<svg width="361" height="352" viewBox="0 0 361 352" fill="none" xmlns="http://www.w3.org/2000/svg">
<g clip-path="url(#clip0_15384_300575)">
<path d="M11.3168 199.113C22.7215 229.663 46.0268 262.73 78.8231 272.523C128.409 287.322 134.297 327.261 223.056 323.558C236.016 323.08 248.886 321.194 261.438 317.933C267.573 316.314 273.6 314.308 279.483 311.928C331.338 290.924 358.386 244.701 360.633 196.34C363.592 132.723 319.213 102.406 290.368 84.6555C261.523 66.9054 226.759 -1.88705 139.473 1.06485C126.146 1.47039 112.911 3.40979 100.029 6.84468C70.657 14.7939 40.8048 32.4123 23.4498 58.0729C22.1482 60.0099 20.9034 61.9855 19.7154 64C-3.50467 103.374 -4.24069 157.461 11.3168 199.113Z" fill="#3366FF"/>
<path d="M46.0586 231.253L46.1826 223.723H47.6081L48.6773 228.945L49.793 223.723H51.1721L51.3116 231.253H50.2889L50.1727 226.024L49.088 231.253H48.3132L47.2208 226.008L47.12 231.253H46.0586Z" fill="white"/>
<path d="M52.0391 231.253L53.5499 223.723H55.0142L56.5638 231.253H55.2854L54.991 229.518H53.6816L53.3717 231.253H52.0391ZM53.7823 228.642H54.805L54.2937 225.481L53.7823 228.642Z" fill="white"/>
<path d="M57.2383 231.253V223.722H59.0435C59.4796 223.711 59.9145 223.774 60.3297 223.908C60.6535 224.016 60.9282 224.235 61.1044 224.528C61.3091 224.888 61.4059 225.299 61.3833 225.713C61.3851 225.989 61.3566 226.265 61.2981 226.534C61.2522 226.76 61.154 226.973 61.0115 227.154C60.867 227.333 60.6769 227.469 60.4614 227.549L61.5151 231.253H60.136L59.2295 227.805H58.5941V231.253H57.2383ZM58.6174 226.945H59.0435C59.2613 226.954 59.4784 226.915 59.6788 226.829C59.8363 226.754 59.9585 226.62 60.0197 226.457C60.095 226.246 60.1291 226.022 60.1205 225.798C60.141 225.499 60.0679 225.201 59.9113 224.946C59.8119 224.844 59.6904 224.765 59.5561 224.717C59.4219 224.669 59.2783 224.652 59.1365 224.667H58.6329L58.6174 226.945Z" fill="white"/>
<path d="M62.4375 231.253V223.723H63.8088V227.039L65.2964 223.723H66.6058L65.1647 227.093L66.753 231.253H65.3894L64.1188 227.829L63.8088 228.402V231.253H62.4375Z" fill="white"/>
<path d="M67.3047 231.253V223.723H70.4658V224.691H68.676V226.884H70.0784V227.844H68.676V230.332H70.4813V231.277L67.3047 231.253Z" fill="white"/>
<path d="M72.0291 231.253V224.738H70.8359V223.723H74.5859V224.738H73.4082V231.253H72.0291Z" fill="white"/>
<path d="M77.174 231.361C76.7794 231.374 76.3887 231.28 76.0428 231.09C75.7339 230.915 75.4915 230.642 75.3533 230.315C75.1872 229.917 75.0978 229.491 75.0898 229.06L76.2753 228.828C76.2813 229.089 76.3151 229.348 76.376 229.602C76.4208 229.793 76.5142 229.969 76.6472 230.114C76.7101 230.176 76.7852 230.225 76.8679 230.257C76.9506 230.289 77.0389 230.303 77.1275 230.3C77.2169 230.308 77.307 230.295 77.3896 230.259C77.4722 230.224 77.5446 230.169 77.6001 230.098C77.6977 229.949 77.7465 229.773 77.7396 229.595C77.7548 229.306 77.676 229.021 77.5149 228.781C77.3463 228.548 77.1484 228.337 76.9261 228.154L75.9731 227.317C75.7186 227.097 75.5037 226.835 75.3378 226.542C75.1717 226.219 75.0891 225.859 75.0976 225.496C75.0823 225.242 75.1214 224.987 75.2122 224.75C75.3031 224.512 75.4436 224.296 75.6244 224.117C76.0157 223.777 76.5249 223.605 77.0423 223.637C77.345 223.626 77.6464 223.682 77.9255 223.799C78.1508 223.896 78.3461 224.051 78.4911 224.249C78.6327 224.448 78.7376 224.671 78.801 224.907C78.8706 225.16 78.9147 225.42 78.9327 225.682L77.7628 225.883C77.7528 225.67 77.7243 225.457 77.6776 225.248C77.6479 225.087 77.5757 224.938 77.4684 224.814C77.4074 224.76 77.3363 224.719 77.2592 224.692C77.182 224.665 77.1004 224.654 77.019 224.659C76.9306 224.653 76.842 224.667 76.76 224.701C76.678 224.734 76.6049 224.786 76.5464 224.853C76.4348 224.997 76.3772 225.175 76.3837 225.357C76.3767 225.576 76.4303 225.793 76.5387 225.984C76.6688 226.171 76.8225 226.34 76.9958 226.488L77.9333 227.317C78.2387 227.578 78.5003 227.887 78.7081 228.231C78.9366 228.615 79.0521 229.055 79.0412 229.502C79.0444 229.835 78.9617 230.163 78.801 230.455C78.6479 230.732 78.4196 230.96 78.1425 231.113C77.8452 231.275 77.5124 231.36 77.174 231.361Z" fill="white"/>
<path d="M39.1056 178.582H69.5078V215.415H39.1056V178.582Z" fill="#263238" stroke="#263238" stroke-linecap="round" stroke-linejoin="round"/>
<path d="M51.2618 178.582H81.6641V215.415H51.2618V178.582Z" fill="white" stroke="#263238" stroke-linecap="round" stroke-linejoin="round"/>
<path d="M39.1056 206.629H69.5078V215.415H39.1056V206.629Z" fill="white" stroke="#263238" stroke-linecap="round" stroke-linejoin="round"/>
<path d="M51.2618 206.629H81.6641V215.415H51.2618V206.629Z" fill="white" stroke="#263238" stroke-linecap="round" stroke-linejoin="round"/>
<path d="M62.0886 199.904H70.8203V215.415H62.0886V199.904Z" fill="#FF7800" stroke="#263238" stroke-linecap="round" stroke-linejoin="round"/>
<path d="M81.1488 194.132H87.7344L82.9695 178.582H76.3839L81.1488 194.132Z" fill="white" stroke="#263238" stroke-linecap="round" stroke-linejoin="round"/>
<path d="M87.7344 193.457H81.1488V196.463C81.1488 197.31 81.4851 198.122 82.0838 198.72C82.6824 199.319 83.4943 199.655 84.3409 199.655H84.5501C85.3967 199.655 86.2086 199.319 86.8072 198.72C87.4059 198.122 87.7422 197.31 87.7422 196.463V193.457H87.7344Z" fill="white" stroke="#263238" stroke-linecap="round" stroke-linejoin="round"/>
<path d="M74.7738 194.132H81.3594L76.5945 178.582H70.0089L74.7738 194.132Z" fill="#68E348" stroke="#263238" stroke-linecap="round" stroke-linejoin="round"/>
<path d="M81.3594 193.457H74.7738V196.463C74.7738 197.31 75.1101 198.122 75.7088 198.72C76.3074 199.319 77.1193 199.655 77.9659 199.655H78.1751C79.0217 199.655 79.8336 199.319 80.4322 198.72C81.0309 198.122 81.3672 197.31 81.3672 196.463V193.457H81.3594Z" fill="#68E348" stroke="#263238" stroke-linecap="round" stroke-linejoin="round"/>
<path d="M68.3988 194.132H74.9922L70.2273 178.582H63.634L68.3988 194.132Z" fill="white" stroke="#263238" stroke-linecap="round" stroke-linejoin="round"/>
<path d="M74.9922 193.457H68.4066V196.463C68.4066 197.31 68.7429 198.122 69.3415 198.72C69.9401 199.319 70.7521 199.655 71.5987 199.655H71.7846C72.2038 199.655 72.6189 199.573 73.0062 199.412C73.3934 199.252 73.7453 199.017 74.0417 198.72C74.3381 198.424 74.5733 198.072 74.7337 197.685C74.8941 197.297 74.9767 196.882 74.9767 196.463V193.457H74.9922Z" fill="white" stroke="#263238" stroke-linecap="round" stroke-linejoin="round"/>
<path d="M62.0277 194.132H68.6133L63.8484 178.582H57.2628L62.0277 194.132Z" fill="#68E348" stroke="#263238" stroke-linecap="round" stroke-linejoin="round"/>
<path d="M68.6133 193.457H62.0277V196.463C62.0277 197.31 62.364 198.122 62.9627 198.72C63.5613 199.319 64.3732 199.655 65.2198 199.655H65.429C66.2756 199.655 67.0875 199.319 67.6862 198.72C68.2848 198.122 68.6211 197.31 68.6211 196.463V193.457H68.6133Z" fill="#68E348" stroke="#263238" stroke-linecap="round" stroke-linejoin="round"/>
<path d="M55.6527 194.132H62.2383L57.4812 178.582H50.8878L55.6527 194.132Z" fill="white" stroke="#263238" stroke-linecap="round" stroke-linejoin="round"/>
<path d="M62.2383 193.457H55.6527V196.463C55.6527 196.882 55.7353 197.297 55.8957 197.685C56.0561 198.072 56.2913 198.424 56.5877 198.72C56.8841 199.017 57.236 199.252 57.6233 199.412C58.0106 199.573 58.4256 199.655 58.8448 199.655H59.054C59.9006 199.655 60.7125 199.319 61.3112 198.72C61.9098 198.122 62.2461 197.31 62.2461 196.463V193.457H62.2383Z" fill="white" stroke="#263238" stroke-linecap="round" stroke-linejoin="round"/>
<path d="M90.1445 181.154L72.5726 165.628L57.6272 171.485L39.7608 159.182" stroke="#68E348" stroke-linecap="round" stroke-linejoin="round"/>
<path d="M39.7622 160.645C38.9535 160.645 38.2979 159.99 38.2979 159.181C38.2979 158.372 38.9535 157.717 39.7622 157.717C40.571 157.717 41.2266 158.372 41.2266 159.181C41.2266 159.99 40.571 160.645 39.7622 160.645Z" fill="#FF7800" stroke="#FF7800" stroke-linecap="round" stroke-linejoin="round"/>
<path d="M57.3403 172.948C56.5316 172.948 55.876 172.293 55.876 171.484C55.876 170.675 56.5316 170.02 57.3403 170.02C58.1491 170.02 58.8047 170.675 58.8047 171.484C58.8047 172.293 58.1491 172.948 57.3403 172.948Z" fill="#FF7800" stroke="#FF7800" stroke-linecap="round" stroke-linejoin="round"/>
<path d="M72.5747 167.091C71.766 167.091 71.1104 166.435 71.1104 165.626C71.1104 164.818 71.766 164.162 72.5747 164.162C73.3834 164.162 74.0391 164.818 74.0391 165.626C74.0391 166.435 73.3834 167.091 72.5747 167.091Z" fill="#FF7800" stroke="#FF7800" stroke-linecap="round" stroke-linejoin="round"/>
<path d="M90.1451 182.618C89.3363 182.618 88.6807 181.963 88.6807 181.154C88.6807 180.345 89.3363 179.689 90.1451 179.689C90.9538 179.689 91.6094 180.345 91.6094 181.154C91.6094 181.963 90.9538 182.618 90.1451 182.618Z" fill="#FF7800" stroke="#FF7800" stroke-linecap="round" stroke-linejoin="round"/>
<path d="M34.0299 142.315C33.5732 142.34 33.1196 142.227 32.7282 141.99C32.4199 141.775 32.1911 141.465 32.0774 141.107C31.9467 140.685 31.8839 140.246 31.8915 139.805V137.124C31.8825 136.671 31.9452 136.218 32.0774 135.784C32.1848 135.425 32.4152 135.115 32.7282 134.909C33.1242 134.684 33.5754 134.577 34.0299 134.599C34.4549 134.578 34.8777 134.671 35.254 134.87C35.5492 135.045 35.7718 135.32 35.8816 135.645C36.0117 136.013 36.0747 136.401 36.0675 136.791V137.427H34.7427V136.776C34.7553 136.582 34.7553 136.388 34.7427 136.195C34.7306 136.042 34.6679 135.897 34.5645 135.784C34.4964 135.726 34.4174 135.683 34.3323 135.656C34.2471 135.63 34.1574 135.62 34.0686 135.629C33.881 135.613 33.6946 135.672 33.5495 135.792C33.4355 135.91 33.3622 136.062 33.3403 136.226C33.308 136.431 33.2924 136.638 33.2938 136.845V140.107C33.2889 140.334 33.3124 140.56 33.3635 140.781C33.3943 140.935 33.4762 141.075 33.596 141.176C33.7325 141.276 33.8996 141.326 34.0686 141.316C34.1569 141.325 34.2461 141.316 34.3303 141.288C34.4145 141.26 34.4917 141.214 34.5567 141.153C34.657 141.029 34.719 140.878 34.7349 140.719C34.7648 140.519 34.7777 140.317 34.7736 140.115V139.433H36.0985V140.038C36.1046 140.44 36.0444 140.84 35.9203 141.223C35.8042 141.542 35.5864 141.814 35.3005 141.998C34.9181 142.228 34.4756 142.339 34.0299 142.315Z" fill="white"/>
<path d="M39.0884 142.315C38.6346 142.341 38.1829 142.236 37.7868 142.013C37.4738 141.808 37.2454 141.497 37.1437 141.137C37.0178 140.697 36.9577 140.24 36.9655 139.782V134.684H38.3059V139.937C38.3048 140.16 38.3204 140.382 38.3523 140.603C38.3728 140.789 38.4484 140.964 38.5693 141.106C38.6378 141.172 38.7195 141.223 38.809 141.255C38.8984 141.287 38.9936 141.3 39.0884 141.292C39.1833 141.301 39.2789 141.289 39.3686 141.257C39.4583 141.225 39.5399 141.174 39.6075 141.106C39.7254 140.962 39.8005 140.788 39.8244 140.603C39.8592 140.382 39.8773 140.16 39.8787 139.937V134.684H41.219V139.782C41.2308 140.24 41.1706 140.698 41.0408 141.137C40.9411 141.496 40.7156 141.807 40.4055 142.013C40.0061 142.242 39.5477 142.347 39.0884 142.315Z" fill="white"/>
<path d="M44.1779 142.315C43.7841 142.331 43.3934 142.24 43.0467 142.052C42.741 141.873 42.4996 141.602 42.3572 141.277C42.1911 140.879 42.1017 140.453 42.0938 140.022L43.2792 139.79C43.2837 140.051 43.3201 140.312 43.3876 140.564C43.4285 140.755 43.5195 140.932 43.6511 141.076C43.7143 141.138 43.7894 141.186 43.872 141.218C43.9546 141.25 44.0429 141.265 44.1314 141.262C44.2208 141.271 44.3109 141.257 44.3935 141.222C44.4761 141.186 44.5485 141.131 44.604 141.06C44.7027 140.909 44.7515 140.73 44.7435 140.549C44.7503 140.275 44.6747 140.005 44.5265 139.774C44.3511 139.542 44.1511 139.329 43.93 139.139L42.977 138.302C42.721 138.084 42.5059 137.821 42.3417 137.527C42.1764 137.204 42.0964 136.844 42.1092 136.481C42.0925 136.229 42.1302 135.976 42.2198 135.739C42.3093 135.503 42.4487 135.288 42.6283 135.11C43.0197 134.77 43.5281 134.594 44.0462 134.622C44.3489 134.612 44.6503 134.667 44.9294 134.785C45.1553 134.884 45.3505 135.042 45.495 135.242C45.6365 135.438 45.7414 135.659 45.8049 135.893C45.877 136.145 45.9211 136.405 45.9366 136.667L44.7667 136.877C44.7557 136.663 44.7298 136.451 44.6893 136.241C44.6573 136.08 44.5824 135.93 44.4723 135.807C44.413 135.75 44.3423 135.706 44.2649 135.678C44.1875 135.65 44.1051 135.639 44.0229 135.645C43.9339 135.639 43.8448 135.655 43.7628 135.689C43.6808 135.724 43.608 135.778 43.5503 135.846C43.4404 135.988 43.3829 136.163 43.3876 136.342C43.3781 136.563 43.4347 136.781 43.5503 136.97C43.6749 137.161 43.8262 137.333 43.9997 137.481L44.9449 138.31C45.2507 138.571 45.5123 138.88 45.7197 139.224C45.9506 139.607 46.0663 140.048 46.0528 140.495C46.0601 140.828 45.9771 141.157 45.8127 141.448C45.6573 141.723 45.4295 141.951 45.1541 142.106C44.8514 142.257 44.5157 142.329 44.1779 142.315Z" fill="white"/>
<path d="M47.6267 142.214V135.699H46.4336V134.684H50.1835V135.699H49.0058V142.214H47.6267Z" fill="white"/>
<path d="M52.8812 142.315C52.4382 142.34 51.9973 142.238 51.6105 142.021C51.294 141.821 51.0538 141.521 50.9287 141.169C50.7871 140.742 50.719 140.294 50.7273 139.844V137.008C50.7187 136.563 50.7869 136.12 50.9287 135.699C51.05 135.35 51.2918 135.056 51.6105 134.87C51.9992 134.657 52.4387 134.555 52.8812 134.575C53.3313 134.553 53.7788 134.655 54.175 134.87C54.4879 135.061 54.7258 135.353 54.8491 135.699C54.998 136.119 55.0689 136.562 55.0583 137.008V139.828C55.0677 140.274 54.9969 140.717 54.8491 141.138C54.7244 141.488 54.4875 141.788 54.175 141.99C53.7835 142.219 53.3346 142.332 52.8812 142.315ZM52.8812 141.308C53.0516 141.33 53.2239 141.284 53.3603 141.179C53.4968 141.075 53.5863 140.92 53.6094 140.75C53.6481 140.562 53.6663 140.369 53.6637 140.177V136.714C53.6671 136.524 53.6489 136.334 53.6094 136.148C53.5823 135.996 53.5061 135.857 53.3925 135.753C53.2448 135.645 53.0636 135.593 52.8812 135.606C52.7057 135.591 52.5314 135.644 52.3931 135.753C52.2747 135.855 52.1953 135.994 52.1684 136.148C52.1289 136.334 52.1107 136.524 52.1141 136.714V140.177C52.113 140.369 52.1285 140.561 52.1606 140.75C52.187 140.906 52.2664 141.049 52.3853 141.153C52.5256 141.265 52.7023 141.32 52.8812 141.308Z" fill="white"/>
<path d="M56.0586 142.214L56.1826 134.684H57.6081L58.6773 139.898L59.8163 134.684H61.1954L61.3348 142.214H60.3121L60.1959 136.985L59.1267 142.214H58.2667L57.182 136.961L57.0813 142.214H56.0586Z" fill="white"/>
<path d="M62.3633 142.214V134.684H65.5244V135.652H63.7424V137.821H65.1447V138.774H63.7424V141.269H65.5476V142.214H62.3633Z" fill="white"/>
<path d="M66.3477 142.214V134.683H68.1529C68.589 134.672 69.0238 134.735 69.439 134.869C69.7607 134.976 70.0347 135.193 70.2138 135.481C70.4175 135.844 70.5142 136.258 70.4927 136.674C70.4941 136.95 70.4655 137.225 70.4075 137.495C70.3581 137.718 70.2602 137.927 70.1208 138.107C69.9763 138.286 69.7863 138.423 69.5707 138.502L70.6167 142.214H69.2686L68.3388 138.766H67.7113V142.214H66.3477ZM67.7268 137.898H68.1529C68.3707 137.907 68.5878 137.868 68.7882 137.782C68.9443 137.705 69.0659 137.572 69.1291 137.41C69.2037 137.201 69.2379 136.981 69.2298 136.759C69.2514 136.46 69.1783 136.162 69.0206 135.907C68.9216 135.804 68.8004 135.724 68.6662 135.675C68.532 135.625 68.3883 135.606 68.2459 135.62H67.75L67.7268 137.898Z" fill="white"/>
<path d="M73.4433 142.316C73.0469 142.331 72.6536 142.24 72.3044 142.052C71.9986 141.873 71.7573 141.602 71.6148 141.277C71.4479 140.88 71.361 140.453 71.3591 140.022L72.5368 139.79C72.5452 140.051 72.5815 140.311 72.6453 140.565C72.6887 140.756 72.7823 140.933 72.9164 141.076C72.9788 141.139 73.0539 141.188 73.1367 141.22C73.2195 141.253 73.3081 141.267 73.3968 141.262C73.486 141.269 73.5757 141.255 73.6581 141.22C73.7404 141.185 73.813 141.13 73.8694 141.06C73.9681 140.909 74.0169 140.73 74.0089 140.549C74.0134 140.274 73.9351 140.004 73.7842 139.774C73.611 139.54 73.4107 139.327 73.1876 139.139L72.2114 138.271C71.9512 138.057 71.7353 137.794 71.5761 137.497C71.4043 137.175 71.3214 136.814 71.3359 136.451C71.3192 136.198 71.3569 135.945 71.4464 135.708C71.536 135.472 71.6753 135.257 71.855 135.079C72.2483 134.737 72.7599 134.562 73.2806 134.591C73.5832 134.582 73.8842 134.638 74.1638 134.754C74.3862 134.855 74.5785 135.013 74.7217 135.211C74.8656 135.407 74.9731 135.628 75.0393 135.862C75.1051 136.115 75.1466 136.375 75.1633 136.637L73.9934 136.846C73.9823 136.632 73.9565 136.42 73.9159 136.21C73.8919 136.046 73.8159 135.894 73.699 135.776C73.6399 135.719 73.5693 135.675 73.4918 135.647C73.4143 135.619 73.3317 135.608 73.2496 135.614C73.1617 135.608 73.0738 135.624 72.993 135.659C72.9122 135.694 72.8408 135.747 72.7847 135.815C72.6748 135.957 72.6173 136.132 72.622 136.311C72.6101 136.531 72.6641 136.75 72.777 136.939C72.9045 137.13 73.0584 137.302 73.2341 137.45L74.1716 138.279C74.475 138.542 74.7363 138.851 74.9464 139.193C75.1726 139.578 75.2854 140.018 75.2718 140.464C75.2777 140.796 75.1976 141.125 75.0393 141.417C74.8812 141.693 74.6508 141.921 74.373 142.075C74.0871 142.23 73.7681 142.312 73.4433 142.316Z" fill="white"/>
<path d="M46.1686 88.4902H64.4766V106.333H46.1686V88.4902Z" fill="#263238" stroke="#263238" stroke-linecap="round" stroke-linejoin="round"/>
<path d="M35.7253 126.578C35.8272 121.458 37.9327 116.582 41.5896 112.997C45.2466 109.412 50.1635 107.404 55.2845 107.404C60.4056 107.404 65.3224 109.412 68.9794 112.997C72.6364 116.582 74.7418 121.458 74.8438 126.578H35.7253Z" fill="#FF7800" stroke="#263238" stroke-linecap="round" stroke-linejoin="round"/>
<path d="M48.9741 108.132L54.8391 110.03L61.3008 108.132V100.26H48.9741V108.132Z" fill="white" stroke="#263238" stroke-linecap="round" stroke-linejoin="round"/>
<path d="M45.799 90.366C45.799 90.6759 45.799 90.9626 45.799 91.257C46.0314 101.027 50.1687 104.994 55.2822 104.994C60.3958 104.994 64.5795 101.755 64.75 91.226C64.75 90.9548 64.75 90.6604 64.75 90.366C64.75 84.346 60.4965 79.4727 55.2745 79.4727C50.0525 79.4727 45.799 84.3228 45.799 90.366Z" fill="white" stroke="#263238" stroke-linecap="round" stroke-linejoin="round"/>
<path d="M45.799 90.366C45.799 90.6759 45.799 90.9626 45.799 91.257C48.1147 90.5967 50.1839 89.2673 51.7469 87.4354C53.31 85.6036 54.2973 83.351 54.5849 80.9602C54.5849 80.9602 58.0559 89.6377 64.75 91.226C64.75 90.9548 64.75 90.6604 64.75 90.366C64.75 84.346 60.4965 79.4727 55.2745 79.4727C50.0525 79.4727 45.799 84.3228 45.799 90.366Z" fill="#263238" stroke="#263238" stroke-linecap="round" stroke-linejoin="round"/>
<path d="M96.2109 71.9962V64.4653H97.9852C98.478 64.44 98.9703 64.5247 99.4263 64.7133C99.7587 64.872 100.021 65.1479 100.162 65.488C100.322 65.9082 100.396 66.356 100.379 66.8052V69.5556C100.394 70.0198 100.321 70.4826 100.162 70.9192C100.023 71.2584 99.7639 71.5343 99.434 71.694C99.0002 71.8944 98.5245 71.9875 98.0472 71.9652L96.2109 71.9962ZM97.59 71.0354H98.0084C98.2485 71.0577 98.4889 70.9976 98.6902 70.865C98.8295 70.7379 98.9177 70.5643 98.9381 70.3769C98.9718 70.12 98.9874 69.8611 98.9847 69.6021V66.7199C98.9935 66.4598 98.97 66.1995 98.9149 65.9451C98.8844 65.779 98.7898 65.6315 98.6515 65.5345C98.444 65.4358 98.2143 65.393 97.9852 65.4106H97.59V71.0354Z" fill="white"/>
<path d="M101.434 71.9957V64.4648H102.789V71.9957H101.434Z" fill="white"/>
<path d="M105.85 72.0965C105.454 72.1072 105.062 72.0165 104.711 71.8331C104.406 71.6528 104.165 71.382 104.021 71.0583C103.854 70.6608 103.767 70.2343 103.766 69.8032L104.943 69.5708C104.952 69.8322 104.988 70.0919 105.052 70.3455C105.095 70.5393 105.189 70.7182 105.323 70.8646C105.386 70.9243 105.46 70.9709 105.541 71.0015C105.622 71.0321 105.709 71.0461 105.796 71.0428C105.886 71.0516 105.977 71.0377 106.061 71.0026C106.145 70.9674 106.219 70.912 106.276 70.8414C106.373 70.6921 106.422 70.5161 106.415 70.3378C106.418 70.0631 106.34 69.7937 106.191 69.563C106.019 69.3294 105.819 69.1186 105.594 68.9354L104.664 68.0522C104.408 67.8343 104.192 67.5718 104.029 67.2774C103.859 66.9556 103.777 66.5951 103.789 66.2315C103.773 65.9779 103.81 65.7238 103.9 65.486C103.989 65.2482 104.129 65.0322 104.308 64.8524C104.705 64.5163 105.214 64.3444 105.734 64.372C106.036 64.3631 106.337 64.4186 106.617 64.5347C106.839 64.6334 107.031 64.7883 107.175 64.9841C107.319 65.1818 107.424 65.4053 107.485 65.6426C107.557 65.8952 107.601 66.1551 107.616 66.4174L106.446 66.6189C106.435 66.4082 106.409 66.1985 106.369 65.9913C106.342 65.826 106.266 65.6723 106.152 65.5497C106.091 65.4948 106.02 65.4528 105.943 65.4262C105.866 65.3995 105.784 65.3888 105.703 65.3947C105.613 65.3886 105.524 65.4037 105.442 65.4387C105.36 65.4737 105.287 65.5277 105.23 65.5962C105.12 65.7377 105.063 65.9129 105.067 66.092C105.058 66.3128 105.114 66.5313 105.23 66.7196C105.356 66.9099 105.51 67.0798 105.687 67.2232L106.625 68.0522C106.926 68.3174 107.187 68.6254 107.399 68.9664C107.626 69.3508 107.738 69.7913 107.725 70.2371C107.731 70.5719 107.651 70.9027 107.492 71.1978C107.336 71.4732 107.105 71.6987 106.826 71.8486C106.528 72.0162 106.191 72.1018 105.85 72.0965Z" fill="white"/>
<path d="M109.314 71.9957V65.472H108.113V64.4648H111.871V65.472H110.686V71.9957H109.314Z" fill="white"/>
<path d="M112.543 71.9973V64.4665H114.34C114.779 64.4537 115.216 64.514 115.634 64.6447C115.956 64.7571 116.229 64.9758 116.409 65.2645C116.606 65.6274 116.7 66.0374 116.68 66.45C116.682 66.726 116.654 67.0015 116.595 67.2712C116.549 67.4959 116.454 67.7076 116.316 67.891C116.169 68.0701 115.976 68.2065 115.758 68.2862L116.812 71.9973H115.433L114.526 68.5418H113.891V71.9973H112.543ZM113.914 67.6818H114.34C114.558 67.6919 114.776 67.6522 114.976 67.5656C115.055 67.5298 115.126 67.4784 115.184 67.4145C115.243 67.3506 115.288 67.2755 115.317 67.1937C115.392 66.9826 115.426 66.7591 115.417 66.5352C115.436 66.2374 115.366 65.9407 115.216 65.6829C115.115 65.5824 114.994 65.5052 114.86 65.457C114.726 65.4088 114.583 65.3907 114.441 65.404H113.938L113.914 67.6818Z" fill="white"/>
<path d="M117.773 71.9957V64.4648H119.129V71.9957H117.773Z" fill="white"/>
<path d="M120.293 71.9959V64.465H122.145C122.449 64.462 122.753 64.4932 123.051 64.558C123.303 64.61 123.541 64.7157 123.748 64.8679C123.949 65.0195 124.105 65.2232 124.198 65.4568C124.316 65.7547 124.372 66.0739 124.361 66.3942C124.365 66.6584 124.32 66.9211 124.229 67.169C124.158 67.3726 124.032 67.5525 123.865 67.6881C123.686 67.8192 123.479 67.9067 123.26 67.9438C123.542 67.9743 123.81 68.0815 124.035 68.2537C124.232 68.4182 124.382 68.6321 124.469 68.8735C124.572 69.1671 124.622 69.4767 124.616 69.7878C124.622 70.1109 124.575 70.4329 124.477 70.7407C124.401 71.0002 124.263 71.2371 124.074 71.4303C123.892 71.6218 123.666 71.7655 123.415 71.8487C123.118 71.9467 122.806 71.9938 122.493 71.9881L120.293 71.9959ZM121.672 67.5409H122.137C122.353 67.5538 122.569 67.5111 122.764 67.4169C122.839 67.379 122.906 67.3266 122.961 67.2628C123.015 67.199 123.056 67.1249 123.082 67.045C123.143 66.8415 123.172 66.6298 123.167 66.4175C123.178 66.2029 123.133 65.9892 123.036 65.7977C122.942 65.6482 122.795 65.5401 122.625 65.4955C122.402 65.4409 122.173 65.4149 121.943 65.418H121.711L121.672 67.5409ZM121.672 71.0274H122.191C122.346 71.0476 122.503 71.0307 122.65 70.9781C122.797 70.9256 122.929 70.8389 123.036 70.7252C123.206 70.4436 123.284 70.116 123.26 69.7878C123.267 69.538 123.231 69.2888 123.152 69.0517C123.092 68.8718 122.968 68.7202 122.803 68.6256C122.599 68.5248 122.372 68.4768 122.145 68.4861H121.711L121.672 71.0274Z" fill="white"/>
<path d="M127.538 72.0964C127.083 72.1229 126.63 72.0151 126.236 71.7865C125.923 71.5818 125.695 71.2709 125.593 70.911C125.466 70.4704 125.406 70.0134 125.415 69.5551V64.4648H126.755V69.7178C126.754 69.9382 126.77 70.1583 126.802 70.3764C126.824 70.5616 126.899 70.7365 127.019 70.88C127.161 71.0107 127.348 71.0831 127.542 71.0831C127.735 71.0831 127.922 71.0107 128.065 70.88C128.181 70.7356 128.254 70.5608 128.274 70.3764C128.312 70.159 128.331 69.9386 128.328 69.7178V64.4648H129.661V69.5551C129.669 70.0134 129.609 70.4704 129.482 70.911C129.383 71.2697 129.157 71.5804 128.847 71.7865C128.451 72.0166 127.995 72.1244 127.538 72.0964Z" fill="white"/>
<path d="M131.486 71.9957V65.472H130.285V64.4648H134.043V65.472H132.865V71.9957H131.486Z" fill="white"/>
<path d="M134.773 71.9957V64.4648H136.129V71.9957H134.773Z" fill="white"/>
<path d="M139.334 72.0971C138.888 72.1193 138.445 72.0145 138.056 71.795C137.74 71.597 137.502 71.296 137.382 70.9427C137.242 70.5104 137.182 70.0563 137.204 69.6024V66.7822C137.193 66.3366 137.264 65.8929 137.413 65.4728C137.538 65.1285 137.775 64.8364 138.087 64.6438C138.488 64.4552 138.926 64.3574 139.369 64.3574C139.812 64.3574 140.25 64.4552 140.651 64.6438C140.963 64.8382 141.203 65.1294 141.333 65.4728C141.482 65.8929 141.553 66.3366 141.542 66.7822V69.6024C141.552 70.0454 141.482 70.4865 141.333 70.904C141.206 71.2574 140.967 71.5595 140.651 71.764C140.255 72.0037 139.797 72.1198 139.334 72.0971ZM139.334 71.0822C139.418 71.0941 139.504 71.0891 139.586 71.0673C139.668 71.0455 139.745 71.0075 139.812 70.9555C139.88 70.9035 139.936 70.8386 139.977 70.7645C140.019 70.6904 140.045 70.6088 140.055 70.5244C140.096 70.3387 140.117 70.149 140.117 69.9588V66.5033C140.118 66.313 140.097 66.1233 140.055 65.9377C140.031 65.7845 139.954 65.6446 139.838 65.5425C139.689 65.4465 139.515 65.3954 139.338 65.3954C139.161 65.3954 138.987 65.4465 138.838 65.5425C138.722 65.6462 138.644 65.785 138.614 65.9377C138.578 66.1241 138.56 66.3135 138.56 66.5033V69.9743C138.557 70.1642 138.575 70.3539 138.614 70.5398C138.623 70.6243 138.65 70.7059 138.691 70.78C138.733 70.8541 138.789 70.919 138.856 70.971C138.923 71.023 139 71.061 139.082 71.0828C139.165 71.1046 139.25 71.1096 139.334 71.0977V71.0822Z" fill="white"/>
<path d="M142.52 71.9957V64.4648H143.48L145.309 68.7571V64.4648H146.448V71.9957H145.533L143.697 67.4942V71.9957H142.52Z" fill="white"/>
<path d="M131.578 60.6937C128.232 60.6937 125.519 57.9811 125.519 54.6349C125.519 51.2888 128.232 48.5762 131.578 48.5762C134.924 48.5762 137.637 51.2888 137.637 54.6349C137.637 57.9811 134.924 60.6937 131.578 60.6937Z" fill="#263238" stroke="#263238" stroke-linecap="round" stroke-linejoin="round"/>
<path d="M97.1835 60.6937C93.8373 60.6937 91.1247 57.9811 91.1247 54.6349C91.1247 51.2888 93.8373 48.5762 97.1835 48.5762C100.53 48.5762 103.242 51.2888 103.242 54.6349C103.242 57.9811 100.53 60.6937 97.1835 60.6937Z" fill="#263238" stroke="#263238" stroke-linecap="round" stroke-linejoin="round"/>
<path d="M135.306 54.4861H154.582V42.7715L147.779 35.2949H135.306V54.4861Z" fill="white" stroke="#263238" stroke-linecap="round" stroke-linejoin="round"/>
<path d="M139.699 38.0391H145.254V43.2766H139.699V38.0391Z" fill="#263238"/>
<path d="M146.516 38.0391H146.966L151.73 43.2766H146.516V38.0391Z" fill="#263238"/>
<path d="M152.071 51.6055H156.363V54.3792H152.071V51.6055Z" fill="white" stroke="#263238" stroke-linecap="round" stroke-linejoin="round"/>
<path d="M89.453 20.2109H130.586V54.4871H89.453V20.2109Z" fill="#263238" stroke="#263238" stroke-linecap="round" stroke-linejoin="round"/>
<path d="M96.7538 20.2109H137.887V54.4871H96.7538V20.2109Z" fill="white" stroke="#263238" stroke-linecap="round" stroke-linejoin="round"/>
<path d="M142.48 60.6937C139.134 60.6937 136.422 57.9811 136.422 54.6349C136.422 51.2888 139.134 48.5762 142.48 48.5762C145.826 48.5762 148.539 51.2888 148.539 54.6349C148.539 57.9811 145.826 60.6937 142.48 60.6937Z" fill="#263238" stroke="#263238" stroke-linecap="round" stroke-linejoin="round"/>
<path d="M140.01 54.6414C140.009 54.1522 140.152 53.6736 140.423 53.2662C140.693 52.8587 141.079 52.5407 141.53 52.3525C141.982 52.1642 142.479 52.1142 142.959 52.2087C143.439 52.3031 143.88 52.5379 144.226 52.8833C144.573 53.2286 144.809 53.669 144.905 54.1486C145.001 54.6283 144.953 55.1256 144.766 55.5777C144.579 56.0297 144.262 56.4162 143.855 56.6881C143.449 56.96 142.971 57.1052 142.482 57.1052C141.827 57.1052 141.2 56.8459 140.737 56.384C140.273 55.9222 140.012 55.2955 140.01 54.6414Z" fill="white" stroke="#263238" stroke-linecap="round" stroke-linejoin="round"/>
<path d="M108.09 60.6937C104.744 60.6937 102.031 57.9811 102.031 54.6349C102.031 51.2888 104.744 48.5762 108.09 48.5762C111.436 48.5762 114.148 51.2888 114.148 54.6349C114.148 57.9811 111.436 60.6937 108.09 60.6937Z" fill="#263238" stroke="#263238" stroke-linecap="round" stroke-linejoin="round"/>
<path d="M105.616 54.6414C105.614 54.1522 105.758 53.6736 106.028 53.2662C106.299 52.8587 106.684 52.5407 107.136 52.3525C107.587 52.1642 108.085 52.1142 108.564 52.2087C109.044 52.3031 109.486 52.5379 109.832 52.8833C110.178 53.2286 110.415 53.669 110.511 54.1486C110.607 54.6283 110.558 55.1256 110.371 55.5777C110.184 56.0297 109.868 56.4162 109.461 56.6881C109.054 56.96 108.576 57.1052 108.087 57.1052C107.433 57.1052 106.805 56.8459 106.342 56.384C105.879 55.9222 105.618 55.2955 105.616 54.6414Z" fill="white" stroke="#263238" stroke-linecap="round" stroke-linejoin="round"/>
<path d="M118.732 46.9632C112.417 46.9632 107.297 41.8433 107.297 35.5275C107.297 29.2117 112.417 24.0918 118.732 24.0918C125.048 24.0918 130.168 29.2117 130.168 35.5275C130.168 41.8433 125.048 46.9632 118.732 46.9632Z" fill="white" stroke="#68E348" stroke-linecap="round" stroke-linejoin="round"/>
<path d="M118.734 42.0127C115.152 42.0127 112.249 39.1094 112.249 35.5278C112.249 31.9463 115.152 29.043 118.734 29.043C122.315 29.043 125.219 31.9463 125.219 35.5278C125.219 39.1094 122.315 42.0127 118.734 42.0127Z" fill="#FF7800" stroke="#FF7800" stroke-linecap="round" stroke-linejoin="round"/>
<path d="M205.159 72.0961C204.704 72.1221 204.253 72.0085 203.865 71.7706C203.552 71.5553 203.32 71.2417 203.206 70.8797C203.076 70.4611 203.013 70.0242 203.02 69.5858V66.8973C203.012 66.4435 203.075 65.9912 203.206 65.5569C203.319 65.1983 203.552 64.8893 203.865 64.6814C204.256 64.4892 204.684 64.386 205.119 64.3793C205.555 64.3726 205.986 64.4625 206.383 64.6427C206.677 64.8186 206.899 65.0931 207.01 65.4175C207.141 65.7827 207.204 66.1686 207.196 66.5564V67.1917H205.879V66.5022C205.879 66.293 205.879 66.0993 205.879 65.9288C205.863 65.7747 205.801 65.6289 205.701 65.5105C205.563 65.3954 205.384 65.3397 205.205 65.3555C205.112 65.3469 205.018 65.3568 204.929 65.3848C204.84 65.4127 204.757 65.4581 204.686 65.5182C204.571 65.639 204.497 65.7939 204.477 65.9598C204.444 66.1647 204.428 66.3721 204.43 66.5796V69.8492C204.427 70.0754 204.448 70.3014 204.492 70.5233C204.526 70.6804 204.61 70.822 204.733 70.9261C204.872 71.0201 205.038 71.0663 205.205 71.0578C205.293 71.0658 205.382 71.0554 205.466 71.0274C205.55 70.9994 205.627 70.9544 205.693 70.8951C205.794 70.7709 205.856 70.6201 205.871 70.4613C205.897 70.2609 205.91 70.059 205.91 69.8569V69.1829H207.227V69.7872C207.236 70.1896 207.176 70.5905 207.049 70.9726C206.935 71.2907 206.72 71.5628 206.437 71.7474C206.055 71.9886 205.61 72.11 205.159 72.0961Z" fill="white"/>
<path d="M210.21 72.0973C209.763 72.1195 209.32 72.0147 208.931 71.7952C208.615 71.5972 208.377 71.2962 208.257 70.9429C208.109 70.5199 208.039 70.0738 208.048 69.6258V66.8056C208.037 66.3601 208.108 65.9163 208.257 65.4962C208.382 65.1519 208.62 64.8598 208.931 64.6672C209.332 64.4786 209.77 64.3809 210.213 64.3809C210.657 64.3809 211.095 64.4786 211.496 64.6672C211.807 64.8616 212.047 65.1528 212.177 65.4962C212.326 65.9163 212.397 66.3601 212.387 66.8056V69.6026C212.397 70.0455 212.326 70.4866 212.177 70.9042C212.05 71.2576 211.811 71.5597 211.496 71.7642C211.109 71.998 210.662 72.1138 210.21 72.0973ZM210.21 71.0824C210.294 71.0943 210.379 71.0892 210.461 71.0675C210.544 71.0457 210.621 71.0077 210.688 70.9557C210.755 70.9037 210.811 70.8388 210.853 70.7647C210.894 70.6906 210.921 70.609 210.93 70.5245C210.972 70.3389 210.992 70.1492 210.992 69.959V66.5035C210.993 66.3132 210.972 66.1235 210.93 65.9379C210.907 65.7847 210.83 65.6448 210.713 65.5427C210.564 65.4467 210.391 65.3955 210.213 65.3955C210.036 65.3955 209.863 65.4467 209.714 65.5427C209.598 65.6464 209.519 65.7852 209.489 65.9379C209.454 66.1243 209.435 66.3137 209.435 66.5035V69.9745C209.432 70.1644 209.45 70.3541 209.489 70.54C209.499 70.6245 209.525 70.7061 209.567 70.7802C209.608 70.8542 209.664 70.9192 209.731 70.9712C209.799 71.0232 209.876 71.0612 209.958 71.083C210.04 71.1047 210.125 71.1098 210.21 71.0979V71.0824Z" fill="white"/>
<path d="M213.379 71.9957L213.511 64.4648H214.928L216.005 69.6791L217.121 64.4648H218.5L218.64 71.9957H217.617L217.508 66.7582L216.439 71.9957H215.61L214.518 66.7427L214.417 71.9957H213.379Z" fill="white"/>
<path d="M219.695 71.9963V64.4655H221.903C222.288 64.4464 222.671 64.5321 223.011 64.7134C223.29 64.8848 223.507 65.1397 223.631 65.4417C223.774 65.8122 223.842 66.207 223.833 66.6039C223.85 67.0144 223.762 67.4225 223.577 67.7893C223.424 68.0783 223.179 68.3076 222.88 68.4401C222.543 68.5865 222.178 68.6579 221.81 68.6493H221.036V71.9963H219.695ZM221.067 67.6808H221.594C221.793 67.6892 221.992 67.6521 222.175 67.5724C222.243 67.5375 222.303 67.4894 222.352 67.4309C222.402 67.3723 222.439 67.3045 222.461 67.2315C222.521 67.0225 222.547 66.8055 222.539 66.5884C222.542 66.3673 222.522 66.1464 222.477 65.9298C222.463 65.8522 222.433 65.7784 222.389 65.713C222.345 65.6476 222.288 65.5922 222.221 65.5502C222.025 65.4579 221.81 65.4153 221.594 65.4262H221.067V67.6808Z" fill="white"/>
<path d="M224.527 71.9957V64.4648H227.688V65.4256H225.906V67.5949H227.309V68.5557H225.906V71.0427H227.712V71.9957H224.527Z" fill="white"/>
<path d="M229.287 71.9957V65.472H228.086V64.4648H231.844V65.472H230.666V71.9957H229.287Z" fill="white"/>
<path d="M232.57 71.9957V64.4648H233.926V71.9957H232.57Z" fill="white"/>
<path d="M235.842 71.9957V65.472H234.641V64.4648H238.398V65.472H237.221V71.9957H235.842Z" fill="white"/>
<path d="M241.092 72.096C240.648 72.1188 240.207 72.014 239.821 71.7939C239.503 71.5963 239.263 71.2954 239.14 70.9416C238.999 70.5171 238.93 70.0717 238.938 69.6245V66.8043C238.93 66.3595 238.998 65.9166 239.14 65.4949C239.268 65.15 239.508 64.8581 239.821 64.6659C240.221 64.4769 240.658 64.3789 241.1 64.3789C241.542 64.3789 241.979 64.4769 242.378 64.6659C242.692 64.8581 242.932 65.15 243.06 65.4949C243.209 65.915 243.28 66.3587 243.269 66.8043V69.6012C243.279 70.0442 243.208 70.4853 243.06 70.9029C242.935 71.2577 242.695 71.5605 242.378 71.7629C241.991 71.9967 241.544 72.1125 241.092 72.096ZM241.092 71.0811C241.275 71.0939 241.456 71.0418 241.603 70.9339C241.716 70.8224 241.792 70.6791 241.82 70.5232C241.859 70.3372 241.877 70.1476 241.875 69.9576V66.5021C241.878 66.3122 241.859 66.1225 241.82 65.9365C241.793 65.7846 241.717 65.6458 241.603 65.5414C241.456 65.4335 241.275 65.3814 241.092 65.3942C240.917 65.3868 240.745 65.4387 240.604 65.5414C240.486 65.6431 240.406 65.7828 240.379 65.9365C240.34 66.1225 240.322 66.3122 240.325 66.5021V69.9731C240.324 70.1627 240.339 70.3519 240.372 70.5387C240.4 70.6946 240.476 70.8379 240.588 70.9493C240.736 71.05 240.914 71.0966 241.092 71.0811Z" fill="white"/>
<path d="M244.285 71.9955V64.4647H246.09C246.526 64.4513 246.961 64.5116 247.377 64.6429C247.698 64.7553 247.971 64.974 248.151 65.2627C248.349 65.6256 248.442 66.0356 248.422 66.4481C248.427 66.7239 248.401 66.9993 248.345 67.2694C248.292 67.4933 248.195 67.7042 248.058 67.8892C247.914 68.068 247.724 68.2045 247.508 68.2844L248.554 71.9955H247.183L246.269 68.54H245.633V71.9955H244.285ZM245.657 67.68H246.09C246.308 67.6885 246.525 67.6489 246.726 67.5638C246.882 67.4868 247.003 67.3541 247.067 67.1919C247.138 66.9799 247.172 66.7571 247.167 66.5334C247.188 66.2344 247.115 65.9365 246.958 65.6811C246.858 65.5792 246.737 65.5012 246.603 65.4528C246.469 65.4045 246.325 65.3872 246.183 65.4022H245.68L245.657 67.68Z" fill="white"/>
<path d="M251.373 72.0965C250.98 72.1059 250.591 72.0152 250.242 71.8331C249.937 71.6528 249.696 71.382 249.553 71.0583C249.386 70.6608 249.299 70.2343 249.297 69.8032L250.475 69.5708C250.479 69.8325 250.516 70.0926 250.583 70.3455C250.623 70.5404 250.717 70.7202 250.854 70.8646C250.917 70.9243 250.991 70.9709 251.072 71.0015C251.154 71.0321 251.24 71.0461 251.327 71.0428C251.417 71.0516 251.508 71.0377 251.592 71.0026C251.676 70.9674 251.75 70.912 251.807 70.8414C251.905 70.6921 251.953 70.5161 251.947 70.3378C251.949 70.0631 251.871 69.7937 251.722 69.563C251.55 69.3294 251.35 69.1186 251.125 68.9354L250.172 68.0522C249.92 67.8301 249.705 67.5684 249.537 67.2774C249.374 66.9536 249.294 66.594 249.305 66.2315C249.288 65.9779 249.326 65.7238 249.416 65.486C249.505 65.2482 249.644 65.0322 249.824 64.8524C250.22 64.5163 250.73 64.3444 251.249 64.372C251.549 64.3623 251.848 64.4178 252.125 64.5347C252.35 64.6313 252.545 64.7864 252.69 64.9841C252.832 65.1835 252.937 65.4065 253 65.6426C253.073 65.8952 253.117 66.1551 253.132 66.4174L251.962 66.6189C251.951 66.4082 251.925 66.1985 251.885 65.9913C251.851 65.8281 251.776 65.6761 251.668 65.5497C251.607 65.4948 251.536 65.4528 251.459 65.4262C251.382 65.3995 251.3 65.3888 251.218 65.3947C251.129 65.3886 251.04 65.4037 250.958 65.4387C250.876 65.4737 250.803 65.5277 250.746 65.5962C250.636 65.7377 250.578 65.9129 250.583 66.092C250.573 66.3128 250.63 66.5313 250.746 66.7196C250.871 66.9099 251.026 67.0798 251.203 67.2232L252.14 68.0522C252.444 68.3149 252.706 68.6233 252.915 68.9664C253.146 69.3491 253.262 69.7903 253.248 70.2371C253.255 70.573 253.172 70.9047 253.008 71.1978C252.854 71.4726 252.626 71.6983 252.349 71.8486C252.052 72.0159 251.715 72.1014 251.373 72.0965Z" fill="white"/>
<path d="M212.375 50.8619C212.389 46.9082 213.969 43.121 216.768 40.3289C219.567 37.5368 223.359 35.967 227.312 35.963C229.768 35.9558 232.186 36.5631 234.347 37.7294C236.73 39.0074 238.723 40.9066 240.115 43.2254C241.506 45.5443 242.244 48.1964 242.25 50.9006L212.375 50.8619Z" fill="white" stroke="#263238" stroke-linecap="round" stroke-linejoin="round"/>
<path d="M227.351 35.9629C228.916 35.9761 230.47 36.2376 231.953 36.7377L231.86 36.9081L227.002 49.1883L222.532 36.7919C224.081 36.2509 225.71 35.9708 227.351 35.9629Z" fill="white" stroke="#263238" stroke-linecap="round" stroke-linejoin="round"/>
<path d="M227.125 37.7441L229.055 39.3324L227.807 40.696L228.83 42.4006L227.002 49.1411L225.421 42.7415L226.219 40.8123L225.08 39.3324L227.125 37.7441Z" fill="#68E348"/>
<path d="M222.532 36.7682L227.01 38.217L231.945 36.7682V30.7637H222.532V36.7682Z" fill="white" stroke="#263238" stroke-linecap="round" stroke-linejoin="round"/>
<path d="M220.121 23.2097C220.121 23.4421 220.121 23.6591 220.121 23.8838C220.299 31.3449 223.452 34.3742 227.35 34.3742C231.247 34.3742 234.431 31.895 234.586 23.8605C234.586 23.6513 234.586 23.4266 234.586 23.2097C234.586 18.6075 231.34 14.8809 227.342 14.8809C223.344 14.8809 220.121 18.6075 220.121 23.2097Z" fill="white" stroke="#263238" stroke-linecap="round" stroke-linejoin="round"/>
<path d="M220.121 23.2097C220.121 23.4421 220.121 23.6591 220.121 23.8838L220.175 24.1162H221.856V21.2418L224.452 18.3751H229.875L231.471 16.7713L230.983 18.9252L233.137 21.3193V23.9457H234.532L234.586 23.8605C234.586 23.6513 234.586 23.4266 234.586 23.2097C234.586 18.6075 231.34 14.8809 227.342 14.8809C223.344 14.8809 220.121 18.6075 220.121 23.2097Z" fill="#263238"/>
<path d="M231.07 59.6014C231.159 55.6996 232.771 51.9876 235.562 49.2595C238.353 46.5314 242.101 45.0039 246.004 45.0039C249.906 45.0039 253.654 46.5314 256.445 49.2595C259.236 51.9876 260.849 55.6996 260.938 59.6014H231.07Z" fill="white" stroke="#263238" stroke-linecap="round" stroke-linejoin="round"/>
<path d="M245.999 44.7092C247.565 44.7079 249.121 44.9537 250.609 45.4375L250.516 45.6079L245.651 57.8881L241.188 45.4917C242.737 44.9653 244.363 44.7008 245.999 44.7092Z" fill="white" stroke="#263238" stroke-linecap="round" stroke-linejoin="round"/>
<path d="M245.774 46.4922L247.703 48.0805L246.456 49.4441L247.478 51.1408L245.65 57.8892L244.069 51.4818L244.867 49.5526L243.736 48.0805L245.774 46.4922Z" fill="#FF7800"/>
<path d="M241.188 45.5162L245.666 46.9573L250.594 45.5162V39.5039H241.188V45.5162Z" fill="white" stroke="#263238" stroke-linecap="round" stroke-linejoin="round"/>
<path d="M238.761 31.95C238.761 32.1824 238.761 32.4071 238.761 32.6241C238.94 40.0929 242.101 43.1145 245.998 43.1145C249.895 43.1145 253.072 40.643 253.227 32.6008C253.227 32.3916 253.227 32.1747 253.227 31.95C253.227 27.3478 249.98 23.6289 245.982 23.6289C241.985 23.6289 238.761 27.3478 238.761 31.95Z" fill="white" stroke="#263238" stroke-linecap="round" stroke-linejoin="round"/>
<path d="M238.762 31.9483C238.762 32.1807 238.762 32.4054 238.762 32.6223L238.816 32.8547H240.497V29.9881L243.093 27.1136H248.516L250.12 25.5099L249.632 27.6637L251.824 30.0888V32.7153H253.18L253.234 32.6223C253.234 32.4131 253.234 32.1962 253.234 31.9715C253.234 27.3693 249.988 23.6504 245.99 23.6504C241.992 23.6504 238.762 27.3461 238.762 31.9483Z" fill="#263238"/>
<path d="M193.593 59.6014C193.682 55.6996 195.295 51.9876 198.086 49.2595C200.876 46.5314 204.624 45.0039 208.527 45.0039C212.43 45.0039 216.178 46.5314 218.969 49.2595C221.76 51.9876 223.372 55.6996 223.461 59.6014H193.593Z" fill="white" stroke="#263238" stroke-linecap="round" stroke-linejoin="round"/>
<path d="M208.499 44.7091C210.065 44.7072 211.621 44.953 213.109 45.4374L213.016 45.6079L208.151 57.8881L203.688 45.4916C205.238 44.9664 206.863 44.7019 208.499 44.7091Z" fill="white" stroke="#263238" stroke-linecap="round" stroke-linejoin="round"/>
<path d="M208.305 46.4922L210.234 48.0805L208.987 49.4441L210.002 51.1408L208.173 57.8892L206.601 51.4818L207.391 49.5526L206.26 48.0805L208.305 46.4922Z" fill="#FF7800"/>
<path d="M203.711 45.5162L208.19 46.9573L213.125 45.5162V39.5039H203.711V45.5162Z" fill="white" stroke="#263238" stroke-linecap="round" stroke-linejoin="round"/>
<path d="M201.285 31.95C201.285 32.1824 201.285 32.4071 201.285 32.6241C201.463 40.0929 204.624 43.1145 208.521 43.1145C212.418 43.1145 215.595 40.643 215.75 32.6008C215.75 32.3916 215.75 32.1747 215.75 31.95C215.75 27.3478 212.504 23.6289 208.506 23.6289C204.508 23.6289 201.285 27.3478 201.285 31.95Z" fill="white" stroke="#263238" stroke-linecap="round" stroke-linejoin="round"/>
<path d="M201.285 31.9483C201.285 32.1807 201.285 32.4054 201.285 32.6223L201.347 32.8547H203.02V29.9881L205.616 27.1136H211.039L212.643 25.5099L212.155 27.6637L214.348 30.0888V32.7153H215.704L215.758 32.6223C215.758 32.4131 215.758 32.1962 215.758 31.9715C215.758 27.3693 212.512 23.6504 208.514 23.6504C204.516 23.6504 201.285 27.3461 201.285 31.9483Z" fill="#263238"/>
<path d="M251.969 142.214V134.684H254.177C254.563 134.667 254.945 134.755 255.285 134.939C255.567 135.106 255.785 135.363 255.905 135.668C256.046 136.036 256.115 136.428 256.106 136.822C256.124 137.233 256.036 137.641 255.85 138.007C255.698 138.299 255.453 138.53 255.153 138.666C254.814 138.806 254.45 138.875 254.084 138.867H253.309V142.214H251.969ZM253.34 137.899H253.867C254.066 137.909 254.264 137.875 254.448 137.798C254.516 137.762 254.577 137.712 254.626 137.652C254.675 137.593 254.712 137.524 254.735 137.45C254.794 137.243 254.82 137.029 254.812 136.814C254.816 136.591 254.795 136.367 254.75 136.148C254.736 136.071 254.706 135.999 254.662 135.935C254.618 135.87 254.561 135.816 254.495 135.776C254.3 135.68 254.083 135.637 253.867 135.652H253.34V137.899Z" fill="white"/>
<path d="M256.828 142.214V134.683H258.633C259.069 134.672 259.504 134.735 259.919 134.869C260.241 134.978 260.514 135.194 260.694 135.481C260.89 135.847 260.983 136.259 260.965 136.674C260.967 136.95 260.938 137.225 260.88 137.495C260.833 137.717 260.738 137.926 260.601 138.107C260.454 138.286 260.261 138.423 260.043 138.502L261.097 142.214H259.749L258.843 138.766H258.207V142.214H256.828ZM258.207 137.898H258.633C258.851 137.908 259.068 137.869 259.269 137.782C259.426 137.707 259.548 137.573 259.61 137.41C259.684 137.201 259.718 136.981 259.71 136.759C259.732 136.46 259.659 136.162 259.501 135.907C259.402 135.803 259.281 135.723 259.147 135.674C259.013 135.624 258.869 135.606 258.726 135.62H258.223L258.207 137.898Z" fill="white"/>
<path d="M264.057 142.315C263.612 142.339 263.169 142.237 262.779 142.02C262.464 141.82 262.227 141.52 262.105 141.168C261.956 140.742 261.886 140.294 261.896 139.843V137.007C261.885 136.562 261.956 136.118 262.105 135.698C262.224 135.35 262.463 135.057 262.779 134.869C263.178 134.675 263.617 134.574 264.061 134.574C264.505 134.574 264.944 134.675 265.343 134.869C265.659 135.059 265.899 135.352 266.025 135.698C266.174 136.118 266.245 136.562 266.234 137.007V139.828C266.244 140.273 266.173 140.717 266.025 141.137C265.897 141.488 265.658 141.787 265.343 141.989C264.955 142.22 264.508 142.333 264.057 142.315ZM264.057 141.307C264.239 141.32 264.418 141.265 264.561 141.152C264.677 141.047 264.754 140.905 264.778 140.75C264.819 140.561 264.84 140.369 264.84 140.176V136.713C264.841 136.523 264.82 136.333 264.778 136.147C264.754 135.994 264.677 135.854 264.561 135.752C264.412 135.656 264.238 135.605 264.061 135.605C263.884 135.605 263.71 135.656 263.561 135.752C263.445 135.856 263.366 135.995 263.337 136.147C263.301 136.334 263.283 136.523 263.282 136.713V140.176C263.28 140.369 263.298 140.561 263.337 140.75C263.36 140.905 263.437 141.047 263.554 141.152C263.696 141.265 263.876 141.32 264.057 141.307Z" fill="white"/>
<path d="M267.242 142.214V134.683H269.024C269.515 134.66 270.005 134.747 270.458 134.939C270.807 135.087 271.085 135.365 271.232 135.714C271.391 136.137 271.465 136.587 271.449 137.039V139.789C271.464 140.253 271.39 140.716 271.232 141.153C271.089 141.489 270.831 141.763 270.504 141.928C270.069 142.125 269.594 142.215 269.117 142.191L267.242 142.214ZM268.621 141.261H269.04C269.279 141.28 269.519 141.22 269.721 141.091C269.861 140.964 269.949 140.79 269.969 140.603C270.003 140.346 270.018 140.087 270.016 139.828V136.946C270.02 136.699 269.999 136.452 269.954 136.21C269.92 136.043 269.823 135.896 269.683 135.799C269.479 135.698 269.251 135.653 269.024 135.667H268.621V141.261Z" fill="white"/>
<path d="M274.484 142.315C274.03 142.341 273.578 142.236 273.182 142.013C272.873 141.804 272.645 141.495 272.539 141.137C272.416 140.696 272.358 140.24 272.368 139.782V134.684H273.701V139.937C273.7 140.16 273.715 140.382 273.747 140.603C273.771 140.789 273.849 140.965 273.972 141.106C274.039 141.172 274.12 141.223 274.208 141.255C274.296 141.287 274.39 141.3 274.484 141.292C274.58 141.301 274.676 141.289 274.767 141.257C274.858 141.225 274.941 141.174 275.01 141.106C275.125 140.96 275.2 140.787 275.227 140.603C275.259 140.382 275.275 140.16 275.274 139.937V134.684H276.606V139.782C276.614 140.24 276.554 140.697 276.428 141.137C276.324 141.494 276.1 141.804 275.793 142.013C275.394 142.237 274.94 142.342 274.484 142.315Z" fill="white"/>
<path d="M279.713 142.314C279.257 142.339 278.803 142.226 278.412 141.988C278.103 141.774 277.875 141.463 277.761 141.105C277.63 140.684 277.568 140.244 277.575 139.803V137.123C277.566 136.669 277.629 136.217 277.761 135.782C277.868 135.423 278.099 135.113 278.412 134.907C278.807 134.682 279.259 134.574 279.713 134.597C280.136 134.575 280.557 134.669 280.93 134.868C281.225 135.043 281.448 135.318 281.557 135.643C281.688 136.011 281.75 136.399 281.743 136.79V137.425H280.426V136.774C280.439 136.581 280.439 136.386 280.426 136.193C280.409 136.042 280.347 135.899 280.248 135.782C280.18 135.725 280.101 135.681 280.016 135.655C279.931 135.628 279.841 135.619 279.752 135.627C279.659 135.619 279.565 135.629 279.476 135.657C279.387 135.685 279.305 135.73 279.233 135.79C279.119 135.909 279.046 136.061 279.024 136.224C278.992 136.429 278.976 136.636 278.977 136.844V140.106C278.973 140.332 278.996 140.559 279.047 140.78C279.075 140.935 279.157 141.075 279.28 141.175C279.416 141.275 279.583 141.324 279.752 141.314C279.84 141.322 279.929 141.312 280.013 141.284C280.097 141.256 280.175 141.211 280.24 141.152C280.341 141.027 280.403 140.877 280.418 140.718C280.432 140.516 280.432 140.315 280.418 140.113V139.432H281.736V140.036C281.744 140.438 281.686 140.838 281.565 141.221C281.446 141.539 281.229 141.81 280.945 141.996C280.574 142.218 280.146 142.328 279.713 142.314Z" fill="white"/>
<path d="M283.455 142.214V135.699H282.254V134.684H286.012V135.699H284.834V142.214H283.455Z" fill="white"/>
<path d="M288.592 142.314C288.196 142.329 287.803 142.238 287.453 142.05C287.149 141.871 286.911 141.6 286.771 141.276C286.601 140.879 286.512 140.452 286.508 140.021L287.685 139.788C287.698 140.049 287.734 140.309 287.794 140.563C287.837 140.754 287.931 140.931 288.065 141.074C288.128 141.137 288.203 141.185 288.286 141.217C288.369 141.249 288.457 141.264 288.545 141.26C288.635 141.269 288.725 141.255 288.808 141.22C288.89 141.185 288.963 141.129 289.018 141.059C289.117 140.907 289.166 140.728 289.158 140.547C289.162 140.272 289.084 140.003 288.933 139.773C288.76 139.538 288.559 139.325 288.336 139.137L287.391 138.301C287.133 138.084 286.918 137.821 286.756 137.526C286.584 137.205 286.501 136.844 286.516 136.48C286.501 136.228 286.539 135.975 286.629 135.739C286.718 135.503 286.857 135.288 287.035 135.109C287.428 134.766 287.94 134.591 288.46 134.62C288.763 134.61 289.064 134.666 289.343 134.783C289.568 134.884 289.763 135.042 289.909 135.24C290.051 135.437 290.156 135.657 290.219 135.891C290.287 136.145 290.331 136.404 290.351 136.666L289.173 136.875C289.166 136.661 289.14 136.449 289.096 136.24C289.069 136.078 288.997 135.927 288.886 135.806C288.825 135.749 288.753 135.705 288.675 135.677C288.596 135.649 288.513 135.638 288.429 135.643C288.342 135.639 288.254 135.655 288.173 135.69C288.093 135.725 288.021 135.778 287.964 135.845C287.854 135.986 287.797 136.161 287.802 136.34C287.794 136.56 287.847 136.777 287.957 136.968C288.084 137.159 288.238 137.331 288.414 137.479L289.367 138.285C289.67 138.548 289.931 138.857 290.142 139.199C290.368 139.584 290.481 140.024 290.467 140.47C290.473 140.802 290.393 141.131 290.234 141.423C290.077 141.697 289.85 141.924 289.576 142.081C289.273 142.24 288.934 142.32 288.592 142.314Z" fill="white"/>
<path d="M295.072 142.315C294.756 142.324 294.443 142.249 294.166 142.098C293.913 141.954 293.707 141.742 293.569 141.486C293.425 141.2 293.353 140.884 293.36 140.564C293.351 140.128 293.458 139.697 293.67 139.316C293.881 138.956 294.142 138.628 294.445 138.34L294.08 137.666C293.958 137.443 293.855 137.209 293.771 136.969C293.694 136.739 293.654 136.498 293.654 136.256C293.647 135.96 293.713 135.667 293.848 135.404C293.977 135.159 294.17 134.953 294.406 134.807C294.673 134.659 294.975 134.584 295.281 134.59C295.569 134.585 295.853 134.649 296.11 134.776C296.344 134.898 296.542 135.08 296.684 135.303C296.823 135.537 296.896 135.805 296.893 136.078C296.897 136.401 296.822 136.72 296.676 137.008C296.533 137.287 296.356 137.547 296.149 137.782C295.948 138.015 295.746 138.232 295.56 138.425L296.56 140.145C296.631 140.01 296.686 139.867 296.722 139.719C296.801 139.354 296.855 138.984 296.885 138.611H297.892C297.894 138.903 297.863 139.194 297.799 139.479C297.75 139.745 297.672 140.005 297.567 140.254C297.471 140.474 297.362 140.689 297.242 140.897C297.323 140.991 297.423 141.068 297.536 141.122C297.652 141.188 297.782 141.225 297.916 141.23V142.299H297.815H297.714C297.553 142.294 297.394 142.254 297.249 142.183C297.11 142.109 296.979 142.018 296.862 141.912C296.749 141.816 296.642 141.713 296.544 141.602C296.369 141.824 296.143 142.002 295.886 142.12C295.629 142.239 295.347 142.295 295.064 142.284L295.072 142.315ZM295.072 141.385C295.243 141.389 295.41 141.34 295.553 141.246C295.687 141.156 295.807 141.046 295.909 140.92L294.871 139.185C294.733 139.383 294.624 139.6 294.545 139.828C294.475 140.056 294.438 140.294 294.437 140.533C294.438 140.677 294.458 140.82 294.499 140.959C294.539 141.079 294.611 141.187 294.708 141.269C294.819 141.358 294.961 141.4 295.103 141.385H295.072ZM295.142 137.782C295.26 137.627 295.364 137.461 295.452 137.286C295.551 137.093 295.631 136.891 295.692 136.682C295.752 136.486 295.783 136.283 295.785 136.078C295.791 136.007 295.781 135.937 295.757 135.87C295.733 135.804 295.696 135.744 295.646 135.693C295.597 135.642 295.538 135.603 295.472 135.577C295.407 135.551 295.336 135.54 295.266 135.543C295.187 135.54 295.109 135.557 295.04 135.594C294.97 135.631 294.912 135.686 294.871 135.752C294.783 135.905 294.74 136.08 294.747 136.256C294.749 136.519 294.79 136.78 294.871 137.031C294.995 137.317 295.08 137.558 295.173 137.782H295.142Z" fill="white"/>
<path d="M303.096 142.314C302.699 142.33 302.306 142.239 301.957 142.05C301.651 141.871 301.41 141.6 301.267 141.276C301.1 140.878 301.014 140.452 301.012 140.021L302.189 139.788C302.198 140.05 302.234 140.309 302.298 140.563C302.341 140.754 302.435 140.931 302.569 141.074C302.631 141.137 302.706 141.187 302.789 141.219C302.872 141.251 302.961 141.265 303.049 141.26C303.139 141.268 303.228 141.253 303.311 141.218C303.393 141.183 303.466 141.128 303.522 141.059C303.621 140.907 303.669 140.728 303.661 140.547C303.666 140.272 303.588 140.003 303.437 139.773C303.264 139.538 303.063 139.325 302.84 139.137L301.895 138.301C301.635 138.086 301.419 137.823 301.26 137.526C301.088 137.205 301.005 136.844 301.019 136.48C301.003 136.227 301.04 135.974 301.13 135.738C301.22 135.501 301.359 135.287 301.539 135.109C301.932 134.766 302.443 134.591 302.964 134.62C303.267 134.611 303.568 134.667 303.847 134.783C304.07 134.885 304.262 135.042 304.405 135.24C304.549 135.436 304.657 135.657 304.723 135.891C304.789 136.145 304.83 136.404 304.847 136.666L303.677 136.875C303.67 136.661 303.644 136.449 303.599 136.24C303.575 136.076 303.499 135.923 303.383 135.806C303.323 135.748 303.253 135.704 303.175 135.676C303.098 135.648 303.015 135.637 302.933 135.643C302.845 135.639 302.758 135.655 302.677 135.69C302.597 135.725 302.525 135.778 302.468 135.845C302.358 135.986 302.301 136.161 302.306 136.34C302.294 136.56 302.348 136.779 302.461 136.968C302.588 137.159 302.742 137.331 302.918 137.479L303.855 138.308C304.159 138.572 304.42 138.88 304.63 139.223C304.856 139.607 304.969 140.047 304.955 140.493C304.961 140.826 304.881 141.154 304.723 141.446C304.565 141.722 304.334 141.95 304.057 142.105C303.759 142.253 303.429 142.325 303.096 142.314Z" fill="white"/>
<path d="M305.715 142.214V134.684H308.876V135.652H307.094V137.821H308.496V138.774H307.094V141.269H308.891V142.214H305.715Z" fill="white"/>
<path d="M309.699 142.214V134.683H311.497C311.935 134.672 312.373 134.735 312.791 134.869C313.111 134.978 313.385 135.194 313.565 135.481C313.761 135.847 313.854 136.259 313.837 136.674C313.842 136.95 313.813 137.226 313.751 137.495C313.704 137.717 313.609 137.926 313.472 138.107C313.327 138.288 313.133 138.425 312.915 138.502L313.968 142.214H312.612L311.706 138.766H311.063V142.214H309.699ZM311.071 137.898H311.497C311.717 137.908 311.937 137.868 312.14 137.782C312.295 137.706 312.415 137.573 312.473 137.41C312.551 137.202 312.587 136.981 312.581 136.759C312.603 136.46 312.53 136.162 312.372 135.907C312.273 135.804 312.152 135.725 312.017 135.675C311.883 135.626 311.74 135.607 311.597 135.62H311.063L311.071 137.898Z" fill="white"/>
<path d="M316.026 142.214L314.477 134.684H315.708L316.708 140.014L317.638 134.684H318.885L317.335 142.214H316.026Z" fill="white"/>
<path d="M319.707 142.214V134.684H321.063V142.214H319.707Z" fill="white"/>
<path d="M324.233 142.314C323.776 142.339 323.322 142.226 322.931 141.988C322.623 141.774 322.394 141.463 322.281 141.105C322.15 140.684 322.087 140.244 322.095 139.803V137.123C322.086 136.669 322.148 136.217 322.281 135.782C322.388 135.423 322.618 135.113 322.931 134.907C323.327 134.682 323.778 134.574 324.233 134.597C324.656 134.575 325.076 134.669 325.449 134.868C325.745 135.043 325.967 135.318 326.077 135.643C326.213 136.009 326.279 136.398 326.271 136.79V137.425H325.008V136.774C325.02 136.581 325.02 136.386 325.008 136.193C324.996 136.04 324.933 135.896 324.83 135.782C324.761 135.725 324.683 135.681 324.597 135.655C324.512 135.628 324.423 135.619 324.334 135.627C324.241 135.619 324.147 135.629 324.058 135.657C323.969 135.685 323.886 135.73 323.815 135.79C323.701 135.909 323.627 136.061 323.605 136.224C323.573 136.429 323.558 136.636 323.559 136.844V140.106C323.554 140.332 323.577 140.559 323.629 140.78C323.659 140.934 323.741 141.073 323.861 141.175C323.998 141.275 324.165 141.324 324.334 141.314C324.422 141.322 324.511 141.312 324.595 141.284C324.679 141.256 324.756 141.211 324.822 141.152C324.922 141.027 324.984 140.877 325 140.718C325.017 140.517 325.017 140.314 325 140.113V139.432H326.325V140.036C326.331 140.438 326.271 140.839 326.147 141.221C326.028 141.539 325.811 141.81 325.527 141.996C325.138 142.231 324.687 142.342 324.233 142.314Z" fill="white"/>
<path d="M327.246 142.214V134.684H330.43V135.652H328.648V137.821H330.051V138.774H328.648V141.269H330.43V142.214H327.246Z" fill="white"/>
<path d="M333.127 142.314C332.731 142.33 332.337 142.239 331.988 142.05C331.682 141.871 331.441 141.6 331.299 141.276C331.132 140.878 331.045 140.452 331.043 140.021L332.221 139.788C332.229 140.05 332.265 140.309 332.329 140.563C332.369 140.756 332.463 140.933 332.6 141.074C332.662 141.136 332.736 141.185 332.817 141.217C332.898 141.249 332.986 141.264 333.073 141.26C333.163 141.269 333.255 141.255 333.338 141.22C333.422 141.185 333.496 141.129 333.553 141.059C333.652 140.907 333.701 140.728 333.693 140.547C333.697 140.272 333.619 140.003 333.468 139.773C333.295 139.538 333.095 139.325 332.871 139.137L331.926 138.301C331.666 138.084 331.448 137.822 331.283 137.526C331.118 137.203 331.038 136.843 331.051 136.48C331.034 136.227 331.072 135.974 331.161 135.738C331.251 135.501 331.39 135.287 331.57 135.109C331.963 134.766 332.475 134.591 332.995 134.62C333.298 134.611 333.599 134.667 333.879 134.783C334.101 134.885 334.293 135.042 334.436 135.24C334.581 135.435 334.686 135.656 334.746 135.891C334.818 136.144 334.863 136.404 334.878 136.666L333.708 136.875C333.701 136.661 333.675 136.449 333.631 136.24C333.602 136.077 333.527 135.926 333.414 135.806C333.355 135.748 333.284 135.704 333.207 135.676C333.129 135.648 333.047 135.637 332.964 135.643C332.876 135.639 332.787 135.655 332.705 135.69C332.623 135.724 332.55 135.777 332.492 135.845C332.382 135.986 332.324 136.161 332.329 136.34C332.32 136.561 332.376 136.78 332.492 136.968C332.617 137.161 332.771 137.333 332.949 137.479L333.886 138.308C334.192 138.569 334.454 138.878 334.661 139.223C334.892 139.605 335.008 140.046 334.994 140.493C335.002 140.827 334.919 141.156 334.754 141.446C334.601 141.723 334.373 141.952 334.096 142.105C333.795 142.254 333.462 142.326 333.127 142.314Z" fill="white"/>
<path d="M321.738 104.731H308.59L301.958 93.8145H315.106L321.738 104.731Z" fill="white" stroke="#263238" stroke-linecap="round" stroke-linejoin="round"/>
<path d="M272.934 93.8145H315.082V127.626H272.934V93.8145Z" fill="white" stroke="#263238" stroke-linecap="round" stroke-linejoin="round"/>
<path d="M272.937 93.8145H285.945V127.626H272.937V93.8145Z" fill="#263238" stroke="#263238" stroke-linecap="round" stroke-linejoin="round"/>
<path d="M266.158 104.731H279.313L285.945 93.8145H272.79L266.158 104.731Z" fill="white" stroke="#263238" stroke-linecap="round" stroke-linejoin="round"/>
<path d="M289.495 104.731H317.883L314.931 93.8145H286.551L289.495 104.731Z" fill="white" stroke="#263238" stroke-linecap="round" stroke-linejoin="round"/>
<path d="M288.903 119.77H295.504V123.186H288.903V119.77Z" fill="#FF7800" stroke="#263238" stroke-linecap="round" stroke-linejoin="round"/>
<path d="M278.717 231.253V224.738H277.523V223.723H281.281V224.738H280.096V231.253H278.717Z" fill="white"/>
<path d="M281.969 231.253V223.723H285.13V224.691H283.363V226.884H284.766V227.844H283.363V230.332H285.145V231.277L281.969 231.253Z" fill="white"/>
<path d="M288.014 231.361C287.557 231.386 287.104 231.272 286.713 231.036C286.402 230.819 286.173 230.506 286.062 230.145C285.931 229.726 285.868 229.289 285.876 228.851V226.162C285.867 225.709 285.93 225.256 286.062 224.822C286.171 224.464 286.401 224.155 286.713 223.946C287.109 223.725 287.56 223.621 288.014 223.644C288.438 223.621 288.861 223.712 289.238 223.908C289.533 224.084 289.755 224.358 289.866 224.682C289.997 225.048 290.06 225.434 290.052 225.821V226.457H288.688V225.806C288.701 225.612 288.701 225.418 288.688 225.225C288.676 225.072 288.613 224.927 288.51 224.814C288.442 224.756 288.363 224.713 288.278 224.686C288.193 224.66 288.103 224.651 288.014 224.659C287.827 224.644 287.64 224.702 287.495 224.822C287.38 224.943 287.306 225.098 287.286 225.264C287.253 225.466 287.238 225.671 287.239 225.876V229.153C287.234 229.38 287.258 229.606 287.309 229.827C287.337 229.982 287.42 230.122 287.542 230.222C287.678 230.322 287.845 230.371 288.014 230.362C288.102 230.371 288.192 230.361 288.276 230.333C288.36 230.305 288.437 230.259 288.502 230.199C288.603 230.075 288.664 229.924 288.68 229.765C288.71 229.565 288.723 229.363 288.719 229.161V228.432H290.044V229.044C290.05 229.444 289.989 229.842 289.866 230.222C289.75 230.541 289.532 230.814 289.246 230.997C288.88 231.236 288.452 231.363 288.014 231.361Z" fill="white"/>
<path d="M290.988 231.253V223.723H292.352V226.884H293.901V223.73H295.281V231.261H293.886V227.86H292.336V231.261L290.988 231.253Z" fill="white"/>
<path d="M296.414 231.253V223.723H297.375L299.203 228.023V223.723H300.342V231.253H299.428L297.592 226.76V231.253H296.414Z" fill="white"/>
<path d="M303.51 231.361C303.066 231.384 302.625 231.279 302.239 231.059C301.921 230.862 301.681 230.561 301.558 230.207C301.416 229.78 301.348 229.332 301.356 228.882V226.108C301.348 225.664 301.416 225.221 301.558 224.799C301.683 224.453 301.924 224.16 302.239 223.97C302.629 223.761 303.068 223.662 303.51 223.683C303.959 223.659 304.407 223.758 304.804 223.97C305.115 224.163 305.353 224.455 305.478 224.799C305.627 225.219 305.698 225.663 305.687 226.108V228.936C305.697 229.379 305.626 229.82 305.478 230.238C305.354 230.591 305.117 230.893 304.804 231.098C304.406 231.306 303.958 231.397 303.51 231.361ZM303.51 230.346C303.693 230.359 303.874 230.307 304.021 230.199C304.134 230.088 304.21 229.944 304.238 229.789C304.275 229.597 304.291 229.402 304.285 229.207V225.736C304.288 225.546 304.27 225.357 304.231 225.171C304.203 225.019 304.127 224.88 304.014 224.776C303.866 224.668 303.685 224.616 303.502 224.629C303.327 224.614 303.152 224.667 303.014 224.776C302.896 224.877 302.816 225.017 302.79 225.171C302.75 225.357 302.732 225.546 302.735 225.736V229.207C302.734 229.397 302.75 229.586 302.782 229.773C302.813 229.93 302.891 230.073 303.006 230.184C303.147 230.301 303.328 230.359 303.51 230.346Z" fill="white"/>
<path d="M306.719 231.253V223.723H308.098V230.308H309.919V231.253H306.719Z" fill="white"/>
<path d="M312.584 231.362C312.141 231.385 311.7 231.28 311.314 231.06C310.995 230.862 310.755 230.561 310.632 230.208C310.49 229.781 310.422 229.333 310.43 228.883V226.109C310.422 225.664 310.49 225.221 310.632 224.8C310.757 224.453 310.998 224.16 311.314 223.971C311.713 223.782 312.15 223.684 312.592 223.684C313.034 223.684 313.471 223.782 313.87 223.971C314.186 224.16 314.427 224.453 314.552 224.8C314.701 225.22 314.772 225.663 314.761 226.109V228.937C314.771 229.38 314.701 229.821 314.552 230.239C314.428 230.593 314.187 230.896 313.87 231.099C313.476 231.308 313.029 231.4 312.584 231.362ZM312.584 230.347C312.767 230.36 312.948 230.308 313.096 230.2C313.208 230.088 313.284 229.945 313.313 229.789C313.351 229.603 313.369 229.414 313.367 229.224V225.753C313.37 225.563 313.352 225.373 313.313 225.187C313.285 225.035 313.209 224.896 313.096 224.792C312.948 224.684 312.767 224.632 312.584 224.645C312.409 224.63 312.234 224.683 312.096 224.792C311.978 224.894 311.898 225.033 311.871 225.187C311.832 225.373 311.814 225.563 311.817 225.753V229.208C311.816 229.398 311.832 229.587 311.864 229.774C311.892 229.93 311.968 230.073 312.081 230.184C312.224 230.296 312.403 230.354 312.584 230.347Z" fill="white"/>
<path d="M317.656 231.361C317.24 231.381 316.828 231.27 316.479 231.043C316.176 230.821 315.955 230.505 315.851 230.145C315.716 229.7 315.651 229.238 315.657 228.773V226.247C315.647 225.776 315.71 225.305 315.843 224.853C315.951 224.486 316.184 224.168 316.502 223.954C316.894 223.727 317.343 223.619 317.796 223.644C318.221 223.623 318.645 223.711 319.028 223.9C319.327 224.075 319.557 224.349 319.678 224.675C319.824 225.052 319.893 225.455 319.88 225.86V226.247H318.57V225.821C318.575 225.613 318.557 225.405 318.516 225.201C318.498 225.05 318.427 224.91 318.315 224.806C318.172 224.701 317.996 224.651 317.819 224.667C317.724 224.659 317.628 224.671 317.537 224.701C317.446 224.732 317.363 224.781 317.292 224.845C317.175 224.973 317.104 225.137 317.091 225.31C317.058 225.52 317.043 225.733 317.044 225.945V229.099C317.041 229.325 317.064 229.551 317.114 229.773C317.143 229.942 317.227 230.098 317.354 230.214C317.499 230.323 317.677 230.378 317.858 230.369C318.044 230.382 318.227 230.32 318.369 230.199C318.494 230.071 318.577 229.909 318.609 229.734C318.659 229.502 318.683 229.266 318.679 229.029V228.324H317.904V227.456H319.95V231.276H319.004L318.904 230.501C318.812 230.742 318.656 230.953 318.454 231.113C318.221 231.278 317.942 231.365 317.656 231.361Z" fill="white"/>
<path d="M321.004 231.253V223.723H322.368V231.253H321.004Z" fill="white"/>
<path d="M323.531 231.253V223.723H326.692V224.691H324.903V226.884H326.305V227.844H324.903V230.332H326.708V231.277L323.531 231.253Z" fill="white"/>
<path d="M329.401 231.361C329.004 231.374 328.61 231.28 328.262 231.09C327.957 230.912 327.717 230.64 327.58 230.315C327.41 229.918 327.32 229.492 327.316 229.06L328.494 228.828C328.506 229.089 328.543 229.348 328.603 229.602C328.647 229.793 328.741 229.969 328.874 230.114C328.937 230.176 329.012 230.225 329.094 230.257C329.177 230.289 329.266 230.303 329.354 230.3C329.443 230.308 329.534 230.295 329.616 230.259C329.699 230.224 329.771 230.169 329.827 230.098C329.924 229.949 329.973 229.773 329.966 229.595C329.978 229.307 329.899 229.022 329.741 228.781C329.57 228.547 329.369 228.337 329.145 228.153L328.2 227.317C327.945 227.097 327.73 226.835 327.564 226.542C327.395 226.22 327.312 225.86 327.324 225.496C327.309 225.243 327.348 224.989 327.437 224.751C327.527 224.514 327.665 224.298 327.843 224.117C328.238 223.777 328.749 223.605 329.269 223.637C329.572 223.626 329.873 223.682 330.152 223.799C330.376 223.898 330.571 224.052 330.718 224.249C330.859 224.448 330.964 224.671 331.028 224.907C331.097 225.16 331.141 225.42 331.159 225.682L329.982 225.883C329.974 225.67 329.948 225.457 329.904 225.248C329.874 225.087 329.802 224.937 329.695 224.814C329.569 224.705 329.405 224.65 329.238 224.659C329.151 224.653 329.063 224.668 328.983 224.701C328.902 224.735 328.83 224.787 328.773 224.853C328.661 224.996 328.604 225.175 328.61 225.357C328.603 225.576 328.657 225.793 328.765 225.984C328.893 226.173 329.047 226.342 329.222 226.488L330.16 227.317C330.463 227.58 330.725 227.888 330.935 228.231C331.161 228.615 331.274 229.056 331.26 229.502C331.266 229.834 331.186 230.162 331.028 230.455C330.872 230.73 330.644 230.958 330.369 231.113C330.072 231.275 329.739 231.36 329.401 231.361Z" fill="white"/>
<path d="M295.331 169.873H310.184V211.618H295.331V169.873Z" fill="white" stroke="#263238" stroke-linecap="round" stroke-linejoin="round"/>
<path d="M296.905 169.873H311.758V211.618H296.905V169.873Z" fill="#FF7800" stroke="#263238" stroke-linecap="round" stroke-linejoin="round"/>
<path d="M296.905 194.961H311.758V204.56H296.905V194.961Z" fill="#263238" stroke="#263238" stroke-linecap="round" stroke-linejoin="round"/>
<path d="M292.605 211.363H313.996V213.579H292.605V211.363Z" fill="white" stroke="#263238" stroke-linecap="round" stroke-linejoin="round"/>
<path d="M295.726 211.363H317.117V213.579H295.726V211.363Z" fill="white" stroke="#263238" stroke-linecap="round" stroke-linejoin="round"/>
<path d="M284.043 169.873H324.626C326.243 169.873 327.555 171.184 327.555 172.802V199.214C327.555 200.831 326.243 202.142 324.626 202.142H284.043C282.426 202.142 281.115 200.831 281.115 199.214V172.802C281.115 171.184 282.426 169.873 284.043 169.873Z" fill="#263238" stroke="#263238" stroke-linecap="round" stroke-linejoin="round"/>
<path d="M282.067 169.873H322.649C324.267 169.873 325.578 171.184 325.578 172.802V199.214C325.578 200.831 324.267 202.142 322.649 202.142H282.067C280.449 202.142 279.138 200.831 279.138 199.214V172.802C279.138 171.184 280.449 169.873 282.067 169.873Z" fill="#263238" stroke="#263238" stroke-linecap="round" stroke-linejoin="round"/>
<path d="M327.555 195.588V199.222C327.555 199.996 327.248 200.738 326.702 201.287C326.157 201.836 325.416 202.146 324.642 202.15H284.043C283.266 202.15 282.522 201.842 281.972 201.292C281.423 200.743 281.115 199.998 281.115 199.222V195.588H327.555Z" fill="white" stroke="#263238" stroke-linecap="round" stroke-linejoin="round"/>
<path d="M275.299 256.765C275.299 256.765 278.755 252.837 280.793 251.427C282.18 250.381 283.476 249.22 284.666 247.956C285.169 247.421 285.836 247.072 286.562 246.963C287.287 246.855 288.028 246.995 288.664 247.359C289.014 247.569 289.33 247.83 289.602 248.134C291.151 249.862 294.305 255.192 294.305 256.602C294.305 258.012 291.485 260.685 291.485 260.685C291.485 260.685 285.991 265.551 283.171 266.806C280.922 267.726 278.616 268.502 276.268 269.13C275.412 268.821 274.646 268.302 274.041 267.622C273.436 266.941 273.011 266.12 272.805 265.233C272.03 262.095 275.299 256.765 275.299 256.765Z" fill="#263238" stroke="#263238" stroke-linecap="round" stroke-linejoin="round"/>
<path d="M280.792 260.198C281.706 263.204 280.125 266.954 279.567 268.132C277.747 268.736 276.244 269.139 276.244 269.139C275.391 268.825 274.629 268.304 274.029 267.622C273.428 266.941 273.007 266.12 272.804 265.234C272.029 262.096 275.314 256.766 275.314 256.766C275.903 257.393 279.691 256.603 280.792 260.198Z" fill="white" stroke="#263238" stroke-linecap="round" stroke-linejoin="round"/>
<path d="M179.599 264.924C179.599 264.924 180.699 269.472 181.148 271.192C181.579 273.423 181.892 275.676 182.086 277.94C182.086 277.94 178.638 280.14 175.973 280.605C173.308 281.07 174.563 280.605 174.563 280.605L173.308 279.195C172.151 279.447 171.073 279.979 170.17 280.745C168.752 282 165.932 282.627 163.422 283.069C160.911 283.511 151.025 284.487 149.297 283.542C147.57 282.596 146.632 281.992 146.973 281.504C147.314 281.016 149.638 279.954 153.404 277.894C157.169 275.833 164.7 269.735 165.482 268.015L166.257 266.287C166.257 266.287 174.741 266.334 179.599 264.924Z" fill="#263238" stroke="#263238" stroke-linecap="round" stroke-linejoin="round"/>
<path d="M95.8285 195.713H156.656V246.484H95.8285V195.713Z" fill="#263238" stroke="#263238" stroke-linecap="round" stroke-linejoin="round"/>
<path d="M131.199 174.895L123.815 179.962C123.381 180.248 120.484 189.515 120.484 189.515C120.484 189.515 119.476 192.552 121.646 193.133C123.815 193.714 131.346 195.015 131.346 195.015C131.346 195.015 135.832 188.213 135.832 186.493C135.775 185.124 135.583 183.764 135.259 182.433L131.199 174.895Z" fill="white" stroke="#263238" stroke-linecap="round" stroke-linejoin="round"/>
<path d="M117.199 195.828H119.523V190.405C119.523 190.331 119.553 190.26 119.605 190.207C119.657 190.155 119.728 190.126 119.802 190.126H135.166C135.239 190.128 135.308 190.158 135.358 190.21C135.409 190.262 135.437 190.332 135.437 190.405V195.65H137.762V190.467C137.762 189.777 137.489 189.116 137.002 188.628C136.515 188.141 135.855 187.865 135.166 187.863H119.802C119.113 187.865 118.452 188.14 117.964 188.628C117.476 189.116 117.201 189.777 117.199 190.467V195.828Z" fill="#263238"/>
<path d="M150.892 156.648L134.528 170.835L140.463 181.55L161.312 168.084L150.892 156.648Z" fill="#68E348" stroke="#263238" stroke-linecap="round" stroke-linejoin="round"/>
<path d="M150.954 158.887L152.992 173.205L159.523 169.803L150.954 158.887Z" fill="#263238" stroke="#263238" stroke-linecap="round" stroke-linejoin="round"/>
<path d="M134.532 170.834L130.186 175.033L135.26 182.417L139.312 179.38L134.532 170.834Z" fill="white" stroke="#263238" stroke-linecap="round" stroke-linejoin="round"/>
<path d="M240.317 212.991C240.317 212.991 236.707 248.445 235.77 252.055C234.832 255.665 234.514 257.703 234.514 257.703C234.514 257.703 237.025 257.231 237.025 258.021V258.796L275.299 256.758C275.299 256.758 277.809 259.082 277.623 262.243C277.416 264.59 276.943 266.906 276.213 269.147C276.213 269.147 263.189 272.439 246.562 275.112C229.935 277.785 228.673 278.56 227.108 278.56C225.542 278.56 219.104 278.878 216.594 275.74C214.084 272.602 211.891 270.874 211.263 265.668C210.636 260.461 202.632 208.559 202.632 208.559L168.279 210.287L180.512 265.978C180.512 265.978 176.119 268.961 172.982 269.116C169.844 269.271 164.196 268.806 164.196 268.806C163.937 267.777 163.779 266.727 163.723 265.668V262.53C163.723 262.53 145.686 215.307 143.649 209.504C141.611 203.701 137.683 194.288 138.465 189.895C139.248 185.502 169.061 181.264 171.572 181.264C174.082 181.264 223.815 218.453 225.38 218.918C226.945 219.383 240.317 212.991 240.317 212.991Z" fill="#68E348" stroke="#263238" stroke-linecap="round" stroke-linejoin="round"/>
<path d="M232.461 259.996C232.461 259.996 229.579 263.916 226.185 265.226" stroke="#263238" stroke-linecap="round" stroke-linejoin="round"/>
<path d="M237.027 258.803C237.027 258.803 235.594 264.962 230.891 267.325" stroke="#263238" stroke-linecap="round" stroke-linejoin="round"/>
<path d="M171.603 181.301L182.271 209.805H195.598L171.603 181.301Z" fill="#263238" stroke="#263238" stroke-linecap="round" stroke-linejoin="round"/>
<path d="M164.948 117.639C164.948 117.639 193.375 123.721 201.843 129.361C210.311 135.002 235.802 165.489 242.426 174.608C249.05 183.727 252.73 189.794 252.73 189.794C252.73 189.794 251.429 206.614 244.161 215.408C236.894 224.202 230.704 232.221 229.619 231.787C228.534 231.353 206.073 215.191 203.47 211.929C200.867 208.667 195.01 212.704 185.24 200.757C175.47 188.81 162.67 173.74 162.67 173.74C162.67 173.74 155.295 163.754 150.956 158.872C146.515 153.838 143.647 147.614 142.704 140.967C141.93 134.676 146.501 125.565 152.149 121.009C157.797 116.453 164.948 117.639 164.948 117.639Z" fill="#68E348" stroke="#263238" stroke-linecap="round" stroke-linejoin="round"/>
<path d="M221.8 203.871L233.879 190.243L230.904 187.732L215.842 204.359" stroke="#263238" stroke-linecap="round" stroke-linejoin="round"/>
<path d="M216.782 209.543L219.246 206.77" stroke="#263238" stroke-linecap="round" stroke-linejoin="round"/>
<path d="M168.465 118.863C170.981 122.979 173.182 127.278 175.051 131.725C177.716 138.318 179.761 144.896 179.761 144.896C179.761 144.896 175.051 146.778 174.586 146.778C174.121 146.778 180.389 152.899 180.389 152.899C180.699 157.393 180.219 161.905 178.971 166.233C177.913 169.425 177.023 172.671 176.306 175.957L172.858 173.291" stroke="#263238" stroke-linecap="round" stroke-linejoin="round"/>
<path d="M178.344 177.381L184.465 184.121" stroke="#263238" stroke-linecap="round" stroke-linejoin="round"/>
<path d="M168.636 131.004C168.636 131.004 170.697 144.137 171.456 152.163C172.215 160.19 171.68 172.129 171.68 172.129C171.68 172.129 158.656 160.081 156.704 156.394C155.341 153.613 154.251 150.707 153.45 147.716C153.45 147.716 157.897 139.573 159.416 136.536C160.934 133.499 164.514 125.581 168.636 131.004Z" fill="white" stroke="#263238" stroke-linecap="round" stroke-linejoin="round"/>
<path d="M165.162 150.645L162.776 159.865L169.609 212.921L163.644 221.607L157.895 213.03L160.823 159.865L155.292 150.645L159.196 144.129L165.162 150.645Z" fill="#263238" stroke="#263238" stroke-linecap="round" stroke-linejoin="round"/>
<path d="M160.175 147.173L169.177 155.091C169.177 155.091 170.371 152.922 169.72 143.044C169.069 133.165 167.55 124.387 166.357 120.699C165.164 117.011 164.405 116.461 164.405 116.461C164.405 116.461 162.561 132.088 161.042 135.342C159.524 138.596 149.545 144.461 149.545 144.461C149.545 144.461 151.28 151.946 152.148 153.573C152.686 154.589 153.157 155.64 153.558 156.718L160.175 147.173Z" fill="white" stroke="#263238" stroke-linecap="round" stroke-linejoin="round"/>
<path d="M164.946 117.639C164.946 117.639 166.139 127.626 164.946 132.941C163.753 138.256 160.174 147.158 160.174 147.158L144.329 141.735L142.702 140.96C142.702 140.96 143.896 140.309 149.675 135.537C155.455 130.764 155.874 130.113 156.292 125.883C156.71 121.653 157.268 118.716 159.655 116.655C162.041 114.594 164.512 117.004 164.946 117.639Z" fill="white" stroke="#263238" stroke-linecap="round" stroke-linejoin="round"/>
<path d="M155.52 134.211L152.072 144.337L142.705 140.982L155.52 134.211Z" fill="#263238" stroke="#263238" stroke-linecap="round" stroke-linejoin="round"/>
<path d="M188.75 277.025L184.047 281.101C184.047 281.101 178.554 283.425 179.809 284.084C181.064 284.742 184.047 283.456 185.302 282.674C186.046 282.201 186.823 281.781 187.627 281.418L188.75 277.025Z" fill="white" stroke="#263238" stroke-linecap="round" stroke-linejoin="round"/>
<path d="M193.573 258.346C193.573 258.346 194.394 261.809 190.001 273.725C188.367 278.157 183.416 287.222 181.998 288.787C180.58 290.352 178.395 291.46 179.805 291.77C181.215 292.079 182.13 290.832 183.881 289.732C185.632 288.632 188.591 283.929 188.591 283.929C188.591 283.929 186.081 288.949 184.981 290.832C183.881 292.715 182.316 295.217 182.316 295.217C182.316 295.217 182.788 296.472 184.826 294.907C186.864 293.342 187.964 290.987 188.901 289.732C189.59 288.777 190.219 287.781 190.784 286.749C190.784 286.749 188.746 292.87 188.119 294.125C187.491 295.38 188.894 296.163 189.668 294.9C190.443 293.637 191.28 293.195 191.598 292.258C191.915 291.32 192.179 293.35 194.844 287.841C196.3 284.82 200.174 280.466 201.902 276.22C203.63 271.974 203.63 273.895 203.785 270.417C203.94 266.938 203.63 260.538 203.63 260.538L193.573 258.346Z" fill="white" stroke="#263238" stroke-linecap="round" stroke-linejoin="round"/>
<path d="M191.779 291.963C191.974 290.365 192.271 288.781 192.67 287.221C193.383 285.674 194.237 284.196 195.219 282.805" stroke="#263238" stroke-linecap="round" stroke-linejoin="round"/>
<path d="M190.784 286.749L192.984 282.201" stroke="#263238" stroke-linecap="round" stroke-linejoin="round"/>
<path d="M188.595 283.921L190.16 280.318" stroke="#263238" stroke-linecap="round" stroke-linejoin="round"/>
<path d="M206.32 253.998L206.003 262.156C206.003 262.156 201.772 263.567 198.944 263.567C196.116 263.567 192.359 263.412 192.359 263.412L192.514 254.626L206.32 253.998Z" fill="white" stroke="#263238" stroke-linecap="round" stroke-linejoin="round"/>
<path d="M202.353 141.928C202.353 141.928 209.248 156.648 210.038 160.592C210.829 164.536 212.363 193.226 212.704 198.719C213.045 204.212 209.457 255.688 209.457 255.688C206.374 256.468 203.221 256.94 200.044 257.098C197.138 257.18 194.234 256.864 191.413 256.161C191.413 256.161 187.601 194.008 187.291 191.971C186.981 189.933 187.446 188.205 187.446 184.912C187.446 181.62 184.618 159.655 184.618 159.655C184.618 159.655 186.168 147.413 189.484 142.71" fill="#68E348"/>
<path d="M202.353 141.928C202.353 141.928 209.248 156.648 210.038 160.592C210.829 164.536 212.363 193.226 212.704 198.719C213.045 204.212 209.457 255.688 209.457 255.688C206.374 256.468 203.221 256.94 200.044 257.098C197.138 257.18 194.234 256.864 191.413 256.161C191.413 256.161 187.601 194.008 187.291 191.971C186.981 189.933 187.446 188.205 187.446 184.912C187.446 181.62 184.618 159.655 184.618 159.655C184.618 159.655 186.168 147.413 189.484 142.71" stroke="#263238" stroke-linecap="round" stroke-linejoin="round"/>
<path d="M205.957 154.943C205.957 154.943 202.354 168.115 193.251 176.591" stroke="#263238" stroke-linecap="round" stroke-linejoin="round"/>
<path d="M194.555 185.215C193.594 186.054 192.513 186.743 191.347 187.26" stroke="#263238" stroke-linecap="round" stroke-linejoin="round"/>
<path d="M206.586 166.713C206.586 166.713 202.642 176.266 197.25 182.534" stroke="#263238" stroke-linecap="round" stroke-linejoin="round"/>
<path d="M132.212 191.336C132.212 191.336 134.134 188.593 134.963 189.228C135.792 189.864 134.413 193.35 133.584 194.086C132.755 194.822 131.476 193.993 131.476 193.993L132.212 191.336Z" fill="white" stroke="#263238" stroke-linecap="round" stroke-linejoin="round"/>
<path d="M129.923 188.5C129.923 188.5 131.395 186.486 132.766 187.493C134.138 188.5 132.123 193.35 131.48 193.993C130.831 194.672 129.946 195.074 129.008 195.117C128.264 195.157 127.519 195.062 126.808 194.838L129.923 188.5Z" fill="white" stroke="#263238" stroke-linecap="round" stroke-linejoin="round"/>
<path d="M127.45 187.856C127.45 187.856 128.79 185.199 130.045 185.749C131.3 186.299 130.293 188.77 129.743 189.964C128.907 191.663 127.925 193.285 126.807 194.814C126.443 195.093 124.242 195.186 123.971 194.271C123.803 193.582 123.741 192.872 123.785 192.164L127.45 187.856Z" fill="white" stroke="#263238" stroke-linecap="round" stroke-linejoin="round"/>
<path d="M121.676 191.243C121.676 191.243 124.977 186.485 125.891 186.299C126.805 186.114 127.634 187.4 127.44 187.849C127.247 188.298 124.341 193.164 123.69 193.342C123.04 193.52 122.428 193.823 121.637 193.125" fill="white"/>
<path d="M121.676 191.243C121.676 191.243 124.977 186.485 125.891 186.299C126.805 186.114 127.634 187.4 127.44 187.849C127.247 188.298 124.341 193.164 123.69 193.342C123.04 193.52 122.428 193.823 121.637 193.125" stroke="#263238" stroke-linecap="round" stroke-linejoin="round"/>
<path d="M130.479 181.549C130.479 181.549 130.626 184.88 130.045 185.748C129.464 186.616 127.868 188.932 127.868 188.932C127.868 188.932 133.082 190.815 132.361 191.977C131.641 193.14 126.713 191.683 125.388 191.249C124.063 190.815 123.211 190.962 122.925 188.925C122.638 186.887 123.653 182.727 123.653 182.727" fill="white"/>
<path d="M130.479 181.549C130.479 181.549 130.626 184.88 130.045 185.748C129.464 186.616 127.868 188.932 127.868 188.932C127.868 188.932 133.082 190.815 132.361 191.977C131.641 193.14 126.713 191.683 125.388 191.249C124.063 190.815 123.211 190.962 122.925 188.925C122.638 186.887 123.653 182.727 123.653 182.727" stroke="#263238" stroke-linecap="round" stroke-linejoin="round"/>
<path d="M129.292 118.272L135.166 117.992C136.209 117.943 137.095 118.748 137.145 119.791L137.281 122.639C137.33 123.681 136.525 124.567 135.482 124.617L129.608 124.897C128.565 124.947 127.68 124.142 127.63 123.099L127.494 120.251C127.444 119.208 128.25 118.322 129.292 118.272Z" stroke="#263238" stroke-linecap="round" stroke-linejoin="round"/>
<path d="M131.283 105.916C131.283 105.916 130.33 105.25 130.423 104.366C130.516 103.483 131.097 100.059 134.924 96.7968C138.752 93.535 146.128 90.4824 152.543 91.5361C158.958 92.5898 163.746 98.8112 164.893 102.065C166.039 105.319 165.272 115.089 165.272 116.236C165.272 117.383 163.839 120.923 162.406 121.311C160.972 121.698 161.732 116.43 160.391 117.383C159.051 118.336 155.409 122.171 154.069 120.637C152.729 119.103 152.349 115.376 151.202 115.213C150.056 115.051 145.647 113.106 145.934 111.192C146.22 109.278 148.421 104.583 146.22 103.824C144.02 103.065 140.797 105.637 136.358 106.024C131.918 106.412 131.283 105.916 131.283 105.916Z" fill="#263238" stroke="#263238" stroke-linecap="round" stroke-linejoin="round"/>
<path d="M154.551 118.654C154.551 118.654 155.891 118.561 156.1 118.267C156.309 117.972 158.107 113.866 160.121 113.579C162.136 113.293 163.089 119.32 162.035 122.582C161.813 123.464 161.309 124.249 160.6 124.818C159.891 125.387 159.015 125.709 158.107 125.736C158.107 125.736 158.014 134.258 155.426 135.986C152.838 137.714 141.356 144.408 139.156 144.214C136.955 144.02 135.995 142.014 135.708 140.387C135.421 138.76 135.514 138.279 135.421 137.706C135.328 137.133 133.508 130.431 133.508 130.431C133.508 130.431 129.773 129.656 129.672 129.183C129.572 128.711 131.687 120.475 131.687 120.475C131.687 120.475 130.06 118.46 129.959 117.6C129.858 116.74 129.866 110.225 130.254 108.698C130.641 107.172 132.64 103.236 133.407 103.523C133.866 103.667 134.349 103.716 134.827 103.667C135.306 103.618 135.769 103.471 136.188 103.236C136.963 102.763 144.416 99.982 146.144 100.083C147.872 100.183 151.118 102.283 151.405 104.104C151.692 105.925 148.724 108.791 148.538 110.132C148.352 111.472 153.133 112.456 153.226 113.099C153.319 113.742 153.691 118.081 154.551 118.654Z" fill="white" stroke="#263238" stroke-linecap="round" stroke-linejoin="round"/>
<path d="M136.414 134.366L138.691 133.715" stroke="#263238" stroke-linecap="round" stroke-linejoin="round"/>
<path d="M136.66 117.767L142.534 117.487C143.576 117.437 144.462 118.242 144.512 119.285L144.648 122.133C144.697 123.176 143.892 124.061 142.849 124.111L136.976 124.391C135.933 124.441 135.047 123.636 134.997 122.593L134.861 119.745C134.812 118.702 135.617 117.816 136.66 117.767Z" stroke="#263238" stroke-linecap="round" stroke-linejoin="round"/>
<path d="M138.768 121.155C138.869 121.93 139.217 122.464 139.543 122.418C139.868 122.371 140.054 121.736 139.946 120.992C139.837 120.248 139.496 119.683 139.171 119.729C138.845 119.776 138.706 120.411 138.768 121.155Z" fill="#263238"/>
<path d="M142.703 116.245C142.703 116.245 138.457 115.764 136.652 117.748" stroke="#263238" stroke-linecap="round" stroke-linejoin="round"/>
<path d="M144.503 119.265L156.598 116.678" stroke="#263238" stroke-linecap="round" stroke-linejoin="round"/>
<path d="M134.855 119.731C134.855 119.731 133.011 118.445 131.462 119.816" stroke="#263238" stroke-linecap="round" stroke-linejoin="round"/>
<path d="M135.738 117.971L130.354 118.343" stroke="#263238" stroke-linecap="round" stroke-linejoin="round"/>
<path d="M37.147 240.494L303.469 345.105" stroke="#263238" stroke-linecap="round" stroke-linejoin="round"/>
<path d="M29.5531 247.955L290.242 351.117" stroke="#263238" stroke-linecap="round" stroke-linejoin="round"/>
</g>
<defs>
<clipPath id="clip0_15384_300575">
<rect width="360" height="350.532" fill="white" transform="matrix(-1 0 0 1 360.773 0.972656)"/>
</clipPath>
</defs>
</svg>
