<svg width="295" height="33" viewBox="0 0 295 33" fill="none" xmlns="http://www.w3.org/2000/svg">
<path d="M63.0486 12.7378C63.0486 10.1169 62.0048 7.60324 60.1469 5.74994C58.2889 3.89664 55.7689 2.85547 53.1414 2.85547H38.5164V18.4037C37.7965 18.9335 37.1604 19.568 36.6293 20.286V2.85547H34.7422V31.0907H40.4035V25.4437C40.4035 24.6948 40.7017 23.9767 41.2326 23.4472C41.7634 22.9176 42.4834 22.6202 43.2341 22.6202H52.6696L56.3117 30.0366C56.4659 30.3506 56.7047 30.6155 57.0013 30.8017C57.298 30.9878 57.6407 31.0879 57.9912 31.0907H63.0486L58.1988 21.1896C59.6712 20.3198 60.8922 19.0838 61.7423 17.6023C62.5924 16.1209 63.0425 14.4448 63.0486 12.7378ZM40.4035 8.50252H53.1414C54.2675 8.50252 55.3474 8.94874 56.1437 9.74301C56.94 10.5373 57.3873 11.6145 57.3873 12.7378C57.3873 13.8611 56.94 14.9383 56.1437 15.7326C55.3474 16.5269 54.2675 16.9731 53.1414 16.9731H43.2341C42.267 16.9826 41.3089 17.161 40.4035 17.5002V8.50252ZM60.0293 29.2084H57.9157L54.6322 22.4696C55.2745 22.3718 55.9063 22.2142 56.5193 21.999L60.0293 29.2084ZM53.1414 20.7378H43.2341C41.9829 20.7378 40.7829 21.2336 39.8982 22.1161C39.0134 22.9987 38.5164 24.1956 38.5164 25.4437V29.2084H36.6293V25.4437C36.6293 23.6964 37.3251 22.0206 38.5638 20.7851C39.8024 19.5496 41.4824 18.8555 43.2341 18.8555H53.1414C54.768 18.8555 56.3279 18.2109 57.4781 17.0636C58.6283 15.9164 59.2744 14.3603 59.2744 12.7378C59.2744 11.1153 58.6283 9.55927 57.4781 8.41199C56.3279 7.26471 54.768 6.62017 53.1414 6.62017H40.4035V4.73782H53.1414C55.2684 4.73782 57.3084 5.58067 58.8125 7.08097C60.3165 8.58125 61.1615 10.6161 61.1615 12.7378C61.1615 14.8595 60.3165 16.8944 58.8125 18.3947C57.3084 19.895 55.2684 20.7378 53.1414 20.7378Z" fill="#023DFF"/>
<path d="M0.773438 4.73782H15.3229C14.5986 5.26238 13.9617 5.89764 13.4359 6.62017H0.773438V8.50252H12.6244C12.2844 9.40572 12.1056 10.3613 12.096 11.3261V31.0907H17.7573V11.3261C17.7573 10.5772 18.0555 9.85903 18.5864 9.32952C19.1172 8.8 19.8372 8.50252 20.5879 8.50252H27.1928C27.6933 8.50252 28.1733 8.30421 28.5272 7.9512C28.8811 7.59819 29.0799 7.1194 29.0799 6.62017V2.85547H0.773438V4.73782ZM20.5879 4.73782H27.1928V6.62017H20.5879C19.3367 6.62017 18.1367 7.11597 17.252 7.99849C16.3672 8.88102 15.8702 10.078 15.8702 11.3261V29.2084H13.9831V11.3261C13.9831 9.57874 14.679 7.903 15.9176 6.66747C17.1563 5.43194 18.8362 4.73782 20.5879 4.73782Z" fill="#023DFF"/>
<path d="M218.732 0.972668C214.496 0.967617 210.43 2.63622 207.424 5.61348C204.418 8.59074 202.716 12.6343 202.691 16.8597V16.9727C202.691 20.1372 203.632 23.2306 205.395 25.8618C207.157 28.493 209.662 30.5437 212.593 31.7547C215.524 32.9657 218.75 33.2826 221.861 32.6652C224.973 32.0479 227.831 30.524 230.074 28.2864C232.317 26.0487 233.845 23.1978 234.464 20.0941C235.083 16.9904 234.765 13.7733 233.551 10.8497C232.337 7.92611 230.281 5.42725 227.643 3.66915C225.005 1.91105 221.904 0.972668 218.732 0.972668ZM218.732 31.0903C214.98 31.0853 211.383 29.5963 208.729 26.9498C206.076 24.3033 204.583 20.7154 204.579 16.9727C204.579 16.5334 204.579 16.1193 204.579 15.7303C204.892 12.7068 206.321 9.9075 208.588 7.87602C210.855 5.84454 213.797 4.7259 216.845 4.73737C217.159 4.71774 217.474 4.71774 217.788 4.73737C215.414 4.92403 213.146 5.79694 211.262 7.24927C209.378 8.70161 207.959 10.6704 207.179 12.9146C206.399 15.1589 206.292 17.5812 206.871 19.8853C207.449 22.1893 208.689 24.2751 210.438 25.8873C212.186 27.4996 214.368 28.5684 216.717 28.9629C219.065 29.3573 221.477 29.0605 223.659 28.1085C225.841 27.1566 227.697 25.5909 229 23.6031C230.304 21.6152 230.998 19.2915 230.998 16.9162C231 13.3366 229.636 9.89039 227.182 7.27839C224.728 4.6664 221.369 3.08473 217.788 2.85502C218.109 2.83629 218.43 2.83629 218.751 2.85502C222.504 2.85502 226.104 4.34241 228.758 6.98998C231.413 9.63755 232.904 13.2284 232.904 16.9727C232.904 20.7169 231.413 24.3078 228.758 26.9553C226.104 29.6029 222.504 31.0903 218.751 31.0903H218.732ZM218.732 6.61972C220.785 6.61972 222.791 7.22691 224.498 8.36451C226.205 9.5021 227.535 11.119 228.321 13.0108C229.106 14.9025 229.312 16.9841 228.911 18.9924C228.511 21.0007 227.522 22.8454 226.071 24.2933C224.619 25.7412 222.77 26.7272 220.757 27.1267C218.743 27.5261 216.656 27.3211 214.76 26.5375C212.863 25.7539 211.242 24.427 210.102 22.7244C208.961 21.0219 208.353 19.0203 208.353 16.9727C208.353 14.2269 209.446 11.5936 211.393 9.65203C213.339 7.71048 215.979 6.61972 218.732 6.61972Z" fill="#023DFF"/>
<path d="M83.9007 2.85547L96.8273 29.2084H94.7137L81.806 2.85547H79.7113L70.4834 21.679H88.9203L89.845 23.5613H70.7476C70.3939 23.5606 70.0472 23.6591 69.7469 23.8455C69.4466 24.0318 69.2048 24.2987 69.0492 24.6155L65.8789 31.0907H71.0118C71.3623 31.0879 71.705 30.9878 72.0017 30.8017C72.2983 30.6155 72.5371 30.3506 72.6913 30.0366L74.1633 27.0249C74.3984 26.551 74.7615 26.152 75.2115 25.8727C75.6616 25.5934 76.1808 25.4448 76.7108 25.4437H90.7697L93.0153 30.0366C93.171 30.3534 93.4127 30.6202 93.713 30.8066C94.0133 30.993 94.36 31.0915 94.7137 31.0907H99.8466L86.0142 2.85547H83.9007ZM73.5216 19.7966L80.7681 5.00135L82.542 8.65311C82.0689 8.69703 81.6152 8.86224 81.225 9.1327C80.8348 9.40316 80.5214 9.76967 80.3152 10.1966L75.6163 19.7966H73.5216ZM77.711 19.7966L82.0136 11.0061C82.0914 10.8477 82.2123 10.7142 82.3624 10.6211C82.5125 10.5279 82.6859 10.4786 82.8628 10.479C83.0369 10.48 83.2072 10.5299 83.3541 10.6232C83.501 10.7164 83.6185 10.8491 83.6931 11.0061L88.0145 19.7966H77.711ZM72.4837 26.1966L71.0118 29.2084H68.8983L70.7854 25.4437H73.031C72.8271 25.6785 72.644 25.9304 72.4837 26.1966Z" fill="#023DFF"/>
<path d="M125.322 4.73782V20.7378C125.329 20.9381 125.267 21.1347 125.147 21.2954C125.027 21.4561 124.856 21.5715 124.661 21.6225C124.479 21.6873 124.28 21.693 124.094 21.639C123.908 21.5849 123.743 21.4738 123.624 21.3213L109.753 2.85547H107.395L128.624 31.0907H130.983V2.85547H127.209C126.709 2.85547 126.229 3.05379 125.875 3.4068C125.521 3.75981 125.322 4.23859 125.322 4.73782ZM129.096 4.73782V28.5872L125.209 23.4296C125.767 23.2417 126.251 22.8814 126.59 22.4008C126.93 21.9202 127.107 21.3443 127.096 20.7566V4.73782H129.096Z" fill="#023DFF"/>
<path d="M102.676 2.85547V31.0907H106.45C106.95 31.0907 107.43 30.8924 107.784 30.5394C108.138 30.1864 108.337 29.7076 108.337 29.2084V13.2084C108.323 13.0025 108.379 12.7979 108.495 12.6273C108.611 12.4567 108.782 12.3299 108.979 12.2672C109.168 12.2051 109.372 12.2044 109.562 12.2652C109.752 12.3261 109.918 12.4454 110.035 12.6061L123.906 31.0907H126.264L105.035 2.85547H102.676ZM108.337 10.5355C107.777 10.7207 107.291 11.0804 106.952 11.5616C106.612 12.0428 106.436 12.62 106.45 13.2084V29.2084H104.563V5.359L108.337 10.5166V10.5355Z" fill="#023DFF"/>
<path d="M163.064 25.4429H147.024C146.823 25.4484 146.627 25.389 146.464 25.2735C146.3 25.1581 146.179 24.993 146.118 24.8029C146.055 24.6139 146.055 24.4101 146.116 24.2207C146.177 24.0314 146.296 23.8661 146.457 23.7488L164.951 9.91349V7.56055L136.645 28.737V31.0899H164.951V27.3252C164.951 26.826 164.752 26.3472 164.398 25.9942C164.044 25.6412 163.564 25.4429 163.064 25.4429ZM163.064 29.2076H139.154L144.325 25.3299C144.517 25.8884 144.882 26.3717 145.367 26.71C145.852 27.0483 146.432 27.2242 147.024 27.2123H163.064V29.2076Z" fill="#023DFF"/>
<path d="M136.645 6.62017C136.645 7.1194 136.843 7.59819 137.197 7.9512C137.551 8.30421 138.031 8.50252 138.532 8.50252H154.572C154.765 8.50742 154.952 8.57146 155.108 8.68598C155.264 8.8005 155.38 8.95996 155.442 9.14277C155.504 9.32558 155.508 9.52291 155.453 9.70804C155.399 9.89318 155.289 10.0572 155.138 10.1778L136.645 24.0319V26.3849L164.951 5.20841V2.85547H136.645V6.62017ZM138.532 4.73782H162.441L157.27 8.59664V8.50252C157.081 7.94241 156.717 7.45748 156.231 7.11875C155.746 6.78002 155.164 6.60529 154.572 6.62017H138.532V4.73782Z" fill="#023DFF"/>
<path d="M197.033 25.4429H180.992C180.792 25.4484 180.596 25.389 180.432 25.2735C180.269 25.1581 180.148 24.993 180.086 24.8029C180.018 24.6145 180.014 24.4087 180.075 24.2178C180.137 24.027 180.26 23.862 180.426 23.7488L198.92 9.91349V7.56055L170.613 28.737V31.0899H198.92V27.3252C198.92 26.826 198.721 26.3472 198.367 25.9942C198.013 25.6412 197.533 25.4429 197.033 25.4429ZM197.033 29.2076H173.123L178.294 25.3299C178.486 25.8884 178.85 26.3717 179.335 26.71C179.82 27.0483 180.401 27.2242 180.992 27.2123H197.033V29.2076Z" fill="#023DFF"/>
<path d="M170.613 6.62017C170.613 7.1194 170.812 7.59819 171.166 7.9512C171.52 8.30421 172 8.50252 172.5 8.50252H188.541C188.734 8.50742 188.921 8.57146 189.077 8.68598C189.232 8.8005 189.349 8.95996 189.411 9.14277C189.473 9.32558 189.477 9.52291 189.422 9.70804C189.368 9.89318 189.258 10.0572 189.107 10.1778L170.613 24.0319V26.3849L198.92 5.20841V2.85547H170.613V6.62017ZM172.5 4.73782H196.391L191.239 8.59664V8.50252C191.047 7.94404 190.683 7.46077 190.198 7.12245C189.713 6.78413 189.132 6.60825 188.541 6.62017H172.5V4.73782Z" fill="#023DFF"/>
<path d="M242.705 30.7723H245.505C246.825 30.7723 247.919 30.3123 248.785 29.3923C249.665 28.4589 250.105 27.2523 250.105 25.7723C250.105 24.2923 249.665 23.0923 248.785 22.1723C247.919 21.2389 246.825 20.7723 245.505 20.7723H242.705V30.7723ZM240.605 32.7723V18.7723H245.505C247.412 18.7723 249.005 19.4323 250.285 20.7523C251.565 22.0723 252.205 23.7456 252.205 25.7723C252.205 27.7989 251.565 29.4723 250.285 30.7923C249.005 32.1123 247.412 32.7723 245.505 32.7723H240.605Z" fill="#FF7800"/>
<path d="M265.469 30.9523C264.176 32.2989 262.589 32.9723 260.709 32.9723C258.829 32.9723 257.243 32.2989 255.949 30.9523C254.656 29.6056 254.009 27.8789 254.009 25.7723C254.009 23.6656 254.656 21.9389 255.949 20.5923C257.243 19.2456 258.829 18.5723 260.709 18.5723C262.589 18.5723 264.176 19.2456 265.469 20.5923C266.763 21.9389 267.409 23.6656 267.409 25.7723C267.409 27.8789 266.763 29.6056 265.469 30.9523ZM264.009 21.9923C263.143 21.0456 262.043 20.5723 260.709 20.5723C259.376 20.5723 258.276 21.0456 257.409 21.9923C256.543 22.9389 256.109 24.1989 256.109 25.7723C256.109 27.3456 256.543 28.6056 257.409 29.5523C258.276 30.4989 259.376 30.9723 260.709 30.9723C262.043 30.9723 263.143 30.4989 264.009 29.5523C264.876 28.6056 265.309 27.3456 265.309 25.7723C265.309 24.1989 264.876 22.9389 264.009 21.9923Z" fill="#FF7800"/>
<path d="M280.005 27.9723H282.205C282.071 28.5589 281.845 29.1323 281.525 29.6923C281.218 30.2523 280.811 30.7856 280.305 31.2923C279.798 31.7989 279.165 32.2056 278.405 32.5123C277.645 32.8189 276.811 32.9723 275.905 32.9723C274.025 32.9723 272.438 32.2989 271.145 30.9523C269.851 29.6056 269.205 27.8789 269.205 25.7723C269.205 23.6656 269.851 21.9389 271.145 20.5923C272.438 19.2456 274.025 18.5723 275.905 18.5723C277.558 18.5723 278.938 19.0523 280.045 20.0123C281.165 20.9589 281.885 22.1123 282.205 23.4723H280.005C279.658 22.5389 279.118 21.8256 278.385 21.3323C277.651 20.8256 276.825 20.5723 275.905 20.5723C274.571 20.5723 273.471 21.0456 272.605 21.9923C271.738 22.9389 271.305 24.1989 271.305 25.7723C271.305 27.3456 271.738 28.6056 272.605 29.5523C273.471 30.4989 274.571 30.9723 275.905 30.9723C276.971 30.9723 277.851 30.6856 278.545 30.1123C279.251 29.5256 279.738 28.8123 280.005 27.9723Z" fill="#FF7800"/>
<path d="M283.714 28.4723H285.814C285.814 29.1523 286.127 29.7389 286.754 30.2323C287.394 30.7256 288.214 30.9723 289.214 30.9723C290.307 30.9723 291.114 30.7856 291.634 30.4123C292.154 30.0256 292.414 29.5123 292.414 28.8723C292.414 27.8456 291.614 27.1789 290.014 26.8723L287.314 26.3723C286.221 26.1723 285.394 25.7523 284.834 25.1123C284.287 24.4723 284.014 23.6589 284.014 22.6723C284.014 21.4989 284.467 20.5256 285.374 19.7523C286.281 18.9656 287.494 18.5723 289.014 18.5723C290.694 18.5723 291.994 18.9989 292.914 19.8523C293.847 20.6923 294.314 21.7656 294.314 23.0723H292.214C292.214 22.3923 291.921 21.8056 291.334 21.3123C290.747 20.8189 289.974 20.5723 289.014 20.5723C288.107 20.5723 287.394 20.7789 286.874 21.1923C286.367 21.5923 286.114 22.0856 286.114 22.6723C286.114 23.6589 286.814 24.2923 288.214 24.5723L290.414 24.9723C291.827 25.2256 292.861 25.6656 293.514 26.2923C294.181 26.9056 294.514 27.7656 294.514 28.8723C294.514 30.0723 294.054 31.0589 293.134 31.8323C292.214 32.5923 290.907 32.9723 289.214 32.9723C287.521 32.9723 286.181 32.5456 285.194 31.6923C284.207 30.8389 283.714 29.7656 283.714 28.4723Z" fill="#FF7800"/>
</svg>
