<svg width="234" height="32" viewBox="0 0 234 32" fill="none" xmlns="http://www.w3.org/2000/svg">
<path d="M62.2752 11.7652C62.2752 9.1442 61.2314 6.63058 59.3734 4.77728C57.5154 2.92399 54.9955 1.88281 52.3679 1.88281H37.7429V17.431C37.0231 17.9608 36.387 18.5953 35.8558 19.3134V1.88281H33.9688V30.1181H39.63V24.471C39.63 23.7222 39.9283 23.004 40.4591 22.4745C40.99 21.945 41.7099 21.6475 42.4607 21.6475H51.8962L55.5383 29.064C55.6925 29.3779 55.9313 29.6428 56.2279 29.829C56.5245 30.0152 56.8673 30.1153 57.2178 30.1181H62.2752L57.4254 20.2169C58.8978 19.3472 60.1188 18.1111 60.9689 16.6297C61.8189 15.1482 62.2691 13.4721 62.2752 11.7652ZM39.63 7.52987H52.3679C53.494 7.52987 54.574 7.97609 55.3703 8.77036C56.1666 9.56463 56.6139 10.6419 56.6139 11.7652C56.6139 12.8884 56.1666 13.9657 55.3703 14.76C54.574 15.5542 53.494 16.0005 52.3679 16.0005H42.4607C41.4935 16.01 40.5355 16.1883 39.63 16.5275V7.52987ZM59.2558 28.2357H57.1423L53.8587 21.4969C54.5011 21.3991 55.1329 21.2416 55.7458 21.0263L59.2558 28.2357ZM52.3679 19.7652H42.4607C41.2095 19.7652 40.0095 20.261 39.1247 21.1435C38.24 22.026 37.7429 23.223 37.7429 24.471V28.2357H35.8558V24.471C35.8558 22.7237 36.5517 21.048 37.7904 19.8125C39.029 18.5769 40.709 17.8828 42.4607 17.8828H52.3679C53.9945 17.8828 55.5545 17.2383 56.7047 16.091C57.8548 14.9437 58.501 13.3877 58.501 11.7652C58.501 10.1427 57.8548 8.58661 56.7047 7.43933C55.5545 6.29205 53.9945 5.64752 52.3679 5.64752H39.63V3.76516H52.3679C54.495 3.76516 56.535 4.60802 58.039 6.10831C59.5431 7.6086 60.3881 9.64343 60.3881 11.7652C60.3881 13.8869 59.5431 15.9217 58.039 17.422C56.535 18.9223 54.495 19.7652 52.3679 19.7652Z" fill="white"/>
<path d="M0 3.76516H14.5495C13.8252 4.28972 13.1883 4.92498 12.6624 5.64752H0V7.52987H11.851C11.5109 8.43306 11.3321 9.38867 11.3226 10.3534V30.1181H16.9839V10.3534C16.9839 9.60455 17.2821 8.88637 17.8129 8.35686C18.3438 7.82735 19.0638 7.52987 19.8145 7.52987H26.4193C26.9198 7.52987 27.3998 7.33155 27.7537 6.97854C28.1076 6.62553 28.3064 6.14675 28.3064 5.64752V1.88281H0V3.76516ZM19.8145 3.76516H26.4193V5.64752H19.8145C18.5633 5.64752 17.3633 6.14331 16.4786 7.02584C15.5938 7.90836 15.0968 9.10532 15.0968 10.3534V28.2357H13.2097V10.3534C13.2097 8.60609 13.9055 6.93035 15.1442 5.69481C16.3828 4.45928 18.0628 3.76516 19.8145 3.76516Z" fill="white"/>
<path d="M217.958 1.14307e-05C213.722 -0.00503883 209.656 1.66356 206.65 4.64082C203.644 7.61808 201.943 11.6617 201.918 15.8871V16C201.918 19.1645 202.859 22.2579 204.621 24.8891C206.384 27.5203 208.889 29.5711 211.82 30.7821C214.751 31.9931 217.976 32.3099 221.088 31.6926C224.199 31.0752 227.057 29.5513 229.3 27.3137C231.544 25.0761 233.071 22.2251 233.69 19.1214C234.309 16.0178 233.992 12.8007 232.778 9.87707C231.564 6.95345 229.508 4.4546 226.87 2.6965C224.232 0.938395 221.131 1.14307e-05 217.958 1.14307e-05ZM217.958 30.1176C214.206 30.1127 210.609 28.6237 207.956 25.9772C205.303 23.3307 203.81 19.7427 203.805 16C203.805 15.5608 203.805 15.1467 203.805 14.7577C204.119 11.7342 205.548 8.93484 207.814 6.90336C210.081 4.87188 213.024 3.75325 216.071 3.76471C216.385 3.74509 216.701 3.74509 217.015 3.76471C214.641 3.95137 212.373 4.82428 210.489 6.27662C208.604 7.72895 207.185 9.69771 206.406 11.942C205.626 14.1862 205.518 16.6086 206.097 18.9126C206.676 21.2167 207.916 23.3025 209.664 24.9147C211.413 26.5269 213.595 27.5957 215.943 27.9902C218.291 28.3847 220.704 28.0878 222.885 27.1359C225.067 26.1839 226.923 24.6182 228.227 22.6304C229.53 20.6426 230.224 18.3188 230.224 15.9435C230.227 12.3639 228.863 8.91773 226.409 6.30574C223.955 3.69374 220.596 2.11207 217.015 1.88236C217.335 1.86363 217.657 1.86363 217.977 1.88236C221.731 1.88236 225.331 3.36975 227.985 6.01732C230.639 8.6649 232.13 12.2558 232.13 16C232.13 19.7442 230.639 23.3351 227.985 25.9827C225.331 28.6303 221.731 30.1176 217.977 30.1176H217.958ZM217.958 5.64707C220.011 5.64707 222.018 6.25426 223.725 7.39185C225.431 8.52945 226.762 10.1464 227.547 12.0381C228.333 13.9299 228.538 16.0115 228.138 18.0198C227.737 20.028 226.749 21.8727 225.297 23.3206C223.846 24.7685 221.996 25.7545 219.983 26.154C217.97 26.5535 215.883 26.3485 213.986 25.5649C212.09 24.7813 210.469 23.4543 209.328 21.7518C208.188 20.0493 207.579 18.0476 207.579 16C207.579 13.2542 208.673 10.6209 210.619 8.67937C212.566 6.73782 215.206 5.64707 217.958 5.64707Z" fill="white"/>
<path d="M83.1272 1.88281L96.0538 28.2357H93.9403L81.0326 1.88281H78.9379L69.71 20.7063H88.1469L89.0716 22.5887H69.9742C69.6205 22.588 69.2737 22.6864 68.9734 22.8728C68.6732 23.0592 68.4314 23.326 68.2758 23.6428L65.1055 30.1181H70.2384C70.5888 30.1153 70.9316 30.0152 71.2282 29.829C71.5249 29.6428 71.7637 29.3779 71.9179 29.064L73.3898 26.0522C73.625 25.5784 73.988 25.1794 74.4381 24.9001C74.8881 24.6207 75.4073 24.4722 75.9374 24.471H89.9963L92.2419 29.064C92.3975 29.3808 92.6393 29.6476 92.9396 29.834C93.2399 30.0203 93.5866 30.1188 93.9403 30.1181H99.0732L85.2408 1.88281H83.1272ZM72.7482 18.824L79.9947 4.02869L81.7685 7.68046C81.2954 7.72438 80.8418 7.88959 80.4516 8.16005C80.0614 8.4305 79.748 8.79702 79.5418 9.22399L74.8429 18.824H72.7482ZM76.9376 18.824L81.2401 10.0334C81.3179 9.87499 81.4388 9.74159 81.589 9.6484C81.7391 9.55521 81.9125 9.50599 82.0893 9.50634C82.2634 9.5073 82.4337 9.55728 82.5806 9.65052C82.7275 9.74376 82.845 9.87648 82.9196 10.0334L87.2411 18.824H76.9376ZM71.7103 25.224L70.2384 28.2357H68.1248L70.0119 24.471H72.2576C72.0537 24.7058 71.8706 24.9577 71.7103 25.224Z" fill="white"/>
<path d="M124.549 3.76516V19.7652C124.555 19.9654 124.493 20.162 124.373 20.3228C124.253 20.4835 124.082 20.5988 123.888 20.6499C123.705 20.7146 123.507 20.7204 123.32 20.6663C123.134 20.6123 122.97 20.5011 122.85 20.3487L108.98 1.88281H106.621L127.851 30.1181H130.21V1.88281H126.436C125.935 1.88281 125.455 2.08113 125.101 2.43414C124.747 2.78715 124.549 3.26593 124.549 3.76516ZM128.323 3.76516V27.6146L124.435 22.4569C124.994 22.2691 125.478 21.9088 125.817 21.4282C126.156 20.9476 126.333 20.3717 126.322 19.784V3.76516H128.323Z" fill="white"/>
<path d="M101.902 1.88281V30.1181H105.677C106.177 30.1181 106.657 29.9198 107.011 29.5668C107.365 29.2138 107.564 28.735 107.564 28.2357V12.2357C107.55 12.0299 107.605 11.8253 107.722 11.6547C107.838 11.4841 108.008 11.3573 108.205 11.2946C108.395 11.2324 108.599 11.2317 108.789 11.2926C108.979 11.3534 109.144 11.4728 109.262 11.6334L123.132 30.1181H125.491L104.261 1.88281H101.902ZM107.564 9.56281C107.004 9.74807 106.518 10.1078 106.178 10.5889C105.839 11.0701 105.663 11.6474 105.677 12.2357V28.2357H103.789V4.38634L107.564 9.54398V9.56281Z" fill="white"/>
<path d="M162.29 24.4702H146.25C146.05 24.4757 145.854 24.4163 145.69 24.3009C145.527 24.1855 145.406 24.0203 145.344 23.8302C145.282 23.6413 145.281 23.4375 145.342 23.2481C145.403 23.0587 145.523 22.8935 145.684 22.7761L164.178 8.94083V6.58789L135.871 27.7643V30.1173H164.178V26.3526C164.178 25.8534 163.979 25.3746 163.625 25.0216C163.271 24.6686 162.791 24.4702 162.29 24.4702ZM162.29 28.2349H138.381L143.552 24.3573C143.743 24.9158 144.108 25.399 144.593 25.7374C145.078 26.0757 145.658 26.2516 146.25 26.2396H162.29V28.2349Z" fill="white"/>
<path d="M135.871 5.64752C135.871 6.14675 136.07 6.62553 136.424 6.97854C136.778 7.33155 137.258 7.52987 137.758 7.52987H153.798C153.992 7.53476 154.179 7.59881 154.335 7.71332C154.49 7.82784 154.607 7.9873 154.669 8.17011C154.73 8.35292 154.734 8.55025 154.68 8.73539C154.626 8.92052 154.516 9.08451 154.365 9.20516L135.871 23.0593V25.4122L164.178 4.23575V1.88281H135.871V5.64752ZM137.758 3.76516H161.668L156.497 7.62399V7.52987C156.308 6.96976 155.944 6.48482 155.458 6.14609C154.972 5.80736 154.391 5.63264 153.798 5.64752H137.758V3.76516Z" fill="white"/>
<path d="M196.259 24.4702H180.219C180.019 24.4757 179.822 24.4163 179.659 24.3009C179.496 24.1855 179.374 24.0203 179.313 23.8302C179.244 23.6418 179.241 23.436 179.302 23.2452C179.364 23.0544 179.487 22.8893 179.653 22.7761L198.146 8.94083V6.58789L169.84 27.7643V30.1173H198.146V26.3526C198.146 25.8534 197.947 25.3746 197.594 25.0216C197.24 24.6686 196.76 24.4702 196.259 24.4702ZM196.259 28.2349H172.35L177.52 24.3573C177.712 24.9158 178.077 25.399 178.562 25.7374C179.047 26.0757 179.627 26.2516 180.219 26.2396H196.259V28.2349Z" fill="white"/>
<path d="M169.84 5.64752C169.84 6.14675 170.039 6.62553 170.393 6.97854C170.746 7.33155 171.226 7.52987 171.727 7.52987H187.767C187.961 7.53476 188.148 7.59881 188.303 7.71332C188.459 7.82784 188.576 7.9873 188.637 8.17011C188.699 8.35292 188.703 8.55025 188.649 8.73539C188.594 8.92052 188.484 9.08451 188.333 9.20516L169.84 23.0593V25.4122L198.146 4.23575V1.88281H169.84V5.64752ZM171.727 3.76516H195.618L190.466 7.62399V7.52987C190.274 6.97138 189.909 6.48812 189.424 6.1498C188.939 5.81148 188.359 5.63559 187.767 5.64752H171.727V3.76516Z" fill="white"/>
</svg>
