<svg width="81" height="81" viewBox="0 0 81 81" fill="none" xmlns="http://www.w3.org/2000/svg">
<g clip-path="url(#clip0_15395_304234)">
<rect x="34.5234" y="4.5957" width="53.5866" height="35.129" rx="6" transform="rotate(45 34.5234 4.5957)" fill="#68E348"/>
<path d="M66.4148 48.4871L28.5234 10.5957L23.787 15.3321L61.6784 53.2235L66.4148 48.4871Z" fill="#023DFF"/>
<path d="M24.4941 15.3321L28.5234 11.3028L65.7077 48.4871L61.6784 52.5164L24.4941 15.3321Z" stroke="white" stroke-opacity="0.14"/>
<path d="M32.7855 29.5726L27.3123 24.0994C26.4171 23.2042 24.9657 23.2042 24.0705 24.0994L24.06 24.11C23.1648 25.0052 23.1648 26.4566 24.06 27.3518L29.5332 32.825C30.4284 33.7202 31.8798 33.7202 32.775 32.825L32.7855 32.8145C33.6807 31.9192 33.6807 30.4678 32.7855 29.5726Z" fill="#023DFF"/>
<path d="M26.9588 24.453L32.432 29.9262C33.1319 30.6261 33.1319 31.761 32.432 32.4609L32.4214 32.4714C31.7215 33.1714 30.5867 33.1714 29.8867 32.4714L24.4135 26.9982C23.7136 26.2983 23.7136 25.1634 24.4135 24.4635L24.424 24.453C25.124 23.753 26.2588 23.753 26.9588 24.453Z" stroke="white" stroke-opacity="0.14"/>
</g>
<rect x="34.5234" y="5.30281" width="52.5866" height="34.129" rx="5.5" transform="rotate(45 34.5234 5.30281)" stroke="#023DFF"/>
<g clip-path="url(#clip1_15395_304234)">
<rect x="23.4688" y="19.3574" width="53.5866" height="35.129" rx="6" transform="rotate(25 23.4688 19.3574)" fill="#FF7800"/>
<path d="M68.4487 49.6945L19.8828 27.0479L17.052 33.1186L65.6179 55.7652L68.4487 49.6945Z" fill="#68E348"/>
<path d="M17.7164 32.8767L20.1247 27.7123L67.7843 49.9363L65.376 55.1008L17.7164 32.8767Z" stroke="white" stroke-opacity="0.14"/>
<path d="M30.3778 43.4216L23.3627 40.1504C22.2153 39.6154 20.8514 40.1118 20.3164 41.2592L20.3101 41.2727C19.7751 42.4201 20.2715 43.7839 21.4189 44.319L28.4339 47.5902C29.5813 48.1252 30.9452 47.6288 31.4803 46.4814L31.4865 46.4679C32.0216 45.3205 31.5252 43.9566 30.3778 43.4216Z" fill="#68E348"/>
<path d="M23.1514 40.6036L30.1665 43.8748C31.0636 44.2931 31.4517 45.3595 31.0334 46.2566L31.0271 46.2701C30.6088 47.1672 29.5424 47.5554 28.6452 47.137L21.6302 43.8658C20.733 43.4475 20.3449 42.3811 20.7632 41.484L20.7695 41.4705C21.1879 40.5734 22.2543 40.1852 23.1514 40.6036Z" stroke="white" stroke-opacity="0.14"/>
</g>
<rect x="23.7106" y="20.0219" width="52.5866" height="34.129" rx="5.5" transform="rotate(25 23.7106 20.0219)" stroke="#023DFF"/>
<g clip-path="url(#clip2_15395_304234)">
<rect x="17.4141" y="38.1523" width="54" height="35" rx="6" fill="#023DFF"/>
<path d="M71.414 46.6064H17.4141V53.2802H71.414V46.6064Z" fill="#68E348"/>
<path d="M17.9141 52.7802V47.1064H70.914V52.7802H17.9141Z" stroke="white" stroke-opacity="0.14"/>
<path d="M33.9733 56.9727H26.1733C24.8975 56.9727 23.8633 57.9952 23.8633 59.2566V59.2714C23.8633 60.5327 24.8975 61.5553 26.1733 61.5553H33.9733C35.2491 61.5553 36.2833 60.5327 36.2833 59.2714V59.2566C36.2833 57.9952 35.2491 56.9727 33.9733 56.9727Z" fill="#68E348"/>
<path d="M26.1733 57.4727H33.9733C34.9783 57.4727 35.7833 58.2767 35.7833 59.2566V59.2714C35.7833 60.2513 34.9783 61.0553 33.9733 61.0553H26.1733C25.1683 61.0553 24.3633 60.2513 24.3633 59.2714V59.2566C24.3633 58.2767 25.1683 57.4727 26.1733 57.4727Z" stroke="white" stroke-opacity="0.14"/>
</g>
<rect x="17.9141" y="38.6523" width="53" height="34" rx="5.5" stroke="#023DFF"/>
<defs>
<clipPath id="clip0_15395_304234">
<rect x="34.5234" y="4.5957" width="53.5866" height="35.129" rx="6" transform="rotate(45 34.5234 4.5957)" fill="white"/>
</clipPath>
<clipPath id="clip1_15395_304234">
<rect x="23.4688" y="19.3574" width="53.5866" height="35.129" rx="6" transform="rotate(25 23.4688 19.3574)" fill="white"/>
</clipPath>
<clipPath id="clip2_15395_304234">
<rect x="17.4141" y="38.1523" width="54" height="35" rx="6" fill="white"/>
</clipPath>
</defs>
</svg>
