<svg width="81" height="81" viewBox="0 0 81 81" fill="none" xmlns="http://www.w3.org/2000/svg">
<g clip-path="url(#clip0_15395_304228)">
<path d="M34.9141 76.3496V60.3496H45.9141V76.3496H34.9141Z" fill="#FF7800" stroke="#023DFF"/>
<path d="M10.0938 61.8496H68.4137C70.005 61.8496 71.5312 61.2175 72.6564 60.0923C73.7816 58.9671 74.4137 57.4409 74.4137 55.8496V55.3896H10.0938V61.8496Z" fill="#FF7800"/>
<path d="M12.4141 14.3496H68.4141C71.4516 14.3496 73.9141 16.812 73.9141 19.8496V55.8496C73.9141 58.8872 71.4516 61.3496 68.4141 61.3496H12.4141C9.3765 61.3496 6.91406 58.8872 6.91406 55.8496V19.8496C6.91406 16.812 9.3765 14.3496 12.4141 14.3496Z" fill="#023DFF" stroke="#023DFF"/>
<path d="M16.4141 74.8496H64.4141" stroke="#023DFF" stroke-width="4" stroke-linecap="round" stroke-linejoin="round"/>
<path d="M6.41406 50.1592H74.4141" stroke="#FF7800" stroke-width="4"/>
<path d="M11.9641 29.46H32.8341C35.6231 29.46 37.8841 31.7209 37.8841 34.51V71.37C37.8841 74.159 35.6231 76.42 32.8341 76.42H11.9641C9.17502 76.42 6.91406 74.159 6.91406 71.37V34.51C6.91406 31.7209 9.17502 29.46 11.9641 29.46Z" fill="#68E348" stroke="#023DFF"/>
<path d="M16.5352 69.29H28.2752" stroke="#023DFF" stroke-width="4" stroke-linecap="round" stroke-linejoin="round"/>
<path d="M22.4062 29.7598V31.8298" stroke="#023DFF" stroke-linecap="round" stroke-linejoin="round"/>
<path d="M22.563 56.8896C26.5781 56.8896 29.833 53.6347 29.833 49.6196C29.833 45.6045 26.5781 42.3496 22.563 42.3496C18.5479 42.3496 15.293 45.6045 15.293 49.6196C15.293 53.6347 18.5479 56.8896 22.563 56.8896Z" fill="#023DFF"/>
<path d="M30.7344 41.71L22.3644 49.97L18.7344 46.39" stroke="#FF7800" stroke-width="2" stroke-linecap="round" stroke-linejoin="round"/>
<path d="M63.7455 21.4697H48.8555C47.1986 21.4697 45.8555 22.8129 45.8555 24.4697V39.3597C45.8555 41.0166 47.1986 42.3597 48.8555 42.3597H63.7455C65.4023 42.3597 66.7455 41.0166 66.7455 39.3597V24.4697C66.7455 22.8129 65.4023 21.4697 63.7455 21.4697Z" fill="#FF7800"/>
<path d="M62.3047 27.7793L53.9347 36.0393L50.3047 32.4593" stroke="white" stroke-width="2" stroke-linecap="round" stroke-linejoin="round"/>
</g>
<defs>
<clipPath id="clip0_15395_304228">
<rect width="72" height="72" fill="white" transform="translate(4.41406 4.84961)"/>
</clipPath>
</defs>
</svg>
