<svg width="81" height="81" viewBox="0 0 81 81" fill="none" xmlns="http://www.w3.org/2000/svg">
<path fill-rule="evenodd" clip-rule="evenodd" d="M4.41406 12.1523C4.41406 7.73407 7.99578 4.15234 12.4141 4.15234H68.4141C72.8323 4.15234 76.4141 7.73407 76.4141 12.1523V48.1523C76.4141 52.5706 72.8323 56.1523 68.4141 56.1523H47.9141V72.6523H64.4141C65.2425 72.6523 65.9141 73.3239 65.9141 74.1523C65.9141 74.9808 65.2425 75.6523 64.4141 75.6523H46.4141H34.4141H16.4141C15.5856 75.6523 14.9141 74.9808 14.9141 74.1523C14.9141 73.3239 15.5856 72.6523 16.4141 72.6523H32.9141V56.1523H12.4141C7.99578 56.1523 4.41406 52.5706 4.41406 48.1523V12.1523ZM35.9141 72.6523H44.9141V56.6523H35.9141V72.6523Z" fill="#FF7800"/>
<path d="M47.9141 56.1523V55.6523C47.6379 55.6523 47.4141 55.8762 47.4141 56.1523H47.9141ZM47.9141 72.6523H47.4141C47.4141 72.9285 47.6379 73.1523 47.9141 73.1523V72.6523ZM32.9141 72.6523V73.1523C33.1902 73.1523 33.4141 72.9285 33.4141 72.6523H32.9141ZM32.9141 56.1523H33.4141C33.4141 55.8762 33.1902 55.6523 32.9141 55.6523V56.1523ZM35.9141 72.6523H35.4141C35.4141 72.9285 35.6379 73.1523 35.9141 73.1523V72.6523ZM44.9141 72.6523V73.1523C45.1902 73.1523 45.4141 72.9285 45.4141 72.6523H44.9141ZM44.9141 56.6523H45.4141C45.4141 56.3762 45.1902 56.1523 44.9141 56.1523V56.6523ZM35.9141 56.6523V56.1523C35.6379 56.1523 35.4141 56.3762 35.4141 56.6523H35.9141ZM12.4141 3.65234C7.71964 3.65234 3.91406 7.45792 3.91406 12.1523H4.91406C4.91406 8.01021 8.27193 4.65234 12.4141 4.65234V3.65234ZM68.4141 3.65234H12.4141V4.65234H68.4141V3.65234ZM76.9141 12.1523C76.9141 7.45792 73.1085 3.65234 68.4141 3.65234V4.65234C72.5562 4.65234 75.9141 8.01021 75.9141 12.1523H76.9141ZM76.9141 48.1523V12.1523H75.9141V48.1523H76.9141ZM68.4141 56.6523C73.1085 56.6523 76.9141 52.8468 76.9141 48.1523H75.9141C75.9141 52.2945 72.5562 55.6523 68.4141 55.6523V56.6523ZM47.9141 56.6523H68.4141V55.6523H47.9141V56.6523ZM47.4141 56.1523V72.6523H48.4141V56.1523H47.4141ZM64.4141 72.1523H47.9141V73.1523H64.4141V72.1523ZM66.4141 74.1523C66.4141 73.0478 65.5186 72.1523 64.4141 72.1523V73.1523C64.9664 73.1523 65.4141 73.6001 65.4141 74.1523H66.4141ZM64.4141 76.1523C65.5186 76.1523 66.4141 75.2569 66.4141 74.1523H65.4141C65.4141 74.7046 64.9664 75.1523 64.4141 75.1523V76.1523ZM46.4141 76.1523H64.4141V75.1523H46.4141V76.1523ZM46.4141 75.1523H34.4141V76.1523H46.4141V75.1523ZM16.4141 76.1523H34.4141V75.1523H16.4141V76.1523ZM14.4141 74.1523C14.4141 75.2569 15.3095 76.1523 16.4141 76.1523V75.1523C15.8618 75.1523 15.4141 74.7046 15.4141 74.1523H14.4141ZM16.4141 72.1523C15.3095 72.1523 14.4141 73.0478 14.4141 74.1523H15.4141C15.4141 73.6001 15.8618 73.1523 16.4141 73.1523V72.1523ZM32.9141 72.1523H16.4141V73.1523H32.9141V72.1523ZM33.4141 72.6523V56.1523H32.4141V72.6523H33.4141ZM12.4141 56.6523H32.9141V55.6523H12.4141V56.6523ZM3.91406 48.1523C3.91406 52.8468 7.71964 56.6523 12.4141 56.6523V55.6523C8.27193 55.6523 4.91406 52.2945 4.91406 48.1523H3.91406ZM3.91406 12.1523V48.1523H4.91406V12.1523H3.91406ZM35.9141 73.1523H44.9141V72.1523H35.9141V73.1523ZM45.4141 72.6523V56.6523H44.4141V72.6523H45.4141ZM44.9141 56.1523H35.9141V57.1523H44.9141V56.1523ZM35.4141 56.6523V72.6523H36.4141V56.6523H35.4141Z" fill="#023DFF"/>
<rect x="16.4141" y="21.1523" width="36" height="28" fill="#68E348"/>
<circle cx="54.4141" cy="27.1523" r="6" fill="#023DFF" stroke="#023DFF" stroke-linecap="round" stroke-linejoin="round"/>
<path d="M64.4141 49.1523H44.4141C44.4141 43.6295 48.8912 39.1523 54.4141 39.1523C59.9369 39.1523 64.4141 43.6295 64.4141 49.1523Z" fill="#023DFF"/>
<path d="M64.4141 49.1523H44.4141C44.4141 43.6295 48.8912 39.1523 54.4141 39.1523C59.9369 39.1523 64.4141 43.6295 64.4141 49.1523Z" stroke="#023DFF" stroke-linecap="round" stroke-linejoin="round"/>
<path d="M4.41406 11.6523C4.41406 7.51021 7.77193 4.15234 11.9141 4.15234H68.9141C73.0562 4.15234 76.4141 7.51021 76.4141 11.6523V15.1523H4.41406V11.6523Z" fill="#023DFF" stroke="#023DFF"/>
<circle cx="12.4141" cy="9.65234" r="2" fill="white"/>
<circle cx="18.4141" cy="9.65234" r="2" fill="white"/>
<circle cx="24.4141" cy="9.65234" r="2" fill="white"/>
<g clip-path="url(#clip0_15395_304250)">
<path d="M36.5938 23.7432H36.0938V24.2432V46.0613V46.5613H36.5938H41.6847H42.1847V46.0613V24.2432V23.7432H41.6847H36.5938Z" fill="#023DFF" stroke="#023DFF"/>
<path fill-rule="evenodd" clip-rule="evenodd" d="M36.5938 24.2432H41.6847V46.0613H36.5938V24.2432ZM37.321 45.3341H40.9574V24.9704H37.321V45.3341Z" fill="#68E348"/>
<path d="M19.1406 32.834H18.6406V33.334V46.0936V46.5936H19.1406H24.2315H24.7315V46.0936V33.334V32.834H24.2315H19.1406Z" fill="#023DFF" stroke="#023DFF"/>
<path fill-rule="evenodd" clip-rule="evenodd" d="M19.1406 33.334H24.2315V46.0936H19.1406V33.334ZM19.8679 45.3663H23.5043V34.0613H19.8679V45.3663Z" fill="#68E348"/>
<path d="M33.4581 28.9707V28.4707H32.9581H27.8672H27.3672V28.9707V46.0616V46.5616H27.8672H32.9581H33.4581V46.0616V28.9707Z" fill="#023DFF" stroke="#023DFF"/>
<path fill-rule="evenodd" clip-rule="evenodd" d="M32.2308 29.698H28.5945V45.3343H32.2308V29.698ZM32.9581 28.9707V46.0616H27.8672V28.9707H32.9581Z" fill="#68E348"/>
</g>
<defs>
<clipPath id="clip0_15395_304250">
<rect width="24" height="24" fill="white" transform="translate(18.4141 23.1523)"/>
</clipPath>
</defs>
</svg>
