<svg width="241" height="235" viewBox="0 0 241 235" fill="none" xmlns="http://www.w3.org/2000/svg">
<g clip-path="url(#clip0_15224_316653)">
<path d="M210.08 48.6583C192.896 31.0341 169.171 19.2726 145.244 13.8091C141.788 13.0143 138.308 12.3231 134.804 11.7357C81.7344 2.77324 49.2904 49.9076 39.877 70.2687C30.4636 90.6298 5.72234 134.727 6.08001 160.904C6.43768 187.081 61.6584 232.956 118.667 234.407C175.677 235.858 220.504 204.648 230.182 155.881C234.267 135.323 238.476 113.546 234.085 92.6722C230.457 75.3849 221.785 60.6635 210.08 48.6583Z" class="main-color-svg fill-opacity-svg" fill-opacity="0.3"/>
<path d="M5.36523 216.585H240.586" stroke="#263238" stroke-miterlimit="10"/>
<g opacity="0.15">
<path d="M22.8036 154.616C25.7219 154.709 31.7401 152.154 31.7453 152.154C31.7504 152.154 28.8528 148.696 28.6351 148.525C26.1936 146.27 20.1444 143.341 16.8995 145.171C14.5617 146.493 14.1729 149.51 15.6554 151.614C17.1379 153.719 20.3206 154.512 22.8036 154.616Z" fill="black"/>
<path d="M31.9067 171.349C34.6333 170.701 39.4281 166.968 39.8065 166.683C41.9352 169.425 44.2435 172.023 46.7162 174.459C48.1521 175.889 49.6397 177.284 51.1482 178.663C50.3654 178.144 49.6605 177.673 49.5568 177.626C46.6022 176.097 39.9983 174.868 37.3546 177.491C35.4471 179.378 35.867 182.395 37.873 184.033C39.879 185.671 43.1447 185.64 45.5603 185.07C47.9758 184.499 52.159 181.384 53.2475 180.549L54.9996 182.105C57.8143 184.603 60.6289 187.086 63.3192 189.605C64.2678 190.497 65.1698 191.404 66.0769 192.311C65.3823 191.844 64.7914 191.456 64.6929 191.404C61.7434 189.849 55.1395 188.646 52.4907 191.269C50.5832 193.156 51.0082 196.173 53.0091 197.811C55.0099 199.449 58.2756 199.418 60.6911 198.847C63.1067 198.277 66.9114 195.463 68.1866 194.478C69.0886 195.432 69.9905 196.39 70.8147 197.355C71.3693 198.028 71.9447 198.64 72.4579 199.345L74.013 201.393C74.9564 202.73 75.9412 204.104 76.8276 205.431C77.4497 206.348 78.0302 207.24 78.6108 208.131C77.6778 207.235 75.8168 205.539 75.6406 205.394C72.9555 203.435 66.616 201.247 63.5991 203.414C61.4324 204.969 61.3909 208.038 63.1067 209.956C64.8225 211.874 68.0674 212.346 70.5451 212.138C73.2717 211.915 78.3775 209.095 79.0151 208.738C79.9793 210.215 80.9019 211.661 81.7469 213.045C82.514 214.279 83.219 215.456 83.8877 216.586L86.0544 215.725C85.2976 214.497 84.4993 213.216 83.613 211.863C82.6436 210.36 81.5758 208.753 80.4613 207.146C81.824 205.854 83.1084 204.481 84.3076 203.036C86.8423 204.249 92.2747 204.689 92.9745 204.741C92.9745 206.504 92.933 208.219 92.8812 209.842C92.8449 210.956 92.8035 212.024 92.7568 213.056L95.0531 212.143C95.0531 211.407 95.079 210.661 95.0842 209.883C95.0842 208.095 95.0842 206.177 95.0842 204.212C95.7892 204.088 101.548 203.051 103.808 201.501C105.856 200.097 108.074 197.738 108.199 195.11C108.323 192.482 106.364 190.201 103.684 190.352C99.962 190.554 96.4268 196.271 95.5974 199.49C95.5456 199.682 95.2346 201.802 95.079 203.119C95.079 202.315 95.079 201.538 95.022 200.708C94.9806 199.076 94.8873 197.443 94.794 195.691C94.7162 194.841 94.6436 193.99 94.5659 193.125C94.4881 192.259 94.3378 191.368 94.2289 190.481C93.9283 188.408 93.524 186.371 93.073 184.297C94.5037 184.256 99.5888 184.033 101.833 182.949C104.078 181.866 106.623 179.876 107.141 177.294C107.66 174.713 106.073 172.168 103.399 171.908C99.6924 171.546 95.3434 176.667 94.0216 179.72C93.9387 179.907 93.2389 182.203 92.876 183.473C92.5961 182.229 92.3214 180.99 91.9948 179.741C91.0514 176.143 89.9888 172.525 88.9417 168.917C88.6203 167.808 88.3145 166.704 88.0035 165.6C88.5218 165.6 94.5607 165.45 97.0799 164.237C99.3192 163.159 101.87 161.163 102.388 158.587C102.906 156.01 101.32 153.46 98.6454 153.201C94.9391 152.838 90.5901 157.954 89.2682 161.007C89.1698 161.235 88.1641 164.543 87.9464 165.398C87.2622 162.962 86.6039 160.525 86.0544 158.099C85.2915 154.828 84.7426 151.51 84.4112 148.168C84.6445 148.168 90.9581 148.054 93.5395 146.809C95.7737 145.731 98.3292 143.736 98.8423 141.154C99.3555 138.573 97.7745 136.028 95.105 135.768C91.3987 135.406 87.0497 140.527 85.7279 143.575C85.6242 143.819 84.5408 147.374 84.3905 148.033C84.3905 147.841 84.3335 147.639 84.3179 147.447C84.0785 144.086 84.1375 140.71 84.4942 137.36C84.6704 135.504 84.94 133.731 85.2406 132.036C86.4173 132.135 91.8082 132.529 94.2497 131.668C96.5927 130.839 99.3503 129.139 100.143 126.63C100.937 124.121 99.6251 121.415 97.0333 120.866C93.4047 120.098 88.5063 124.707 86.8579 127.604C86.7646 127.76 86.0337 129.455 85.5153 130.714C85.6605 129.947 85.8004 129.159 85.9559 128.418C86.5365 125.66 87.2363 123.172 87.8739 120.974C88.2471 119.725 88.6099 118.606 88.9572 117.564C90.165 117.045 95.0013 114.972 96.7326 113.101C98.4639 111.229 100.092 108.508 99.6458 105.916C99.2 103.324 96.7948 101.52 94.2134 102.236C90.6263 103.236 88.413 109.581 88.2834 112.904C88.2834 113.189 88.6047 117.704 88.667 117.678L88.7447 117.647C88.387 118.647 88.0138 119.72 87.6354 120.902C86.946 123.095 86.1892 125.567 85.562 128.325C84.8376 131.286 84.2872 134.287 83.9136 137.313C83.4792 140.699 83.3456 144.116 83.5145 147.525C83.5145 147.561 83.5145 147.603 83.5145 147.644C83.1309 146.607 81.9594 143.808 81.8402 143.601C80.2229 140.693 75.3918 136.028 71.7374 136.753C69.1041 137.272 67.7927 140.024 68.5495 142.486C69.3063 144.949 72.0536 146.737 74.3862 147.587C77.0194 148.546 83.0739 148.079 83.5559 148.043C83.8164 151.507 84.3065 154.949 85.0229 158.348C85.4324 160.333 85.9041 162.319 86.4017 164.299C86.0389 163.428 85.7071 162.651 85.6501 162.547C84.0328 159.639 79.2017 154.979 75.5473 155.705C72.914 156.223 71.6026 158.975 72.3594 161.406C73.1162 163.838 75.8635 165.657 78.1961 166.507C80.5287 167.357 85.7382 167.077 87.1015 166.984C87.3037 167.741 87.4903 168.503 87.6924 169.26C88.6618 172.888 89.6415 176.517 90.4968 180.109C90.7974 181.374 91.0514 182.628 91.3054 183.882C90.984 183.11 90.7041 182.462 90.6523 182.369C89.035 179.461 84.1987 174.796 80.5495 175.521C77.9162 176.04 76.6048 178.792 77.3564 181.254C78.108 183.717 80.8657 185.5 83.1983 186.355C85.5309 187.21 90.2324 186.951 91.86 186.842C92.0829 188.138 92.3058 189.434 92.4613 190.699C92.5495 191.559 92.6946 192.389 92.7361 193.26C92.7775 194.13 92.8501 194.981 92.9071 195.851C92.959 197.484 93.016 199.174 93.0263 200.771C93.0263 201.88 93.0263 202.937 93.0263 204.005C92.7412 202.746 92.1296 200.289 92.057 200.086C90.9376 197.384 89.144 195.014 86.8475 193.203C86.733 192.896 86.5925 192.599 86.4276 192.316C85.111 190.108 82.1927 189.237 80.0363 190.839C77.0505 193.057 77.2631 199.775 78.3361 202.922C78.3983 203.108 79.3106 205.047 79.8911 206.26C79.435 205.602 78.9996 204.954 78.5175 204.28C77.5793 202.943 76.5996 201.631 75.5577 200.221L73.9508 198.21C73.4324 197.526 72.7948 196.867 72.2143 196.188C70.8302 194.633 69.3581 193.146 67.8393 191.673C69.0108 190.844 73.1214 187.853 74.4017 185.712C75.6821 183.571 76.6981 180.503 75.708 178.066C74.7179 175.63 71.9862 174.381 69.6173 175.635C66.3257 177.382 65.5222 184.048 66.1028 187.324C66.1391 187.527 66.8181 189.833 67.2173 191.088C66.2998 190.212 65.3823 189.325 64.4233 188.465C61.6553 185.982 58.7732 183.551 55.9067 181.12C55.0307 180.373 54.165 179.616 53.3149 178.87C53.7348 178.58 58.7058 175.127 60.1365 172.727C61.4065 170.592 62.4328 167.544 61.4428 165.087C60.4527 162.63 57.7209 161.396 55.352 162.656C52.0605 164.397 51.257 171.069 51.8376 174.339C51.879 174.588 52.8743 177.901 53.1594 178.73C51.2415 177.076 49.3495 175.412 47.5508 173.692C45.1112 171.383 42.8239 168.919 40.7032 166.315C40.9002 166.181 46.0993 162.604 47.5663 160.142C48.8363 158.011 49.8626 154.958 48.8726 152.501C47.8825 150.044 45.1508 148.816 42.7819 150.07C39.4903 151.812 38.6868 158.483 39.2674 161.759C39.314 162.013 40.3715 165.579 40.6099 166.212C40.4907 166.056 40.3456 165.916 40.2263 165.761C38.1712 163.09 36.3584 160.242 34.8095 157.249C33.9335 155.606 33.187 153.989 32.4924 152.397C33.5292 151.832 38.241 149.189 39.8065 147.12C41.3045 145.14 42.6626 142.201 41.9473 139.672C41.232 137.142 38.6505 135.597 36.1572 136.562C32.6946 137.935 31.1654 144.477 31.3832 147.794C31.3832 147.976 31.7149 149.795 31.9689 151.117C31.6682 150.397 31.3469 149.655 31.0721 148.955C30.0354 146.338 29.2423 143.876 28.5633 141.698C28.1849 140.449 27.8687 139.314 27.5888 138.251C28.3145 137.163 31.2173 132.746 31.6164 130.238C32.0155 127.729 31.886 124.536 30.0613 122.638C28.2367 120.741 25.2613 120.565 23.5041 122.566C21.0626 125.381 22.7162 131.896 24.4371 134.737C24.5875 134.981 27.3607 138.557 27.397 138.5L27.4384 138.438C27.6924 139.475 27.9568 140.568 28.3093 141.766C28.9469 143.969 29.6829 146.457 30.6678 149.106C31.6961 151.974 32.8921 154.78 34.2497 157.508C35.7517 160.574 37.5246 163.498 39.5473 166.248C39.5473 166.279 39.6043 166.31 39.6251 166.341C38.7438 165.704 36.2091 164.003 35.9965 163.895C33.0471 162.339 26.4432 161.137 23.7944 163.76C21.8868 165.647 22.3119 168.658 24.3127 170.296C26.3136 171.934 29.4911 171.929 31.9067 171.349Z" fill="black"/>
<path d="M84.7678 131.466C84.8352 131.466 84.2495 126.988 84.1976 126.713C83.4045 123.483 79.9782 117.704 76.2616 117.439C73.5868 117.253 71.5963 119.554 71.6741 122.105C71.7518 124.655 73.9289 127.127 75.9557 128.568C78.335 130.279 84.7626 131.466 84.7678 131.466Z" fill="black"/>
</g>
<g opacity="0.15">
<path d="M231.168 136.851C228.478 137.981 221.947 137.732 221.941 137.732C221.936 137.732 223.408 133.472 223.538 133.218C225.02 130.237 229.629 125.354 233.314 125.909C235.968 126.308 237.404 128.993 236.766 131.486C236.129 133.98 233.459 135.892 231.168 136.851Z" fill="black"/>
<path d="M156.317 140.822C158.909 140.76 163.802 138.474 164.87 137.961C165.756 139.448 166.638 141.003 167.462 142.673C168.987 145.672 170.241 148.801 171.209 152.024C171.266 152.21 171.298 152.407 171.349 152.599C170.976 152.034 168.701 149.095 168.519 148.908C166.197 146.524 160.314 143.284 156.975 144.943C154.575 146.135 154.026 149.131 155.42 151.308C156.815 153.486 159.914 154.491 162.387 154.704C165.238 154.947 171.199 152.812 171.401 152.729C172.28 155.965 172.946 159.255 173.397 162.578C173.744 165.04 173.993 167.549 174.221 170.068C173.703 169.347 171.598 166.616 171.427 166.439C169.105 164.055 163.222 160.815 159.883 162.474C157.478 163.666 156.934 166.662 158.302 168.839C159.671 171.016 162.796 172.022 165.274 172.235C168.058 172.473 173.76 170.451 174.237 170.28C174.34 171.421 174.449 172.566 174.542 173.712C174.848 177.46 175.139 181.218 175.543 184.919C175.678 186.199 175.864 187.454 176.061 188.718C175.273 187.682 173.801 185.764 173.656 185.608C171.334 183.229 165.45 179.989 162.112 181.643C159.712 182.835 159.163 185.831 160.557 188.013C161.952 190.196 165.051 191.196 167.524 191.409C169.996 191.621 174.843 190.025 176.196 189.553C176.507 191.626 176.865 193.7 177.311 195.742C177.523 196.613 177.684 197.515 177.938 198.334C178.192 199.153 178.404 199.993 178.638 200.812C179.156 202.486 179.674 204.041 180.193 205.586C180.462 206.368 180.711 207.099 181.001 207.856C180.364 206.664 179.317 204.798 179.203 204.637C177.269 201.931 171.945 197.836 168.395 198.966C165.839 199.785 164.844 202.662 165.87 205.021C166.897 207.379 169.831 208.851 172.246 209.437C174.905 210.08 180.659 209.002 181.359 208.867C182.028 210.718 182.696 212.495 183.355 214.18C183.634 214.901 183.914 215.595 184.189 216.254L186.657 216.295C186.247 215.346 185.827 214.362 185.397 213.33C184.775 211.837 184.132 210.246 183.495 208.597C184.132 208.302 189.051 205.959 190.99 203.932C192.627 204.853 194.316 205.679 196.049 206.405C195.583 208.318 195.152 210.184 194.779 211.936C194.442 213.491 194.142 214.994 193.867 216.409H194.779H196.179C196.402 215.118 196.645 213.776 196.915 212.361C197.221 210.764 197.563 209.085 197.952 207.359C198.672 207.467 204.452 208.286 207.075 207.53C209.464 206.84 212.31 205.295 213.253 202.864C214.197 200.433 213.057 197.629 210.465 196.924C206.867 195.949 201.725 200.273 199.916 203.061C199.797 203.238 198.662 205.503 198.107 206.69C198.34 205.653 198.563 204.616 198.822 203.533C199.18 201.978 199.605 200.345 200.015 198.759L200.74 196.292C200.974 195.447 201.295 194.674 201.57 193.85C202 192.653 202.503 191.435 203.006 190.222C204.561 190.683 209.179 191.953 211.564 191.642C213.948 191.331 217.074 190.232 218.375 187.946C219.676 185.66 218.976 182.762 216.519 181.653C213.114 180.145 207.38 183.638 205.162 186.121C205.089 186.199 204.68 186.775 204.193 187.459C204.711 186.287 205.229 185.116 205.81 183.949C207.427 180.637 209.179 177.314 210.921 173.976C211.284 173.282 211.636 172.582 211.994 171.903C213.311 172.297 218.292 173.717 220.806 173.391C223.32 173.064 226.321 171.975 227.617 169.695C228.913 167.414 228.219 164.511 225.761 163.402C222.361 161.893 216.623 165.387 214.404 167.865C214.326 167.958 213.834 168.642 213.29 169.42C214.212 167.59 215.104 165.76 215.933 163.915C217.382 160.755 218.615 157.501 219.624 154.175C220.085 154.32 225.896 156.103 228.675 155.73C231.137 155.409 234.185 154.32 235.486 152.034C236.787 149.748 236.082 146.851 233.63 145.741C230.225 144.233 224.486 147.727 222.273 150.21C222.117 150.386 220.355 152.879 219.754 153.786L219.79 153.672C220.681 150.388 221.279 147.032 221.578 143.642C221.876 140.609 221.996 137.561 221.936 134.514C221.936 131.683 221.718 129.102 221.526 126.816C221.412 125.577 221.288 124.447 221.158 123.395L221.221 123.441C221.278 123.478 222.594 119.149 222.646 118.87C223.242 115.594 222.475 108.922 219.194 107.16C216.83 105.895 214.072 107.16 213.088 109.56C212.103 111.96 213.088 115.065 214.358 117.206C215.628 119.346 219.909 122.508 220.977 123.265C221.086 124.364 221.195 125.536 221.288 126.832C221.428 129.118 221.563 131.699 221.526 134.514C221.526 135.265 221.48 136.069 221.454 136.857C221.221 135.53 220.879 133.71 220.822 133.539C219.847 130.362 216.089 124.789 212.367 124.727C209.682 124.691 207.826 127.106 208.054 129.672C208.282 132.238 210.599 134.555 212.72 135.892C214.912 137.266 220.257 138.064 221.428 138.225C221.35 139.956 221.226 141.734 220.987 143.58C220.604 146.929 219.922 150.237 218.95 153.465C218.893 153.646 218.81 153.833 218.753 154.019C218.753 153.346 218.473 149.634 218.427 149.38C217.805 146.114 214.684 140.164 210.988 139.708C208.324 139.376 206.214 141.568 206.157 144.145C206.1 146.721 208.148 149.276 210.097 150.821C212.341 152.599 218.473 154.092 218.707 154.149C217.648 157.338 216.384 160.454 214.923 163.479C213.855 165.724 212.678 167.953 211.476 170.182C211.476 169.301 211.196 165.859 211.149 165.61C210.527 162.344 207.406 156.394 203.711 155.937C201.046 155.606 198.942 157.803 198.879 160.375C198.817 162.946 200.875 165.511 202.824 167.051C205.012 168.787 210.885 170.244 211.377 170.368C210.833 171.379 210.294 172.39 209.734 173.396C207.925 176.692 206.105 179.984 204.39 183.291C203.799 184.437 203.26 185.593 202.71 186.738C202.638 185.422 202.451 183.027 202.415 182.825C201.793 179.559 198.672 173.608 194.976 173.152C192.312 172.82 190.202 175.013 190.145 177.589C190.088 180.165 192.136 182.726 194.085 184.266C196.034 185.805 200.953 187.148 202.337 187.505C201.445 189.423 200.6 191.346 199.854 193.285C199.553 194.125 199.19 194.965 198.947 195.789L198.164 198.235C197.687 199.93 197.241 201.501 196.837 203.087C196.63 203.886 196.453 204.642 196.257 205.425C196.381 204.083 196.542 201.947 196.536 201.75C196.417 198.427 194.235 192.072 190.648 191.061C188.056 190.33 185.651 192.181 185.205 194.716C185.148 195.037 185.122 195.364 185.127 195.69C183.622 198.202 182.787 201.057 182.701 203.984C182.701 204.197 183.007 206.711 183.189 207.991C182.805 206.996 182.422 206.011 182.043 204.964C181.478 203.471 180.939 201.854 180.4 200.324C180.151 199.509 179.901 198.69 179.648 197.867C179.379 197.033 179.218 196.209 178.99 195.369C178.689 194.135 178.441 192.845 178.187 191.554C179.742 191.077 184.293 189.589 186.107 188.019C187.921 186.448 189.927 183.799 189.736 181.176C189.544 178.553 187.367 176.511 184.718 176.952C181.048 177.574 178.187 183.649 177.71 186.94C177.71 187.049 177.663 187.754 177.637 188.589C177.43 187.329 177.217 186.064 177.051 184.779C176.574 181.119 176.201 177.382 175.812 173.639C175.73 172.857 175.641 172.084 175.553 171.302C176.87 170.902 181.805 169.337 183.712 167.673C185.62 166.009 187.527 163.454 187.341 160.831C187.154 158.208 184.967 156.165 182.323 156.606C178.648 157.228 175.792 163.308 175.31 166.6C175.31 166.714 175.263 167.559 175.232 168.502C174.993 166.47 174.714 164.449 174.403 162.453C173.866 159.021 173.101 155.628 172.111 152.299C172.573 152.164 178.399 150.443 180.519 148.608C182.396 146.985 184.334 144.394 184.148 141.765C183.961 139.137 181.774 137.1 179.13 137.546C175.455 138.163 172.599 144.243 172.117 147.535C172.085 147.768 171.987 150.821 171.992 151.91L171.961 151.791C170.909 148.543 169.568 145.396 167.954 142.387C166.528 139.695 164.948 137.087 163.222 134.576C161.641 132.233 160.054 130.185 158.629 128.356C157.851 127.386 157.126 126.515 156.436 125.707H156.514C156.581 125.707 155.291 121.373 155.182 121.109C153.876 118.051 149.552 112.908 145.851 113.251C143.177 113.494 141.585 116.091 142.083 118.621C142.58 121.15 145.126 123.208 147.36 124.297C149.594 125.385 154.912 125.655 156.219 125.702C156.918 126.552 157.654 127.469 158.447 128.506C159.826 130.33 161.366 132.409 162.885 134.778C163.294 135.41 163.704 136.105 164.113 136.768C163.19 135.794 161.9 134.467 161.76 134.353C159.168 132.238 152.984 129.688 149.838 131.678C147.577 133.13 147.365 136.167 148.967 138.178C150.568 140.19 153.834 140.884 156.317 140.822Z" fill="black"/>
<path d="M165.03 137.271C164.973 137.307 163.91 132.907 163.874 132.606C163.465 129.304 164.615 122.69 167.995 121.119C170.431 119.989 173.111 121.435 173.951 123.866C174.791 126.297 173.624 129.366 172.246 131.429C170.623 133.881 165.035 137.266 165.03 137.271Z" fill="black"/>
</g>
<g opacity="0.3">
<path d="M60.5693 84.6031L72.6504 71.3262L49.6621 50.4084L37.581 63.6854L60.5693 84.6031Z" stroke="black" stroke-miterlimit="10"/>
<path d="M58.4525 80.3245C58.8399 79.8998 59.38 79.6461 59.9542 79.6189C60.5285 79.5916 61.0901 79.7932 61.516 80.1794C61.5834 80.2416 61.6404 80.3038 61.7026 80.3712L68.6382 72.7513L68.4257 72.5855C68.0022 72.1973 67.7493 71.6574 67.7221 71.0836C67.695 70.5098 67.8957 69.9484 68.2806 69.522L68.3791 69.4287L51.9523 54.4844L51.8693 54.588C51.4821 55.0117 50.9425 55.2644 50.3691 55.2906C49.7957 55.3169 49.2354 55.1145 48.811 54.728C48.7437 54.6693 48.6813 54.6051 48.6244 54.5362L41.6836 62.1613C41.7579 62.212 41.8288 62.2674 41.8961 62.3271C42.3205 62.7137 42.5742 63.2529 42.6014 63.8263C42.6286 64.3997 42.4271 64.9604 42.0413 65.3855C41.9795 65.4516 41.9137 65.5139 41.8443 65.5721L58.3022 80.5319C58.3385 80.4593 58.3955 80.3919 58.4525 80.3245ZM52.4914 65.1159C52.9641 64.5963 53.5804 64.2286 54.2621 64.0593C54.9439 63.89 55.6606 63.9267 56.3215 64.1649C56.9824 64.403 57.5578 64.8318 57.9749 65.3971C58.392 65.9623 58.6321 66.6386 58.6647 67.3403C58.6974 68.042 58.5212 68.7377 58.1584 69.3392C57.7955 69.9408 57.2624 70.4212 56.6265 70.7197C55.9906 71.0182 55.2804 71.1213 54.5859 71.0161C53.8913 70.9108 53.2436 70.6019 52.7246 70.1284C52.0296 69.4943 51.6146 68.6103 51.5709 67.6704C51.5272 66.7306 51.8582 65.8118 52.4914 65.1159Z" stroke="black" stroke-miterlimit="10"/>
</g>
<g opacity="0.3">
<path d="M148.527 18.4222L143.947 1.06543L113.895 8.99439L118.474 26.3512L148.527 18.4222Z" stroke="black" stroke-miterlimit="10"/>
<path d="M143.784 17.8723C143.639 17.3149 143.722 16.7226 144.013 16.2259C144.305 15.7291 144.782 15.3686 145.34 15.2235C145.427 15.203 145.515 15.1874 145.604 15.1769L142.971 5.20885L142.717 5.29697C142.441 5.36872 142.154 5.3854 141.872 5.34605C141.59 5.30671 141.318 5.21211 141.072 5.06767C140.827 4.92323 140.612 4.73178 140.441 4.50429C140.269 4.2768 140.144 4.01772 140.073 3.74189C140.06 3.69932 140.05 3.65605 140.042 3.6123L118.561 9.28833C118.561 9.3298 118.587 9.37127 118.603 9.41792C118.674 9.69362 118.691 9.98076 118.652 10.2629C118.612 10.5451 118.518 10.8167 118.373 11.0622C118.229 11.3078 118.037 11.5224 117.81 11.6939C117.582 11.8654 117.323 11.9903 117.048 12.0616C116.961 12.0863 116.873 12.1036 116.783 12.1134L119.416 22.0814C119.498 22.0444 119.583 22.0149 119.67 21.9933C119.946 21.9208 120.233 21.9036 120.516 21.9427C120.798 21.9817 121.07 22.0762 121.316 22.2207C121.562 22.3653 121.776 22.557 121.948 22.7848C122.119 23.0127 122.243 23.2722 122.314 23.5484C122.339 23.6349 122.356 23.7233 122.366 23.8127L143.862 18.1419C143.83 18.0539 143.804 17.9639 143.784 17.8723ZM127.762 14.6171C127.582 13.9381 127.608 13.221 127.836 12.5566C128.064 11.8922 128.483 11.3103 129.042 10.8844C129.6 10.4586 130.273 10.208 130.974 10.1644C131.675 10.1207 132.373 10.286 132.98 10.6392C133.587 10.9925 134.076 11.5178 134.385 12.1488C134.693 12.7799 134.807 13.4882 134.713 14.1842C134.619 14.8803 134.321 15.5328 133.856 16.0592C133.391 16.5856 132.78 16.9622 132.101 17.1415C131.191 17.3817 130.222 17.2507 129.409 16.7773C128.595 16.304 128.003 15.527 127.762 14.6171Z" stroke="black" stroke-miterlimit="10"/>
</g>
<g opacity="0.3">
<path d="M166.72 115.493L177.256 130.026L202.42 111.784L191.884 97.2504L166.72 115.493Z" stroke="black" stroke-miterlimit="10"/>
<path d="M171.333 114.297C171.67 114.763 171.808 115.343 171.717 115.911C171.627 116.478 171.316 116.986 170.851 117.325C170.778 117.376 170.702 117.423 170.623 117.465L176.672 125.81C176.74 125.753 176.807 125.691 176.88 125.639C177.11 125.472 177.37 125.352 177.647 125.286C177.923 125.22 178.21 125.208 178.491 125.253C178.771 125.298 179.04 125.398 179.283 125.547C179.525 125.696 179.735 125.891 179.902 126.121C179.931 126.157 179.957 126.195 179.979 126.235L197.956 113.198L197.873 113.095C197.706 112.864 197.586 112.603 197.519 112.326C197.453 112.05 197.442 111.762 197.487 111.481C197.532 111.2 197.631 110.931 197.78 110.688C197.929 110.445 198.125 110.235 198.355 110.068C198.428 110.016 198.504 109.969 198.583 109.928L192.55 101.582C192.484 101.643 192.415 101.701 192.342 101.753C192.112 101.92 191.851 102.041 191.574 102.107C191.297 102.173 191.01 102.184 190.729 102.139C190.448 102.095 190.178 101.995 189.936 101.846C189.693 101.697 189.482 101.502 189.315 101.271C189.264 101.198 189.217 101.122 189.175 101.043L171.178 114.09C171.219 114.183 171.297 114.225 171.333 114.297ZM187.439 111.56C187.85 112.129 188.084 112.807 188.11 113.509C188.137 114.211 187.954 114.904 187.586 115.502C187.219 116.101 186.682 116.576 186.044 116.869C185.405 117.162 184.695 117.259 184.001 117.148C183.308 117.038 182.663 116.724 182.148 116.246C181.633 115.769 181.271 115.15 181.108 114.467C180.945 113.784 180.988 113.068 181.232 112.409C181.476 111.751 181.909 111.18 182.478 110.767C182.855 110.493 183.283 110.296 183.737 110.187C184.191 110.078 184.662 110.06 185.123 110.134C185.584 110.207 186.026 110.371 186.423 110.616C186.82 110.861 187.166 111.182 187.439 111.56Z" stroke="black" stroke-miterlimit="10"/>
</g>
<g opacity="0.3">
<path d="M195.09 44.1646L183.721 58.0557L207.772 77.7416L219.142 63.8506L195.09 44.1646Z" stroke="black" stroke-miterlimit="10"/>
<path d="M197.421 48.3215C197.057 48.7653 196.531 49.0463 195.96 49.1027C195.388 49.159 194.818 48.9862 194.374 48.6222C194.304 48.5657 194.238 48.5052 194.177 48.4407L187.65 56.4183L187.868 56.5738C188.311 56.9383 188.593 57.4635 188.65 58.0347C188.707 58.6058 188.536 59.1764 188.174 59.6217L188.081 59.7202L205.269 73.7833C205.269 73.747 205.316 73.7107 205.347 73.6744C205.712 73.2306 206.237 72.9497 206.809 72.8933C207.38 72.8369 207.951 73.0098 208.395 73.3738L208.592 73.5552L215.118 65.5777C215.042 65.5306 214.97 65.4786 214.901 65.4222C214.456 65.0584 214.174 64.5331 214.117 63.9615C214.059 63.39 214.231 62.819 214.595 62.3742C214.652 62.3053 214.714 62.2411 214.781 62.1824L197.577 48.0986C197.53 48.1761 197.478 48.2506 197.421 48.3215ZM204.16 63.1932C203.717 63.7381 203.123 64.1394 202.452 64.3465C201.781 64.5536 201.064 64.5571 200.391 64.3566C199.718 64.1561 199.12 63.7607 198.671 63.2202C198.223 62.6797 197.945 62.0185 197.873 61.3201C197.8 60.6217 197.937 59.9175 198.264 59.2965C198.592 58.6755 199.097 58.1656 199.714 57.8313C200.331 57.497 201.034 57.3532 201.733 57.4182C202.432 57.4831 203.096 57.7539 203.642 58.1963C204.375 58.7885 204.843 59.6474 204.943 60.5843C205.043 61.5212 204.767 62.4595 204.176 63.1932H204.16Z" stroke="black" stroke-miterlimit="10"/>
</g>
<g opacity="0.3">
<path d="M0.946446 177.019L11.4824 191.553L36.6464 173.31L26.1104 158.777L0.946446 177.019Z" stroke="black" stroke-miterlimit="10"/>
<path d="M5.56757 175.821C5.73465 176.051 5.85473 176.311 5.92093 176.588C5.98714 176.864 5.99817 177.151 5.95339 177.432C5.90861 177.713 5.8089 177.982 5.65998 178.224C5.51105 178.466 5.31584 178.676 5.0855 178.843C5.00775 178.9 4.93518 178.941 4.85742 178.988L10.9067 187.334C10.9711 187.27 11.0405 187.211 11.114 187.157C11.5796 186.822 12.1592 186.685 12.7258 186.776C13.2924 186.867 13.7995 187.18 14.136 187.645L14.2086 187.753L32.1905 174.722L32.1075 174.613C31.9405 174.383 31.8204 174.122 31.7542 173.846C31.688 173.57 31.6769 173.283 31.7217 173.002C31.7665 172.721 31.8662 172.452 32.0151 172.21C32.164 171.968 32.3593 171.758 32.5896 171.591C32.6622 171.539 32.7399 171.493 32.8177 171.446L26.7684 163.1L26.5611 163.277C26.0949 163.612 25.5152 163.749 24.9483 163.659C24.3813 163.568 23.873 163.258 23.5339 162.794C23.482 162.717 23.4354 162.644 23.3939 162.566L5.42243 175.613C5.45353 175.676 5.51055 175.748 5.56757 175.821ZM21.673 173.079C22.0853 173.647 22.3199 174.325 22.347 175.027C22.3741 175.728 22.1926 176.422 21.8253 177.021C21.4581 177.619 20.9217 178.095 20.2838 178.389C19.646 178.683 18.9354 178.781 18.2419 178.671C17.5484 178.56 16.9031 178.247 16.3877 177.77C15.8722 177.293 15.5097 176.674 15.346 175.992C15.1823 175.309 15.2247 174.593 15.4679 173.934C15.7111 173.275 16.1441 172.703 16.7123 172.291C17.475 171.739 18.4256 171.511 19.3555 171.659C20.2855 171.807 21.1189 172.317 21.673 173.079Z" stroke="black" stroke-miterlimit="10"/>
</g>
<path d="M36.1197 108.653L50.6337 115.34L62.5923 99.2294C62.5923 99.2294 62.4212 95.1654 62.5923 94.5642C63.1246 93.4986 63.7472 92.4807 64.4532 91.5214C64.7072 91.1793 65.2151 91.5214 65.2981 92.0397C65.381 92.5581 65.0441 92.9728 64.8782 93.3978C64.7123 93.8229 64.3599 94.7508 64.3599 94.7508L64.7797 96.0207L69.2635 92.4648C69.2635 92.4648 70.3002 91.1119 70.6216 91.7028C70.7226 91.8791 70.7695 92.0812 70.7566 92.2839C70.7437 92.4866 70.6716 92.6811 70.5491 92.8432L68.5067 95.5957L69.8596 95.6786L73.1564 92.8899C73.1564 92.8899 73.7473 92.6359 73.8354 93.4082C73.8611 93.644 73.8313 93.8825 73.7485 94.1048C73.6657 94.3271 73.5322 94.527 73.3586 94.6886L71.337 96.5806L70.0255 97.384L73.9184 95.7771C73.9184 95.7771 74.4367 96.2955 74.2553 96.5391L70.0255 99.8359L73.1357 99.3175C73.1357 99.3175 73.5607 99.9084 73.3067 100.251L64.6761 102.702C64.6761 102.702 52.6346 125.329 52.4635 125.666C52.2925 126.003 50.5197 126.765 49.1668 126.345C47.8139 125.925 30.5059 118.388 30.5059 118.388" class="main-color-svg"/>
<path d="M36.1197 108.653L50.6337 115.34L62.5922 99.2294C62.5922 99.2294 62.4212 95.1654 62.5922 94.5642C63.1246 93.4986 63.7472 92.4807 64.4532 91.5214C64.7072 91.1793 65.2151 91.5214 65.2981 92.0397C65.381 92.5581 65.0441 92.9728 64.8782 93.3978C64.7123 93.8229 64.3599 94.7508 64.3599 94.7508L64.7797 96.0207L69.2635 92.4648C69.2635 92.4648 70.3002 91.1119 70.6216 91.7028C70.7226 91.8791 70.7695 92.0812 70.7566 92.2839C70.7437 92.4866 70.6716 92.6811 70.5491 92.8432L68.5067 95.5957L69.8596 95.6786L73.1564 92.8899C73.1564 92.8899 73.7473 92.6359 73.8354 93.4082C73.8611 93.644 73.8313 93.8825 73.7485 94.1048C73.6657 94.3271 73.5322 94.527 73.3586 94.6886L71.337 96.5806L70.0255 97.384L73.9184 95.7771C73.9184 95.7771 74.4367 96.2955 74.2553 96.5391L70.0255 99.8359L73.1357 99.3175C73.1357 99.3175 73.5607 99.9084 73.3067 100.251L64.6761 102.702C64.6761 102.702 52.6346 125.329 52.4635 125.666C52.2925 126.003 50.5197 126.765 49.1668 126.345C47.8139 125.925 30.5059 118.388 30.5059 118.388" stroke="#263238" stroke-miterlimit="10"/>
<path d="M58.3665 114.588L64.6956 102.697L73.3263 100.245C73.5803 99.9033 73.1552 99.3124 73.1552 99.3124L70.0451 99.8308L74.2749 96.534C74.446 96.28 73.938 95.772 73.938 95.772L70.0451 97.3789L71.3565 96.5755L73.3781 94.6835C73.5518 94.5219 73.6853 94.322 73.7681 94.0997C73.8509 93.8775 73.8807 93.6389 73.855 93.4031C73.7669 92.6411 73.176 92.8848 73.176 92.8848L69.8792 95.6735L68.5263 95.5906L70.5686 92.8381C70.6911 92.676 70.7633 92.4816 70.7762 92.2788C70.7891 92.0761 70.7422 91.874 70.6412 91.6977C70.2991 91.1068 69.2831 92.4597 69.2831 92.4597L64.7786 96.0416L64.3587 94.7716C64.3587 94.7716 64.6956 93.8385 64.8771 93.4187C65.0585 92.9988 65.3954 92.5686 65.2969 92.0606C65.1984 91.5526 64.706 91.2156 64.452 91.5422C63.746 92.5015 63.1234 93.5195 62.5911 94.585C62.42 95.1759 62.5911 99.2502 62.5911 99.2502L53.7168 111.204L58.3665 114.588Z" fill="white" stroke="#263238" stroke-miterlimit="10"/>
<path d="M64.7789 96.041C65.2347 96.4222 65.6116 96.8888 65.8882 97.4147C66.1578 98.0782 64.9604 99.6695 64.4316 99.9339" stroke="#263238" stroke-miterlimit="10"/>
<path d="M96.7505 100.374C105.858 91.2668 105.858 76.5008 96.7505 67.3934C87.6431 58.286 72.8771 58.286 63.7697 67.3934C54.6623 76.5008 54.6623 91.2668 63.7697 100.374C72.8771 109.482 87.6431 109.482 96.7505 100.374Z" fill="white" stroke="#263238" stroke-miterlimit="10"/>
<path d="M88.4598 101.671C98.282 97.1432 102.574 85.51 98.0456 75.6878C93.5175 65.8655 81.8843 61.5738 72.062 66.1019C62.2398 70.63 57.9481 82.2633 62.4762 92.0855C67.0043 101.908 78.6375 106.199 88.4598 101.671Z" fill="white" stroke="#263238" stroke-miterlimit="10"/>
<path d="M84.2805 101.712L83.617 98.6015C81.2948 99.0058 79.4166 98.6343 77.9825 97.487C76.5483 96.3397 75.4926 94.4045 74.8153 91.6814L79.3717 89.8672C79.5965 90.8053 79.9143 91.7187 80.3203 92.5937C80.5769 93.195 80.9972 93.7123 81.5332 94.0866C81.7692 94.2304 82.0316 94.3255 82.3048 94.3665C82.5781 94.4074 82.8568 94.3934 83.1246 94.325C83.4071 94.2987 83.6766 94.194 83.9028 94.0227C84.129 93.8515 84.3029 93.6205 84.4049 93.3557C84.5719 92.8287 84.5934 92.2663 84.4671 91.7281C84.2864 90.7079 83.7981 89.7673 83.0676 89.0326C82.2691 88.2925 81.3747 87.6631 80.4084 87.1613L77.0391 85.3212C76.2949 84.8772 75.5814 84.3836 74.9034 83.8438C74.243 83.3142 73.6754 82.6783 73.2239 81.9622C72.706 81.1148 72.3459 80.1804 72.1613 79.2045C71.7155 77.1035 71.9661 75.3393 72.9129 73.9121C73.9635 72.411 75.5208 71.3397 77.2982 70.8952L76.6658 67.9095L78.2728 67.5674L78.9103 70.5531C79.9568 70.3511 81.0374 70.4171 82.0516 70.7449C82.886 71.0327 83.631 71.533 84.2131 72.1963C84.781 72.8522 85.2443 73.5918 85.5868 74.389C85.9361 75.1752 86.2271 75.986 86.4576 76.8149L81.7924 78.541C81.6182 77.808 81.3948 77.0876 81.1237 76.3847C80.9362 75.8596 80.6188 75.3906 80.201 75.0214C79.9953 74.8713 79.7564 74.7731 79.5046 74.7352C79.2528 74.6973 78.9956 74.7208 78.7548 74.8037C78.4741 74.8585 78.2114 74.9819 77.9898 75.1627C77.7682 75.3436 77.5948 75.5764 77.4849 75.8404C77.262 76.3711 77.2094 76.958 77.3345 77.5199C77.48 78.4152 77.9261 79.2342 78.5993 79.8421C79.2502 80.3826 79.9436 80.8697 80.6728 81.2987L83.9695 83.1181C84.8497 83.6347 85.6885 84.2188 86.4784 84.865C87.2789 85.5161 87.9778 86.2831 88.5518 87.1406C89.172 88.0988 89.603 89.1668 89.8218 90.287C90.0723 91.4046 90.0599 92.5651 89.7855 93.6771C89.5266 94.7354 88.9897 95.7053 88.2304 96.4866C87.403 97.3105 86.3816 97.913 85.2602 98.2387L85.9289 101.39L84.2805 101.712Z" fill="#263238"/>
<path d="M62.0836 210.345L68.2365 214.699C68.2365 214.699 71.948 215.461 72.4249 215.845C72.9018 216.228 72.8966 217.84 72.8966 217.84C72.8966 217.84 69.097 218.317 65.5774 218.411C62.0577 218.504 60.2486 218.411 57.491 218.317C54.7333 218.224 52.4525 218.411 51.8823 217.747C51.3121 217.084 51.8823 211.273 51.8823 211.273C51.8823 211.273 58.2944 207.789 62.0836 210.345Z" fill="white" stroke="#263238" stroke-miterlimit="10"/>
<path d="M65.5777 218.411C69.0973 218.317 72.8969 217.84 72.8969 217.84C72.8941 217.493 72.8663 217.147 72.8139 216.804C68.8796 217.125 61.5708 217.633 59.5854 217.151C57.3254 216.607 53.0956 216.384 51.6338 216.316C51.601 216.8 51.6864 217.284 51.8826 217.726C52.4528 218.39 54.7336 218.198 57.4913 218.297C60.2489 218.395 62.058 218.504 65.5777 218.411Z" fill="white" stroke="#263238" stroke-miterlimit="10"/>
<path d="M26.8201 212.988L30.0547 217.078L35.6633 220.597C36.0417 221.738 35.8551 222.023 35.7566 222.406C35.6581 222.79 33.9527 222.878 31.8586 222.785C29.7644 222.691 24.6326 223.355 23.1087 222.878C21.5847 222.401 16.738 221.074 16.1678 220.805C15.5976 220.535 14.6439 220.234 14.929 219.187C15.2141 218.14 16.0538 214.47 16.0538 214.47C17.6329 213.456 19.4141 212.798 21.2735 212.542C23.1328 212.286 25.0256 212.438 26.8201 212.988Z" fill="white" stroke="#263238" stroke-miterlimit="10"/>
<path d="M31.8586 222.785C33.932 222.878 35.6633 222.785 35.7566 222.406C35.8762 222.087 35.9136 221.743 35.8655 221.406C33.2737 221.515 26.535 221.779 24.6326 221.546C22.4555 221.287 16.1471 218.954 15.0845 218.565C15.0274 218.809 14.9704 219.016 14.929 219.172C14.6439 220.209 15.5976 220.504 16.1678 220.789C16.738 221.074 21.5899 222.406 23.1087 222.863C24.6275 223.319 29.7851 222.692 31.8586 222.785Z" fill="white" stroke="#263238" stroke-miterlimit="10"/>
<path d="M22.7146 146.923L25.4101 179.548L17.0438 209.681L15.8516 214.455C15.8516 214.455 16.7794 215.253 19.3038 215.118C21.8282 214.983 26.8667 213.791 26.8667 213.791C27.2375 213.099 27.4165 212.321 27.385 211.536C27.2503 210.474 26.7215 210.074 26.7215 209.681C26.7215 209.287 37.887 179.548 37.887 179.548L38.9237 162.292L46.4917 181.539L51.4006 211.272C51.4006 211.272 51.6701 212.734 52.0641 212.599C52.458 212.464 59.1241 210.08 59.1241 210.08L61.6434 210.349C61.6434 210.349 61.9077 206.498 60.8451 205.684C60.2521 205.263 59.7555 204.72 59.3885 204.093L58.3259 175.821L47.9587 146.752L47.0256 143.17L23.15 144.507L22.7146 146.923Z" fill="#263238" stroke="#263238" stroke-miterlimit="10"/>
<path d="M22.7207 146.918L22.9332 148.701L47.9751 146.763L46.8969 144.425L22.7207 146.918Z" class="main-color-svg" stroke="#263238" stroke-miterlimit="10"/>
<path d="M19.9367 106.227C19.9367 106.227 18.3817 111.385 18.5683 113.754C18.7549 116.123 21.6784 134.825 21.6784 134.825L22.7825 142.015C22.7825 142.015 21.9324 144.212 22.0205 144.72C22.1087 145.228 21.9324 146.581 22.6944 146.923C23.4564 147.266 29.91 146.841 36.5242 146.67C43.1385 146.498 45.6629 146.244 46.5078 145.908C47.3527 145.571 48.3687 144.384 48.1977 143.456C47.9817 142.562 47.6993 141.685 47.3527 140.833C47.3527 140.833 47.0158 118.238 46.5078 114.77C45.9998 111.302 45.4089 106.564 43.6309 104.786C41.8529 103.008 38.8776 102.262 38.8776 102.262L36.5242 106.647C36.5242 106.647 28.4015 103.35 25.4417 103.019C22.4819 102.687 19.9367 106.227 19.9367 106.227Z" class="main-color-svg" stroke="#263238" stroke-miterlimit="10"/>
<path d="M24.8861 122.705C23.7872 123.042 22.8801 123.301 22.4395 123.379" stroke="#263238" stroke-miterlimit="10"/>
<path d="M32.3771 120.196C32.3771 120.196 29.2255 121.3 26.416 122.213" stroke="#263238" stroke-miterlimit="10"/>
<path d="M24.4974 128.885C24.0628 129.202 23.6054 129.486 23.1289 129.735" stroke="#263238" stroke-miterlimit="10"/>
<path d="M33.216 121.166C33.216 121.166 29.2143 125.168 25.959 127.791" stroke="#263238" stroke-miterlimit="10"/>
<path d="M37.6909 111.073C37.6909 111.073 30.8382 107.445 27.5414 106.408C24.2447 105.371 23.0576 105.226 22.2956 105.371C21.5336 105.516 18.5686 108.59 18.3146 107.745C18.0606 106.9 19.2477 101.484 19.5846 100.297C19.9215 99.1096 25.0844 97.6737 26.5254 97.2538C27.9665 96.834 35.1561 99.6227 36.763 100.131C38.3699 100.639 39.8732 102.5 39.8732 103.759C39.8732 105.019 37.6909 111.073 37.6909 111.073Z" class="main-color-svg" stroke="#263238" stroke-miterlimit="10"/>
<path d="M20.2266 102.096C20.2266 102.096 21.6106 100.992 22.44 101.546C23.2693 102.101 37.208 109.949 37.208 109.949L37.913 102.651" stroke="#263238" stroke-miterlimit="10"/>
<path d="M39.8934 79.8837C39.8934 79.8837 41.096 83.5122 41.096 84.4142C41.096 85.3161 40.6709 86.8193 40.956 87.3844C41.2411 87.9494 42.9362 90.5671 42.6563 91.0129C42.3763 91.4586 41.3085 92.993 41.3085 92.993C41.3085 92.993 41.0286 98.2958 40.7435 98.866C40.4584 99.4362 38.6234 99.3843 37.7733 99.3843H36.0057C36.0057 99.3843 37.5608 109.855 37.2083 109.995C36.8558 110.135 26.7375 99.8094 26.7375 99.8094L27.0899 92.2414C27.0899 92.2414 23.5651 86.9593 24.1198 84.637C24.6744 82.3148 30.2053 80.4643 33.1755 79.6867C36.1457 78.9092 39.8934 79.8837 39.8934 79.8837Z" fill="white" stroke="#263238" stroke-miterlimit="10"/>
<path d="M39.1151 87.8511C39.2188 88.3695 39.0633 88.8878 38.7782 88.9241C38.4931 88.9604 38.1769 88.582 38.0732 88.0481C37.9695 87.5142 38.125 87.0114 38.4153 86.9751C38.7056 86.9388 39.0062 87.312 39.1151 87.8511Z" fill="#263238"/>
<path d="M37.209 85.9696C37.5143 85.6112 37.9196 85.3522 38.3731 85.2256C38.8265 85.0991 39.3074 85.1109 39.7541 85.2594" stroke="#263238" stroke-miterlimit="10"/>
<path d="M36.1445 91.7695C36.8651 92.7378 37.9269 93.3956 39.1147 93.6097" stroke="#263238" stroke-miterlimit="10"/>
<path d="M28.3649 89.4378C28.3649 89.4378 30.205 89.7177 30.205 89.2252C30.205 88.7328 29.9925 86.8874 29.9925 86.8874C29.9925 86.8874 32.4651 84.9073 32.3977 83.9898C32.3303 83.0723 31.1951 82.2896 31.2625 82.0097C31.3299 81.7298 34.6577 80.7345 37.348 80.7345C40.0383 80.7345 40.6033 81.2995 41.4534 80.0244C42.3035 78.7492 42.9359 77.0542 41.3083 75.2866C39.6806 73.519 38.9031 74.2965 38.0582 74.084C37.2132 73.8715 34.7303 71.3937 33.0353 71.9639C32.555 72.1121 32.1237 72.3874 31.787 72.7606C31.4503 73.1338 31.2207 73.591 31.1225 74.084C31.1225 74.084 27.9398 71.9639 26.5973 73.0939C25.8315 73.6918 25.307 74.5458 25.1199 75.4991C24.4962 75.5452 23.8949 75.7517 23.3745 76.0986C22.8541 76.4456 22.4322 76.9212 22.1497 77.4792C21.2271 79.392 21.2996 80.4494 21.2996 80.4494C21.2996 80.4494 19.5217 81.5276 19.5942 83.0827C19.5817 83.8741 19.7765 84.6551 20.1592 85.3479C20.1592 85.3479 18.6716 85.9855 20.1592 88.2455C21.6469 90.5056 22.2327 90.7959 22.2327 90.7959C22.2327 90.7959 20.5376 91.0084 22.2327 92.4235C23.9277 93.8386 27.043 94.4036 27.7532 94.7561C28.4633 95.1086 28.6033 92.776 28.6033 91.3609C28.6377 90.7108 28.557 90.0597 28.3649 89.4378Z" fill="#263238" stroke="#263238" stroke-miterlimit="10"/>
<path d="M29.4957 90.1425C29.4957 90.1425 27.6556 87.7477 26.6759 88.5148C25.6962 89.282 26.3234 92.6876 27.386 93.7503C28.4487 94.8129 30.0037 92.9727 30.0037 92.9727" fill="white"/>
<path d="M29.4957 90.1425C29.4957 90.1425 27.6556 87.7477 26.6759 88.5148C25.6962 89.282 26.3234 92.6876 27.386 93.7503C28.4487 94.8129 30.0037 92.9727 30.0037 92.9727" stroke="#263238" stroke-miterlimit="10"/>
<path d="M36.005 99.338L32.957 99.2861L36.5078 102.925L36.005 99.338Z" fill="#263238" stroke="#263238" stroke-miterlimit="10"/>
<path d="M28.5506 108.253L43.0646 114.94L55.018 98.8297C55.018 98.8297 54.8521 94.7709 55.018 94.1644C55.1838 93.558 56.6301 91.4586 56.884 91.1217C57.138 90.7847 57.6409 91.1217 57.729 91.64C57.8171 92.1584 57.475 92.5679 57.3039 92.9929C57.1329 93.418 56.7856 94.3459 56.7856 94.3459L57.2106 95.6158L61.6944 92.0599C61.6944 92.0599 62.7311 90.707 63.0473 91.2979C63.149 91.4737 63.1969 91.6755 63.1849 91.8782C63.1729 92.081 63.1016 92.2757 62.9799 92.4383L60.9065 95.1908L62.2594 95.2789L65.5614 92.485C65.5614 92.485 66.1523 92.231 66.2352 93.0033C66.2628 93.2396 66.2344 93.479 66.1525 93.7023C66.0706 93.9255 65.9373 94.1265 65.7635 94.2888L63.7368 96.1757L62.4409 96.9688L66.3337 95.3619C66.3337 95.3619 66.8521 95.8802 66.6707 96.1238L62.4409 99.4206L65.551 98.9022C65.551 98.9022 65.9709 99.4984 65.7169 99.8353L57.0862 102.287C57.0862 102.287 45.0447 124.913 44.8789 125.25C44.713 125.587 42.9298 126.349 41.5769 125.929C40.224 125.51 22.916 117.978 22.916 117.978" class="main-color-svg"/>
<path d="M28.5506 108.253L43.0646 114.94L55.018 98.8297C55.018 98.8297 54.8521 94.7709 55.018 94.1644C55.1838 93.558 56.6301 91.4586 56.884 91.1217C57.138 90.7847 57.6409 91.1217 57.729 91.64C57.8171 92.1584 57.475 92.5679 57.3039 92.9929C57.1329 93.418 56.7856 94.3459 56.7856 94.3459L57.2106 95.6158L61.6944 92.0599C61.6944 92.0599 62.7311 90.707 63.0473 91.2979C63.149 91.4737 63.1969 91.6755 63.1849 91.8782C63.1729 92.081 63.1016 92.2757 62.9799 92.4383L60.9065 95.1908L62.2594 95.2789L65.5614 92.485C65.5614 92.485 66.1523 92.231 66.2352 93.0033C66.2628 93.2396 66.2344 93.479 66.1525 93.7023C66.0706 93.9255 65.9373 94.1265 65.7635 94.2888L63.7367 96.1757L62.4409 96.9688L66.3337 95.3619C66.3337 95.3619 66.8521 95.8802 66.6707 96.1238L62.4409 99.4206L65.551 98.9022C65.551 98.9022 65.9709 99.4984 65.7169 99.8353L57.0862 102.287C57.0862 102.287 45.0447 124.913 44.8789 125.25C44.713 125.587 42.9298 126.349 41.5769 125.929C40.224 125.51 22.916 117.978 22.916 117.978" stroke="#263238" stroke-miterlimit="10"/>
<path d="M50.8042 114.184L57.1282 102.293L65.7588 99.8407C66.0128 99.5038 65.593 98.9077 65.593 98.9077L62.4828 99.426L66.7126 96.1293C66.8837 95.8753 66.3757 95.3673 66.3757 95.3673L62.4828 96.9742L63.7891 96.1707L65.8159 94.2839C65.9896 94.1215 66.1229 93.9206 66.2048 93.6973C66.2867 93.474 66.3151 93.2346 66.2876 92.9984C66.2046 92.2364 65.6137 92.48 65.6137 92.48L62.3118 95.274L60.9588 95.1858L63.0323 92.4334C63.154 92.2708 63.2252 92.076 63.2372 91.8733C63.2492 91.6705 63.2014 91.4688 63.0997 91.293C62.7627 90.702 61.7467 92.055 61.7467 92.055L57.2629 95.6109L56.8379 94.3409C56.8379 94.3409 57.1748 93.4079 57.3562 92.988C57.5377 92.5681 57.8746 92.1431 57.7813 91.6351C57.688 91.1271 57.1852 90.785 56.9312 91.1167C56.6772 91.4485 55.2413 93.5686 55.0703 94.1595C54.8992 94.7504 55.0703 98.8247 55.0703 98.8247L46.2012 110.778L50.8042 114.184Z" fill="white" stroke="#263238" stroke-miterlimit="10"/>
<path d="M172.852 46.0145V203.108C172.852 205.173 172.034 207.154 170.577 208.617C169.119 210.08 167.142 210.906 165.077 210.915H97.1719C95.1069 210.906 93.1292 210.08 91.6719 208.617C90.2147 207.154 89.3965 205.173 89.3965 203.108V46.0145C89.3951 43.949 90.2129 41.9673 91.6704 40.5039C93.128 39.0405 95.1064 38.2149 97.1719 38.208H126.304V38.3013C127.029 40.8931 128.704 42.6141 130.554 42.6141H131.622C133.473 42.6141 135.147 40.9138 135.873 38.3013V38.208H165.077C167.142 38.2162 169.119 39.0423 170.577 40.5054C172.034 41.9685 172.852 43.9495 172.852 46.0145Z" fill="white" stroke="#263238" stroke-linecap="round" stroke-linejoin="round"/>
<path d="M172.852 50.462V46.0145C172.852 43.9495 172.034 41.9685 170.577 40.5054C169.119 39.0423 167.142 38.2162 165.077 38.208H135.935V38.3013C135.209 40.8931 133.535 42.6141 131.684 42.6141H130.616C128.766 42.6141 127.092 40.9138 126.366 38.3013V38.208H97.1719C95.1064 38.2149 93.128 39.0405 91.6704 40.5039C90.2129 41.9673 89.3951 43.949 89.3965 46.0145V50.462H172.852Z" fill="#263238" stroke="#263238" stroke-miterlimit="10"/>
<path d="M89.3965 198.91V203.109C89.3965 205.174 90.2147 207.155 91.6719 208.618C93.1292 210.081 95.1068 210.907 97.1719 210.915H165.077C167.142 210.907 169.119 210.081 170.577 208.618C172.034 207.155 172.852 205.174 172.852 203.109V198.91H89.3965Z" fill="#263238" stroke="#263238" stroke-miterlimit="10"/>
<path d="M178.181 83.5387V67.848H176.761V47.7616C176.755 44.4804 175.448 41.3354 173.127 39.0166C170.805 36.6979 167.658 35.3949 164.377 35.3936H97.8719C94.588 35.3949 91.4389 36.7001 89.1169 39.0221C86.7948 41.3442 85.4897 44.4932 85.4883 47.7771V207.375C85.4897 210.658 86.7948 213.807 89.1169 216.13C91.4389 218.452 94.588 219.757 97.8719 219.758H164.377C167.661 219.757 170.81 218.452 173.132 216.13C175.454 213.807 176.759 210.658 176.761 207.375V96.9072H178.181V87.6389H176.761V83.5387H178.181ZM172.852 198.531C172.852 201.815 171.548 204.964 169.227 207.286C166.906 209.608 163.757 210.914 160.474 210.915H101.76C98.4788 210.909 95.3343 209.602 93.0164 207.281C90.6985 204.959 89.3967 201.812 89.3967 198.531V50.5866C89.3981 47.3041 90.7027 44.1564 93.0238 41.8353C95.3449 39.5142 98.4926 38.2096 101.775 38.2082H126.33V38.3015C127.055 40.8933 128.73 42.6143 130.58 42.6143H131.648C133.499 42.6143 135.173 40.9141 135.899 38.3015V38.2082H160.453C162.08 38.2062 163.692 38.5248 165.196 39.1459C166.7 39.767 168.067 40.6784 169.218 41.828C170.37 42.9776 171.283 44.3428 171.907 45.8456C172.53 47.3485 172.852 48.9595 172.852 50.5866V198.531Z" class="main-color-svg" stroke="#263238" stroke-linecap="round" stroke-linejoin="round"/>
<path d="M163.387 37.083H98.8617C95.6997 37.083 92.6673 38.3391 90.4314 40.575C88.1955 42.8108 86.9395 45.8433 86.9395 49.0053V206.068C86.9395 209.23 88.1955 212.262 90.4314 214.498C92.6673 216.734 95.6997 217.99 98.8617 217.99H163.387C166.549 217.99 169.581 216.734 171.817 214.498C174.053 212.262 175.309 209.23 175.309 206.068V49.0053C175.309 45.8433 174.053 42.8108 171.817 40.575C169.581 38.3391 166.549 37.083 163.387 37.083ZM172.852 198.972C172.852 202.134 171.596 205.166 169.36 207.402C167.124 209.638 164.092 210.894 160.93 210.894H101.319C98.1567 210.894 95.1243 209.638 92.8884 207.402C90.6526 205.166 89.3965 202.134 89.3965 198.972V50.1508C89.3965 46.9888 90.6526 43.9564 92.8884 41.7205C95.1243 39.4847 98.1567 38.2286 101.319 38.2286H126.314V38.3219C127.04 40.9137 128.714 42.6346 130.565 42.6346H131.632C133.483 42.6346 135.157 40.9344 135.883 38.3219V38.2286H160.93C164.092 38.2286 167.124 39.4847 169.36 41.7205C171.596 43.9564 172.852 46.9888 172.852 50.1508V198.972Z" fill="#263238" stroke="#263238" stroke-linecap="round" stroke-linejoin="round"/>
<path d="M132.031 38.8047C132.031 38.5752 131.963 38.351 131.836 38.1601C131.709 37.9693 131.528 37.8205 131.316 37.7324C131.104 37.6444 130.871 37.6211 130.645 37.6655C130.42 37.7099 130.213 37.8199 130.051 37.9818C129.888 38.1437 129.777 38.3501 129.732 38.575C129.687 38.7999 129.709 39.0332 129.796 39.2454C129.883 39.4577 130.031 39.6394 130.221 39.7676C130.412 39.8958 130.635 39.9648 130.865 39.9658C131.018 39.9665 131.169 39.9369 131.311 39.8789C131.452 39.8208 131.581 39.7354 131.689 39.6275C131.798 39.5197 131.884 39.3914 131.942 39.2502C132.001 39.109 132.031 38.9576 132.031 38.8047Z" fill="white"/>
<path d="M96.7989 43.2567C96.7989 44.4334 95.4771 44.8533 95.4719 45.7552V45.8122H96.7575V46.2114H95.0469V45.8745C95.0469 44.6148 96.3635 44.3712 96.3635 43.2827C96.3635 42.8835 96.2339 42.671 95.9074 42.671C95.5808 42.671 95.4512 42.8991 95.4512 43.2464V43.5885H95.0469V43.2723C95.0469 42.6762 95.3164 42.2822 95.9177 42.2822C96.519 42.2822 96.7989 42.6503 96.7989 43.2567Z" fill="white"/>
<path d="M98.9343 43.2522V43.3506C98.953 43.5176 98.9171 43.686 98.8321 43.8309C98.7471 43.9757 98.6174 44.0891 98.4626 44.1541C98.6184 44.2194 98.7487 44.3336 98.8338 44.4795C98.9189 44.6254 98.9542 44.795 98.9343 44.9627V45.2427C98.9343 45.8388 98.6544 46.2275 98.0531 46.2275C97.4518 46.2275 97.1719 45.8595 97.1719 45.2427V44.9731H97.5762V45.2686C97.5762 45.6211 97.7213 45.8336 98.0324 45.8336C98.3434 45.8336 98.4885 45.6262 98.4885 45.2323V44.9316C98.4885 44.5481 98.3278 44.3614 98.0013 44.3511H97.768V43.9623H98.022C98.3123 43.9623 98.4885 43.7653 98.4885 43.444V43.2677C98.4885 42.8686 98.3486 42.6612 98.0324 42.6612C97.7162 42.6612 97.5762 42.8789 97.5762 43.2314V43.4284H97.1719V43.2522C97.1719 42.656 97.4466 42.2725 98.0427 42.2725C98.6388 42.2725 98.9343 42.6509 98.9343 43.2522Z" fill="white"/>
<path d="M99.7636 43.5469V44.0652H99.3438V43.5469H99.7636ZM99.7636 45.667V46.2112H99.3438V45.667H99.7636Z" fill="white"/>
<path d="M100.661 43.9002C100.717 43.7971 100.8 43.7118 100.902 43.6541C101.004 43.5963 101.12 43.5684 101.237 43.5736C101.755 43.5736 101.962 43.9416 101.962 44.5015V45.2427C101.962 45.8388 101.677 46.2276 101.081 46.2276C100.485 46.2276 100.205 45.8388 100.205 45.2427V44.9784H100.615V45.2686C100.615 45.6211 100.76 45.8337 101.071 45.8337C101.382 45.8337 101.527 45.6211 101.527 45.2686V44.5118C101.527 44.1594 101.382 43.952 101.071 43.952C101.014 43.9492 100.958 43.9578 100.905 43.9774C100.852 43.9969 100.803 44.0269 100.762 44.0656C100.721 44.1043 100.688 44.151 100.665 44.2027C100.643 44.2544 100.631 44.3102 100.63 44.3667V44.4548H100.226L100.329 42.2881H101.885V42.6769H100.734L100.661 43.9002Z" fill="white"/>
<path d="M104.133 43.247V43.3195H103.724V43.2159C103.724 42.8686 103.579 42.6612 103.263 42.6612C102.946 42.6612 102.786 42.8738 102.786 43.2884V44.1645C102.833 44.0364 102.92 43.9267 103.033 43.8512C103.147 43.7757 103.282 43.7384 103.418 43.7446C103.936 43.7446 104.144 44.1075 104.144 44.6725V45.2427C104.144 45.8388 103.848 46.2275 103.252 46.2275C102.656 46.2275 102.355 45.8595 102.355 45.2427V43.2729C102.355 42.656 102.63 42.2725 103.252 42.2725C103.874 42.2725 104.133 42.6509 104.133 43.247ZM102.786 44.7036V45.2893C102.786 45.6418 102.931 45.8543 103.252 45.8543C103.574 45.8543 103.714 45.6418 103.714 45.2893V44.7243C103.714 44.377 103.563 44.1645 103.252 44.1645C102.941 44.1645 102.786 44.3563 102.786 44.7243V44.7036Z" fill="white"/>
<path d="M146.722 43.4121H145.623V46.1646H146.722V43.4121Z" fill="white"/>
<path d="M148.194 42.8633H147.09V46.1704H148.194V42.8633Z" fill="white"/>
<path d="M149.661 42.4688H148.557V46.1646H149.661V42.4688Z" fill="white"/>
<path d="M151.128 41.79H150.029V46.1702H151.128V41.79Z" fill="white"/>
<path d="M164.761 46.0979H158.152V42.0547H164.761V46.0979ZM158.541 45.7299H164.414V42.4227H158.52L158.541 45.7299Z" fill="white"/>
<path d="M162.557 42.8213H159.068V45.325H162.557V42.8213Z" fill="white"/>
<path d="M165.363 43.5996H164.533V44.5534H165.363V43.5996Z" fill="white"/>
<path d="M155.746 45.2427C155.702 45.2435 155.659 45.2308 155.622 45.2064C154.274 44.4081 153.388 45.1494 153.352 45.2064C153.305 45.2517 153.243 45.277 153.178 45.277C153.113 45.277 153.051 45.2517 153.004 45.2064C152.981 45.1837 152.963 45.1567 152.951 45.1269C152.938 45.0971 152.932 45.0651 152.932 45.0327C152.932 45.0004 152.938 44.9684 152.951 44.9386C152.963 44.9088 152.981 44.8818 153.004 44.8591C153.051 44.8176 154.191 43.8224 155.855 44.828C155.883 44.845 155.908 44.8673 155.927 44.8937C155.946 44.9201 155.96 44.9501 155.968 44.9818C155.975 45.0136 155.977 45.0466 155.972 45.0789C155.967 45.1112 155.955 45.1422 155.938 45.1701C155.913 45.1951 155.883 45.2145 155.85 45.2271C155.817 45.2396 155.782 45.2449 155.746 45.2427Z" fill="white"/>
<path d="M156.224 44.3869C156.18 44.3877 156.137 44.375 156.1 44.3506C154.156 43.1946 152.844 44.3143 152.834 44.3506C152.811 44.3736 152.784 44.3919 152.755 44.4044C152.725 44.4169 152.693 44.4233 152.66 44.4233C152.628 44.4233 152.596 44.4169 152.566 44.4044C152.537 44.3919 152.509 44.3736 152.487 44.3506C152.464 44.3279 152.445 44.3009 152.433 44.2711C152.42 44.2412 152.414 44.2092 152.414 44.1769C152.414 44.1446 152.42 44.1126 152.433 44.0828C152.445 44.053 152.464 44.0259 152.487 44.0033C152.487 44.0033 154.078 42.6348 156.333 43.9722C156.361 43.9892 156.385 44.0115 156.405 44.0379C156.424 44.0643 156.438 44.0943 156.445 44.126C156.453 44.1578 156.454 44.1908 156.449 44.2231C156.444 44.2554 156.433 44.2864 156.416 44.3143C156.391 44.3393 156.361 44.3587 156.328 44.3712C156.295 44.3838 156.259 44.3891 156.224 44.3869Z" fill="white"/>
<path d="M156.675 43.4284C156.631 43.426 156.588 43.4136 156.55 43.3921C154.088 41.9252 152.45 43.304 152.403 43.3662C152.356 43.4118 152.293 43.4373 152.227 43.4373C152.161 43.4373 152.098 43.4118 152.051 43.3662C152.009 43.3164 151.988 43.2522 151.993 43.1873C151.998 43.1223 152.028 43.0619 152.077 43.0189C152.077 43.0189 154.041 41.3394 156.825 43.0189C156.853 43.0354 156.877 43.0573 156.896 43.0832C156.915 43.1092 156.929 43.1387 156.937 43.17C156.945 43.2014 156.946 43.2339 156.941 43.2658C156.936 43.2977 156.925 43.3283 156.908 43.3558C156.878 43.3866 156.841 43.4093 156.8 43.422C156.76 43.4347 156.716 43.4369 156.675 43.4284Z" fill="white"/>
<path d="M154.984 45.6308C154.984 45.7539 154.948 45.8741 154.879 45.9764C154.811 46.0787 154.714 46.1584 154.6 46.2055C154.487 46.2526 154.362 46.2649 154.241 46.2409C154.12 46.2169 154.009 46.1577 153.922 46.0707C153.835 45.9837 153.776 45.8729 153.752 45.7522C153.728 45.6315 153.741 45.5065 153.788 45.3928C153.835 45.2791 153.914 45.182 154.017 45.1136C154.119 45.0453 154.239 45.0088 154.362 45.0088C154.444 45.0081 154.525 45.0237 154.601 45.0547C154.677 45.0858 154.746 45.1316 154.804 45.1895C154.862 45.2474 154.907 45.3162 154.938 45.392C154.969 45.4678 154.985 45.549 154.984 45.6308Z" fill="white"/>
<path d="M162.911 120.279H99.6346C97.582 120.279 95.918 121.943 95.918 123.996V160.431C95.918 162.484 97.582 164.148 99.6346 164.148H162.911C164.963 164.148 166.627 162.484 166.627 160.431V123.996C166.627 121.943 164.963 120.279 162.911 120.279Z" class="main-color-svg" stroke="#263238" stroke-linecap="round" stroke-linejoin="round"/>
<path d="M108.819 154.859H101.334V157.954H108.819V154.859Z" fill="#263238"/>
<path d="M118.757 154.859H111.271V157.954H118.757V154.859Z" fill="#263238"/>
<path d="M128.694 154.859H121.209V157.954H128.694V154.859Z" fill="#263238"/>
<path d="M138.626 154.859H131.141V157.954H138.626V154.859Z" fill="#263238"/>
<path d="M148.563 154.859H141.078V157.954H148.563V154.859Z" fill="#263238"/>
<path d="M158.499 154.859H151.014V157.954H158.499V154.859Z" fill="#263238"/>
<path d="M115.874 135.504H103.05C102.102 135.504 101.334 136.272 101.334 137.22V145.918C101.334 146.865 102.102 147.633 103.05 147.633H115.874C116.822 147.633 117.59 146.865 117.59 145.918V137.22C117.59 136.272 116.822 135.504 115.874 135.504Z" fill="white" stroke="#263238" stroke-linecap="round" stroke-linejoin="round"/>
<path d="M136.945 125.438H101.334V127.241H136.945V125.438Z" fill="#263238"/>
<path d="M146.744 89.9702C148.957 80.4533 143.036 70.9444 133.519 68.7315C124.002 66.5186 114.493 72.4397 112.28 81.9566C110.067 91.4735 115.988 100.982 125.505 103.195C135.022 105.408 144.531 99.4871 146.744 89.9702Z" fill="#263238"/>
<path d="M129.703 102.463V99.586C127.578 99.503 125.988 98.8119 124.934 97.5125C123.88 96.2132 123.314 94.3125 123.234 91.8106L127.599 91.0693C127.619 91.9421 127.728 92.8106 127.925 93.6611C128.038 94.2426 128.311 94.7811 128.713 95.2162C128.894 95.3895 129.108 95.5246 129.342 95.6137C129.576 95.7027 129.826 95.7438 130.076 95.7346C130.332 95.7629 130.59 95.7197 130.823 95.6099C131.055 95.5001 131.253 95.3279 131.393 95.1125C131.637 94.6796 131.761 94.1891 131.751 93.6922C131.784 92.7553 131.529 91.8308 131.02 91.0434C130.453 90.2411 129.782 89.5177 129.024 88.8922L126.391 86.6322C125.818 86.1003 125.281 85.5306 124.784 84.9268C124.298 84.3354 123.916 83.6658 123.654 82.9467C123.357 82.1012 123.215 81.2092 123.234 80.3134C123.234 78.3747 123.785 76.8629 124.888 75.7778C126.101 74.6496 127.68 73.9963 129.335 73.9376V71.1592H130.818V73.9169C131.781 73.9334 132.724 74.1938 133.56 74.6736C134.237 75.0828 134.798 75.6594 135.187 76.3479C135.564 77.0362 135.835 77.7771 135.991 78.5458C136.153 79.3058 136.256 80.0769 136.302 80.8525L131.87 81.5264C131.859 80.8472 131.798 80.1699 131.689 79.4996C131.622 78.9998 131.43 78.5253 131.129 78.1207C130.975 77.9496 130.782 77.818 130.566 77.7368C130.35 77.6556 130.119 77.6273 129.89 77.6542C129.631 77.6495 129.375 77.7097 129.145 77.8292C128.915 77.9487 128.718 78.1237 128.573 78.3384C128.279 78.7666 128.123 79.2752 128.127 79.795C128.091 80.598 128.325 81.39 128.791 82.0447C129.265 82.641 129.785 83.1991 130.346 83.7138L132.938 85.9428C133.621 86.5637 134.254 87.238 134.83 87.9592C135.409 88.685 135.879 89.4919 136.224 90.354C136.586 91.3197 136.762 92.345 136.743 93.376C136.755 94.4092 136.528 95.4312 136.079 96.3618C135.647 97.2481 134.985 98.0019 134.161 98.5441C133.274 99.1202 132.256 99.4626 131.201 99.5393V102.447L129.703 102.463Z" fill="white" stroke="#263238" stroke-linecap="round" stroke-linejoin="round"/>
<path d="M143.382 81.4333C146.15 81.4333 148.394 79.1891 148.394 76.4207C148.394 73.6524 146.15 71.4082 143.382 71.4082C140.613 71.4082 138.369 73.6524 138.369 76.4207C138.369 79.1891 140.613 81.4333 143.382 81.4333Z" class="main-color-svg" stroke="#263238" stroke-linecap="round" stroke-linejoin="round"/>
<path d="M143.368 78.6084C143.267 78.6042 143.168 78.5779 143.078 78.5313C142.989 78.4847 142.911 78.419 142.849 78.3389L140.377 75.1406C140.265 74.9956 140.215 74.812 140.238 74.6302C140.261 74.4484 140.356 74.2833 140.501 74.1713C140.646 74.0593 140.83 74.0094 141.011 74.0327C141.193 74.0561 141.358 74.1507 141.47 74.2957L143.425 76.8305L148.551 70.9212C148.675 70.8005 148.84 70.7307 149.013 70.7259C149.186 70.721 149.354 70.7813 149.485 70.8949C149.615 71.0084 149.698 71.1669 149.717 71.3389C149.737 71.5108 149.69 71.6837 149.588 71.8231L143.912 78.37C143.845 78.4478 143.761 78.5096 143.667 78.5509C143.573 78.5921 143.47 78.6118 143.368 78.6084Z" fill="#263238"/>
</g>
<defs>
<clipPath id="clip0_15224_316653">
<rect width="240" height="233.707" fill="white" transform="translate(0.585938 0.746094)"/>
</clipPath>
</defs>
</svg>
