<svg width="241" height="241" viewBox="0 0 241 241" fill="none" xmlns="http://www.w3.org/2000/svg">
<g clip-path="url(#clip0_15224_316230)">
<path d="M217.776 196.132C216.927 197.522 216.045 198.893 215.125 200.225C202.878 217.96 182.948 229.833 163.747 234.933C155.399 237.124 146.81 238.268 138.18 238.341C81.994 239.007 62.6343 190.184 44.8803 177.261C27.1263 164.339 -0.0702448 142.348 4.57915 97.7662C8.10215 63.8687 27.4571 31.8741 61.6661 17.9739C65.5217 16.4014 69.4786 15.0899 73.5101 14.0482C81.6464 11.9641 89.9985 10.838 98.3963 10.693C123.997 10.2137 144.588 17.1734 164.471 33.8969C169.091 37.7841 173.678 42.1555 179.809 42.7786C184.252 43.258 188.518 41.6714 183.979 37.0604C178.649 31.6393 185.23 21.425 198.924 28.9982C221.802 41.6475 230.665 67.8854 234.47 94.4301C239.125 127.009 235.4 167.277 217.776 196.132Z" class="main-color-svg fill-opacity-svg" fill-opacity="0.3"/>
<path d="M174.522 173.118L156.754 176.898C155.41 177.184 154.552 178.505 154.838 179.849L162.715 216.877C163.001 218.221 164.322 219.079 165.666 218.793L183.435 215.013C184.779 214.727 185.636 213.406 185.35 212.062L177.473 175.034C177.187 173.69 175.866 172.832 174.522 173.118Z" stroke="#263238" stroke-linecap="round" stroke-linejoin="round"/>
<path d="M169.129 177.721L176.553 176.145L184.064 211.442L163.616 215.794L156.105 180.492L166.89 178.201" stroke="#263238" stroke-linecap="round" stroke-linejoin="round"/>
<path d="M204.663 166.708L186.894 170.488C185.55 170.774 184.693 172.095 184.979 173.439L192.856 210.467C193.142 211.811 194.463 212.669 195.807 212.383L213.575 208.603C214.919 208.317 215.777 206.996 215.491 205.652L207.614 168.624C207.328 167.28 206.007 166.422 204.663 166.708Z" stroke="#263238" stroke-linecap="round" stroke-linejoin="round"/>
<path d="M206.517 206.668L193.762 209.381L186.256 174.084L206.699 169.731L214.21 205.033L208.602 206.227" stroke="#263238" stroke-linecap="round" stroke-linejoin="round"/>
<path d="M193.201 165.935L191.226 159.349L189.505 161.199C187.22 159.802 184.602 159.041 181.924 158.996C179.245 158.951 176.604 159.624 174.273 160.945C171.942 162.265 170.007 164.185 168.668 166.506C167.33 168.826 166.637 171.462 166.661 174.141C166.661 174.395 166.762 174.639 166.942 174.819C167.121 174.999 167.365 175.1 167.619 175.1C167.681 175.107 167.744 175.107 167.806 175.1C168.024 175.053 168.219 174.932 168.357 174.757C168.496 174.582 168.569 174.364 168.564 174.141C168.533 171.115 169.548 168.171 171.438 165.807C173.328 163.444 175.977 161.806 178.936 161.171C182.079 160.492 185.362 161.004 188.149 162.609L186.5 164.358L193.201 165.935Z" fill="#263238"/>
<path d="M176.486 220.453L178.442 227.039L180.163 225.213C182.451 226.612 185.073 227.373 187.755 227.416C190.437 227.459 193.082 226.783 195.414 225.457C197.746 224.132 199.681 222.205 201.016 219.879C202.351 217.552 203.039 214.91 203.007 212.228C203.007 211.974 202.906 211.73 202.726 211.55C202.547 211.37 202.303 211.269 202.048 211.269C201.985 211.262 201.92 211.262 201.857 211.269C201.639 211.316 201.444 211.437 201.306 211.612C201.167 211.787 201.094 212.005 201.099 212.228C201.132 215.254 200.117 218.198 198.226 220.561C196.336 222.924 193.686 224.561 190.727 225.193C187.586 225.874 184.303 225.362 181.519 223.755L183.168 222.006L176.486 220.453Z" fill="#263238"/>
<path d="M162.928 182.997L158.83 183.869L159.702 187.967L163.799 187.095L162.928 182.997Z" stroke="#263238" stroke-linecap="round" stroke-linejoin="round"/>
<path d="M169.078 181.689L164.98 182.561L165.852 186.658L169.95 185.786L169.078 181.689Z" stroke="#263238" stroke-linecap="round" stroke-linejoin="round"/>
<path d="M175.228 180.38L171.131 181.252L172.003 185.35L176.1 184.478L175.228 180.38Z" stroke="#263238" stroke-linecap="round" stroke-linejoin="round"/>
<path d="M164.314 189.507L160.217 190.379L161.089 194.476L165.186 193.605L164.314 189.507Z" stroke="#263238" stroke-linecap="round" stroke-linejoin="round"/>
<path d="M170.465 188.203L166.367 189.075L167.239 193.173L171.336 192.301L170.465 188.203Z" stroke="#263238" stroke-linecap="round" stroke-linejoin="round"/>
<path d="M176.615 186.895L172.518 187.767L173.389 191.864L177.487 190.992L176.615 186.895Z" stroke="#263238" stroke-linecap="round" stroke-linejoin="round"/>
<path d="M165.697 196.022L161.6 196.894L162.471 200.991L166.569 200.119L165.697 196.022Z" stroke="#263238" stroke-linecap="round" stroke-linejoin="round"/>
<path d="M171.851 194.708L167.754 195.58L168.626 199.678L172.723 198.806L171.851 194.708Z" stroke="#263238" stroke-linecap="round" stroke-linejoin="round"/>
<path d="M177.998 193.4L173.9 194.271L174.772 198.369L178.87 197.497L177.998 193.4Z" stroke="#263238" stroke-linecap="round" stroke-linejoin="round"/>
<path d="M193.199 176.557L189.102 177.429L189.973 181.526L194.071 180.655L193.199 176.557Z" stroke="#263238" stroke-linecap="round" stroke-linejoin="round"/>
<path d="M199.35 175.248L195.252 176.12L196.124 180.218L200.221 179.346L199.35 175.248Z" stroke="#263238" stroke-linecap="round" stroke-linejoin="round"/>
<path d="M205.49 173.941L201.393 174.812L202.264 178.91L206.362 178.038L205.49 173.941Z" stroke="#263238" stroke-linecap="round" stroke-linejoin="round"/>
<path d="M194.58 183.068L190.482 183.939L191.354 188.037L195.452 187.165L194.58 183.068Z" stroke="#263238" stroke-linecap="round" stroke-linejoin="round"/>
<path d="M200.726 181.764L196.629 182.636L197.501 186.733L201.598 185.862L200.726 181.764Z" stroke="#263238" stroke-linecap="round" stroke-linejoin="round"/>
<path d="M206.877 180.455L202.779 181.327L203.651 185.425L207.749 184.553L206.877 180.455Z" stroke="#263238" stroke-linecap="round" stroke-linejoin="round"/>
<path d="M195.963 189.582L191.865 190.454L192.737 194.552L196.835 193.68L195.963 189.582Z" stroke="#263238" stroke-linecap="round" stroke-linejoin="round"/>
<path d="M202.854 188.24L198.748 189.12L199.628 193.226L203.733 192.346L202.854 188.24Z" stroke="#263238" stroke-width="1.00225" stroke-linecap="round" stroke-linejoin="round"/>
<path d="M208.264 186.96L204.166 187.832L205.038 191.93L209.135 191.058L208.264 186.96Z" stroke="#263238" stroke-linecap="round" stroke-linejoin="round"/>
<path d="M214.551 104.304L217.427 100.392L215.663 100.191C215.486 98.3003 214.805 96.4916 213.691 94.9533C212.577 93.4151 211.072 92.2035 209.331 91.4449C207.59 90.6863 205.677 90.4082 203.792 90.6398C201.907 90.8714 200.119 91.6041 198.613 92.7616C198.541 92.8157 198.481 92.8837 198.436 92.9615C198.39 93.0393 198.361 93.1254 198.349 93.2147C198.338 93.304 198.344 93.3947 198.368 93.4815C198.392 93.5684 198.433 93.6495 198.489 93.7202C198.517 93.7544 198.547 93.7865 198.58 93.8161C198.698 93.9199 198.849 93.9795 199.006 93.9847C199.163 93.99 199.318 93.9406 199.443 93.8448C201.143 92.5422 203.242 91.8678 205.383 91.936C207.525 92.0041 209.576 92.8106 211.191 94.2187C212.91 95.7108 214.013 97.7878 214.287 100.047L212.595 99.8555L214.551 104.304Z" fill="#263238"/>
<path d="M182.536 109.835L179.66 113.746L181.424 113.948C181.602 115.838 182.284 117.647 183.398 119.185C184.512 120.723 186.018 121.934 187.76 122.693C189.501 123.451 191.413 123.729 193.299 123.498C195.184 123.267 196.972 122.534 198.478 121.377C198.55 121.323 198.611 121.255 198.656 121.177C198.701 121.099 198.731 121.013 198.742 120.924C198.754 120.835 198.748 120.744 198.724 120.657C198.7 120.57 198.659 120.489 198.603 120.418L198.507 120.322C198.389 120.22 198.239 120.161 198.083 120.156C197.927 120.151 197.774 120.199 197.649 120.294C195.949 121.597 193.85 122.272 191.708 122.204C189.567 122.136 187.515 121.329 185.901 119.92C184.181 118.429 183.077 116.351 182.804 114.091L184.496 114.283L182.536 109.835Z" fill="#263238"/>
<path d="M179.564 93.2986C181.273 90.9456 183.808 89.3242 186.66 88.7586C189.513 88.193 192.474 88.7247 194.952 90.2475C197.43 91.7703 199.242 94.1721 200.026 96.9727C200.81 99.7734 200.508 102.767 199.18 105.355C197.853 107.942 195.598 109.934 192.866 110.931C190.134 111.929 187.127 111.859 184.444 110.735C181.762 109.611 179.602 107.516 178.397 104.869C177.192 102.223 177.03 99.2183 177.944 96.4573" stroke="#263238" stroke-linecap="round" stroke-linejoin="round"/>
<path d="M195.663 106.829C199.384 103.108 199.384 97.0742 195.663 93.3529C191.942 89.6316 185.908 89.6316 182.187 93.3529C178.466 97.0742 178.466 103.107 182.187 106.829C185.908 110.55 191.942 110.55 195.663 106.829Z" stroke="#263238" stroke-linecap="round" stroke-linejoin="round"/>
<path d="M188.989 108.244V106.619C188.512 106.629 188.04 106.536 187.602 106.348C187.165 106.159 186.773 105.879 186.453 105.526C185.887 104.855 185.584 103.819 185.542 102.42L188.054 102.041C188.052 102.505 188.1 102.968 188.198 103.422C188.251 103.705 188.386 103.966 188.586 104.174C188.753 104.327 188.973 104.41 189.2 104.404C189.319 104.421 189.441 104.399 189.549 104.344C189.656 104.288 189.743 104.2 189.799 104.093C189.891 103.886 189.938 103.662 189.938 103.436C189.953 102.946 189.819 102.463 189.554 102.051C189.252 101.626 188.896 101.243 188.495 100.91L187.33 99.913C187.014 99.6289 186.716 99.3247 186.439 99.0023C186.165 98.6786 185.945 98.3128 185.787 97.9191C185.614 97.4483 185.531 96.9491 185.542 96.4475C185.517 96.0012 185.583 95.5544 185.738 95.1348C185.892 94.7151 186.13 94.3316 186.439 94.0078C187.088 93.3919 187.941 93.0355 188.835 93.006V91.4482H189.669V92.9869C190.209 92.9933 190.737 93.1439 191.198 93.423C191.562 93.6638 191.857 93.9939 192.056 94.3817C192.247 94.7573 192.38 95.1597 192.449 95.5752C192.518 95.9632 192.56 96.3556 192.574 96.7495L190.034 97.0611C190.034 96.668 189.995 96.3229 189.957 96.0305C189.938 95.7881 189.859 95.5543 189.727 95.3499C189.664 95.2676 189.58 95.2034 189.484 95.1638C189.388 95.1243 189.283 95.1108 189.18 95.1246C189.057 95.1183 188.934 95.1475 188.826 95.2086C188.718 95.2697 188.63 95.3603 188.572 95.4697C188.447 95.6788 188.38 95.9167 188.375 96.16C188.353 96.6179 188.496 97.0685 188.778 97.4302C189.048 97.7545 189.341 98.0589 189.655 98.3409L190.772 99.2995C191.138 99.6356 191.479 99.9976 191.793 100.383C192.106 100.769 192.358 101.2 192.54 101.663C192.735 102.18 192.829 102.73 192.818 103.283C192.825 103.834 192.702 104.379 192.459 104.874C192.224 105.351 191.867 105.756 191.424 106.048C190.942 106.362 190.39 106.551 189.818 106.6V108.239L188.989 108.244Z" stroke="#263238" stroke-miterlimit="10"/>
<path d="M219.2 116.792C220.651 110.574 216.787 104.357 210.57 102.905C204.352 101.454 198.134 105.318 196.683 111.535C195.231 117.753 199.095 123.971 205.313 125.422C211.531 126.874 217.748 123.01 219.2 116.792Z" stroke="#263238" stroke-linecap="round" stroke-linejoin="round"/>
<path d="M216.745 117.855C215.833 120.037 214.142 121.802 212.001 122.807C209.859 123.811 207.421 123.985 205.16 123.293C202.898 122.6 200.974 121.092 199.763 119.061C198.551 117.03 198.137 114.621 198.602 112.302C199.067 109.983 200.378 107.919 202.279 106.513C204.18 105.106 206.536 104.456 208.89 104.689C211.244 104.922 213.427 106.022 215.015 107.775C216.603 109.528 217.483 111.808 217.483 114.173" stroke="#263238" stroke-linecap="round" stroke-linejoin="round"/>
<path d="M208.037 122.327V120.702C207.562 120.712 207.09 120.62 206.653 120.432C206.217 120.244 205.826 119.965 205.506 119.614C204.94 118.943 204.638 117.902 204.595 116.503L207.102 116.129C207.104 116.591 207.154 117.052 207.251 117.505C207.302 117.79 207.437 118.054 207.639 118.262C207.806 118.415 208.026 118.497 208.252 118.492C208.373 118.508 208.495 118.486 208.602 118.429C208.71 118.373 208.797 118.284 208.852 118.176C208.943 117.971 208.991 117.748 208.991 117.524C209.007 117.032 208.871 116.546 208.602 116.134C208.302 115.711 207.947 115.329 207.548 114.998L206.383 113.996C206.065 113.712 205.766 113.408 205.487 113.085C205.212 112.763 204.993 112.397 204.84 112.002C204.666 111.533 204.583 111.035 204.595 110.535C204.57 110.089 204.636 109.641 204.789 109.221C204.942 108.801 205.18 108.416 205.487 108.091C206.139 107.479 206.99 107.123 207.883 107.089V105.531H208.717V107.075C209.256 107.079 209.782 107.23 210.242 107.511C210.609 107.748 210.907 108.079 211.104 108.469C211.295 108.847 211.428 109.251 211.497 109.668C211.564 110.056 211.606 110.448 211.622 110.842L209.077 111.154C209.071 110.808 209.047 110.462 209.005 110.118C208.986 109.876 208.907 109.642 208.775 109.438C208.71 109.357 208.625 109.294 208.528 109.255C208.432 109.216 208.327 109.203 208.224 109.217C208.101 109.211 207.978 109.241 207.871 109.302C207.764 109.363 207.677 109.453 207.62 109.562C207.496 109.77 207.428 110.006 207.423 110.248C207.4 110.707 207.543 111.16 207.826 111.523C208.095 111.847 208.388 112.15 208.703 112.429L209.815 113.387C210.184 113.722 210.526 114.084 210.841 114.471C211.154 114.857 211.406 115.288 211.588 115.75C211.783 116.269 211.878 116.821 211.866 117.375C211.873 117.926 211.75 118.471 211.507 118.967C211.272 119.442 210.915 119.846 210.472 120.136C209.99 120.45 209.438 120.639 208.866 120.687V122.327H208.037Z" stroke="#263238" stroke-miterlimit="10"/>
<path d="M56.0249 40.7033L46.9705 34.5393C46.511 34.2272 46.1942 33.7453 46.09 33.1997C45.9857 32.6541 46.1024 32.0894 46.4145 31.6298L55.2579 18.6355C55.4121 18.4074 55.6097 18.2121 55.8395 18.0606C56.0693 17.9092 56.3268 17.8046 56.5972 17.753C56.8675 17.7013 57.1454 17.7036 57.4149 17.7596C57.6843 17.8156 57.9401 17.9243 58.1674 18.0795L80.7481 33.4416C81.2069 33.7545 81.5227 34.2367 81.626 34.7823C81.7294 35.3278 81.6119 35.8921 81.2994 36.3511L72.4559 49.3502C72.1431 49.809 71.6609 50.1248 71.1153 50.2281C70.5697 50.3315 70.0054 50.214 69.5465 49.9015L58.4358 42.3282" stroke="#263238" stroke-linecap="round" stroke-linejoin="round"/>
<path d="M54.434 19.8483L51.2578 24.5166L77.2983 42.2337L80.4745 37.5653L54.434 19.8483Z" fill="#263238" stroke="#263238" stroke-linecap="round" stroke-linejoin="round"/>
<path d="M88.2111 47.2653L88.0721 47.1982C87.9063 47.1194 87.7643 46.9982 87.6606 46.8467C87.5568 46.6953 87.495 46.5191 87.4814 46.3361C87.4678 46.1531 87.5028 45.9697 87.583 45.8046C87.6631 45.6394 87.7856 45.4985 87.9378 45.396C88.5793 44.9603 89.1751 44.4609 89.7161 43.9053C91.3942 42.1503 92.4285 39.8788 92.6505 37.4608C92.8724 35.0428 92.2689 32.621 90.9384 30.5898C90.8036 30.4059 90.7283 30.1851 90.7227 29.9571C90.7163 29.7299 90.7842 29.5068 90.916 29.3217C91.0478 29.1365 91.2365 28.9994 91.4533 28.9311C91.67 28.8628 91.9032 28.8671 92.1174 28.9432C92.3315 29.0194 92.515 29.1633 92.64 29.3532C93.008 29.9126 93.3302 30.5009 93.6034 31.1123C94.3559 32.7324 94.7578 34.4932 94.7825 36.2793C94.7962 37.011 94.7449 37.7424 94.6291 38.465C94.6268 38.4921 94.6268 38.5194 94.6291 38.5465L94.4566 39.4045L94.423 39.5052C94.3224 39.8646 94.2313 40.2289 94.1115 40.5836C93.801 41.5328 93.3761 42.4406 92.8461 43.287C91.888 44.816 90.6151 46.1232 89.1122 47.1215C88.9411 47.2381 88.7393 47.3015 88.5322 47.3037H88.4363L88.2111 47.2653Z" fill="#263238"/>
<path d="M90.814 38.259C90.5849 39.4229 90.1282 40.5302 89.4702 41.5172C88.8122 42.5042 87.9657 43.3516 86.9795 44.0108C86.8142 44.1271 86.6172 44.1899 86.4152 44.1907C86.2131 44.1915 86.0156 44.1303 85.8495 44.0153C85.6833 43.9003 85.5564 43.7371 85.4859 43.5478C85.4154 43.3584 85.4047 43.1519 85.4552 42.9563C85.5109 42.7112 85.6607 42.4977 85.8722 42.3619C87.2202 41.4571 88.2168 40.1171 88.6954 38.5657C89.0169 37.5634 89.108 36.5015 88.962 35.4591C88.8159 34.4167 88.4364 33.4208 87.8518 32.5455C87.7719 32.4338 87.7157 32.3071 87.6866 32.1729C87.6576 32.0388 87.6562 31.9001 87.6827 31.7654C87.7092 31.6307 87.7629 31.5029 87.8407 31.3898C87.9184 31.2766 88.0184 31.1806 88.1346 31.1075C88.3545 30.9704 88.6194 30.9253 88.8723 30.9818C89.1251 31.0383 89.3457 31.1919 89.4863 31.4095C90.1745 32.4322 90.6444 33.5858 90.8667 34.7983C91.0442 35.7471 91.0653 36.7186 90.929 37.6742C90.8811 37.8659 90.8476 38.0481 90.814 38.259Z" fill="#263238"/>
<path d="M87.3105 37.5348C87.1724 38.2442 86.895 38.9191 86.4944 39.5206C86.0937 40.122 85.5777 40.638 84.9762 41.0386C84.8695 41.1113 84.7495 41.1623 84.6232 41.1886C84.4968 41.215 84.3664 41.2162 84.2396 41.1921C84.1127 41.1681 83.9918 41.1193 83.8838 41.0486C83.7759 40.9778 83.6828 40.8865 83.6101 40.7798C83.5374 40.6731 83.4865 40.5531 83.4601 40.4267C83.4338 40.3003 83.4326 40.17 83.4566 40.0432C83.4807 39.9163 83.5295 39.7954 83.6002 39.6874C83.671 39.5794 83.7623 39.4864 83.869 39.4137C84.2903 39.138 84.6441 38.7711 84.9043 38.3401C85.2726 37.767 85.4656 37.0989 85.4596 36.4178C85.4536 35.7366 85.249 35.072 84.8708 34.5055C84.7133 34.2776 84.6514 33.9972 84.6982 33.7242C84.735 33.5335 84.8274 33.3579 84.9639 33.2197C85.1004 33.0815 85.2748 32.9868 85.4651 32.9477C85.6556 32.9053 85.8545 32.922 86.0352 32.9957C86.216 33.0694 86.3699 33.1964 86.4765 33.3599C86.8866 33.9652 87.1716 34.6463 87.3148 35.3632C87.458 36.0801 87.4566 36.8184 87.3105 37.5348Z" fill="#263238"/>
<path d="M11.4707 98.7344H16.3598L22.543 118.88H39.7793" stroke="#263238" stroke-width="2" stroke-linecap="round" stroke-linejoin="round"/>
<path d="M17.8652 103.321H43.6143L40.5706 114.557H21.3786" stroke="#263238" stroke-width="2" stroke-linecap="round" stroke-linejoin="round"/>
<path d="M26.5938 103.466L27.701 114.251" stroke="#263238" stroke-width="2" stroke-linecap="round" stroke-linejoin="round"/>
<path d="M34.7459 103.466L33.6387 114.251" stroke="#263238" stroke-width="2" stroke-linecap="round" stroke-linejoin="round"/>
<path d="M39.4385 124.124C40.8812 124.124 42.0508 122.954 42.0508 121.512C42.0508 120.069 40.8812 118.899 39.4385 118.899C37.9957 118.899 36.8262 120.069 36.8262 121.512C36.8262 122.954 37.9957 124.124 39.4385 124.124Z" stroke="#263238" stroke-width="2" stroke-linecap="round" stroke-linejoin="round"/>
<path d="M23.5205 124.124C24.9632 124.124 26.1328 122.954 26.1328 121.512C26.1328 120.069 24.9632 118.899 23.5205 118.899C22.0778 118.899 20.9082 120.069 20.9082 121.512C20.9082 122.954 22.0778 124.124 23.5205 124.124Z" stroke="#263238" stroke-width="2" stroke-linecap="round" stroke-linejoin="round"/>
<path d="M19.6582 109.347H42.052" stroke="#263238" stroke-width="2" stroke-linecap="round" stroke-linejoin="round"/>
<path d="M47.1088 111.551C52.4058 111.551 56.6999 107.257 56.6999 101.96C56.6999 96.6633 52.4058 92.3691 47.1088 92.3691C41.8117 92.3691 37.5176 96.6633 37.5176 101.96C37.5176 107.257 41.8117 111.551 47.1088 111.551Z" fill="#263238"/>
<path d="M44.3711 101.285L46.1685 104.434L52.4668 98.1357" stroke="white" stroke-width="3" stroke-linecap="round" stroke-linejoin="round"/>
<path d="M90.689 60.3071C89.7108 60.564 88.8423 61.1314 88.214 61.9239C87.5856 62.7165 87.2314 63.6915 87.2044 64.7025C87.051 68.3405 86.2937 95.4604 87.5063 125.303C88.719 155.145 91.4464 188.784 91.8969 191.967C92.3475 195.149 94.931 195.298 95.8369 195.753C96.7428 196.209 110.696 197.268 118.868 197.268C127.041 197.268 140.38 195.753 142.048 195.298C143.716 194.843 144.469 191.665 144.924 189.388C145.207 187.586 145.308 185.76 145.226 183.938L147.503 134.568C147.503 134.568 148.409 100.934 148.409 89.5744C148.409 78.2145 148.562 65.9391 147.953 63.5138C147.345 61.0884 144.469 59.4252 144.469 59.4252C143.203 58.6883 141.82 58.1758 140.38 57.9106C138.617 57.6641 136.825 57.7143 135.079 58.0591L101.445 58.2125C101.445 58.2125 100.836 57.4552 98.8662 57.7332C96.8962 58.0112 93.1144 58.3419 91.8969 58.9459C90.6794 59.5498 90.689 60.3071 90.689 60.3071Z" fill="#757575" stroke="#263238" stroke-linecap="round" stroke-linejoin="round"/>
<path d="M92.3516 81.0667L93.2623 119.091C93.2623 119.091 93.2623 135.91 93.8662 137.88C94.4702 139.85 97.3509 140.608 98.7169 140.91C100.083 141.212 108.26 142.271 120.08 142.122C131.9 141.974 139.167 141.365 141.439 139.395C143.711 137.425 143.562 135.302 143.562 133.332C143.562 131.362 143.864 80.458 143.864 80.458L92.3516 81.0667Z" fill="#263238" stroke="#263238" stroke-linecap="round" stroke-linejoin="round"/>
<path d="M140.079 94.5498H96.293V128.486H140.079V94.5498Z" fill="white" stroke="#263238" stroke-linecap="round" stroke-linejoin="round"/>
<path d="M95.8363 61.2174L92.0449 73.7708C91.8626 74.2921 91.8626 74.8599 92.0449 75.3813C92.2334 75.8781 92.5752 76.3019 93.0208 76.5915C93.4663 76.8811 93.9925 77.0213 94.523 76.9918C100.754 76.872 108.826 76.7713 118.863 76.7761C128.301 76.7761 136.401 76.5173 139.541 76.824C140.271 76.8965 141.005 76.7276 141.63 76.3433C142.255 75.9589 142.737 75.3802 143.001 74.6958L142.834 75.1752C143.164 74.3244 143.254 73.3989 143.092 72.5006C142.134 69.3562 140.327 61.4762 139.584 60.8387C138.673 60.0814 135.946 59.4727 135.49 59.4727C135.035 59.4727 103.108 59.7027 100.979 60.0047C98.8513 60.3067 97.2024 59.5494 95.8363 61.2174Z" fill="#919191" stroke="#263238" stroke-linecap="round" stroke-linejoin="round"/>
<path d="M130.67 132.972C130.67 132.972 131.931 136.648 132.352 137.592C132.774 138.537 134.27 138.958 134.874 138.958C135.478 138.958 139.811 138.33 140.438 137.698C141.066 137.065 141.177 134.865 140.966 133.81C140.755 132.756 140.649 132.761 139.705 132.761C138.761 132.761 130.67 132.972 130.67 132.972Z" fill="white" stroke="#263238" stroke-linecap="round" stroke-linejoin="round"/>
<path d="M94.6431 132.439C94.6431 132.439 94.3316 137.06 95.6018 137.899C96.872 138.738 105.159 139.581 105.054 139.054C104.948 138.527 103.266 132.962 102.427 132.751C101.588 132.54 94.6431 132.439 94.6431 132.439Z" fill="white" stroke="#263238" stroke-linecap="round" stroke-linejoin="round"/>
<path d="M105.883 133.398C105.883 133.398 107.46 138.124 108.509 138.858C109.265 139.426 110.191 139.723 111.136 139.701C111.87 139.701 123.421 139.908 125.42 139.908C127.419 139.908 129.413 139.174 129.413 138.858C129.413 138.541 127.203 133.811 126.676 133.398C126.148 132.986 125.204 132.977 124.782 132.977C124.361 132.977 107.244 132.871 106.717 132.766C106.19 132.66 105.883 132.761 105.883 133.398Z" fill="white" stroke="#263238" stroke-linecap="round" stroke-linejoin="round"/>
<path d="M114.602 139.275L120.799 133.183" stroke="#263238" stroke-linecap="round" stroke-linejoin="round"/>
<path d="M124.787 134.654L123.004 136.337H125.736L124.787 134.654Z" fill="#263238" stroke="#263238" stroke-linecap="round" stroke-linejoin="round"/>
<path d="M109.982 136.653L111.449 138.436L113.237 136.859L109.982 136.653Z" fill="#263238" stroke="#263238" stroke-linecap="round" stroke-linejoin="round"/>
<path d="M138.865 134.971H134.139V135.805H138.865V134.971Z" fill="#263238"/>
<path d="M101.158 134.971H96.4316V135.805H101.158V134.971Z" fill="#263238"/>
<path d="M98.009 144.317C97.7643 144.284 97.5178 144.267 97.2708 144.265C96.5854 144.265 95.5836 144.361 95.066 144.945C94.2272 145.904 94.7496 149.791 95.2769 150.515C96.1636 151.732 105.673 152.509 106.512 152.298C107.351 152.087 107.878 151.876 107.984 150.721C108.089 149.566 108.405 146.628 107.461 145.784C106.517 144.94 98.009 144.317 98.009 144.317Z" stroke="#263238" stroke-linecap="round" stroke-linejoin="round"/>
<path d="M98.5171 145.425C98.3086 145.402 98.099 145.389 97.8892 145.387C97.3044 145.387 96.4512 145.463 96.0199 145.9C95.3057 146.614 95.7514 149.557 96.1972 150.103C96.9497 151.024 105.026 151.608 105.736 151.45C106.445 151.292 106.896 151.134 106.987 150.261C107.078 149.389 107.341 147.17 106.541 146.537C105.74 145.904 98.5171 145.425 98.5171 145.425Z" fill="#263238" stroke="#263238" stroke-linecap="round" stroke-linejoin="round"/>
<path d="M98.009 154.168C97.7643 154.135 97.5178 154.117 97.2708 154.115C96.5854 154.115 95.5836 154.216 95.066 154.796C94.2272 155.755 94.7496 159.642 95.2769 160.366C96.1636 161.583 105.673 162.36 106.512 162.149C107.351 161.938 107.878 161.732 107.984 160.572C108.089 159.412 108.405 156.478 107.461 155.639C106.517 154.801 98.009 154.168 98.009 154.168Z" stroke="#263238" stroke-linecap="round" stroke-linejoin="round"/>
<path d="M98.5171 155.275C98.3086 155.251 98.099 155.238 97.8892 155.236C97.3044 155.236 96.4512 155.313 96.0199 155.754C95.3057 156.463 95.7514 159.411 96.1972 159.953C96.9497 160.873 105.026 161.458 105.736 161.3C106.445 161.142 106.896 160.983 106.987 160.111C107.078 159.239 107.341 157.019 106.541 156.387C105.74 155.754 98.5171 155.275 98.5171 155.275Z" fill="#263238" stroke="#263238" stroke-linecap="round" stroke-linejoin="round"/>
<path d="M98.621 163.744C98.3779 163.711 98.133 163.693 97.8876 163.691C97.1974 163.691 96.2004 163.792 95.678 164.372C94.8392 165.331 95.3664 169.218 95.8889 169.942C96.7756 171.159 106.29 171.936 107.129 171.725C107.968 171.514 108.495 171.308 108.6 170.153C108.706 168.997 109.017 166.054 108.073 165.216C107.129 164.377 98.621 163.744 98.621 163.744Z" stroke="#263238" stroke-linecap="round" stroke-linejoin="round"/>
<path d="M99.1304 164.852C98.9235 164.828 98.7155 164.816 98.5073 164.813C97.9225 164.813 97.0693 164.89 96.6331 165.331C95.919 166.041 96.3647 168.988 96.8105 169.53C97.5678 170.45 105.64 171.035 106.354 170.877C107.068 170.719 107.514 170.561 107.6 169.688C107.686 168.816 107.959 166.597 107.154 165.964C106.349 165.331 99.1304 164.852 99.1304 164.852Z" fill="#263238" stroke="#263238" stroke-linecap="round" stroke-linejoin="round"/>
<path d="M98.7609 173.115C98.5163 173.082 98.2697 173.066 98.0228 173.067C97.3374 173.067 96.3356 173.163 95.8179 173.748C94.9791 174.707 95.5016 178.594 96.0288 179.313C96.9156 180.53 106.425 181.307 107.264 181.096C108.103 180.885 108.63 180.679 108.736 179.524C108.841 178.369 109.157 175.426 108.213 174.587C107.269 173.748 98.7609 173.115 98.7609 173.115Z" stroke="#263238" stroke-linecap="round" stroke-linejoin="round"/>
<path d="M99.2691 174.227C99.0608 174.2 98.8511 174.188 98.6412 174.189C98.0564 174.189 97.2032 174.26 96.7718 174.701C96.0576 175.416 96.5034 178.359 96.9492 178.9C97.7017 179.821 105.778 180.41 106.488 180.247C107.197 180.084 107.648 179.931 107.739 179.058C107.83 178.186 108.093 175.967 107.293 175.334C106.492 174.701 99.2691 174.227 99.2691 174.227Z" fill="#263238" stroke="#263238" stroke-linecap="round" stroke-linejoin="round"/>
<path d="M137.365 144.317C137.61 144.284 137.856 144.267 138.103 144.265C138.789 144.265 139.79 144.361 140.308 144.945C141.147 145.904 140.624 149.791 140.097 150.515C139.21 151.732 129.701 152.509 128.862 152.298C128.023 152.087 127.496 151.876 127.39 150.721C127.285 149.566 126.969 146.628 127.913 145.784C128.857 144.94 137.365 144.317 137.365 144.317Z" stroke="#263238" stroke-linecap="round" stroke-linejoin="round"/>
<path d="M136.856 145.425C137.065 145.402 137.274 145.389 137.484 145.387C138.069 145.387 138.922 145.463 139.353 145.9C140.068 146.614 139.622 149.557 139.176 150.103C138.424 151.024 130.347 151.608 129.638 151.45C128.928 151.292 128.478 151.134 128.387 150.261C128.296 149.389 128.032 147.17 128.832 146.537C129.633 145.904 136.856 145.425 136.856 145.425Z" fill="#263238" stroke="#263238" stroke-linecap="round" stroke-linejoin="round"/>
<path d="M137.365 154.168C137.61 154.135 137.856 154.117 138.103 154.115C138.789 154.115 139.79 154.216 140.308 154.796C141.147 155.755 140.624 159.642 140.097 160.366C139.21 161.583 129.701 162.36 128.862 162.149C128.023 161.938 127.496 161.732 127.39 160.572C127.285 159.412 126.969 156.478 127.913 155.639C128.857 154.801 137.365 154.168 137.365 154.168Z" stroke="#263238" stroke-linecap="round" stroke-linejoin="round"/>
<path d="M136.856 155.275C137.065 155.251 137.274 155.238 137.484 155.236C138.069 155.236 138.922 155.313 139.353 155.754C140.068 156.463 139.622 159.411 139.176 159.953C138.424 160.873 130.347 161.458 129.638 161.3C128.928 161.142 128.478 160.983 128.387 160.111C128.296 159.239 128.032 157.019 128.832 156.387C129.633 155.754 136.856 155.275 136.856 155.275Z" fill="#263238" stroke="#263238" stroke-linecap="round" stroke-linejoin="round"/>
<path d="M136.743 163.744C136.986 163.711 137.231 163.693 137.476 163.691C138.166 163.691 139.163 163.792 139.686 164.372C140.525 165.331 139.997 169.218 139.475 169.942C138.588 171.159 129.074 171.936 128.235 171.725C127.396 171.514 126.869 171.308 126.763 170.153C126.658 168.997 126.346 166.054 127.291 165.216C128.235 164.377 136.743 163.744 136.743 163.744Z" stroke="#263238" stroke-linecap="round" stroke-linejoin="round"/>
<path d="M136.262 164.852C136.469 164.828 136.677 164.816 136.885 164.813C137.47 164.813 138.323 164.89 138.759 165.331C139.473 166.041 139.028 168.988 138.582 169.53C137.825 170.45 129.753 171.035 129.039 170.877C128.325 170.719 127.879 170.561 127.792 169.688C127.706 168.816 127.433 166.597 128.238 165.964C129.043 165.331 136.262 164.852 136.262 164.852Z" fill="#263238" stroke="#263238" stroke-linecap="round" stroke-linejoin="round"/>
<path d="M136.613 173.115C136.858 173.082 137.104 173.066 137.351 173.067C138.037 173.067 139.038 173.163 139.556 173.748C140.395 174.707 139.872 178.594 139.345 179.313C138.458 180.53 128.949 181.307 128.11 181.096C127.271 180.885 126.744 180.679 126.638 179.524C126.533 178.369 126.217 175.426 127.161 174.587C128.105 173.748 136.613 173.115 136.613 173.115Z" stroke="#263238" stroke-linecap="round" stroke-linejoin="round"/>
<path d="M136.104 174.227C136.312 174.2 136.522 174.188 136.732 174.189C137.317 174.189 138.17 174.26 138.601 174.701C139.316 175.416 138.87 178.359 138.424 178.9C137.672 179.821 129.595 180.41 128.886 180.247C128.176 180.084 127.726 179.931 127.635 179.058C127.544 178.186 127.28 175.967 128.08 175.334C128.881 174.701 136.104 174.227 136.104 174.227Z" fill="#263238" stroke="#263238" stroke-linecap="round" stroke-linejoin="round"/>
<path d="M114.43 145.645C114.43 145.645 112.441 145.516 111.803 145.77C111.166 146.024 110.902 146.479 110.969 146.925C111.036 147.371 111.031 150.156 111.094 151.157C111.079 151.548 111.22 151.929 111.485 152.217C111.749 152.505 112.117 152.677 112.508 152.696C113.093 152.754 122.573 152.888 123.657 152.5C124.74 152.111 124.615 150.582 124.615 150.065C124.615 149.547 124.745 147.126 124.424 146.484C124.102 145.842 123.077 145.588 122.564 145.655C122.051 145.722 115.518 145.516 114.43 145.645Z" stroke="#263238" stroke-linecap="round" stroke-linejoin="round"/>
<path d="M122.716 155.026C122.716 155.026 113.657 154.81 112.761 155.064C111.864 155.318 110.901 155.769 110.968 156.732C111.035 157.696 110.776 160.322 111.222 161.089C111.668 161.856 111.864 162.115 112.44 162.307C113.015 162.498 122.63 162.566 123.272 162.244C123.595 162.121 123.878 161.913 124.093 161.643C124.307 161.372 124.444 161.048 124.49 160.706C124.619 159.872 124.768 156.871 124.384 156.052C124.001 155.232 122.716 155.026 122.716 155.026Z" stroke="#263238" stroke-linecap="round" stroke-linejoin="round"/>
<path d="M123.018 156.541C123.018 156.541 114.75 156.411 113.595 156.411C112.44 156.411 111.994 156.411 111.927 157.37C111.86 158.328 111.735 161.276 112.248 161.468C112.761 161.66 117.041 161.727 119.491 161.727C121.94 161.727 122.889 161.664 123.272 161.343C123.656 161.022 123.723 159.1 123.723 158.074C123.723 157.049 123.594 156.349 123.018 156.541Z" fill="#263238" stroke="#263238" stroke-linecap="round" stroke-linejoin="round"/>
<path d="M123.018 146.82C123.018 146.82 114.75 146.695 113.595 146.695C112.44 146.695 111.994 146.695 111.927 147.654C111.86 148.613 111.735 151.565 112.248 151.757C112.761 151.949 117.041 152.011 119.491 152.011C121.94 152.011 122.889 151.949 123.272 151.628C123.656 151.306 123.723 149.384 123.723 148.359C123.723 147.333 123.594 146.604 123.018 146.82Z" fill="#263238" stroke="#263238" stroke-linecap="round" stroke-linejoin="round"/>
<path d="M122.803 164.65C122.803 164.65 113.657 164.358 112.761 164.617C111.864 164.876 110.901 165.321 110.968 166.28C111.035 167.239 110.776 169.87 111.222 170.637C111.668 171.404 111.864 171.663 112.44 171.859C113.015 172.056 122.63 172.113 123.272 171.792C123.595 171.669 123.878 171.461 124.093 171.19C124.307 170.92 124.444 170.596 124.49 170.254C124.619 169.419 124.854 166.505 124.49 165.676C124.125 164.847 122.803 164.65 122.803 164.65Z" stroke="#263238" stroke-linecap="round" stroke-linejoin="round"/>
<path d="M123.018 166.088C123.018 166.088 114.75 165.959 113.595 165.959C112.44 165.959 111.994 165.959 111.927 166.918C111.86 167.876 111.735 170.829 112.248 171.021C112.761 171.212 117.041 171.275 119.491 171.275C121.94 171.275 122.889 171.212 123.272 170.891C123.656 170.57 123.723 168.648 123.723 167.622C123.723 166.596 123.594 165.897 123.018 166.088Z" fill="#263238" stroke="#263238" stroke-linecap="round" stroke-linejoin="round"/>
<path d="M122.505 174.165C122.505 174.165 113.657 173.906 112.761 174.165C111.864 174.424 110.901 174.869 110.968 175.833C111.035 176.796 110.776 179.418 111.222 180.19C111.668 180.962 111.864 181.216 112.44 181.407C113.015 181.599 122.63 181.661 123.272 181.34C123.594 181.218 123.877 181.01 124.092 180.741C124.306 180.471 124.443 180.148 124.49 179.806C124.619 178.972 124.552 176.025 124.169 175.191C123.785 174.357 122.505 174.165 122.505 174.165Z" stroke="#263238" stroke-linecap="round" stroke-linejoin="round"/>
<path d="M123.018 175.636C123.018 175.636 114.75 175.512 113.595 175.512C112.44 175.512 111.994 175.512 111.927 176.47C111.86 177.429 111.735 180.382 112.248 180.573C112.761 180.765 117.041 180.832 119.491 180.832C121.94 180.832 122.889 180.765 123.272 180.444C123.656 180.123 123.723 178.201 123.723 177.175C123.723 176.149 123.594 175.445 123.018 175.636Z" fill="#263238" stroke="#263238" stroke-linecap="round" stroke-linejoin="round"/>
<path d="M107.527 183.209C107.527 183.209 99.8578 182.418 98.6979 182.327C97.5379 182.236 96.5793 183.037 96.6656 183.919C96.7518 184.801 96.7566 187.801 97.2839 188.597C97.8111 189.393 99.7572 189.656 102.556 189.834C105.356 190.011 106.971 190.275 107.68 189.834C108.39 189.393 108.639 189.038 108.74 187.979C108.846 186.802 108.816 185.616 108.649 184.446C108.495 183.727 107.527 183.209 107.527 183.209Z" fill="#666666" stroke="#263238" stroke-linecap="round" stroke-linejoin="round"/>
<path d="M128.018 183.209C128.018 183.209 135.687 182.418 136.847 182.327C138.007 182.236 138.965 183.037 138.879 183.919C138.793 184.801 138.788 187.801 138.261 188.597C137.733 189.393 135.787 189.656 132.964 189.834C130.141 190.011 128.55 190.275 127.84 189.834C127.131 189.393 126.882 189.038 126.781 187.979C126.674 186.802 126.705 185.616 126.872 184.446C127.045 183.727 128.018 183.209 128.018 183.209Z" class="main-color-svg" stroke="#263238" stroke-linecap="round" stroke-linejoin="round"/>
<path d="M111.74 184.288C111.74 184.288 111.371 188.257 111.774 188.995C112.177 189.733 112.378 190.069 113.183 190.136C113.988 190.203 121.102 190.404 122.247 190.069C123.393 189.733 123.858 189.196 123.925 188.727C123.985 187.296 123.944 185.862 123.805 184.437C123.721 184.104 123.532 183.806 123.266 183.589C123 183.371 122.672 183.245 122.329 183.229C121.456 183.162 115.062 183.09 114.056 183.09C113.049 183.09 111.913 183.612 111.74 184.288Z" fill="#BABABA" stroke="#263238" stroke-linecap="round" stroke-linejoin="round"/>
<path d="M94.5625 194.685L96.0628 193.007C103.622 193.655 111.211 193.906 118.797 193.76C130.54 193.467 139.273 192.657 139.273 192.657C139.273 192.657 141.239 194.277 142.106 194.627" stroke="#263238" stroke-linecap="round" stroke-linejoin="round"/>
<path d="M127.894 111.028L123.298 108.632C123.106 108.532 122.883 108.513 122.677 108.578C122.472 108.642 122.3 108.786 122.2 108.977C122.112 109.144 122.084 109.337 122.122 109.522C122.159 109.707 122.26 109.873 122.406 109.993L126.509 113.348C126.509 113.348 127.587 115.659 128.426 115.817C129.265 115.975 129.97 116.047 129.97 116.047" stroke="#263238" stroke-linecap="round" stroke-linejoin="round"/>
<path d="M125.429 109.912L125.774 108.254C125.795 108.155 125.797 108.053 125.778 107.954C125.759 107.855 125.721 107.761 125.666 107.677C125.611 107.592 125.539 107.52 125.456 107.464C125.373 107.407 125.279 107.368 125.18 107.348L122.39 106.768C122.191 106.727 121.984 106.766 121.814 106.878C121.645 106.989 121.526 107.163 121.484 107.362L121.005 109.759C120.984 109.858 120.983 109.96 121.001 110.059C121.02 110.158 121.058 110.253 121.113 110.338C121.168 110.422 121.24 110.495 121.323 110.552C121.407 110.609 121.501 110.649 121.599 110.669L123.967 111.149C123.967 111.149 123.138 111.729 123.541 112.107C124.05 112.628 124.607 113.1 125.204 113.517C125.755 113.819 126.527 113.339 126.527 113.339" stroke="#263238" stroke-linecap="round" stroke-linejoin="round"/>
<path d="M125.775 108.263C125.775 108.263 127.75 108.263 128.206 108.684C128.661 109.106 132.428 114.705 132.428 114.705" stroke="#263238" stroke-linecap="round" stroke-linejoin="round"/>
<path d="M124.381 112.96C124.381 112.96 123.575 113.564 123.978 113.919C124.38 114.287 124.879 114.532 125.416 114.623C126.221 114.825 126.322 114.925 126.576 114.825C126.83 114.724 127.127 114.57 127.127 114.57" stroke="#263238" stroke-linecap="round" stroke-linejoin="round"/>
<path d="M125.8 114.767C123.791 117.101 120.192 118.659 116.079 118.659C109.79 118.659 104.686 115.007 104.686 110.511C104.686 106.015 109.79 102.362 116.079 102.362C121.351 102.362 125.804 104.936 127.103 108.426" stroke="#263238" stroke-linecap="round" stroke-linejoin="round"/>
<path d="M117.785 116.258C117.705 116.26 117.626 116.236 117.56 116.191C117.513 116.162 117.473 116.124 117.442 116.079C117.41 116.034 117.388 115.983 117.377 115.93C117.365 115.876 117.364 115.821 117.374 115.767C117.384 115.713 117.405 115.662 117.435 115.616C118.359 114.193 118.86 112.537 118.882 110.84C118.903 109.143 118.443 107.475 117.555 106.03C117.523 105.983 117.5 105.93 117.489 105.875C117.478 105.819 117.478 105.762 117.489 105.706C117.501 105.651 117.524 105.598 117.556 105.552C117.589 105.506 117.631 105.466 117.679 105.437C117.727 105.407 117.781 105.388 117.837 105.379C117.893 105.371 117.951 105.375 118.005 105.389C118.06 105.404 118.111 105.43 118.156 105.465C118.2 105.5 118.237 105.544 118.264 105.593C119.235 107.174 119.738 108.997 119.715 110.851C119.692 112.706 119.144 114.516 118.135 116.071C118.097 116.129 118.045 116.177 117.984 116.21C117.923 116.242 117.854 116.259 117.785 116.258Z" fill="#263238"/>
<path d="M115.652 115.184C115.567 115.184 115.483 115.159 115.412 115.112C115.321 115.049 115.259 114.951 115.239 114.842C115.219 114.732 115.244 114.619 115.307 114.528C116.056 113.456 116.469 112.185 116.494 110.877C116.519 109.57 116.154 108.284 115.446 107.185C115.399 107.092 115.388 106.984 115.415 106.884C115.442 106.783 115.506 106.696 115.593 106.64C115.681 106.583 115.786 106.561 115.889 106.578C115.992 106.594 116.085 106.648 116.15 106.729C116.947 107.97 117.357 109.418 117.328 110.892C117.3 112.366 116.835 113.798 115.992 115.007C115.954 115.062 115.903 115.106 115.844 115.137C115.784 115.168 115.719 115.184 115.652 115.184Z" fill="#263238"/>
<path d="M113.504 114.015C113.41 114.015 113.318 113.983 113.245 113.924C113.159 113.855 113.103 113.755 113.091 113.645C113.078 113.535 113.11 113.425 113.178 113.339C113.763 112.6 114.082 111.686 114.082 110.743C114.082 109.801 113.763 108.886 113.178 108.148C113.141 108.105 113.114 108.055 113.097 108.001C113.08 107.948 113.075 107.891 113.08 107.835C113.086 107.779 113.103 107.725 113.13 107.676C113.157 107.626 113.194 107.583 113.238 107.548C113.283 107.514 113.334 107.488 113.388 107.474C113.443 107.459 113.499 107.456 113.555 107.464C113.611 107.472 113.664 107.492 113.712 107.521C113.76 107.55 113.802 107.589 113.835 107.635C114.53 108.515 114.907 109.605 114.904 110.727C114.903 111.863 114.518 112.967 113.811 113.856C113.774 113.903 113.727 113.941 113.674 113.968C113.621 113.996 113.563 114.011 113.504 114.015Z" fill="#263238"/>
<path d="M111.308 113.219C111.219 113.219 111.132 113.191 111.06 113.138C110.988 113.085 110.935 113.01 110.909 112.925C110.883 112.839 110.885 112.748 110.914 112.664C110.944 112.579 111 112.507 111.074 112.457C111.326 112.285 111.537 112.061 111.693 111.799C111.85 111.537 111.947 111.245 111.978 110.941C112.009 110.638 111.973 110.332 111.873 110.044C111.773 109.756 111.612 109.493 111.399 109.274C111.323 109.194 111.281 109.087 111.283 108.976C111.285 108.865 111.331 108.759 111.411 108.682C111.492 108.605 111.599 108.563 111.71 108.566C111.821 108.568 111.927 108.614 112.003 108.694C112.534 109.237 112.83 109.967 112.828 110.726C112.828 111.205 112.71 111.677 112.485 112.1C112.26 112.522 111.935 112.884 111.538 113.152C111.47 113.196 111.39 113.22 111.308 113.219Z" fill="#263238"/>
<path d="M100.102 150.4V147.164C100.063 147.19 100.021 147.211 99.9774 147.227L99.8336 147.299L99.685 147.361L99.5508 147.423V146.8L99.709 146.719L99.9246 146.599C99.9989 146.558 100.071 146.513 100.14 146.465C100.194 146.432 100.244 146.393 100.289 146.35H100.946V150.409L100.102 150.4Z" fill="white"/>
<path d="M115.944 151.431V150.841L116.903 149.346L117.109 149.024C117.173 148.924 117.227 148.818 117.272 148.708C117.312 148.601 117.333 148.487 117.334 148.373C117.342 148.279 117.316 148.186 117.262 148.109C117.239 148.081 117.21 148.058 117.177 148.043C117.143 148.028 117.107 148.021 117.071 148.023C116.993 148.021 116.918 148.048 116.86 148.099C116.809 148.157 116.775 148.226 116.759 148.301C116.739 148.394 116.729 148.488 116.73 148.584V148.78H115.92V148.569C115.916 148.348 115.955 148.128 116.035 147.922C116.108 147.74 116.235 147.584 116.4 147.476C116.606 147.347 116.847 147.285 117.09 147.299C117.239 147.288 117.389 147.307 117.531 147.356C117.673 147.404 117.803 147.481 117.914 147.582C118.011 147.688 118.086 147.813 118.134 147.949C118.182 148.085 118.202 148.229 118.192 148.373C118.197 148.536 118.171 148.699 118.116 148.852C118.062 148.995 117.993 149.132 117.909 149.259C117.83 149.394 117.738 149.533 117.636 149.676L116.893 150.784H118.048V151.44L115.944 151.431Z" fill="white"/>
<path d="M133.757 150.654C133.523 150.667 133.29 150.612 133.086 150.496C132.924 150.388 132.803 150.229 132.741 150.045C132.666 149.831 132.63 149.605 132.635 149.379V149.216H133.474V149.36C133.473 149.47 133.481 149.581 133.498 149.69C133.509 149.759 133.541 149.822 133.589 149.873C133.641 149.913 133.706 149.934 133.771 149.93C133.803 149.933 133.835 149.929 133.864 149.918C133.894 149.907 133.921 149.89 133.944 149.868C133.986 149.817 134.013 149.756 134.02 149.69C134.029 149.59 134.029 149.489 134.02 149.388C134.034 149.224 134.006 149.06 133.939 148.909C133.903 148.852 133.851 148.807 133.79 148.778C133.729 148.749 133.661 148.738 133.594 148.746H133.44V148.171H133.575C133.642 148.18 133.71 148.17 133.772 148.144C133.834 148.118 133.889 148.076 133.929 148.022C134.001 147.883 134.032 147.728 134.02 147.572C134.028 147.449 134.007 147.326 133.958 147.212C133.937 147.171 133.904 147.136 133.863 147.114C133.821 147.092 133.775 147.083 133.728 147.088C133.681 147.082 133.633 147.093 133.593 147.118C133.553 147.143 133.523 147.182 133.508 147.227C133.47 147.343 133.452 147.464 133.455 147.586V147.797H132.616V147.553C132.608 147.339 132.654 147.126 132.75 146.934C132.832 146.769 132.965 146.635 133.129 146.551C133.314 146.456 133.52 146.41 133.728 146.417C133.935 146.411 134.141 146.456 134.327 146.546C134.491 146.625 134.626 146.752 134.715 146.91C134.812 147.098 134.858 147.308 134.85 147.519C134.857 147.727 134.807 147.932 134.706 148.113C134.631 148.255 134.504 148.362 134.351 148.411C134.446 148.445 134.533 148.499 134.605 148.569C134.688 148.654 134.748 148.757 134.783 148.871C134.831 149.026 134.854 149.188 134.85 149.35C134.853 149.575 134.816 149.799 134.739 150.012C134.674 150.194 134.551 150.35 134.39 150.457C134.202 150.583 133.982 150.651 133.757 150.654Z" fill="white"/>
<path d="M100.794 160.24V159.33H99.543V158.711L100.602 156.181H101.561V158.707H101.94V159.33H101.561V160.24H100.794ZM100.18 158.707H100.794V157.015L100.18 158.707Z" fill="white"/>
<path d="M117.018 161.333C116.782 161.349 116.547 161.294 116.342 161.175C116.189 161.069 116.08 160.91 116.035 160.729C115.976 160.514 115.949 160.291 115.954 160.068H116.759C116.757 160.193 116.766 160.318 116.788 160.442C116.794 160.52 116.826 160.594 116.879 160.653C116.934 160.694 117.002 160.715 117.07 160.71C117.108 160.711 117.145 160.702 117.178 160.683C117.211 160.664 117.239 160.637 117.257 160.605C117.3 160.515 117.323 160.417 117.325 160.317C117.325 160.188 117.325 160.039 117.325 159.838C117.325 159.719 117.317 159.601 117.301 159.483C117.293 159.393 117.261 159.307 117.209 159.234C117.187 159.202 117.156 159.177 117.121 159.16C117.086 159.143 117.047 159.136 117.008 159.138C116.969 159.137 116.931 159.145 116.895 159.161C116.86 159.177 116.828 159.2 116.802 159.229C116.74 159.312 116.7 159.409 116.687 159.512H115.963L116.04 157.168H117.933V157.873H116.711L116.668 158.707C116.718 158.65 116.783 158.609 116.855 158.587C116.952 158.55 117.053 158.527 117.157 158.52C117.339 158.491 117.525 158.53 117.679 158.63C117.833 158.742 117.947 158.9 118.005 159.08C118.08 159.319 118.115 159.568 118.111 159.819C118.111 160.019 118.098 160.219 118.072 160.418C118.051 160.586 117.997 160.749 117.914 160.897C117.836 161.032 117.719 161.14 117.579 161.209C117.403 161.291 117.212 161.333 117.018 161.333Z" fill="white"/>
<path d="M133.827 160.456C133.6 160.467 133.376 160.407 133.185 160.284C133.015 160.167 132.887 159.999 132.82 159.804C132.741 159.585 132.702 159.353 132.705 159.119V157.652C132.702 157.413 132.732 157.174 132.796 156.943C132.853 156.751 132.971 156.582 133.132 156.464C133.338 156.334 133.579 156.272 133.822 156.286C134.035 156.277 134.247 156.318 134.441 156.406C134.586 156.483 134.7 156.608 134.762 156.761C134.83 156.943 134.863 157.137 134.858 157.331V157.365C134.86 157.376 134.86 157.387 134.858 157.398H134.071C134.076 157.276 134.063 157.153 134.033 157.034C134.009 156.952 133.937 156.914 133.822 156.914C133.79 156.912 133.757 156.917 133.727 156.929C133.697 156.942 133.671 156.961 133.65 156.986C133.603 157.06 133.577 157.144 133.573 157.23C133.564 157.39 133.564 157.55 133.573 157.71V158.069C133.617 157.994 133.687 157.936 133.769 157.906C133.865 157.867 133.968 157.846 134.071 157.844C134.256 157.828 134.44 157.879 134.589 157.988C134.723 158.099 134.819 158.247 134.867 158.414C134.927 158.608 134.956 158.811 134.953 159.014C134.948 159.268 134.905 159.52 134.824 159.761C134.768 159.962 134.649 160.138 134.484 160.265C134.291 160.396 134.061 160.463 133.827 160.456ZM133.827 159.838C133.859 159.841 133.892 159.836 133.921 159.822C133.951 159.809 133.976 159.788 133.995 159.761C134.038 159.692 134.063 159.613 134.067 159.531C134.075 159.405 134.075 159.279 134.067 159.153C134.067 159.018 134.067 158.903 134.067 158.807C134.064 158.726 134.041 158.647 134 158.577C133.978 158.549 133.949 158.527 133.916 158.513C133.884 158.499 133.848 158.493 133.813 158.496C133.773 158.495 133.733 158.503 133.698 158.52C133.663 158.536 133.631 158.557 133.602 158.582C133.58 158.604 133.56 158.628 133.544 158.654V159.316C133.537 159.402 133.537 159.488 133.544 159.574C133.559 159.644 133.589 159.709 133.63 159.766C133.656 159.795 133.688 159.817 133.724 159.829C133.76 159.842 133.799 159.845 133.837 159.838H133.827Z" fill="white"/>
<path d="M99.7624 169.607L100.644 166.179H99.5371V165.542H101.454V166.122L100.572 169.607H99.7624Z" fill="white"/>
<path d="M117.042 170.699C116.812 170.711 116.583 170.654 116.385 170.536C116.221 170.43 116.098 170.271 116.035 170.085C115.961 169.875 115.926 169.652 115.93 169.429C115.932 169.329 115.942 169.23 115.959 169.132C115.977 169.04 116.006 168.952 116.045 168.868C116.082 168.788 116.132 168.715 116.194 168.652C116.252 168.588 116.322 168.536 116.4 168.499C116.283 168.409 116.188 168.294 116.122 168.163C116.039 167.991 115.994 167.803 115.992 167.612C115.982 167.409 116.022 167.207 116.107 167.023C116.182 166.863 116.306 166.731 116.462 166.649C116.641 166.557 116.841 166.512 117.042 166.519C117.245 166.512 117.446 166.557 117.627 166.649C117.779 166.736 117.901 166.868 117.977 167.027C118.057 167.211 118.093 167.412 118.082 167.612C118.087 167.805 118.044 167.996 117.958 168.168C117.895 168.299 117.802 168.413 117.684 168.499C117.762 168.536 117.832 168.588 117.89 168.652C117.952 168.715 118.003 168.788 118.039 168.868C118.078 168.952 118.107 169.04 118.125 169.132C118.145 169.229 118.154 169.329 118.154 169.429C118.166 169.652 118.134 169.875 118.058 170.085C117.992 170.27 117.868 170.428 117.704 170.536C117.504 170.655 117.274 170.712 117.042 170.699ZM117.042 170.085C117.081 170.088 117.12 170.08 117.154 170.062C117.189 170.044 117.218 170.018 117.239 169.985C117.279 169.911 117.303 169.829 117.31 169.745C117.317 169.661 117.317 169.576 117.31 169.491C117.31 169.389 117.31 169.288 117.31 169.189C117.303 169.106 117.277 169.026 117.234 168.954C117.212 168.923 117.183 168.897 117.148 168.88C117.114 168.863 117.076 168.856 117.037 168.858C117 168.856 116.962 168.864 116.929 168.881C116.895 168.898 116.866 168.923 116.846 168.954C116.802 169.026 116.776 169.106 116.769 169.189C116.764 169.29 116.764 169.39 116.769 169.491C116.764 169.576 116.764 169.66 116.769 169.745C116.778 169.83 116.805 169.912 116.85 169.985C116.87 170.018 116.898 170.045 116.932 170.062C116.966 170.08 117.004 170.088 117.042 170.085ZM117.042 168.197C117.069 168.197 117.095 168.191 117.119 168.18C117.144 168.168 117.165 168.151 117.181 168.13C117.225 168.07 117.255 168.001 117.267 167.928C117.276 167.815 117.276 167.701 117.267 167.588C117.273 167.476 117.251 167.364 117.205 167.262C117.188 167.227 117.162 167.197 117.129 167.176C117.096 167.155 117.057 167.143 117.018 167.142C116.978 167.143 116.939 167.154 116.905 167.175C116.871 167.196 116.844 167.226 116.826 167.262C116.776 167.362 116.753 167.472 116.759 167.583C116.748 167.697 116.748 167.811 116.759 167.924C116.77 168 116.801 168.071 116.85 168.13C116.872 168.158 116.902 168.18 116.936 168.192C116.97 168.204 117.007 168.205 117.042 168.197Z" fill="white"/>
<path d="M133.755 169.827C133.543 169.836 133.331 169.795 133.137 169.707C132.991 169.631 132.877 169.505 132.816 169.352C132.748 169.168 132.716 168.973 132.72 168.777V168.715H133.501C133.496 168.836 133.51 168.958 133.545 169.074C133.573 169.156 133.645 169.194 133.76 169.194C133.792 169.197 133.824 169.192 133.853 169.179C133.883 169.167 133.908 169.147 133.928 169.122C133.975 169.049 134 168.964 134 168.878C134.009 168.718 134.009 168.558 134 168.398V168.034C133.953 168.108 133.884 168.165 133.803 168.197C133.707 168.233 133.605 168.255 133.501 168.259C133.317 168.273 133.134 168.216 132.989 168.101C132.852 167.984 132.753 167.829 132.706 167.655C132.647 167.456 132.618 167.25 132.619 167.042C132.615 166.793 132.652 166.545 132.73 166.309C132.791 166.114 132.916 165.945 133.084 165.829C133.279 165.705 133.506 165.645 133.736 165.657C133.963 165.646 134.188 165.703 134.383 165.82C134.547 165.925 134.672 166.082 134.738 166.265C134.819 166.483 134.858 166.714 134.853 166.946V168.461C134.857 168.7 134.826 168.939 134.762 169.17C134.706 169.362 134.588 169.531 134.427 169.649C134.226 169.775 133.992 169.837 133.755 169.827ZM133.755 167.608C133.813 167.61 133.869 167.591 133.914 167.555C133.95 167.524 133.982 167.488 134.01 167.449V166.788C134.017 166.702 134.017 166.615 134.01 166.529C134.001 166.46 133.974 166.394 133.933 166.337C133.913 166.312 133.887 166.293 133.858 166.28C133.829 166.268 133.797 166.263 133.765 166.265C133.733 166.263 133.7 166.268 133.671 166.282C133.642 166.295 133.616 166.316 133.597 166.342C133.554 166.411 133.529 166.491 133.525 166.572C133.517 166.698 133.517 166.825 133.525 166.951C133.525 167.082 133.525 167.197 133.525 167.296C133.528 167.377 133.551 167.456 133.593 167.526C133.612 167.554 133.637 167.577 133.667 167.593C133.697 167.609 133.731 167.617 133.765 167.617L133.755 167.608Z" fill="white"/>
<path d="M99.7383 179.188V175.128H101.493V175.732H100.635V176.758H101.382V177.381H100.635V179.188H99.7383Z" fill="white"/>
<path d="M117.118 180.29C116.905 180.298 116.693 180.248 116.505 180.146C116.344 180.048 116.215 179.905 116.136 179.734C116.046 179.546 116.001 179.339 116.006 179.13V177.289C116.003 177.074 116.044 176.861 116.126 176.661C116.201 176.488 116.328 176.342 116.49 176.244C116.682 176.138 116.899 176.086 117.118 176.096C117.336 176.086 117.552 176.138 117.741 176.244C117.902 176.342 118.028 176.488 118.101 176.661C118.185 176.86 118.226 177.074 118.221 177.289V179.13C118.223 179.338 118.181 179.544 118.096 179.734C118.013 179.904 117.883 180.047 117.722 180.146C117.537 180.247 117.329 180.297 117.118 180.29ZM117.118 179.547C117.151 179.549 117.185 179.542 117.215 179.528C117.245 179.514 117.271 179.492 117.291 179.465C117.327 179.413 117.348 179.352 117.353 179.288C117.357 179.228 117.357 179.167 117.353 179.106V177.309C117.353 177.251 117.353 177.189 117.353 177.117C117.349 177.049 117.327 176.983 117.291 176.925C117.271 176.896 117.245 176.873 117.214 176.858C117.183 176.843 117.148 176.836 117.113 176.839C117.078 176.836 117.043 176.842 117.011 176.858C116.979 176.873 116.951 176.896 116.931 176.925C116.897 176.984 116.876 177.049 116.869 177.117C116.869 177.189 116.869 177.251 116.869 177.309V179.106C116.865 179.167 116.865 179.228 116.869 179.288C116.879 179.352 116.904 179.413 116.941 179.465C116.96 179.494 116.987 179.517 117.018 179.531C117.049 179.546 117.084 179.551 117.118 179.547Z" fill="white"/>
<path d="M130.938 179.164V178.388H131.709V179.164H130.938Z" fill="white"/>
<path d="M132.289 179.164L132.442 177.813H132.164V177.304H132.495L132.562 176.725H132.169V176.202H132.648L132.773 175.1H133.305L133.175 176.202H133.568L133.693 175.1H134.22L134.086 176.202H134.355V176.725H134.014L133.947 177.304H134.345V177.813H133.866L133.703 179.164H133.18L133.343 177.813H132.95L132.787 179.164H132.289ZM133.032 177.304H133.429L133.501 176.725H133.108L133.032 177.304Z" fill="white"/>
<path d="M135.461 176.907L134.982 176.619L135.342 176.106L134.805 175.9L134.987 175.421L135.466 175.689L135.404 175.104H136.013L135.95 175.689L136.43 175.421L136.612 175.9L136.07 176.106L136.434 176.614L135.955 176.902L135.701 176.37L135.461 176.907Z" fill="white"/>
<path d="M240.346 30.7428L224.869 7.37598L218.796 10.2519C212.718 13.1278 204.531 14.5658 193.253 17.921C181.974 21.2762 176.582 20.7969 172.8 23.7927C169.018 26.7884 158.718 44.8827 157.711 46.546C156.705 48.2092 158.612 52.0533 158.612 52.0533C158.612 52.0533 173.855 62.143 174.075 62.3683C174.296 62.5936 178.082 65.2107 179.856 65.4024C181.629 65.5941 185.574 64.8751 185.574 64.8751C186.36 65.374 187.196 65.7916 188.067 66.1214C189.092 66.4473 191.705 65.8433 191.705 65.8433C191.705 65.8433 196.018 67.6552 197.936 65.9967C199.853 64.3383 202.729 55.514 202.729 55.514C202.729 55.514 211.75 53.4386 218.719 50.2751C225.688 47.1116 229.12 43.0853 233.655 39.6486C235.748 38.0745 237.997 36.7175 240.365 35.5983L240.346 30.7428Z" fill="white" stroke="#263238" stroke-linecap="round" stroke-linejoin="round"/>
<path d="M187.631 61.8078C189.304 59.4112 191.815 55.452 192.702 52.4658" stroke="#263238" stroke-linecap="round" stroke-linejoin="round"/>
<path d="M186.039 64.0123C186.039 64.0123 186.298 63.6767 186.715 63.1016" stroke="#263238" stroke-linecap="round" stroke-linejoin="round"/>
<path d="M193.143 64.6301L196.939 57.9819C199.647 53.227 199.163 51.8083 198.655 51.4248" stroke="#263238" stroke-linecap="round" stroke-linejoin="round"/>
<path d="M173.879 43.6455C174.563 44.1259 175.288 44.5446 176.045 44.8965" stroke="#263238" stroke-linecap="round" stroke-linejoin="round"/>
<path d="M167.682 36.0586C168.8 38.4902 170.4 40.6702 172.384 42.4671" stroke="#263238" stroke-linecap="round" stroke-linejoin="round"/>
<path d="M172.787 30.4795C172.787 30.4795 176.224 38.3451 179.598 39.7639" stroke="#263238" stroke-linecap="round" stroke-linejoin="round"/>
<path d="M199.84 51.4346C199.84 51.4346 202.831 53.51 202.716 55.5088" stroke="#263238" stroke-linecap="round" stroke-linejoin="round"/>
<path d="M162.385 46.7041C163.765 46.9733 165.082 47.5001 166.267 48.2571" stroke="#263238" stroke-linecap="round" stroke-linejoin="round"/>
<path d="M160.529 46.4834C160.905 46.4918 161.279 46.5239 161.651 46.5793" stroke="#263238" stroke-linecap="round" stroke-linejoin="round"/>
<path d="M170.615 46.9858L125.774 60.0133C124.526 60.376 123.808 61.6818 124.17 62.9299L132.198 90.561C132.56 91.8092 133.866 92.527 135.114 92.1644L179.956 79.1368C181.204 78.7742 181.922 77.4684 181.559 76.2202L173.531 48.5892C173.169 47.341 171.863 46.6231 170.615 46.9858Z" class="main-color-svg" stroke="#263238" stroke-linecap="round" stroke-linejoin="round"/>
<path d="M135.332 69.0937L131.939 70.0793C130.963 70.3629 130.402 71.3841 130.685 72.3603L131.703 75.8631C131.987 76.8392 133.008 77.4007 133.984 77.1171L137.376 76.1315C138.353 75.8479 138.914 74.8267 138.63 73.8505L137.613 70.3477C137.329 69.3715 136.308 68.8101 135.332 69.0937Z" fill="white" stroke="#263238" stroke-linecap="round" stroke-linejoin="round"/>
<path d="M134.566 76.8246L132.586 70.0039" stroke="#263238" stroke-linecap="round" stroke-linejoin="round"/>
<path d="M136.718 76.2013L135.18 70.8952L137.576 70.2002" stroke="#263238" stroke-linecap="round" stroke-linejoin="round"/>
<path d="M130.789 72.4243L133.032 71.7725" stroke="#263238" stroke-linecap="round" stroke-linejoin="round"/>
<path d="M131.221 73.9195L133.469 73.2676" stroke="#263238" stroke-linecap="round" stroke-linejoin="round"/>
<path d="M131.67 75.4634L133.913 74.8115" stroke="#263238" stroke-linecap="round" stroke-linejoin="round"/>
<path d="M135.836 72.5298L138.079 71.8779" stroke="#263238" stroke-linecap="round" stroke-linejoin="round"/>
<path d="M136.301 74.1206L138.357 73.5215" stroke="#263238" stroke-linecap="round" stroke-linejoin="round"/>
<path d="M134.24 83.4389C134.097 83.0412 134.066 82.6118 134.149 82.1974C134.19 82.0494 134.269 81.9151 134.38 81.8087C134.49 81.7024 134.628 81.628 134.777 81.5935C134.922 81.542 135.078 81.5304 135.229 81.5599C135.38 81.5894 135.52 81.659 135.635 81.7612C135.927 82.0671 136.131 82.4464 136.225 82.8589C136.368 83.2566 136.4 83.686 136.316 84.1003C136.265 84.2427 136.18 84.371 136.07 84.4745C135.959 84.5781 135.826 84.654 135.681 84.6961C135.535 84.7382 135.382 84.7452 135.233 84.7167C135.084 84.6881 134.945 84.6247 134.825 84.5317C134.533 84.2285 134.331 83.8502 134.24 83.4389ZM134.926 82.092C134.856 82.116 134.796 82.1624 134.756 82.2239C134.715 82.2855 134.695 82.3587 134.701 82.4323C134.699 82.7146 134.746 82.9951 134.84 83.2615C134.866 83.367 134.898 83.471 134.935 83.5731L135.305 82.2693C135.268 82.2042 135.211 82.1531 135.143 82.1244C135.074 82.0957 134.998 82.091 134.926 82.1111V82.092ZM135.166 84.038C135.198 84.1051 135.253 84.1586 135.321 84.189C135.389 84.2194 135.466 84.2247 135.538 84.2041C135.609 84.1834 135.672 84.1381 135.713 84.0762C135.755 84.0142 135.773 83.9396 135.765 83.8655C135.766 83.5831 135.719 83.3026 135.626 83.0362C135.587 82.8924 135.544 82.7726 135.506 82.6624L135.127 83.9853C135.139 84.0004 135.152 84.0148 135.166 84.0284V84.038Z" fill="white" stroke="#263238" stroke-width="0.5" stroke-miterlimit="10"/>
<path d="M137.13 83.655L137.796 83.4632L137.221 81.5124L136.646 81.8479L136.492 81.3111L137.067 80.9803L137.643 80.8174L138.362 83.2955L139.023 83.0989L139.176 83.6214L137.259 84.1774L137.13 83.655Z" fill="white" stroke="#263238" stroke-width="0.5" stroke-miterlimit="10"/>
<path d="M139.195 81.9964C139.049 81.5993 139.018 81.1692 139.104 80.755C139.145 80.6069 139.224 80.4726 139.335 80.3663C139.445 80.2599 139.583 80.1855 139.732 80.151C139.878 80.1007 140.034 80.0901 140.185 80.1205C140.335 80.1508 140.475 80.2209 140.59 80.3236C140.861 80.6439 141.062 81.0177 141.179 81.4207C141.297 81.8237 141.328 82.2468 141.271 82.6627C141.227 82.8099 141.146 82.9432 141.035 83.0491C140.924 83.1551 140.787 83.2301 140.638 83.2666C140.493 83.317 140.336 83.3275 140.186 83.2972C140.035 83.2669 139.895 83.1967 139.78 83.0941C139.489 82.7882 139.287 82.4087 139.195 81.9964ZM139.881 80.6543C139.81 80.6775 139.749 80.7236 139.708 80.7852C139.666 80.8468 139.646 80.9204 139.651 80.9946C139.652 81.2767 139.699 81.5567 139.79 81.8239C139.823 81.9389 139.857 82.0396 139.89 82.1354L140.259 80.8269C140.221 80.7638 140.164 80.7147 140.096 80.687C140.027 80.6594 139.952 80.6546 139.881 80.6735V80.6543ZM140.12 82.6004C140.155 82.6644 140.21 82.7152 140.277 82.7446C140.344 82.7741 140.419 82.7807 140.489 82.7633C140.56 82.7394 140.62 82.6932 140.662 82.6318C140.703 82.5704 140.723 82.4971 140.72 82.423C140.718 82.1409 140.671 81.8609 140.581 81.5938C140.542 81.4548 140.499 81.3302 140.461 81.2247L140.082 82.5476L140.12 82.6004Z" fill="white" stroke="#263238" stroke-width="0.5" stroke-miterlimit="10"/>
<path d="M142.087 82.2116L142.748 82.0199L142.183 80.0738L141.612 80.4046L141.459 79.8725L142.034 79.5418L142.609 79.374L143.328 81.8521L143.99 81.6604L144.143 82.1828L142.226 82.7341L142.087 82.2116Z" fill="white" stroke="#263238" stroke-width="0.5" stroke-miterlimit="10"/>
<path d="M144.151 80.5586C144.007 80.1612 143.974 79.732 144.056 79.3172C144.107 79.1747 144.191 79.0465 144.302 78.9429C144.412 78.8394 144.545 78.7635 144.691 78.7214C144.836 78.6793 144.99 78.6722 145.138 78.7008C145.287 78.7294 145.427 78.7928 145.546 78.8858C145.839 79.1901 146.042 79.5703 146.131 79.9834C146.276 80.3791 146.309 80.8068 146.227 81.22C146.175 81.3625 146.091 81.4907 145.981 81.5943C145.87 81.6978 145.737 81.7737 145.591 81.8158C145.446 81.8579 145.293 81.865 145.144 81.8364C144.995 81.8078 144.856 81.7444 144.736 81.6514C144.444 81.3482 144.241 80.9699 144.151 80.5586ZM144.832 79.2165C144.763 79.2397 144.703 79.2851 144.662 79.3458C144.621 79.4065 144.602 79.4791 144.607 79.552C144.608 79.8357 144.655 80.1173 144.746 80.386C144.779 80.4963 144.813 80.6017 144.846 80.6928L145.215 79.3891C145.178 79.3238 145.12 79.273 145.051 79.2451C144.981 79.2173 144.904 79.2139 144.832 79.2357V79.2165ZM145.072 81.1338C145.107 81.1982 145.163 81.2491 145.231 81.2786C145.299 81.308 145.374 81.3144 145.446 81.2967C145.516 81.2752 145.578 81.2303 145.619 81.1693C145.661 81.1083 145.681 81.0349 145.676 80.9612C145.675 80.6791 145.628 80.399 145.537 80.132C145.493 79.993 145.455 79.8684 145.412 79.7629L145.038 81.081L145.072 81.1338Z" fill="white" stroke="#263238" stroke-width="0.5" stroke-miterlimit="10"/>
<path d="M147.043 80.7741L147.704 80.5824L147.139 78.6363L146.568 78.9671L146.41 78.4302L146.99 78.1043L147.561 77.9365L148.284 80.4146L148.946 80.2229L149.099 80.7453L147.182 81.2966L147.043 80.7741Z" fill="white" stroke="#263238" stroke-width="0.5" stroke-miterlimit="10"/>
<path d="M149.104 79.1156C148.963 78.719 148.932 78.2918 149.013 77.8789C149.056 77.7308 149.137 77.5966 149.248 77.4897C149.359 77.3828 149.496 77.3071 149.646 77.2702C149.791 77.2198 149.947 77.2093 150.098 77.2396C150.249 77.2699 150.389 77.3401 150.504 77.4427C150.796 77.7478 150.998 78.1277 151.088 78.5404C151.234 78.9376 151.266 79.3676 151.179 79.7818C151.128 79.9234 151.044 80.0509 150.934 80.1539C150.824 80.2569 150.691 80.3324 150.546 80.3744C150.401 80.4165 150.249 80.4238 150.101 80.3958C149.952 80.3677 149.813 80.3052 149.694 80.2132C149.4 79.9081 149.197 79.5284 149.104 79.1156ZM149.789 77.7735C149.72 77.7982 149.661 77.8447 149.62 77.9061C149.58 77.9675 149.56 78.0403 149.564 78.1138C149.565 78.3959 149.612 78.6759 149.703 78.943C149.737 79.058 149.77 79.1635 149.804 79.2546L150.173 77.9508C150.135 77.8861 150.077 77.8359 150.008 77.8081C149.938 77.7803 149.861 77.7766 149.789 77.7974V77.7735ZM150.029 79.7195C150.065 79.7834 150.122 79.8338 150.189 79.8632C150.256 79.8926 150.331 79.8993 150.403 79.8825C150.474 79.8593 150.535 79.8132 150.576 79.7516C150.618 79.69 150.638 79.6163 150.633 79.5421C150.632 79.2601 150.585 78.9801 150.494 78.7129C150.451 78.5739 150.413 78.4541 150.369 78.3439L149.996 79.6668L150.029 79.7195Z" fill="white" stroke="#263238" stroke-width="0.5" stroke-miterlimit="10"/>
<path d="M151.999 79.3356L152.66 79.1391L152.08 77.1931L151.51 77.5238L151.352 76.9918L151.932 76.661L152.502 76.498L153.221 78.9761L153.887 78.7796L154.036 79.3021L152.118 79.8581L151.999 79.3356Z" fill="white" stroke="#263238" stroke-width="0.5" stroke-miterlimit="10"/>
<path d="M154.059 77.6777C153.915 77.28 153.884 76.8506 153.968 76.4363C154.019 76.2939 154.103 76.1656 154.214 76.0621C154.324 75.9585 154.458 75.8826 154.603 75.8405C154.748 75.7984 154.902 75.7914 155.05 75.82C155.199 75.8485 155.339 75.9119 155.458 76.0049C155.75 76.3106 155.952 76.6902 156.043 77.1025C156.189 77.4981 156.22 77.9266 156.134 78.3392C156.093 78.4882 156.013 78.6235 155.902 78.7306C155.79 78.8378 155.652 78.9128 155.502 78.9479C155.357 78.9988 155.201 79.0092 155.05 78.9779C154.9 78.9467 154.761 78.875 154.648 78.7706C154.354 78.468 154.15 78.0896 154.059 77.6777ZM154.744 76.3356C154.675 76.3595 154.616 76.4051 154.575 76.4657C154.535 76.5262 154.515 76.5983 154.519 76.6712C154.518 76.955 154.565 77.2371 154.658 77.5052C154.691 77.6202 154.725 77.7209 154.754 77.8119L155.128 76.5082C155.089 76.4444 155.031 76.3952 154.961 76.3683C154.892 76.3414 154.816 76.3383 154.744 76.3596V76.3356ZM154.984 78.2769C155.016 78.344 155.072 78.3975 155.14 78.4279C155.208 78.4582 155.284 78.4636 155.356 78.4429C155.428 78.4223 155.49 78.377 155.531 78.315C155.573 78.2531 155.591 78.1785 155.583 78.1043C155.584 77.8224 155.539 77.5423 155.449 77.2751C155.406 77.1361 155.367 77.0115 155.324 76.906L154.955 78.2289L154.984 78.2769Z" fill="white" stroke="#263238" stroke-width="0.5" stroke-miterlimit="10"/>
<path d="M156.955 77.8932L157.616 77.7015L157.051 75.7555L156.476 76.0862L156.322 75.5542L156.902 75.2234L157.473 75.0557L158.192 77.5337L158.858 77.342L159.006 77.8645L157.089 78.4157L156.955 77.8932Z" fill="white" stroke="#263238" stroke-width="0.5" stroke-miterlimit="10"/>
<path d="M159.016 76.2401C158.872 75.8424 158.841 75.413 158.925 74.9987C158.976 74.8566 159.06 74.7287 159.169 74.6252C159.279 74.5217 159.412 74.4456 159.557 74.4031C159.702 74.3606 159.854 74.3528 160.003 74.3805C160.151 74.4082 160.291 74.4706 160.411 74.5625C160.703 74.8683 160.907 75.2477 161 75.6601C161.144 76.0578 161.175 76.4872 161.091 76.9016C161.04 77.044 160.956 77.1722 160.845 77.2758C160.735 77.3793 160.601 77.4553 160.456 77.4973C160.311 77.5394 160.157 77.5465 160.009 77.5179C159.86 77.4893 159.72 77.4259 159.601 77.3329C159.31 77.0286 159.108 76.6508 159.016 76.2401ZM159.701 74.898C159.562 74.9364 159.49 75.0466 159.476 75.2335C159.475 75.5174 159.522 75.7994 159.615 76.0675C159.649 76.1778 159.677 76.2832 159.711 76.3743L160.085 75.0706C160.047 75.0061 159.988 74.9564 159.919 74.9294C159.849 74.9024 159.773 74.8998 159.701 74.922V74.898ZM159.941 76.8393C159.976 76.9043 160.032 76.9557 160.1 76.9852C160.167 77.0148 160.243 77.0207 160.315 77.0022C160.384 76.9784 160.443 76.9327 160.484 76.8722C160.524 76.8116 160.544 76.7395 160.54 76.6667C160.542 76.3844 160.495 76.1039 160.401 75.8375C160.363 75.6985 160.32 75.5738 160.281 75.4684L159.903 76.7865C159.914 76.8049 159.927 76.8226 159.941 76.8393Z" fill="white" stroke="#263238" stroke-width="0.5" stroke-miterlimit="10"/>
<path d="M161.905 76.4557L162.572 76.264L162.006 74.3132L161.431 74.6487L161.277 74.1119L161.853 73.7859L162.428 73.6182L163.147 76.0962L163.808 75.9045L163.962 76.427L162.044 76.9782L161.905 76.4557Z" fill="white" stroke="#263238" stroke-width="0.5" stroke-miterlimit="10"/>
<path d="M163.973 74.7969C163.827 74.4014 163.795 73.9728 163.881 73.5602C163.921 73.4111 164 73.2755 164.11 73.1682C164.221 73.0608 164.359 72.9859 164.509 72.9515C164.655 72.9006 164.811 72.8898 164.962 72.9202C165.113 72.9505 165.253 73.021 165.367 73.1241C165.639 73.4444 165.839 73.8182 165.957 74.2212C166.074 74.6242 166.105 75.0473 166.048 75.4631C165.997 75.6056 165.912 75.7338 165.802 75.8373C165.691 75.9409 165.558 76.0168 165.413 76.0589C165.267 76.101 165.114 76.108 164.965 76.0795C164.817 76.0509 164.677 75.9875 164.557 75.8945C164.265 75.5894 164.063 75.2096 163.973 74.7969ZM164.658 73.4548C164.587 73.478 164.526 73.524 164.485 73.5856C164.443 73.6472 164.423 73.7209 164.428 73.7951C164.429 74.0772 164.476 74.3572 164.567 74.6243C164.6 74.7394 164.634 74.84 164.668 74.9359L165.037 73.6321C165.002 73.5647 164.946 73.5106 164.878 73.4785C164.809 73.4463 164.732 73.438 164.658 73.4548ZM164.898 75.4008C164.93 75.4688 164.986 75.5229 165.054 75.5535C165.123 75.5841 165.201 75.5892 165.273 75.5678C165.345 75.5465 165.407 75.5001 165.448 75.4369C165.489 75.3738 165.507 75.2981 165.497 75.2235C165.496 74.9414 165.449 74.6613 165.358 74.3943C165.319 74.2552 165.276 74.1306 165.238 74.0252L164.859 75.3481L164.898 75.4008Z" fill="white" stroke="#263238" stroke-width="0.5" stroke-miterlimit="10"/>
<path d="M166.862 75.0172L167.528 74.8206L166.939 72.8746L166.368 73.2053L166.215 72.6733L166.79 72.3426L167.365 72.1748L168.084 74.6529L168.746 74.4612L168.899 74.9836L166.982 75.5396L166.862 75.0172Z" fill="white" stroke="#263238" stroke-width="0.5" stroke-miterlimit="10"/>
<path d="M168.929 73.3594C168.784 72.962 168.751 72.5327 168.833 72.1179C168.884 71.9755 168.969 71.8473 169.079 71.7437C169.189 71.6402 169.323 71.5642 169.468 71.5222C169.614 71.4801 169.767 71.473 169.916 71.5016C170.064 71.5302 170.204 71.5936 170.324 71.6865C170.617 71.9917 170.821 72.3713 170.913 72.7842C171.054 73.1807 171.086 73.6079 171.004 74.0208C170.953 74.1632 170.869 74.2915 170.758 74.395C170.648 74.4986 170.514 74.5745 170.369 74.6166C170.223 74.6587 170.07 74.6657 169.921 74.6372C169.773 74.6086 169.633 74.5452 169.513 74.4522C169.221 74.149 169.019 73.7707 168.929 73.3594ZM169.609 72.0173C169.54 72.0411 169.481 72.0868 169.441 72.1473C169.4 72.2079 169.38 72.28 169.384 72.3528C169.385 72.6365 169.432 72.9181 169.523 73.1868C169.557 73.3019 169.59 73.4025 169.624 73.4936L169.993 72.1898C169.958 72.1217 169.901 72.0674 169.831 72.036C169.762 72.0046 169.683 71.998 169.609 72.0173ZM169.854 73.9585C169.886 74.0256 169.942 74.0791 170.01 74.1095C170.078 74.1399 170.154 74.1452 170.226 74.1246C170.298 74.1039 170.36 74.0586 170.401 73.9967C170.443 73.9347 170.461 73.8601 170.453 73.786C170.452 73.5038 170.405 73.2237 170.314 72.9567C170.28 72.8314 170.238 72.7081 170.189 72.5877L169.815 73.9058C169.827 73.9259 169.84 73.9451 169.854 73.9633V73.9585Z" fill="white" stroke="#263238" stroke-width="0.5" stroke-miterlimit="10"/>
<path d="M171.818 73.5749L172.48 73.3831L171.914 71.4371L171.344 71.7678L171.186 71.231L171.766 70.9051L172.336 70.7373L173.06 73.2154L173.721 73.0237L173.875 73.5461L171.957 74.0973L171.818 73.5749Z" fill="white" stroke="#263238" stroke-width="0.5" stroke-miterlimit="10"/>
<path d="M174.296 72.8551L174.957 72.6634L174.391 70.7174L173.821 71.0481L173.648 70.5113L174.228 70.1853L174.799 70.0176L175.523 72.4957L176.184 72.3039L176.337 72.8264L174.42 73.3776L174.296 72.8551Z" fill="white" stroke="#263238" stroke-width="0.5" stroke-miterlimit="10"/>
<path d="M164.183 55.1978L161.11 56.0942C160.702 56.2113 160.265 56.1621 159.893 55.9573C159.521 55.7525 159.245 55.4088 159.126 55.0013C159.009 54.592 159.06 54.153 159.267 53.7809C159.473 53.4088 159.819 53.134 160.229 53.0169L163.301 52.1254C163.708 52.0067 164.146 52.0547 164.518 52.2587C164.89 52.4627 165.166 52.8061 165.285 53.2135C165.344 53.4161 165.362 53.6284 165.338 53.838C165.314 54.0476 165.249 54.2504 165.147 54.4348C165.044 54.6192 164.906 54.7816 164.741 54.9125C164.576 55.0435 164.386 55.1404 164.183 55.1978Z" stroke="#263238" stroke-linecap="round" stroke-linejoin="round"/>
<path d="M168.577 53.923L165.5 54.8145C165.093 54.9332 164.655 54.8852 164.283 54.6812C163.911 54.4772 163.635 54.1338 163.516 53.7264C163.398 53.3178 163.447 52.8793 163.652 52.5066C163.857 52.134 164.201 51.8574 164.608 51.7373L167.676 50.8457C167.878 50.7871 168.09 50.7688 168.299 50.792C168.508 50.8152 168.711 50.8793 168.895 50.9808C169.079 51.0823 169.242 51.2192 169.373 51.3835C169.504 51.5478 169.602 51.7365 169.661 51.9386C169.72 52.14 169.739 52.3512 169.717 52.56C169.695 52.7689 169.631 52.9713 169.531 53.1556C169.43 53.34 169.294 53.5026 169.13 53.6343C168.967 53.766 168.779 53.8641 168.577 53.923Z" stroke="#263238" stroke-linecap="round" stroke-linejoin="round"/>
<path d="M183.714 33.1396C183.714 33.1396 179.669 41.7674 176.774 44.5474C173.879 47.3275 162.044 55.0925 159.072 58.3135C155.501 62.2152 159.005 66.4619 161.527 67.7801C164.048 69.0982 165.965 68.8969 172.992 64.8754C180.019 60.8539 182.276 53.4244 189.528 51.8667C196.78 50.3089 205.552 50.3856 212.143 45.5301C218.733 40.6745 221.403 38.5368 221.322 38.0766" fill="white"/>
<path d="M183.714 33.1396C183.714 33.1396 179.669 41.7674 176.774 44.5474C173.879 47.3275 162.044 55.0925 159.072 58.3135C155.501 62.2152 159.005 66.4619 161.527 67.7801C164.048 69.0982 165.965 68.8969 172.992 64.8754C180.019 60.8539 182.276 53.4244 189.528 51.8667C196.78 50.3089 205.552 50.3856 212.143 45.5301C218.733 40.6745 221.403 38.5368 221.322 38.0766" stroke="#263238" stroke-linecap="round" stroke-linejoin="round"/>
<path d="M166.426 66.7732C169.192 64.5396 169.575 63.4755 169.077 62.9387C168.578 62.4019 164.221 56.5781 164.221 56.5781C164.221 56.5781 159.878 58.4954 158.613 59.9334C157.348 61.3713 158 64.2137 160.559 66.1645C163.119 68.1153 165.069 67.7559 165.587 67.4635" stroke="#263238" stroke-linecap="round" stroke-linejoin="round"/>
<path d="M233.268 0.943359L222.627 7.29913L240.347 37.1943V0.943359H233.268Z" fill="#263238" stroke="#263238" stroke-linecap="round" stroke-linejoin="round"/>
<path d="M88.095 158.865C85.1759 158.611 81.14 162.158 81.14 162.158L47.789 162.666C47.789 162.666 48.2971 158.611 46.7728 157.595C45.2486 156.578 44.2325 158.481 42.3152 159.876C40.3979 161.271 32.9301 166.217 32.9301 166.217C32.9301 166.217 21.3929 173.7 18.9819 175.473C16.5709 177.247 10.4884 187.902 10.4884 187.902C10.4884 187.902 6.42853 195.384 5.28775 199.314C4.14697 203.245 3.01098 206.921 3.01098 206.921L0.830078 209.318V240.474H14.5146L27.3412 230.887C27.3412 230.887 30.7684 229.746 33.6826 228.491C36.5969 227.235 43.0677 223.798 49.6631 220.122C56.2586 216.445 62.8492 211.753 62.8492 211.753C62.8492 211.753 70.202 203.887 73.3942 200.728C76.5865 197.57 79.6254 191.089 80.6224 187.542C81.6194 183.995 83.158 174.097 83.158 174.097C83.158 174.097 83.7907 172.957 85.4395 170.551C87.0884 168.144 89.37 166.112 90.5107 163.193C91.6515 160.274 91.0092 159.119 88.095 158.865Z" fill="white" stroke="#263238" stroke-linecap="round" stroke-linejoin="round"/>
<path d="M82.7514 160.916C82.1943 161.303 81.6568 161.717 81.1409 162.157L47.7899 162.666C47.7899 162.666 47.8282 162.344 47.8522 161.86C46.8264 164.861 44.3771 171.317 42.0285 172.19C38.956 173.33 36.9381 176.503 36.9381 176.503L33.209 179.494C33.209 179.494 35.4426 179.916 36.7607 180.007C38.0789 180.098 39.9195 181.148 43.1692 181.762C46.419 182.375 59.0635 187.993 59.0635 187.993C59.0635 187.993 62.5769 190.629 63.3773 194.224C63.847 196.393 63.6636 198.653 62.8501 200.719L78.38 193.165C79.2883 191.346 80.0449 189.456 80.6424 187.513C80.8917 186.631 81.1745 185.357 81.4573 183.943L81.2032 181.838C81.2032 181.838 79.4489 173.69 79.6215 169.985C79.703 167.339 81.673 163.083 82.7514 160.916Z" fill="#263238" stroke="#263238" stroke-linecap="round" stroke-linejoin="round"/>
<path d="M76.3797 197.561C76.3797 197.561 82.1315 188.482 83.0902 185.865C84.0488 183.248 83.4401 180.545 83.0902 178.45C82.7403 176.356 83.5264 173.302 82.4767 172.344C81.4269 171.385 78.3785 171.385 77.1562 173.738C75.9339 176.092 76.3701 178.364 76.72 180.545C77.0699 182.726 77.2425 183.862 77.2425 183.862C77.2425 183.862 74.9082 186.388 74.9082 186.651" fill="white"/>
<path d="M76.3797 197.561C76.3797 197.561 82.1315 188.482 83.0902 185.865C84.0488 183.248 83.4401 180.545 83.0902 178.45C82.7403 176.356 83.5264 173.302 82.4767 172.344C81.4269 171.385 78.3785 171.385 77.1562 173.738C75.9339 176.092 76.3701 178.364 76.72 180.545C77.0699 182.726 77.2425 183.862 77.2425 183.862C77.2425 183.862 74.9082 186.388 74.9082 186.651" stroke="#263238" stroke-linecap="round" stroke-linejoin="round"/>
<path d="M63.4062 210.732C63.4062 210.732 73.352 202.359 74.6606 200.091C75.9691 197.824 78.2363 193.544 78.3274 190.927C78.4184 188.31 76.6689 185.175 76.319 183.684C75.9691 182.194 73.6157 182.112 72.1298 183.862C70.6439 185.611 71.2574 189.01 71.3437 189.882C71.43 190.754 71.521 191.627 71.521 191.627C71.521 191.627 69.6038 193.458 69.0765 194.594L68.0316 196.861C68.0316 196.861 65.2371 198.519 64.1012 199.305C62.9652 200.091 61.834 201.922 61.834 201.922" fill="white"/>
<path d="M63.4062 210.732C63.4062 210.732 73.352 202.359 74.6606 200.091C75.9691 197.824 78.2363 193.544 78.3274 190.927C78.4184 188.31 76.6689 185.175 76.319 183.684C75.9691 182.194 73.6157 182.112 72.1298 183.862C70.6439 185.611 71.2574 189.01 71.3437 189.882C71.43 190.754 71.521 191.627 71.521 191.627C71.521 191.627 69.6038 193.458 69.0765 194.594L68.0316 196.861C68.0316 196.861 65.2371 198.519 64.1012 199.305C62.9652 200.091 61.834 201.922 61.834 201.922" stroke="#263238" stroke-linecap="round" stroke-linejoin="round"/>
<path d="M72.1914 192.412C72.1914 192.412 73.15 194.679 75.5083 195.029" stroke="#263238" stroke-linecap="round" stroke-linejoin="round"/>
<path d="M68.442 197.469C68.442 197.469 67.4834 200.527 71.4953 201.572" stroke="#263238" stroke-linecap="round" stroke-linejoin="round"/>
<path d="M77.8665 184.298C77.8665 184.298 77.6892 187.001 81.5285 186.479" stroke="#263238" stroke-linecap="round" stroke-linejoin="round"/>
<path d="M60.5 191.013C61.4734 192.597 62.0429 194.396 62.1584 196.252" stroke="#263238" stroke-linecap="round" stroke-linejoin="round"/>
<path d="M40.2597 173.038C40.2597 173.038 36.9428 176.269 36.3293 176.964C35.3425 177.871 34.3004 178.716 33.2089 179.495C32.7752 180.696 32.2496 181.863 31.6367 182.984" stroke="#263238" stroke-linecap="round" stroke-linejoin="round"/>
<path d="M38.2507 185.429C38.2507 185.429 37.7283 192.834 33.2754 198.107" stroke="#263238" stroke-linecap="round" stroke-linejoin="round"/>
<path d="M48.4735 188.146C48.4735 188.146 45.3484 192.94 48.7324 199.995C52.1164 207.051 53.4201 211.451 53.4201 211.451" stroke="#263238" stroke-linecap="round" stroke-linejoin="round"/>
<path d="M66.8522 124.349L37.6952 177.841C37.3597 178.454 37.171 179.136 37.144 179.834C37.117 180.533 37.2524 181.227 37.5395 181.864C37.8266 182.501 38.2577 183.063 38.7987 183.505C39.3397 183.947 39.976 184.258 40.6574 184.412L64.0817 189.771C65.0713 189.998 66.1083 189.884 67.0256 189.45C67.943 189.015 68.6872 188.284 69.1386 187.375L97.3753 130.815C97.5708 130.411 97.6692 129.968 97.6626 129.519C97.6561 129.071 97.5447 128.63 97.3374 128.232C97.1302 127.834 96.8328 127.491 96.469 127.228C96.1052 126.966 95.6851 126.793 95.2423 126.722L69.776 122.887C69.1975 122.8 68.6062 122.894 68.0829 123.156C67.5596 123.417 67.1299 123.834 66.8522 124.349Z" fill="white" stroke="#263238" stroke-linecap="round" stroke-linejoin="round"/>
<path d="M66.1047 128.217L40.207 175.871L70.4569 182.792L94.7632 133.446L66.1047 128.217Z" class="main-color-svg" stroke="#263238" stroke-linecap="round" stroke-linejoin="round"/>
<path d="M98.1168 129.746L98.0689 129.664L97.5896 128.85C97.754 129.508 97.6775 130.203 97.3739 130.81L69.1564 187.379C68.7051 188.289 67.9608 189.019 67.0434 189.454C66.1261 189.889 65.0891 190.002 64.0996 189.776L40.656 184.412C39.9506 184.254 39.294 183.927 38.7423 183.459C38.1906 182.992 37.7601 182.398 37.4877 181.728H37.459C37.5868 182.474 37.8651 183.187 38.2772 183.822C38.6892 184.458 39.2262 185.003 39.8556 185.424C40.1103 185.608 40.4138 185.713 40.7279 185.726C40.9484 185.818 41.176 185.891 41.4086 185.946L64.8425 191.291C65.8321 191.518 66.8694 191.405 67.7869 190.97C68.7045 190.535 69.4487 189.804 69.8993 188.894L98.1312 132.334C98.3346 131.933 98.4394 131.488 98.4369 131.038C98.4344 130.588 98.3247 130.145 98.1168 129.746Z" fill="#919191" stroke="#263238" stroke-linecap="round" stroke-linejoin="round"/>
<path d="M84.4465 146.82L84.3171 147.011C83.6029 148.004 82.2416 148.147 81.8438 147.261C81.4773 146.421 81.0019 145.633 80.4298 144.917C79.3488 143.599 77.9452 142.584 76.3556 141.969C75.1789 141.509 73.9361 141.24 72.6744 141.173C69.4055 140.982 66.1445 141.849 62.8915 143.776C62.6145 143.958 62.2966 144.068 61.9664 144.097C61.8295 144.111 61.6912 144.097 61.5599 144.056C61.4286 144.014 61.307 143.947 61.2026 143.857C61.0981 143.768 61.013 143.658 60.9523 143.534C60.8916 143.411 60.8567 143.276 60.8496 143.139C60.8496 142.808 60.9387 142.484 61.1074 142.199C61.276 141.915 61.5181 141.682 61.8082 141.523C62.615 141.027 63.4522 140.582 64.3151 140.191C66.367 139.237 68.5608 138.625 70.8099 138.379C72.6753 138.174 74.5622 138.299 76.3844 138.748C78.7835 139.34 80.9444 140.651 82.5772 142.506C83.3916 143.434 84.0534 144.486 84.5376 145.621C84.6497 145.891 84.6633 146.191 84.5759 146.47C84.5739 146.492 84.5739 146.515 84.5759 146.537L84.4465 146.82Z" fill="#263238"/>
<path d="M67.153 156.981C67.005 156.912 66.8638 156.828 66.7312 156.732C66.2519 156.315 66.2087 155.524 66.6497 154.815C66.8465 154.483 67.1273 154.208 67.4639 154.019C67.8004 153.83 68.1809 153.732 68.567 153.736C68.7665 153.742 68.9614 153.798 69.1345 153.897C69.3075 153.996 69.4534 154.137 69.5591 154.306C69.6649 154.475 69.7272 154.668 69.7406 154.867C69.754 155.066 69.718 155.266 69.6359 155.448C69.495 155.897 69.2186 156.292 68.8445 156.579C68.4704 156.866 68.0169 157.03 67.546 157.049H67.4885L67.153 156.981Z" fill="#263238"/>
<path d="M73.145 143.656C76.251 144.26 78.4176 145.913 79.6542 148.655C79.7484 148.918 79.7641 149.202 79.6995 149.474C79.6348 149.745 79.4925 149.992 79.2899 150.184C79.1041 150.405 78.8644 150.574 78.5941 150.676C78.3238 150.778 78.0319 150.808 77.7465 150.764C77.5997 150.735 77.4624 150.669 77.347 150.574C77.2316 150.479 77.1416 150.356 77.085 150.218C76.7855 149.52 76.3652 148.881 75.8436 148.329C75.0375 147.481 74.0201 146.862 72.8958 146.536C70.7525 145.945 68.4717 146.102 66.4298 146.982C65.7538 147.246 65.1012 147.567 64.479 147.941C64.1747 148.145 63.8074 148.233 63.4436 148.19C63.2039 148.157 62.9857 148.034 62.8328 147.846C62.6799 147.659 62.6036 147.42 62.6192 147.179C62.6433 146.889 62.737 146.609 62.8921 146.363C63.0473 146.117 63.2595 145.911 63.5107 145.765C64.2757 145.297 65.0772 144.891 65.9073 144.552C67.6205 143.827 69.4632 143.456 71.3236 143.464C71.9348 143.481 72.5437 143.545 73.145 143.656Z" fill="#263238"/>
<path d="M74.9983 152.461C74.8844 152.734 74.7079 152.976 74.483 153.167C74.2582 153.359 73.9913 153.495 73.7041 153.564C73.4776 153.654 73.2251 153.655 72.9981 153.566C72.771 153.477 72.5864 153.305 72.4819 153.084C72.2608 152.595 71.9333 152.161 71.5232 151.814C70.1907 150.75 68.0913 150.774 66.2076 151.9C65.5365 152.298 64.8607 152.241 64.5252 151.824C64.0458 151.253 64.3909 150.247 65.2106 149.748C66.486 148.936 67.9477 148.462 69.4574 148.373C72.0553 148.277 73.8911 149.259 74.9408 151.316C75.093 151.569 75.1459 151.869 75.0894 152.159C75.0606 152.255 75.0222 152.375 74.9983 152.461Z" fill="#263238"/>
</g>
<defs>
<clipPath id="clip0_15224_316230">
<rect width="240" height="240" fill="white" transform="translate(0.585938 0.704102)"/>
</clipPath>
</defs>
</svg>
