<svg width="241" height="173" viewBox="0 0 241 173" fill="none" xmlns="http://www.w3.org/2000/svg">
<g clip-path="url(#clip0_15235_300906)">
<path d="M239.871 95.6981C239.871 95.6981 243.41 28.8196 189.97 10.4093C136.53 -8.00104 109.633 5.52493 92.6454 22.8081C75.6578 40.0913 69.9952 51.3629 50.5303 53.6173C31.0653 55.8716 13.016 59.6288 3.81433 84.8021C-5.38729 109.975 6.29169 129.889 23.9871 142.287C41.6826 154.686 62.2093 141.536 78.489 149.426C94.7688 157.316 105.032 170.467 138.3 171.969C171.567 173.472 172.629 163.328 189.616 147.548C206.604 131.767 236.686 148.299 239.871 95.6981Z" class="main-color-svg fill-opacity-svg" fill-opacity="0.3"/>
<path d="M151.393 118.451H140.039V164.263H151.393V118.451Z" fill="#263238" stroke="#263238" stroke-linecap="round" stroke-linejoin="round"/>
<path d="M220.253 42.8828H76.9453V129.806H220.253V42.8828Z" fill="#263238" stroke="#263238" stroke-linecap="round" stroke-linejoin="round"/>
<path d="M217.368 42.8828H74.0605V129.806H217.368V42.8828Z" class="main-color-svg" stroke="#263238" stroke-linecap="round" stroke-linejoin="round"/>
<path d="M212.202 46.0166H79.2227V126.676H212.202V46.0166Z" fill="white" stroke="#263238" stroke-linecap="round" stroke-linejoin="round"/>
<path d="M212.202 121.818H79.2227V126.676H212.202V121.818Z" fill="white" stroke="#263238" stroke-linecap="round" stroke-linejoin="round"/>
<path d="M146.334 159.127L104.234 161.847V164.586H187.194V161.847L146.334 159.127Z" fill="#263238" stroke="#263238" stroke-linecap="round" stroke-linejoin="round"/>
<path d="M212.202 46.0166H79.2227V126.676H212.202V46.0166Z" fill="white" stroke="#263238" stroke-linecap="round" stroke-linejoin="round"/>
<path d="M125.639 27.5156L114.236 44.8026" stroke="#263238" stroke-miterlimit="10" stroke-dasharray="5 5"/>
<path d="M143.777 18.2917V14.3654L139.87 13.9296C139.65 13.1106 139.321 12.3247 138.893 11.5926L141.369 8.49289L138.592 5.7163L135.512 8.18479C134.783 7.75577 133.999 7.42717 133.182 7.20792L132.742 3.2666H128.827L128.392 7.18913C127.573 7.40301 126.787 7.72655 126.055 8.15098L122.959 5.67497L120.182 8.45156L122.647 11.5362C122.218 12.2652 121.889 13.0488 121.67 13.8657L117.732 14.3053V18.2316L121.651 18.6674C121.867 19.4856 122.19 20.2715 122.613 21.0044L120.137 24.1004L122.914 26.8769L125.998 24.4122C126.727 24.8412 127.511 25.1698 128.328 25.3891L128.767 29.3266H132.694L133.129 25.4079C133.948 25.1923 134.734 24.8689 135.466 24.446L138.562 26.922L141.339 24.1454L138.893 21.0608C139.322 20.3318 139.651 19.5482 139.87 18.7313L143.777 18.2917ZM130.747 20.9856C129.82 20.9834 128.914 20.7061 128.144 20.1889C127.374 19.6716 126.775 18.9376 126.422 18.0797C126.069 17.2219 125.979 16.2787 126.162 15.3694C126.346 14.4602 126.795 13.6258 127.452 12.9717C128.11 12.3177 128.947 11.8734 129.857 11.6951C130.768 11.5168 131.71 11.6124 132.566 11.97C133.422 12.3275 134.153 12.9308 134.666 13.7037C135.178 14.4765 135.451 15.3841 135.448 16.3116C135.444 17.5526 134.948 18.7415 134.069 19.6176C133.19 20.4937 132 20.9856 130.759 20.9856H130.747Z" class="main-color-svg" stroke="#263238" stroke-linecap="round" stroke-linejoin="round"/>
<path d="M159.226 10.4093L158.809 7.80928L156.179 7.95581C155.948 7.43752 155.647 6.95334 155.284 6.51679L156.554 4.19108L154.409 2.65814L152.639 4.63443C152.109 4.43368 151.554 4.30724 150.99 4.25871L150.261 1.69629L147.661 2.13213L147.807 4.76217C147.288 4.99389 146.803 5.29468 146.365 5.65639L144.043 4.36015L142.51 6.50552L144.486 8.27517C144.285 8.805 144.159 9.36008 144.11 9.92459L141.525 10.676L141.961 13.276L144.591 13.1295C144.823 13.6485 145.124 14.1338 145.485 14.5723L144.189 16.8942L146.335 18.4272L148.104 16.4509C148.634 16.6516 149.189 16.7781 149.754 16.8266L150.483 19.389L153.101 18.9419L152.955 16.3119C153.473 16.081 153.957 15.7801 154.394 15.4176L156.72 16.6876L158.253 14.5422L156.276 12.7726C156.477 12.2427 156.603 11.6876 156.652 11.1231L159.226 10.4093ZM150.896 13.6367C150.282 13.7389 149.653 13.6569 149.086 13.4011C148.519 13.1453 148.041 12.7272 147.712 12.1997C147.382 11.6722 147.217 11.0589 147.236 10.4374C147.255 9.81581 147.458 9.21393 147.82 8.70778C148.181 8.20162 148.684 7.81393 149.266 7.59369C149.847 7.37346 150.481 7.33057 151.087 7.47045C151.693 7.61033 152.243 7.9267 152.67 8.37957C153.096 8.83244 153.378 9.40148 153.481 10.0148C153.618 10.8378 153.422 11.6815 152.938 12.3606C152.453 13.0397 151.719 13.4987 150.896 13.6367Z" fill="#263238" stroke="#263238" stroke-miterlimit="10"/>
<path d="M92.1426 27.6953L92.3267 28.6158" stroke="#263238" stroke-miterlimit="10"/>
<path d="M92.6719 30.3486L95.2531 43.3411" stroke="#263238" stroke-miterlimit="10" stroke-dasharray="4.7 4.7"/>
<path d="M95.4258 44.209L95.6099 45.1295" stroke="#263238" stroke-miterlimit="10"/>
<path d="M94.7866 26.084H100.092V6.33231H94.7866V26.084Z" class="main-color-svg" stroke="#263238" stroke-linecap="round" stroke-linejoin="round"/>
<path d="M87.7124 26.084H93.0176V10.7546H87.7124V26.084Z" fill="#263238" stroke="#263238" stroke-miterlimit="10"/>
<path d="M80.6421 26.0801H85.9473V14.2899H80.6421V26.0801Z" class="main-color-svg" stroke="#263238" stroke-linecap="round" stroke-linejoin="round"/>
<path d="M73.562 26.084H78.8672V17.2395H73.562V26.084Z" fill="#263238" stroke="#263238" stroke-miterlimit="10"/>
<path d="M76.0439 15.9321L75.5254 15.2521L80.9508 11.1267L83.641 12.0209L88.082 7.23794L90.6933 8.03447L95.4311 2.6053L97.4375 3.9053L99.519 2.42871L100.015 3.12755L97.46 4.93477L95.5889 3.72495L90.9751 9.01511L88.345 8.21106L83.8927 13.009L81.1086 12.081L76.0439 15.9321Z" fill="#263238"/>
<path d="M100.449 4.75402L102.125 1.11328L98.1348 1.48149L100.449 4.75402Z" fill="#263238"/>
<path d="M50.5527 26.9941L51.3342 27.5126" stroke="#263238" stroke-miterlimit="10"/>
<path d="M52.9062 28.5527L77.2568 44.6486" stroke="#263238" stroke-miterlimit="10" stroke-dasharray="5.01 5.01"/>
<path d="M78.041 45.1709L78.8225 45.6856" stroke="#263238" stroke-miterlimit="10"/>
<path d="M25.241 10.8828H52.5184C53.1541 10.8828 53.7638 11.1354 54.2134 11.5849C54.6629 12.0345 54.9155 12.6442 54.9155 13.2799V31.9232H22.8477V13.2799C22.8477 12.6448 23.0997 12.0357 23.5484 11.5862C23.9972 11.1368 24.6059 10.8838 25.241 10.8828Z" fill="white" stroke="#263238" stroke-linecap="round" stroke-linejoin="round"/>
<path d="M30.9375 19.3438H46.1279" stroke="#263238" stroke-linecap="round" stroke-linejoin="round"/>
<path d="M30.9375 21.7939H46.1279" stroke="#263238" stroke-linecap="round" stroke-linejoin="round"/>
<path d="M30.9375 24.2432H46.1279" stroke="#263238" stroke-linecap="round" stroke-linejoin="round"/>
<path d="M30.9375 26.6934H46.1279" stroke="#263238" stroke-linecap="round" stroke-linejoin="round"/>
<path d="M54.9155 14.2042V12.8441C54.9155 12.3239 54.7088 11.8251 54.341 11.4573C53.9732 11.0894 53.4744 10.8828 52.9542 10.8828H24.8052C24.5478 10.8828 24.2929 10.9336 24.0552 11.0322C23.8175 11.1308 23.6015 11.2753 23.4197 11.4575C23.2379 11.6397 23.0937 11.8559 22.9956 12.0938C22.8974 12.3317 22.8472 12.5867 22.8477 12.8441V14.2042H54.9155Z" class="main-color-svg" stroke="#263238" stroke-linecap="round" stroke-linejoin="round"/>
<path d="M49.4294 12.6297C49.4294 12.5315 49.4002 12.4354 49.3456 12.3538C49.2909 12.2722 49.2132 12.2086 49.1224 12.1712C49.0315 12.1338 48.9316 12.1242 48.8353 12.1436C48.739 12.163 48.6506 12.2107 48.5814 12.2804C48.5122 12.3501 48.4653 12.4388 48.4466 12.5353C48.4279 12.6317 48.4382 12.7316 48.4763 12.8221C48.5145 12.9127 48.5786 12.9899 48.6607 13.0439C48.7427 13.098 48.839 13.1264 48.9372 13.1257C49.0681 13.1247 49.1933 13.072 49.2855 12.9791C49.3777 12.8862 49.4294 12.7606 49.4294 12.6297Z" fill="#263238" stroke="#263238" stroke-linecap="round" stroke-linejoin="round"/>
<path d="M51.4099 12.6297C51.4099 12.5317 51.3808 12.4358 51.3263 12.3542C51.2718 12.2726 51.1943 12.2091 51.1037 12.1715C51.0131 12.134 50.9134 12.1242 50.8172 12.1433C50.721 12.1625 50.6326 12.2097 50.5632 12.2791C50.4939 12.3484 50.4466 12.4368 50.4275 12.533C50.4084 12.6292 50.4182 12.7289 50.4557 12.8195C50.4933 12.9102 50.5568 12.9876 50.6384 13.0421C50.7199 13.0966 50.8158 13.1257 50.9139 13.1257C51.0455 13.1257 51.1716 13.0734 51.2646 12.9804C51.3576 12.8874 51.4099 12.7613 51.4099 12.6297Z" fill="#263238" stroke="#263238" stroke-linecap="round" stroke-linejoin="round"/>
<path d="M53.3884 12.6297C53.3884 12.5317 53.3593 12.4358 53.3048 12.3542C53.2503 12.2726 53.1729 12.2091 53.0822 12.1715C52.9916 12.134 52.8919 12.1242 52.7957 12.1433C52.6995 12.1625 52.6111 12.2097 52.5417 12.2791C52.4724 12.3484 52.4252 12.4368 52.406 12.533C52.3869 12.6292 52.3967 12.7289 52.4342 12.8195C52.4718 12.9102 52.5353 12.9876 52.6169 13.0421C52.6985 13.0966 52.7944 13.1257 52.8924 13.1257C53.024 13.1257 53.1501 13.0734 53.2431 12.9804C53.3361 12.8874 53.3884 12.7613 53.3884 12.6297Z" fill="#263238" stroke="#263238" stroke-linecap="round" stroke-linejoin="round"/>
<path d="M18.7788 36.4093C18.6514 36.3034 18.5463 36.173 18.47 36.0259C18.3936 35.8788 18.3474 35.7179 18.3341 35.5527C18.3208 35.3874 18.3406 35.2212 18.3925 35.0638C18.4444 34.9064 18.5272 34.7609 18.6361 34.6359L27.6534 24.2998L29.0285 25.427L20.5447 36.2252C20.4421 36.355 20.3146 36.463 20.1696 36.5427C20.0246 36.6224 19.8652 36.6724 19.7006 36.6895C19.536 36.7067 19.3697 36.6907 19.2114 36.6426C19.0531 36.5945 18.906 36.5152 18.7788 36.4093Z" fill="#263238" stroke="#263238" stroke-linejoin="round"/>
<path d="M25.2479 27.0498L18.6352 34.6356C18.5308 34.7609 18.4522 34.9056 18.4037 35.0613C18.3553 35.217 18.338 35.3808 18.3528 35.5432C18.3676 35.7056 18.4143 35.8635 18.4901 36.0079C18.566 36.1522 18.6695 36.2802 18.7949 36.3846C18.9202 36.489 19.0648 36.5676 19.2206 36.6161C19.3763 36.6645 19.54 36.6818 19.7024 36.667C19.8648 36.6522 20.0227 36.6055 20.1671 36.5296C20.3115 36.4538 20.4395 36.3502 20.5438 36.2249L26.7996 28.2671L25.2479 27.0498Z" fill="white" stroke="#263238" stroke-linejoin="round"/>
<path d="M35.1579 16.6309C34.2926 15.9142 33.2342 15.4702 32.1166 15.3551C30.9989 15.24 29.8722 15.4588 28.879 15.984C27.8857 16.5092 27.0705 17.3171 26.5364 18.3056C26.0023 19.2941 25.7733 20.4188 25.8784 21.5374C25.9835 22.6561 26.4179 23.7184 27.1268 24.5902C27.8356 25.4619 28.7871 26.1039 29.8607 26.4349C30.9344 26.7659 32.0822 26.7711 33.1588 26.4498C34.2355 26.1286 35.1927 25.4952 35.9094 24.63C36.3853 24.0554 36.7434 23.3927 36.9632 22.6798C37.183 21.9668 37.2602 21.2176 37.1904 20.4748C37.1207 19.732 36.9052 19.0102 36.5565 18.3507C36.2078 17.6911 35.7325 17.1067 35.1579 16.6309ZM28.4363 24.7502C27.6958 24.1368 27.1538 23.3175 26.8789 22.3961C26.6041 21.4746 26.6086 20.4924 26.8919 19.5735C27.1753 18.6546 27.7248 17.8404 28.4709 17.2338C29.217 16.6272 30.1262 16.2555 31.0836 16.1656C32.0409 16.0758 33.0035 16.2718 33.8494 16.729C34.6953 17.1862 35.3867 17.8839 35.8361 18.7341C36.2855 19.5842 36.4727 20.5484 36.3741 21.5049C36.2754 22.4614 35.8954 23.3672 35.2819 24.1077C34.8746 24.5994 34.3745 25.006 33.81 25.3044C33.2456 25.6028 32.6279 25.7871 31.9922 25.8468C31.3565 25.9064 30.7153 25.8403 30.1052 25.6521C29.4951 25.464 28.928 25.1575 28.4363 24.7502Z" fill="#263238" stroke="#263238" stroke-linejoin="round"/>
<path d="M39.3359 71.6211H40.2752" stroke="#263238" stroke-miterlimit="10"/>
<path d="M42.1602 71.6211H75.0996" stroke="#263238" stroke-miterlimit="10" stroke-dasharray="5.01 5.01"/>
<path d="M76.043 71.6211H76.9823" stroke="#263238" stroke-miterlimit="10"/>
<path d="M23.8809 57.6406H45.1204" stroke="#263238" stroke-linecap="round" stroke-linejoin="round"/>
<path d="M34.5 68.1045V57.6406" stroke="#263238" stroke-linecap="round" stroke-linejoin="round"/>
<path d="M17.6719 60.2441V73.4808" stroke="#263238" stroke-linecap="round" stroke-linejoin="round"/>
<path d="M38.1074 74.8711H57.3444V86.5072" stroke="#263238" stroke-linecap="round" stroke-linejoin="round"/>
<path d="M45.123 75.0742V86.2933" stroke="#263238" stroke-linecap="round" stroke-linejoin="round"/>
<path d="M27.6879 53.2334H13.8613V62.6527H27.6879V53.2334Z" fill="#263238" stroke="#263238" stroke-miterlimit="10"/>
<path d="M53.8383 53.2334H40.0117V62.6527H53.8383V53.2334Z" class="main-color-svg" stroke="#263238" stroke-linecap="round" stroke-linejoin="round"/>
<path d="M49.672 83.4902H40.8125V89.5243H49.672V83.4902Z" class="main-color-svg" stroke="#263238" stroke-linecap="round" stroke-linejoin="round"/>
<path d="M22.6232 70.4639H13.7637V76.498H22.6232V70.4639Z" fill="white" stroke="#263238" stroke-linecap="round" stroke-linejoin="round"/>
<path d="M61.297 83.4902H52.4375V89.5243H61.297V83.4902Z" fill="#263238" stroke="#263238" stroke-miterlimit="10"/>
<path d="M34.4999 68.1065L27.5312 75.0752L34.4999 82.0439L41.4686 75.0752L34.4999 68.1065Z" class="main-color-svg" stroke="#263238" stroke-linecap="round" stroke-linejoin="round"/>
<path d="M60.1309 116.254L61.0213 115.949" stroke="#263238" stroke-miterlimit="10"/>
<path d="M62.8066 115.34L76.1823 110.771" stroke="#263238" stroke-miterlimit="10" stroke-dasharray="5.02 5.02"/>
<path d="M77.0723 110.468L77.9627 110.167" stroke="#263238" stroke-miterlimit="10"/>
<path d="M58.0233 110.411H15.6758V120.356H58.0233V110.411Z" fill="white" stroke="#263238" stroke-linecap="round" stroke-linejoin="round"/>
<path d="M57.8798 122.738H35.7461V135.907H57.8798V122.738Z" fill="white" stroke="#263238" stroke-linecap="round" stroke-linejoin="round"/>
<path d="M35.7461 135.908L43.4521 129.742L46.6721 132.124L53.3975 126.939L57.7408 131.144V135.908H35.7461Z" fill="#263238" stroke="#263238" stroke-linecap="round" stroke-linejoin="round"/>
<path d="M39.5287 127.641C40.3795 127.641 41.0692 126.952 41.0692 126.101C41.0692 125.25 40.3795 124.561 39.5287 124.561C38.678 124.561 37.9883 125.25 37.9883 126.101C37.9883 126.952 38.678 127.641 39.5287 127.641Z" fill="#263238" stroke="#263238" stroke-linecap="round" stroke-linejoin="round"/>
<path d="M57.8798 137.727H35.7461V150.896H57.8798V137.727Z" fill="white" stroke="#263238" stroke-linecap="round" stroke-linejoin="round"/>
<path d="M35.7461 150.895L43.4521 144.734L46.6721 147.112L53.3975 141.931L57.7408 146.131V150.895H35.7461Z" fill="#263238" stroke="#263238" stroke-linecap="round" stroke-linejoin="round"/>
<path d="M39.5287 142.63C40.3795 142.63 41.0692 141.94 41.0692 141.089C41.0692 140.239 40.3795 139.549 39.5287 139.549C38.678 139.549 37.9883 140.239 37.9883 141.089C37.9883 141.94 38.678 142.63 39.5287 142.63Z" fill="#263238" stroke="#263238" stroke-linecap="round" stroke-linejoin="round"/>
<path d="M16.3184 123.73H33.1432" stroke="#263238" stroke-miterlimit="10"/>
<path d="M16.3184 127.469H33.1432" stroke="#263238" stroke-miterlimit="10"/>
<path d="M16.3184 131.207H33.1432" stroke="#263238" stroke-miterlimit="10"/>
<path d="M16.3184 134.946H33.1432" stroke="#263238" stroke-miterlimit="10"/>
<path d="M16.3184 138.685H33.1432" stroke="#263238" stroke-miterlimit="10"/>
<path d="M16.3184 142.423H33.1432" stroke="#263238" stroke-miterlimit="10"/>
<path d="M16.3184 146.161H33.1432" stroke="#263238" stroke-miterlimit="10"/>
<path d="M16.3184 149.899H33.1432" stroke="#263238" stroke-miterlimit="10"/>
<path d="M209.435 50.3936H145.314V68.5597H209.435V50.3936Z" fill="white" stroke="#263238" stroke-linecap="round" stroke-linejoin="round"/>
<path d="M209.179 72.9102H168.748V96.9638H209.179V72.9102Z" fill="white" stroke="#263238" stroke-linecap="round" stroke-linejoin="round"/>
<path d="M168.748 96.9638L182.823 85.7072L188.706 90.0543L200.989 80.5898L208.92 88.2658V96.9638H168.748Z" fill="#263238" stroke="#263238" stroke-linecap="round" stroke-linejoin="round"/>
<path d="M178.472 79.0572C178.471 79.6136 178.306 80.1573 177.996 80.6196C177.686 81.0819 177.247 81.442 176.732 81.6544C176.218 81.8668 175.652 81.922 175.107 81.813C174.561 81.704 174.06 81.4357 173.667 81.042C173.273 80.6483 173.006 80.1468 172.898 79.601C172.789 79.0553 172.845 78.4896 173.058 77.9756C173.271 77.4616 173.632 77.0223 174.095 76.7133C174.558 76.4042 175.101 76.2393 175.658 76.2393C176.405 76.2403 177.12 76.5376 177.648 77.0659C178.176 77.5943 178.472 78.3105 178.472 79.0572Z" fill="#263238" stroke="#263238" stroke-linecap="round" stroke-linejoin="round"/>
<path d="M209.179 100.293H168.748V124.347H209.179V100.293Z" fill="white" stroke="#263238" stroke-linecap="round" stroke-linejoin="round"/>
<path d="M168.748 124.343L182.823 113.086L188.706 117.437L200.989 107.969L208.92 115.645V124.343H168.748Z" fill="#263238" stroke="#263238" stroke-linecap="round" stroke-linejoin="round"/>
<path d="M178.472 106.432C178.472 106.989 178.307 107.533 177.998 107.996C177.689 108.459 177.249 108.819 176.735 109.032C176.221 109.245 175.655 109.301 175.109 109.192C174.563 109.084 174.062 108.816 173.668 108.422C173.274 108.029 173.006 107.527 172.898 106.981C172.789 106.435 172.845 105.87 173.058 105.355C173.271 104.841 173.632 104.402 174.094 104.092C174.557 103.783 175.101 103.618 175.658 103.618C176.404 103.619 177.119 103.916 177.647 104.444C178.174 104.971 178.471 105.686 178.472 106.432Z" fill="#263238" stroke="#263238" stroke-linecap="round" stroke-linejoin="round"/>
<path d="M148.633 111.959L147.059 102.296H148.186L149.223 109.239L150.519 102.352H151.473L152.8 109.277L153.814 102.296H154.915L153.363 111.959H152.383L151.034 104.802L149.674 111.959H148.633Z" fill="#263238"/>
<path d="M156.365 102.886H165.818" stroke="#263238" stroke-miterlimit="10"/>
<path d="M156.365 105.493H165.818" stroke="#263238" stroke-miterlimit="10"/>
<path d="M156.365 108.101H165.818" stroke="#263238" stroke-miterlimit="10"/>
<path d="M156.365 110.708H165.818" stroke="#263238" stroke-miterlimit="10"/>
<path d="M156.365 113.315H165.818" stroke="#263238" stroke-miterlimit="10"/>
<path d="M156.365 115.923H165.818" stroke="#263238" stroke-miterlimit="10"/>
<path d="M156.365 118.53H165.818" stroke="#263238" stroke-miterlimit="10"/>
<path d="M156.365 121.138H165.818" stroke="#263238" stroke-miterlimit="10"/>
<path d="M156.365 123.746H165.818" stroke="#263238" stroke-miterlimit="10"/>
<path d="M150.72 73.2938C148.138 73.2901 145.613 74.0567 143.469 75.4956V46.0127H79.2207V126.673H143.469V97.1935C145.163 98.3251 147.099 99.0443 149.121 99.2935C151.143 99.5426 153.195 99.3149 155.113 98.6284C157.032 97.942 158.763 96.8159 160.167 95.3404C161.572 93.8648 162.612 92.0808 163.204 90.1312C163.795 88.1816 163.922 86.1206 163.574 84.1132C163.226 82.1059 162.412 80.2078 161.199 78.5712C159.986 76.9346 158.406 75.6048 156.586 74.6884C154.767 73.772 152.758 73.2944 150.72 73.2938Z" fill="#263238" stroke="#263238" stroke-linecap="round" stroke-linejoin="round"/>
<path d="M85.9082 58.3252H114.824" stroke="white" stroke-width="2" stroke-linecap="round" stroke-linejoin="round"/>
<path d="M85.9082 66.9775H101.005" stroke="white" stroke-width="2" stroke-linecap="round" stroke-linejoin="round"/>
<path d="M85.9082 62.2217H99.9827" stroke="#8CFAC7" stroke-width="2" stroke-linecap="round" stroke-linejoin="round"/>
<path d="M103.053 62.2217H110.473" stroke="#8CFAC7" stroke-width="2" stroke-linecap="round" stroke-linejoin="round"/>
<path d="M114.824 62.2217H122.245" stroke="#8CFAC7" stroke-width="2" stroke-linecap="round" stroke-linejoin="round"/>
<path d="M85.9082 70.6562H99.9827" stroke="white" stroke-width="2" stroke-linecap="round" stroke-linejoin="round"/>
<path d="M103.053 70.6562H110.473" stroke="white" stroke-width="2" stroke-linecap="round" stroke-linejoin="round"/>
<path d="M114.824 70.6562H122.245" stroke="#8CFAC7" stroke-width="2" stroke-linecap="round" stroke-linejoin="round"/>
<path d="M85.9082 79.0908H99.9827" stroke="white" stroke-width="2" stroke-linecap="round" stroke-linejoin="round"/>
<path d="M103.053 79.0908H110.473" stroke="#8CFAC7" stroke-width="2" stroke-linecap="round" stroke-linejoin="round"/>
<path d="M114.824 79.0908H122.245" stroke="white" stroke-width="2" stroke-linecap="round" stroke-linejoin="round"/>
<path d="M94.6074 82.7695H105.312" stroke="white" stroke-width="2" stroke-linecap="round" stroke-linejoin="round"/>
<path d="M107.648 82.7695H113.292" stroke="white" stroke-width="2" stroke-linecap="round" stroke-linejoin="round"/>
<path d="M116.598 82.7695H122.245" stroke="white" stroke-width="2" stroke-linecap="round" stroke-linejoin="round"/>
<path d="M94.6074 87.3115H105.312" stroke="white" stroke-width="2" stroke-linecap="round" stroke-linejoin="round"/>
<path d="M107.648 87.3115H113.292" stroke="white" stroke-width="2" stroke-linecap="round" stroke-linejoin="round"/>
<path d="M116.598 87.3115H122.245" stroke="white" stroke-width="2" stroke-linecap="round" stroke-linejoin="round"/>
<path d="M85.9082 92.2861H114.824" stroke="#8CFAC7" stroke-width="2" stroke-linecap="round" stroke-linejoin="round"/>
<path d="M85.9082 100.939H101.005" stroke="white" stroke-width="2" stroke-linecap="round" stroke-linejoin="round"/>
<path d="M85.9082 96.1826H99.9827" stroke="#8CFAC7" stroke-width="2" stroke-linecap="round" stroke-linejoin="round"/>
<path d="M103.053 96.1826H110.473" stroke="white" stroke-width="2" stroke-linecap="round" stroke-linejoin="round"/>
<path d="M114.824 96.1826H122.245" stroke="#8CFAC7" stroke-width="2" stroke-linecap="round" stroke-linejoin="round"/>
<path d="M85.9082 104.618H99.9827" stroke="#8CFAC7" stroke-width="2" stroke-linecap="round" stroke-linejoin="round"/>
<path d="M103.053 104.618H110.473" stroke="#8CFAC7" stroke-width="2" stroke-linecap="round" stroke-linejoin="round"/>
<path d="M114.824 104.618H122.245" stroke="white" stroke-width="2" stroke-linecap="round" stroke-linejoin="round"/>
<path d="M85.9082 113.053H99.9827" stroke="white" stroke-width="2" stroke-linecap="round" stroke-linejoin="round"/>
<path d="M103.053 113.053H110.473" stroke="#8CFAC7" stroke-width="2" stroke-linecap="round" stroke-linejoin="round"/>
<path d="M114.824 113.053H122.245" stroke="#8CFAC7" stroke-width="2" stroke-linecap="round" stroke-linejoin="round"/>
<path d="M94.6074 116.73H105.312" stroke="white" stroke-width="2" stroke-linecap="round" stroke-linejoin="round"/>
<path d="M107.648 116.73H113.292" stroke="white" stroke-width="2" stroke-linecap="round" stroke-linejoin="round"/>
<path d="M116.598 116.73H122.245" stroke="white" stroke-width="2" stroke-linecap="round" stroke-linejoin="round"/>
<path d="M94.6074 121.273H105.312" stroke="white" stroke-width="2" stroke-linecap="round" stroke-linejoin="round"/>
<path d="M107.648 121.273H113.292" stroke="white" stroke-width="2" stroke-linecap="round" stroke-linejoin="round"/>
<path d="M116.598 121.273H122.245" stroke="white" stroke-width="2" stroke-linecap="round" stroke-linejoin="round"/>
<path d="M86.6973 53.1329L89.4137 51.7314V52.1372L87.1256 53.2869L89.4137 54.4329V54.8387L86.6973 53.4372V53.1329Z" fill="white" stroke="white" stroke-miterlimit="10"/>
<path d="M91.041 55.0865L92.6829 50.8408H93.0586L91.4205 55.0865H91.041Z" fill="white" stroke="white" stroke-miterlimit="10"/>
<path d="M97.4059 53.4594L94.6895 54.8533V54.4475L96.9964 53.3016L94.6895 52.1519V51.7461L97.4059 53.14V53.4594Z" fill="white" stroke="white" stroke-miterlimit="10"/>
<path d="M25.4141 164.586H230.908" stroke="#263238" stroke-miterlimit="10"/>
<path d="M13.0273 164.586H19.4484" stroke="#263238" stroke-miterlimit="10"/>
</g>
<defs>
<clipPath id="clip0_15235_300906">
<rect width="240" height="172.035" fill="white" transform="translate(0.585938 0.317383)"/>
</clipPath>
</defs>
</svg>
