<svg width="241" height="246" viewBox="0 0 241 246" fill="none" xmlns="http://www.w3.org/2000/svg">
<g clip-path="url(#clip0_15224_316959)">
<path d="M222.127 117.924C230.678 63.2372 185.041 8.11897 125.154 1.26902C124.409 1.1868 123.658 1.10458 122.913 1.03264C81.0582 -3.12461 42.8002 28.8435 31.8598 53.232C20.9194 77.6205 -7.70853 100.822 2.90298 146.012C13.5145 191.202 42.3429 215.293 109.933 222.42C177.523 229.547 189.989 210.216 207.929 167.99C214.662 151.935 219.429 135.124 222.127 117.924Z" class="main-color-svg fill-opacity-svg" fill-opacity="0.3"/>
<path d="M21.8359 126.413C21.8359 126.413 86.209 85.6887 168.897 137.42" stroke="#263238" stroke-linecap="round" stroke-linejoin="round"/>
<path d="M98.9531 131.028C94.5389 127.4 107.689 113.423 107.689 113.423C101.934 112.395 102.715 112.601 102.715 112.601C102.715 112.601 87.7506 127.03 87.5965 135.252C87.4423 143.474 110.407 151.131 110.407 151.131L119.025 147.349L126.553 144.559C126.553 144.559 103.372 134.656 98.9531 131.028Z" class="main-color-svg" stroke="#263238" stroke-linecap="round" stroke-linejoin="round"/>
<path d="M86.7109 166.665C86.7109 166.665 141.932 114.183 233.098 148.854" stroke="#263238" stroke-linecap="round" stroke-linejoin="round"/>
<path d="M235.401 215.658C235.401 215.658 208.967 188.33 164.707 172.883C120.447 157.436 46.4855 168.427 14.4043 190.704" stroke="#263238" stroke-linecap="round" stroke-linejoin="round"/>
<path d="M65.6014 203.083C60.2263 204.975 55.4575 206.604 51.2129 208.012C66.4339 215.129 85.6939 219.867 109.949 222.426C115.303 222.991 120.308 223.387 125 223.623C155.956 201.013 170.123 174.805 170.123 174.805C171.177 175.149 152.883 167.097 132.246 166.388C132.23 166.393 106.418 188.741 65.6014 203.083Z" class="main-color-svg"/>
<path d="M84.3582 245.448C143.741 223.572 170.108 174.821 170.108 174.821C171.162 175.165 152.868 167.112 132.231 166.403C132.231 166.403 106.424 188.752 65.6017 203.089C20.3808 218.978 17.8114 216.635 6.91211 216.635" stroke="#263238" stroke-linecap="round" stroke-linejoin="round"/>
<path d="M182.821 180.098C192.441 183.988 203.258 174.553 202.487 164.502C201.742 154.738 189.512 149.45 181.835 146.223C161.47 137.667 148.191 139.142 148.191 139.142C148.191 139.142 168.844 135.308 190.391 137.96C209.039 140.257 228.448 151.542 236.341 169.168C240.586 178.643 240.756 189.168 239.939 199.347C239.024 210.863 235.396 215.658 235.396 215.658C235.396 215.658 209.414 194.753 182.821 180.098Z" class="main-color-svg" stroke="#263238" stroke-linecap="round" stroke-linejoin="round"/>
<path d="M148.53 142.133L146.547 43.4121" stroke="#263238" stroke-width="3" stroke-linecap="round" stroke-linejoin="round"/>
<path d="M159.703 55.9502L168.927 61.1866L165.782 65.6778L168.079 71.5L155.803 67.6511L159.703 55.9502Z" class="main-color-svg" stroke="#263238" stroke-linecap="round" stroke-linejoin="round"/>
<path d="M159.241 66.3613L155.803 67.6511L159.703 55.9502L159.241 66.3613Z" fill="#263238" stroke="#263238" stroke-linecap="round" stroke-linejoin="round"/>
<path d="M146.938 44.9951L160.35 50.7043L159.24 66.362L147.266 62.0249L146.938 44.9951Z" class="main-color-svg" stroke="#263238" stroke-linecap="round" stroke-linejoin="round"/>
<path d="M98.3308 114.404L97.1797 72.9648" stroke="#263238" stroke-width="2" stroke-linecap="round" stroke-linejoin="round"/>
<path d="M102.741 78.1855L106.734 80.8526L105.326 82.2503L106.795 84.4548L101.143 83.1085L102.741 78.1855Z" class="main-color-svg" stroke="#263238" stroke-linecap="round" stroke-linejoin="round"/>
<path d="M102.581 82.5586L101.143 83.1085L102.741 78.1855L102.581 82.5586Z" fill="#263238" stroke="#263238" stroke-linecap="round" stroke-linejoin="round"/>
<path d="M97.3496 73.6279L103.043 76.0997L102.581 82.5591L97.5449 80.7759L97.3496 73.6279Z" class="main-color-svg" stroke="#263238" stroke-linecap="round" stroke-linejoin="round"/>
<path d="M132.94 119.892L132.092 93.0264" stroke="#263238" stroke-linecap="round" stroke-linejoin="round"/>
<path d="M136.188 96.8652L139.123 98.8282L138.09 99.8611L139.169 101.48L135.012 100.493L136.188 96.8652Z" class="main-color-svg" stroke="#263238" stroke-linecap="round" stroke-linejoin="round"/>
<path d="M136.07 100.087L135.012 100.493L136.188 96.8652L136.07 100.087Z" class="main-color-svg" stroke="#263238" stroke-linecap="round" stroke-linejoin="round"/>
<path d="M132.215 93.5146L136.408 95.3286L136.069 100.087L132.359 98.7767L132.215 93.5146Z" class="main-color-svg" stroke="#263238" stroke-linecap="round" stroke-linejoin="round"/>
<path d="M172.617 182.379L173.768 17.9648" stroke="#263238" stroke-width="4" stroke-linecap="round" stroke-linejoin="round"/>
<path d="M191.002 35.2617L203.469 44.2288L198.823 48.5505L203.273 55.755L187.451 53.7098L191.002 35.2617Z" class="main-color-svg" stroke="#263238" stroke-linecap="round" stroke-linejoin="round"/>
<path d="M196.326 52.8928L187.451 53.7098L191.002 35.2617L196.326 52.8928Z" fill="#263238" stroke="#263238" stroke-linecap="round" stroke-linejoin="round"/>
<path d="M174.234 20.1025L197.97 31.9936L196.326 52.8929L174.08 42.9905L174.234 20.1025Z" class="main-color-svg" stroke="#263238" stroke-linecap="round" stroke-linejoin="round"/>
<path d="M102.153 8.72559C100.267 10.5139 99.1521 12.3895 98.0422 13.4995C95.6013 15.9404 92.9034 11.2641 87.8623 12.7389C81.1203 14.7071 81.3669 19.1932 80.1542 20.0103C78.9414 20.8273 72.8263 17.5745 69.9795 19.1932C67.1326 20.8119 65.0977 24.481 65.0977 24.481H111.444" stroke="#263238" stroke-linecap="round" stroke-linejoin="round"/>
<path d="M116.654 24.4814H145.22C145.22 24.4814 143.591 17.575 139.115 15.9408C134.639 14.3067 133.17 18.5102 131.777 19.0241C130.385 19.538 130.169 18.392 130.169 18.392C130.169 18.392 124.069 3.34577 113.493 4.15769C110.62 4.30339 107.814 5.07693 105.271 6.42388" stroke="#263238" stroke-linecap="round" stroke-linejoin="round"/>
<path d="M205.252 79.4971C204.014 80.5608 203.34 81.7427 202.683 82.421C201.336 83.7674 199.856 81.1826 197.061 81.9996C193.335 83.0839 193.464 85.5659 192.801 86.013C192.138 86.4601 188.757 84.6666 187.184 85.5659C185.612 86.4652 184.486 88.4847 184.486 88.4847H214.26" stroke="#263238" stroke-linecap="round" stroke-linejoin="round"/>
<path d="M216.669 88.49H228.719C228.719 88.49 227.825 84.6719 225.353 83.7726C222.881 82.8733 222.064 85.1806 221.299 85.4684C220.533 85.7562 220.41 85.119 220.41 85.119C220.41 85.119 217.039 76.8096 211.201 77.2567C209.979 77.3349 208.776 77.6018 207.635 78.048" stroke="#263238" stroke-linecap="round" stroke-linejoin="round"/>
<path d="M123.376 99.8771C123.376 99.8771 121.402 95.0056 117.975 95.2522C114.547 95.4989 113.761 97.4927 112.97 98.2841C112.178 99.0754 111.315 97.5595 109.676 98.0374C107.492 98.6746 107.574 100.124 107.178 100.391C106.782 100.658 104.804 99.5996 103.884 100.124C103.233 100.57 102.693 101.161 102.307 101.85H128.247C128.247 101.85 127.733 99.6099 126.274 99.0806C124.814 98.5513 124.347 99.9079 123.895 100.078C123.442 100.247 123.376 99.8771 123.376 99.8771Z" stroke="#263238" stroke-linecap="round" stroke-linejoin="round"/>
<path d="M33.5349 61.1359C33.5349 61.1359 31.5565 56.2644 28.1341 56.511C24.7117 56.7577 23.9203 58.7515 23.129 59.5429C22.3376 60.3342 21.4743 58.8183 19.835 59.2962C17.6511 59.9334 17.7282 61.3825 17.3325 61.6498C16.9368 61.917 14.9635 60.8584 14.0437 61.3825C13.3914 61.8256 12.8498 62.4129 12.4609 63.0989H38.4065C38.4065 63.0989 37.8926 60.8584 36.4281 60.3291C34.9635 59.7998 34.5062 61.1564 34.054 61.326C33.6017 61.4956 33.5349 61.1359 33.5349 61.1359Z" stroke="#263238" stroke-linecap="round" stroke-linejoin="round"/>
<path d="M68.7913 46.866C69.3763 48.3928 69.8469 49.961 70.1993 51.5576C70.4306 53.1404 71.0935 53.9986 70.9136 54.4662C70.7338 54.9338 70.1531 56.0078 70.1531 56.3418C70.5525 57.7482 71.0576 59.1224 71.6639 60.4528C72.1315 61.4497 70.7851 61.7426 70.374 62.3285C69.9629 62.9143 69.8602 64.2658 69.67 65.9667C69.4799 67.6676 70.0195 68.608 69.6135 69.4867C69.2076 70.3655 66.5611 70.4836 65.446 70.1907C64.8391 70.0547 64.2746 69.7725 63.8016 69.3685L63.4522 70.8382C61.7253 69.4998 59.8574 68.3539 57.8818 67.421C55.4493 66.4512 52.9612 65.6275 50.4306 64.9544L50.7235 61.6707C50.7235 61.6707 47.6145 57.0458 46.3812 53.1661C45.1479 49.2863 47.3782 44.8927 48.668 43.1918C49.9578 41.4908 56.3761 40.201 59.6392 40.1445C62.9023 40.088 68.1438 42.606 68.3751 42.6625C68.6063 42.719 70.6053 42.1949 70.6618 42.9605C70.6403 43.5741 70.4805 44.1749 70.1942 44.718C70.1942 44.718 72.7173 43.5463 72.4809 44.8927C72.2446 46.239 69.3155 47.015 68.7913 46.866Z" fill="white" stroke="#263238" stroke-linecap="round" stroke-linejoin="round"/>
<path d="M69.3926 57.3537C69.5771 57.3537 69.7266 56.9051 69.7266 56.3517C69.7266 55.7982 69.5771 55.3496 69.3926 55.3496C69.2081 55.3496 69.0586 55.7982 69.0586 56.3517C69.0586 56.9051 69.2081 57.3537 69.3926 57.3537Z" fill="#263238"/>
<path d="M70.3537 54.1787C70.3537 54.1787 69.886 53.4439 69.0176 54.3791" stroke="#263238" stroke-linecap="round" stroke-linejoin="round"/>
<path d="M69.6142 69.476C70.0202 68.5973 69.496 67.6569 69.6708 65.956C69.8455 64.2551 69.9637 62.9087 70.3748 62.3178C69.2031 61.9118 66.7776 63.6693 66.5053 63.2582C66.2329 62.8471 65.9914 55.5141 66.1507 54.399C66.31 53.2839 67.8516 53.289 68.4991 51.881C69.1466 50.473 66.9575 48.8851 66.8547 47.9498C66.7519 47.0146 68.792 46.8347 68.792 46.8347C69.3059 47.0094 72.2504 46.2489 72.4868 44.8974C72.7232 43.5459 70.2001 44.7227 70.2001 44.7227C70.4863 44.1796 70.6462 43.5788 70.6677 42.9653C70.6111 42.1996 68.6122 42.7289 68.3809 42.6672C68.1497 42.6055 62.9236 40.0978 59.6451 40.1492C56.3665 40.2006 49.9637 41.4956 48.6738 43.1965C47.384 44.8974 45.1538 49.2962 46.3871 53.1708C47.4149 56.4699 49.8455 60.3137 50.5341 61.3928C50.7383 61.5385 50.9613 61.6561 51.197 61.7422C53.2685 62.3653 55.4552 62.506 57.5896 62.1533C60.5238 61.6395 62.8722 60.5706 62.4611 59.7484C62.05 58.9262 61.8136 55.5243 62.754 53.9416C63.6944 52.3589 64.7478 54.7638 64.5115 57.6364C64.2751 60.5089 63.6327 62.328 63.458 64.1472C63.2833 65.9663 63.8075 69.3681 63.8075 69.3681C64.2804 69.772 64.8449 70.0543 65.4518 70.1903C66.5618 70.5038 69.2031 70.3599 69.6142 69.476Z" fill="#263238" stroke="#263238" stroke-linecap="round" stroke-linejoin="round"/>
<path d="M64.2032 70.2879C64.2032 70.2879 64.4705 69.0855 59.7942 66.8809C55.1179 64.6764 50.1693 63.736 49.5681 64.0033C48.9669 64.2705 48.2988 65.5449 48.2988 65.5449C51.4211 66.0995 54.4556 67.0673 57.3225 68.4226C61.3975 70.4781 64.8713 72.2972 64.8713 72.2972L64.2032 70.2879Z" fill="white" stroke="#263238" stroke-linecap="round" stroke-linejoin="round"/>
<path d="M66.8124 73.587C66.2242 72.4291 65.2551 71.5091 64.0683 70.9817C61.9306 69.9128 59.6849 67.5644 50.9696 65.6323C49.315 65.2674 48.7651 65.365 48.2975 65.5654C47.3483 66.2084 46.5304 67.0264 45.8874 67.9755L45.2656 68.8851C45.2656 68.8851 50.9491 68.8183 54.8905 70.0207C58.8319 71.2232 67.9943 74.7638 67.9943 74.7638L66.8124 73.587Z" class="main-color-svg" stroke="#263238" stroke-linecap="round" stroke-linejoin="round"/>
<path d="M85.8628 139.703C85.8628 139.703 83.8073 141.445 84.3571 142.786C84.8737 143.925 85.4553 145.033 86.0992 146.106L86.9676 145.155C86.9676 145.155 85.7806 142.467 86.017 142.072C86.2533 141.676 91.9471 138.356 91.9471 138.356L93.612 141.835L94.4805 141.121C94.4805 141.121 93.057 137.488 92.5021 137.169C91.9471 136.851 87.2605 138.125 85.8628 139.703Z" fill="#263238" stroke="#263238" stroke-linecap="round" stroke-linejoin="round"/>
<path d="M87.1018 131.085L92.6363 136.542C92.8331 136.857 92.9631 137.208 93.0179 137.575C93.0727 137.942 93.0512 138.317 92.9549 138.675C92.7133 139.312 88.2889 142.786 87.4153 143.187C86.5417 143.588 86.0741 142.395 85.9919 142.077C85.9096 141.758 85.5191 140.89 85.442 140.653C85.3649 140.417 83.2272 138.043 82.5951 136.224C82.2793 135.405 82.0402 134.558 81.8809 133.695L87.1018 131.085Z" fill="white" stroke="#263238" stroke-linecap="round" stroke-linejoin="round"/>
<path d="M24.7675 134.738C25.1536 135.671 25.5929 136.58 26.0831 137.462C26.3349 137.708 28.7244 140.268 28.971 140.925C29.2177 141.583 28.971 143.813 29.8806 145.463C30.7901 147.112 30.2095 147.77 29.2177 147.441C28.2259 147.112 27.4859 145.134 27.4859 145.134C27.4859 145.134 28.3955 148.433 28.5599 149.009C28.7244 149.584 31.2012 150.247 30.785 150.823C30.3688 151.398 26.0008 151.65 25.0142 151.568C24.0276 151.485 22.2084 149.173 21.6329 148.844C21.0574 148.515 19.5774 142.246 19.156 141.09C18.7347 139.934 18.082 134.923 18.082 134.923L24.7675 134.738Z" fill="white" stroke="#263238" stroke-linecap="round" stroke-linejoin="round"/>
<path d="M23.8579 140.042C23.8579 140.042 24.1045 142.611 23.6112 143.917C23.3062 144.819 23.167 145.77 23.2001 146.722C23.2001 146.722 24.1045 149.03 24.4334 149.292C24.7623 149.554 28.3954 149.806 27.8147 150.366" stroke="#263238" stroke-linecap="round" stroke-linejoin="round"/>
<path d="M64.8443 221.717C64.8443 221.717 66.982 223.341 67.9995 223.952C69.017 224.564 73.3849 224.98 73.6932 225.781C74.0016 226.583 73.2308 227.359 72.8042 227.739C72.3777 228.12 69.3202 229.281 66.982 229.034C66.1629 228.994 65.3419 229.063 64.5411 229.24C63.832 229.343 58.8474 229.949 56.7148 230.155C54.5822 230.36 54.0684 228.613 53.9656 226.496C53.8628 224.379 53.9656 221.917 53.9656 221.917L62.5062 220.699L64.8443 221.717Z" fill="white" stroke="#263238" stroke-linecap="round" stroke-linejoin="round"/>
<path d="M67.7066 227.683C65.8721 227.565 64.5668 228.038 59.5309 228.274C57.7415 228.409 55.9428 228.35 54.166 228.1C54.4641 229.42 55.1527 230.304 56.7354 230.155C58.868 229.95 63.8526 229.343 64.5617 229.24C65.3625 229.063 66.1834 228.994 67.0026 229.035C69.3407 229.287 72.3572 228.161 72.8248 227.74C73.2933 227.379 73.625 226.87 73.7652 226.296C72.1619 227.344 69.1712 227.776 67.7066 227.683Z" fill="white" stroke="#263238" stroke-linecap="round" stroke-linejoin="round"/>
<path d="M31.5977 138.073C31.5977 138.073 33.833 146.208 36.5822 153.325C39.3315 160.442 42.8823 171.115 42.8823 171.115L45.4517 186.573C45.4517 186.573 45.8577 194.281 47.2811 199.99C48.7045 205.699 54.1979 222.934 54.1979 222.934C55.6135 223.459 57.1189 223.698 58.6275 223.639C61.166 223.536 64.8248 221.706 64.8248 221.706C64.8248 221.706 65.1331 219.368 64.9276 218.351C64.722 217.333 63.5041 216.809 63.2009 216.013C62.8978 215.216 59.0283 191.439 59.0283 191.439C59.0283 191.439 57.8104 174.563 57.4044 171.311C56.9985 168.058 55.981 140.607 55.981 140.607L31.5977 138.073Z" fill="#263238" stroke="#263238" stroke-linecap="round" stroke-linejoin="round"/>
<path d="M14.034 208.854C14.034 208.854 6.27963 210.355 4.34232 210.972C2.40501 211.588 2.40501 212.729 2.84694 214.846C3.28888 216.963 4.1676 218.017 4.52217 218.279C4.87675 218.541 5.13882 221.876 6.10491 224.004C7.07099 226.131 9.29607 230.35 11.3002 231.403C13.3043 232.457 15.5294 232.462 15.7966 232.107C16.0638 231.753 15.2827 229.291 15.2827 229.291L13.258 222.77C13.258 222.77 15.6167 216.342 15.9764 215.992C16.3362 215.643 18.0885 213.788 18.0885 213.788L14.034 208.854Z" fill="white" stroke="#263238" stroke-linecap="round" stroke-linejoin="round"/>
<path d="M11.2995 231.403C13.355 232.462 15.5287 232.462 15.7959 232.107C15.8679 231.869 15.8679 231.615 15.7959 231.377C13.9973 231.29 10.9603 230.864 9.71159 228.937C8.12372 226.47 6.54098 221.187 5.83697 218.279C5.28713 216.018 4.68589 212.421 4.44437 210.936L4.33646 210.972C2.39915 211.588 2.39915 212.729 2.84108 214.846C3.28302 216.963 4.16174 218.017 4.51632 218.279C4.87089 218.541 5.13297 221.876 6.09905 224.003C7.06513 226.131 9.29535 230.35 11.2995 231.403Z" fill="white" stroke="#263238" stroke-linecap="round" stroke-linejoin="round"/>
<path d="M39.5273 140.309C39.5273 140.309 42.4769 144.173 42.7852 144.682C43.0936 145.191 45.221 164.507 45.4266 166.439C45.5402 167.996 45.5402 169.559 45.4266 171.115C45.4266 171.115 38.2786 178.248 33.6023 184.07C28.926 189.892 13.7051 208.592 13.7051 208.592L20.3854 218.993C20.3854 218.993 28.7359 212.313 34.7225 206.593C44.1984 197.565 53.1141 188.017 53.7359 187.508C54.3577 186.999 58.4584 182.642 58.7616 181.424C59.0648 180.206 62.3279 163.109 63.4481 157.621C64.5684 152.133 66.0895 137.287 66.0895 137.287L38.1295 137.996" fill="#263238"/>
<path d="M39.5273 140.309C39.5273 140.309 42.4769 144.173 42.7852 144.682C43.0936 145.191 45.221 164.507 45.4266 166.439C45.5402 167.996 45.5402 169.559 45.4266 171.115C45.4266 171.115 38.2786 178.248 33.6023 184.07C28.926 189.892 13.7051 208.592 13.7051 208.592L20.3854 218.993C20.3854 218.993 28.7359 212.313 34.7225 206.593C44.1984 197.565 53.1141 188.017 53.7359 187.508C54.3577 186.999 58.4584 182.642 58.7616 181.424C59.0648 180.206 62.3279 163.109 63.4481 157.621C64.5684 152.133 66.0895 137.287 66.0895 137.287L38.1295 137.996" stroke="#263238" stroke-linecap="round" stroke-linejoin="round"/>
<path d="M45.8887 67.9346C45.8887 67.9346 40.9452 70.5399 38.3399 71.8092C35.7345 73.0785 27.0346 75.6889 26.1713 77.0918C25.308 78.4947 25.4365 80.6889 25.4365 80.6889C25.4365 80.6889 16.9062 104.173 16.7006 108.269C16.4951 112.364 17.3275 135.668 17.3275 135.668C17.3275 135.668 17.9596 136.609 21.3203 136.506C24.6811 136.403 26.0428 135.771 26.0428 135.771C26.0428 135.771 27.7232 112.256 28.0367 110.889C28.2414 110.026 28.5235 109.184 28.8794 108.371L32.5485 101.023C32.5485 101.023 33.8126 108.582 33.8126 108.896C33.8126 109.209 26.8805 137.554 26.8805 137.554C26.8805 137.554 26.8805 139.445 39.1621 141.151C51.4437 142.857 62.1528 143.88 62.677 143.88C63.2011 143.88 66.0377 139.158 66.0377 139.158C66.0377 139.158 66.7725 141.778 66.5516 142.097C66.3306 142.416 68.6533 141.583 69.1775 141.151L71.2741 139.471C71.2741 139.471 68.0213 121.413 68.0213 120.052C68.0213 118.69 68.864 113.752 68.864 113.752L81.0377 136.008C81.0377 136.008 81.0377 136.321 83.9771 134.641C85.6072 133.75 87.0936 132.619 88.3861 131.285L78.5197 107.035C78.5197 107.035 76.2124 80.2624 76.0017 78.9007C75.791 77.5389 76.3152 77.2203 75.0562 76.5882C73.7972 75.9562 68.011 74.764 68.011 74.764C68.011 74.764 58.4838 71.1155 54.9072 70.0209C51.3306 68.9263 45.8887 67.9346 45.8887 67.9346Z" class="main-color-svg" stroke="#263238" stroke-linecap="round" stroke-linejoin="round"/>
<path d="M32.5487 101.049L29.0801 82.4668L30.5498 104.62L32.5487 101.049Z" fill="#263238" stroke="#263238" stroke-linecap="round" stroke-linejoin="round"/>
<path d="M48.7812 93.4795C49.1686 94.2325 49.6373 94.9407 50.179 95.5915" stroke="#263238" stroke-linecap="round" stroke-linejoin="round"/>
<path d="M45.668 79.4248C45.668 79.4248 45.8787 87.0096 48.2887 92.4515" stroke="#263238" stroke-linecap="round" stroke-linejoin="round"/>
<path d="M44.0957 85.5146C44.6605 87.8293 45.5425 90.0549 46.7165 92.1282" stroke="#263238" stroke-linecap="round" stroke-linejoin="round"/>
<path d="M44.1719 117.036C48.5193 115.952 54.5573 114.467 57.1112 113.953C61.3096 113.11 51.3353 113.953 51.3353 113.953" stroke="#263238" stroke-linecap="round" stroke-linejoin="round"/>
<path d="M39.2637 118.264L41.4785 117.709" stroke="#263238" stroke-linecap="round" stroke-linejoin="round"/>
<path d="M68.8685 113.751C68.8685 113.751 66.4533 109.764 66.2426 108.818C66.0319 107.873 64.3516 97.585 64.3516 97.585C64.3516 97.585 65.5078 113.962 65.9292 116.167C66.2714 117.625 66.9949 118.965 68.0258 120.052L68.8685 113.751Z" fill="#263238" stroke="#263238" stroke-linecap="round" stroke-linejoin="round"/>
<path d="M63.2988 93.1143C63.5301 94.4298 63.7253 95.2777 63.7253 95.2777" stroke="#263238" stroke-linecap="round" stroke-linejoin="round"/>
<path d="M67.2909 77.1182C67.2909 77.1182 63.1799 78.1459 62.6661 83.2847C62.475 86.0411 62.6026 88.8103 63.0463 91.5375" stroke="#263238" stroke-linecap="round" stroke-linejoin="round"/>
<path d="M61.4121 83.0996C61.4971 85.5799 61.8503 88.0437 62.4656 90.448" stroke="#263238" stroke-linecap="round" stroke-linejoin="round"/>
<path d="M100.544 137.647C100.544 137.647 79.825 148.485 79.1827 149.271C78.5404 150.057 78.9463 151.326 79.1056 151.881C79.2649 152.436 84.2444 172.76 84.8764 173.073C85.5085 173.387 87.4869 172.364 87.4869 172.364C87.4869 172.364 89.7017 173.705 90.2516 173.469C90.8014 173.233 109.548 161.609 110.575 160.658C111.603 159.708 111.526 158.998 111.207 158.289C110.889 157.58 106.069 146.742 106.069 146.742C106.219 146.511 106.318 146.25 106.358 145.977C106.399 145.704 106.381 145.425 106.305 145.16C105.992 144.451 103.381 139.23 102.826 138.438C102.271 137.647 102.6 136.794 100.544 137.647Z" fill="#969696" stroke="#263238" stroke-linecap="round" stroke-linejoin="round"/>
<path d="M79.1156 151.881C79.2698 152.436 84.2544 172.76 84.8865 173.074C85.5185 173.387 87.4969 172.364 87.4969 172.364C87.4969 172.364 89.5987 173.639 90.2153 173.48C88.6737 169.42 82.6871 153.495 81.6439 150.869C80.76 148.629 79.8299 148.85 79.4137 149.107L79.2441 149.24H79.2184C78.5607 150.062 78.9563 151.326 79.1156 151.881Z" fill="#263238" stroke="#263238" stroke-linecap="round" stroke-linejoin="round"/>
<path d="M85.4414 160.027L105.606 147.375" stroke="#263238" stroke-linecap="round" stroke-linejoin="round"/>
<path d="M94.7676 153.068L96.191 155.519L98.2516 154.014L96.9053 151.722L94.7676 153.068Z" fill="white" stroke="#263238" stroke-linecap="round" stroke-linejoin="round"/>
</g>
<defs>
<clipPath id="clip0_15224_316959">
<rect width="240" height="245.041" fill="white" transform="translate(0.585938 0.663086)"/>
</clipPath>
</defs>
</svg>
