<svg width="241" height="219" viewBox="0 0 241 219" fill="none" xmlns="http://www.w3.org/2000/svg">
<g clip-path="url(#clip0_15224_316753)">
<path d="M59.7145 208.877C72.3385 222.207 103.331 217.323 116.758 208.877C160.353 181.463 236.728 135.824 240.189 69.7085C241.66 41.6094 216.878 26.8511 206.527 22.5237C181.675 12.1249 154.394 9.00639 127.461 7.80284C99.341 6.54579 69.1557 7.52468 43.8489 21.2452C34.2526 26.4393 25.2018 33.1203 19.0075 42.2139C12.7169 51.4572 9.09556 62.4657 8.13272 73.5759C6.58682 91.4955 11.4064 109.463 18.6973 125.907C25.9882 142.35 35.7076 157.573 44.6299 173.193C50.4551 183.372 49.1018 197.649 59.7145 208.877Z" class="main-color-svg fill-opacity-svg" fill-opacity="0.3"/>
<path d="M64.6421 55.3789L38.9919 47.6304C37.9964 47.3297 36.9457 47.8929 36.645 48.8884L32.0827 63.9909C31.782 64.9864 32.3452 66.0372 33.3407 66.3379L58.9909 74.0864C59.9864 74.3871 61.0371 73.8239 61.3378 72.8284L65.9001 57.7259C66.2008 56.7304 65.6376 55.6796 64.6421 55.3789Z" stroke="#263238" stroke-width="1.00285" stroke-miterlimit="10"/>
<path d="M35.7402 51.2207L64.9038 60.0575" stroke="#263238" stroke-miterlimit="10"/>
<path d="M34.8516 54.1475L64.0151 62.9842" stroke="#263238" stroke-miterlimit="10"/>
<path d="M55.1416 68.4558C55.0674 68.702 55.0438 68.9607 55.0723 69.2163C55.1008 69.4718 55.1808 69.719 55.3074 69.9428C54.8703 70.1587 54.3675 70.2008 53.9006 70.0605C53.6032 69.9707 53.3325 69.8093 53.112 69.5905C52.8915 69.3717 52.7281 69.1021 52.6361 68.8054C52.544 68.5088 52.5262 68.1941 52.584 67.8889C52.6419 67.5837 52.7738 67.2974 52.968 67.055C53.1623 66.8127 53.4131 66.6217 53.6983 66.4987C53.9836 66.3758 54.2946 66.3248 54.6042 66.35C54.9138 66.3753 55.2125 66.4761 55.474 66.6437C55.7356 66.8112 55.952 67.0404 56.1044 67.311C55.8757 67.428 55.6727 67.5895 55.5073 67.7861C55.342 67.9827 55.2176 68.2104 55.1416 68.4558Z" stroke="#263238" stroke-miterlimit="10"/>
<path d="M58.7741 69.5578C58.6646 69.9171 58.4511 70.2359 58.1604 70.4738C57.8698 70.7117 57.5151 70.8581 57.1413 70.8945C56.7674 70.9308 56.3912 70.8554 56.0601 70.6779C55.7291 70.5004 55.4582 70.2288 55.2816 69.8972C55.105 69.5657 55.0307 69.1893 55.068 68.8156C55.1054 68.4418 55.2527 68.0875 55.4914 67.7976C55.7301 67.5076 56.0495 67.2949 56.4091 67.1864C56.7687 67.0779 57.1524 67.0785 57.5117 67.1881C57.9932 67.335 58.3968 67.6672 58.6335 68.1116C58.8702 68.5559 58.9208 69.0761 58.7741 69.5578Z" stroke="#263238" stroke-miterlimit="10"/>
<path d="M238.984 91.8354L217.775 85.4078C216.783 85.1071 215.735 85.6678 215.434 86.6601L211.717 98.9258C211.416 99.9181 211.977 100.966 212.969 101.267L234.178 107.695C235.17 107.996 236.219 107.435 236.519 106.442L240.237 94.1768C240.537 93.1844 239.977 92.1362 238.984 91.8354Z" stroke="#263238" stroke-miterlimit="10"/>
<path d="M214.861 88.5479L239.665 96.0634" stroke="#263238" stroke-miterlimit="10"/>
<path d="M214.107 91.04L238.906 98.5556" stroke="#263238" stroke-miterlimit="10"/>
<path d="M231.363 103.194C231.299 103.402 231.278 103.622 231.302 103.839C231.326 104.056 231.394 104.266 231.502 104.456C231.268 104.57 231.009 104.625 230.749 104.617C230.489 104.609 230.235 104.537 230.008 104.409C229.782 104.28 229.59 104.098 229.449 103.879C229.309 103.66 229.224 103.41 229.201 103.15C229.179 102.891 229.22 102.63 229.321 102.39C229.422 102.15 229.58 101.938 229.781 101.773C229.983 101.608 230.221 101.494 230.476 101.441C230.731 101.389 230.995 101.399 231.245 101.471C231.642 101.591 231.978 101.859 232.181 102.22C231.986 102.318 231.812 102.455 231.672 102.622C231.531 102.79 231.426 102.984 231.363 103.194Z" stroke="#263238" stroke-miterlimit="10"/>
<path d="M234.451 104.146C234.356 104.448 234.174 104.715 233.928 104.914C233.682 105.113 233.382 105.235 233.067 105.264C232.752 105.293 232.435 105.229 232.156 105.078C231.878 104.928 231.65 104.698 231.502 104.418C231.353 104.139 231.291 103.821 231.322 103.506C231.354 103.191 231.478 102.893 231.679 102.648C231.88 102.403 232.149 102.224 232.451 102.131C232.754 102.039 233.078 102.038 233.381 102.129C233.584 102.19 233.773 102.291 233.937 102.426C234.102 102.561 234.237 102.727 234.337 102.914C234.436 103.102 234.498 103.307 234.517 103.519C234.537 103.73 234.514 103.943 234.451 104.146Z" stroke="#263238" stroke-miterlimit="10"/>
<path d="M205.04 33.2396L174.078 47.415L181.453 63.5234L212.415 49.3479L205.04 33.2396Z" stroke="#263238" stroke-miterlimit="10"/>
<path d="M209.753 47.0276L205.067 36.7947C204.63 36.9945 204.13 37.0128 203.679 36.8453C203.228 36.6779 202.862 36.3384 202.66 35.9014L177.632 47.3592C177.831 47.797 177.85 48.2962 177.682 48.7473C177.515 49.1985 177.175 49.5649 176.738 49.7663L181.424 59.9993C181.641 59.8997 181.876 59.844 182.114 59.8354C182.353 59.8267 182.591 59.8652 182.814 59.9487C183.038 60.0322 183.243 60.159 183.417 60.3219C183.592 60.4848 183.733 60.6805 183.831 60.8979L208.855 49.4347C208.755 49.2177 208.699 48.9832 208.691 48.7446C208.682 48.5061 208.72 48.2682 208.804 48.0445C208.887 47.8209 209.014 47.6159 209.177 47.4414C209.34 47.2669 209.536 47.1263 209.753 47.0276Z" stroke="#263238" stroke-miterlimit="10"/>
<path d="M196.081 52.0716C198.119 50.5059 198.503 47.5843 196.937 45.5461C195.371 43.5078 192.45 43.1247 190.411 44.6904C188.373 46.2561 187.99 49.1777 189.556 51.216C191.121 53.2542 194.043 53.6373 196.081 52.0716Z" stroke="#263238" stroke-miterlimit="10"/>
<path d="M194.514 50.6324L194.861 51.392L194.53 51.5418L194.187 50.7929C193.602 51.0479 192.945 51.0895 192.331 50.9106V50.4452C192.873 50.6092 193.455 50.5809 193.979 50.365L193.193 48.6318C192.379 48.787 191.54 48.9046 191.138 48.0274C190.85 47.3962 191.053 46.6366 192.026 46.0963L191.679 45.3314L192.01 45.1816L192.374 45.9573C192.855 45.7485 193.385 45.6781 193.904 45.754V46.2194C193.447 46.1534 192.981 46.2069 192.551 46.3745L193.353 48.129C194.182 47.9632 195.065 47.8134 195.493 48.7014C195.76 49.3165 195.53 50.0922 194.514 50.6324ZM192.984 48.1665L192.224 46.4922C191.566 46.8613 191.422 47.3534 191.615 47.7706C191.839 48.2948 192.374 48.2734 192.979 48.1665H192.984ZM195.001 48.9207C194.765 48.3858 194.198 48.4393 193.567 48.5623L194.321 50.2152C195.049 49.83 195.188 49.3433 194.995 48.9207H195.001Z" fill="#263238"/>
<path d="M34.1704 106.613L10.3613 108.756L11.4758 121.139L35.2849 118.996L34.1704 106.613Z" stroke="#263238" stroke-width="1.00404" stroke-miterlimit="10"/>
<path d="M33.3696 116.492L32.6956 108.655C32.3603 108.684 32.0274 108.578 31.7698 108.361C31.5122 108.145 31.3508 107.835 31.3209 107.5L12.1496 109.158C12.1763 109.493 12.0701 109.825 11.8539 110.083C11.6376 110.34 11.3288 110.502 10.9941 110.533L11.6681 118.369C11.8343 118.355 12.0018 118.373 12.1609 118.423C12.32 118.473 12.4676 118.554 12.5953 118.662C12.7231 118.769 12.8283 118.901 12.9051 119.049C12.9819 119.197 13.0287 119.359 13.0429 119.525L32.2142 117.867C32.1874 117.532 32.2936 117.2 32.5099 116.942C32.7261 116.685 33.035 116.523 33.3696 116.492Z" stroke="#263238" stroke-miterlimit="10"/>
<path d="M25.4268 113.234C25.4827 113.876 25.3468 114.52 25.0365 115.085C24.7262 115.649 24.2554 116.109 23.6836 116.407C23.1117 116.704 22.4647 116.825 21.8241 116.754C21.1836 116.683 20.5785 116.424 20.0852 116.009C19.5919 115.595 19.2327 115.043 19.053 114.424C18.8734 113.805 18.8812 113.147 19.0757 112.533C19.2701 111.918 19.6424 111.376 20.1455 110.973C20.6485 110.57 21.2597 110.326 21.9018 110.27C22.3279 110.233 22.7572 110.28 23.1652 110.409C23.5731 110.537 23.9517 110.745 24.2791 111.021C24.6066 111.296 24.8765 111.633 25.0735 112.013C25.2704 112.393 25.3905 112.807 25.4268 113.234Z" stroke="#263238" stroke-miterlimit="10"/>
<path d="M22.4856 115.298L22.5337 115.881H22.2823L22.2288 115.304C21.7843 115.333 21.3434 115.206 20.9825 114.945L21.1001 114.646C21.4193 114.878 21.8078 114.995 22.2021 114.977L22.0897 113.645C21.5174 113.56 20.9343 113.437 20.8808 112.768C20.838 112.281 21.1483 111.827 21.9186 111.698L21.8704 111.115H22.1218L22.17 111.688C22.541 111.664 22.9113 111.744 23.2398 111.918L23.1382 112.223C22.8527 112.074 22.5343 112.001 22.2128 112.009L22.3251 113.351C22.9081 113.437 23.5286 113.549 23.5875 114.228C23.6196 114.726 23.2826 115.181 22.4856 115.298ZM22.0576 113.314L21.9453 112.046C21.4104 112.137 21.2178 112.426 21.2446 112.747C21.2713 113.068 21.6297 113.244 22.0576 113.314ZM23.2077 114.287C23.1703 113.886 22.7905 113.752 22.3465 113.71L22.4535 114.977C23.0098 114.886 23.2344 114.608 23.2077 114.287Z" fill="#263238"/>
<path d="M226.785 40.453C229.355 40.453 231.438 38.3695 231.438 35.7993C231.438 33.2291 229.355 31.1455 226.785 31.1455C224.214 31.1455 222.131 33.2291 222.131 35.7993C222.131 38.3695 224.214 40.453 226.785 40.453Z" stroke="#263238" stroke-miterlimit="10"/>
<path d="M226.993 38.3836V39.218H226.608V38.3889C225.97 38.3763 225.356 38.1439 224.869 37.731L225.078 37.3137C225.503 37.6872 226.042 37.9059 226.608 37.9342V36.0246C225.805 35.8267 225.003 35.5806 225.003 34.6178C225.003 33.9224 225.506 33.3179 226.608 33.2323V32.3818H226.971V33.211C227.496 33.2221 228.008 33.3796 228.448 33.6656L228.266 34.0936C227.878 33.8434 227.432 33.6978 226.971 33.671V35.5967C227.79 35.7946 228.656 36.0246 228.656 37.0035C228.678 37.7042 228.148 38.3194 226.993 38.3836ZM226.629 35.5004V33.687C225.88 33.7512 225.559 34.1364 225.559 34.5964C225.538 35.1473 226.03 35.3506 226.608 35.5004H226.629ZM228.148 37.0302C228.148 36.4579 227.613 36.26 226.993 36.1048V37.9342C227.79 37.8647 228.148 37.4956 228.148 37.0302Z" fill="#263238"/>
<path d="M196.133 98.0593C198.635 97.4698 200.185 94.9639 199.596 92.4622C199.006 89.9605 196.5 88.4104 193.998 88.9999C191.497 89.5895 189.947 92.0954 190.536 94.5971C191.126 97.0987 193.632 98.6488 196.133 98.0593Z" stroke="#263238" stroke-miterlimit="10"/>
<path d="M193.893 95.8327L193.46 96.5442L193.15 96.3516L193.583 95.6455C193.044 95.3032 192.643 94.7826 192.449 94.1745L192.845 93.9284C193.013 94.4669 193.358 94.9326 193.824 95.2497L194.83 93.6182C194.247 93.0351 193.685 92.3986 194.188 91.5801C194.551 90.9864 195.295 90.735 196.29 91.2432L196.729 90.5264L197.039 90.7189L196.605 91.425C197.044 91.7108 197.397 92.1101 197.627 92.5804L197.247 92.8532C197.046 92.4383 196.742 92.0812 196.365 91.8155L195.354 93.4577C195.953 94.0568 196.568 94.704 196.055 95.5385C195.685 96.1376 194.915 96.3783 193.893 95.8327ZM195.097 93.1581L196.044 91.6122C195.375 91.2752 194.888 91.425 194.648 91.8155C194.359 92.313 194.664 92.7463 195.097 93.1849V93.1581ZM195.589 95.255C195.889 94.7682 195.541 94.3243 195.086 93.8642L194.134 95.4155C194.846 95.8113 195.343 95.7043 195.584 95.2818L195.589 95.255Z" fill="#263238"/>
<path d="M128.28 3.69938C128.662 4.53662 128.787 5.46839 128.64 6.37689C128.493 7.28538 128.079 8.1298 127.452 8.80338C126.825 9.47695 126.012 9.94944 125.117 10.1611C124.221 10.3727 123.283 10.3141 122.42 9.99245C121.558 9.67085 120.81 9.10077 120.272 8.3543C119.733 7.60783 119.429 6.71849 119.396 5.79872C119.363 4.87895 119.603 3.97006 120.087 3.18697C120.57 2.40388 121.275 1.78175 122.112 1.39925C122.668 1.14448 123.269 1.00189 123.88 0.979641C124.491 0.957391 125.1 1.05592 125.673 1.26959C126.246 1.48325 126.771 1.80786 127.219 2.2248C127.666 2.64175 128.026 3.14284 128.28 3.69938Z" stroke="#263238" stroke-miterlimit="10"/>
<path d="M125.312 7.88777L125.66 8.64734L125.328 8.80247L124.975 8.04824C124.389 8.30323 123.733 8.34487 123.119 8.16592V7.70055C123.659 7.86371 124.239 7.83729 124.761 7.62566L123.97 5.88184C123.157 6.03696 122.317 6.14929 121.916 5.27738C121.627 4.64084 121.83 3.88661 122.809 3.34634L122.461 2.58142L122.788 2.43164L123.135 3.18587C123.616 2.97713 124.146 2.90673 124.665 2.9826V3.44798C124.208 3.38323 123.742 3.43663 123.312 3.6031L124.114 5.35762C124.943 5.1918 125.826 5.04737 126.254 5.92998C126.58 6.57188 126.334 7.3475 125.312 7.88777ZM123.783 5.42181L123.028 3.76893C122.37 4.13802 122.226 4.63014 122.419 5.04202C122.649 5.54484 123.178 5.52879 123.783 5.42181ZM125.799 6.17604C125.558 5.64113 124.997 5.69997 124.366 5.81765L125.12 7.47053C125.821 7.08539 125.992 6.60397 125.799 6.17604Z" fill="#263238"/>
<path d="M112.607 192.166C113.181 193.424 113.37 194.823 113.148 196.188C112.927 197.553 112.306 198.822 111.364 199.834C110.422 200.846 109.2 201.555 107.855 201.873C106.509 202.191 105.1 202.103 103.804 201.62C102.508 201.137 101.385 200.28 100.577 199.159C99.7678 198.037 99.3097 196.701 99.2603 195.319C99.2109 193.938 99.5723 192.572 100.299 191.396C101.025 190.219 102.085 189.285 103.342 188.71C104.177 188.329 105.08 188.115 105.997 188.083C106.915 188.05 107.83 188.198 108.69 188.519C109.551 188.84 110.339 189.327 111.011 189.953C111.683 190.578 112.226 191.33 112.607 192.166Z" stroke="#263238" stroke-miterlimit="10"/>
<path d="M108.14 198.467L108.675 199.612L108.178 199.837L107.643 198.703C106.764 199.088 105.778 199.152 104.856 198.885L104.888 198.189C105.7 198.431 106.57 198.388 107.354 198.066L106.161 195.456C104.947 195.686 103.679 195.857 103.08 194.546C102.641 193.594 102.952 192.455 104.417 191.642L103.882 190.502L104.375 190.272L104.909 191.406C105.633 191.095 106.429 190.989 107.21 191.102V191.797C106.525 191.7 105.827 191.781 105.182 192.032L106.38 194.664C107.627 194.418 108.953 194.199 109.563 195.525C110.023 196.494 109.681 197.66 108.14 198.467ZM105.851 194.76L104.711 192.278C103.733 192.813 103.513 193.568 103.802 194.199C104.144 194.953 104.936 194.926 105.851 194.76ZM108.878 195.9C108.52 195.113 107.67 195.178 106.739 195.365L107.873 197.847C108.927 197.264 109.167 196.536 108.878 195.9Z" fill="#263238"/>
<path d="M12.4607 83.5243C11.4219 84.4367 10.1359 85.0207 8.76528 85.2023C7.39466 85.384 6.00095 85.1551 4.76037 84.5448C3.51978 83.9344 2.48803 82.9699 1.79556 81.7732C1.10308 80.5765 0.780978 79.2013 0.869969 77.8216C0.95896 76.4419 1.45505 75.1195 2.29552 74.0217C3.13599 72.9238 4.28309 72.0999 5.59181 71.6539C6.90052 71.208 8.31208 71.1601 9.64801 71.5163C10.9839 71.8725 12.1843 72.6168 13.0972 73.6551C13.7037 74.3448 14.1683 75.1473 14.4645 76.0166C14.7607 76.8859 14.8827 77.8051 14.8236 78.7216C14.7645 79.6381 14.5254 80.534 14.12 81.358C13.7145 82.1821 13.1507 82.9182 12.4607 83.5243Z" stroke="#263238" stroke-miterlimit="10"/>
<path d="M5.15462 81.0642L4.21318 81.8933L3.84943 81.4814L4.78553 80.663C4.16535 79.9291 3.81934 79.0026 3.80664 78.0419L4.48598 77.8707C4.48632 78.7134 4.7709 79.5314 5.2937 80.1923L7.43336 78.2987C6.861 77.2021 6.33144 76.036 7.43336 75.0892C8.22503 74.3991 9.40184 74.367 10.6001 75.5332L11.5736 74.7094L11.932 75.1159L10.9959 75.9397C11.4939 76.5454 11.8158 77.2763 11.9266 78.0526L11.2633 78.2719C11.1568 77.588 10.8789 76.9421 10.4556 76.3944L8.27852 78.304C8.87228 79.422 9.46603 80.6309 8.36946 81.5991C7.57244 82.2945 6.35818 82.3319 5.15462 81.0642ZM8.04316 77.8012L10.0919 75.9985C9.27881 75.2176 8.48714 75.2229 7.99502 75.6776C7.35312 76.2232 7.60988 76.9828 8.02711 77.8012H8.04316ZM7.82385 81.0107C8.47644 80.4437 8.17154 79.6466 7.72221 78.7908L5.67349 80.5934C6.51331 81.4547 7.29428 81.4867 7.8292 81.0267L7.82385 81.0107Z" fill="#263238"/>
<path d="M44.4657 143.156C44.5403 141.292 43.0896 139.721 41.2254 139.646C39.3613 139.572 37.7897 141.022 37.7151 142.886C37.6405 144.751 39.0913 146.322 40.9554 146.397C42.8195 146.471 44.3912 145.021 44.4657 143.156Z" stroke="#263238" stroke-width="1.0008" stroke-miterlimit="10"/>
<path d="M42.0623 143.676L42.4474 144.142L42.2495 144.307L41.8643 143.847C41.5024 144.138 41.0502 144.293 40.5859 144.286L40.511 143.954C40.9193 143.965 41.3192 143.837 41.645 143.591L40.7571 142.521C40.2222 142.783 39.6552 143.024 39.2058 142.489C38.8849 142.104 38.8849 141.531 39.4626 140.964L39.0721 140.499L39.2754 140.333L39.6605 140.793C39.9583 140.557 40.3155 140.407 40.6929 140.36L40.7892 140.681C40.4585 140.727 40.1443 140.853 39.8745 141.05L40.7678 142.12C41.3027 141.847 41.9071 141.585 42.3725 142.12C42.6988 142.515 42.6881 143.104 42.0623 143.676ZM40.5324 142.243L39.6872 141.232C39.3021 141.617 39.2968 141.986 39.5054 142.243C39.714 142.499 40.1312 142.43 40.5324 142.243ZM42.089 142.387C41.8216 142.071 41.4364 142.205 41.0192 142.414L41.8643 143.425C42.2762 143.018 42.303 142.644 42.089 142.382V142.387Z" fill="#263238"/>
<path d="M148.292 209.732C148.719 210.245 148.984 210.873 149.054 211.537C149.124 212.201 148.996 212.871 148.686 213.462C148.375 214.052 147.897 214.538 147.31 214.857C146.724 215.176 146.056 215.314 145.391 215.253C144.727 215.193 144.095 214.936 143.576 214.517C143.057 214.097 142.674 213.533 142.475 212.896C142.276 212.258 142.271 211.577 142.46 210.936C142.649 210.296 143.024 209.726 143.536 209.299C144.225 208.727 145.112 208.451 146.004 208.533C146.895 208.614 147.718 209.045 148.292 209.732Z" stroke="#263238" stroke-miterlimit="10"/>
<path d="M147.009 213.236L147.399 213.701L147.196 213.867L146.811 213.407C146.451 213.698 146 213.853 145.538 213.846L145.463 213.514C145.871 213.527 146.272 213.399 146.597 213.15L145.709 212.08C145.174 212.342 144.601 212.583 144.157 212.048C143.831 211.663 143.831 211.091 144.409 210.524L144.024 210.058L144.227 209.893L144.612 210.353C144.909 210.114 145.267 209.964 145.645 209.919L145.741 210.24C145.409 210.286 145.093 210.413 144.821 210.609L145.719 211.679C146.254 211.406 146.859 211.144 147.324 211.679C147.634 212.075 147.624 212.663 147.009 213.236ZM145.473 211.781L144.628 210.77C144.238 211.155 144.232 211.524 144.446 211.781C144.66 212.038 145.067 211.989 145.473 211.781ZM147.025 211.931C146.757 211.61 146.372 211.743 145.955 211.931L146.8 212.942C147.217 212.578 147.244 212.203 147.025 211.947V211.931Z" fill="#263238"/>
<path d="M55.9096 17.4379C56.0798 15.5816 54.713 13.9387 52.8566 13.7685C51.0003 13.5982 49.3574 14.9651 49.1872 16.8214C49.0169 18.6778 50.3838 20.3206 52.2401 20.4909C54.0965 20.6611 55.7393 19.2943 55.9096 17.4379Z" stroke="#263238" stroke-miterlimit="10"/>
<path d="M53.8689 18.4741L54.2541 18.9394L54.0508 19.1053L53.6657 18.6452C53.3063 18.937 52.8554 19.0923 52.3926 19.0839L52.3177 18.7522C52.726 18.763 53.1258 18.6347 53.4517 18.3885L52.5637 17.3187C52.0288 17.5808 51.4565 17.8215 51.0125 17.2866C50.6862 16.9014 50.6862 16.3291 51.2692 15.7621L50.8788 15.2967L51.082 15.1309L51.4672 15.5909C51.7644 15.3534 52.1219 15.2034 52.4995 15.1576L52.5958 15.4786C52.2652 15.5244 51.951 15.6512 51.6811 15.8476L52.5744 16.9175C53.1094 16.6447 53.7138 16.3826 54.1792 16.9175C54.4948 17.3133 54.4787 17.9017 53.8689 18.4741ZM52.3284 17.0352L51.4832 16.0028C51.0981 16.3879 51.0874 16.757 51.3013 17.0138C51.5153 17.2705 51.9218 17.2277 52.3284 17.0352ZM53.885 17.1796C53.6175 16.864 53.227 16.9977 52.8151 17.1796L53.6603 18.1906C54.0722 17.8161 54.0989 17.4417 53.885 17.1796Z" fill="#263238"/>
<path opacity="0.2" d="M128.616 155.514C128.616 155.514 124.492 176.445 99.196 181.19C99.196 181.19 92.5898 186.459 90.3913 189.577C88.1928 192.696 76.4835 197.997 64.5549 214.536C52.6263 231.076 34.8672 178.553 34.8672 178.553L74.1192 127.575L128.616 155.514Z" fill="black" fill-opacity="0.7"/>
<path d="M151.1 57.2337C151.1 57.2337 164.74 50.5633 167.741 51.7134C170.742 52.8634 173.625 59.7638 162.151 66.37C150.677 72.9762 154.1 85.2846 154.1 85.2846H162.285C162.285 85.2846 167.195 87.2852 169.105 89.8581C171.014 92.431 172.378 101.204 173.47 104.178C174.561 107.152 174.005 110.131 171.014 111.1C171.014 111.1 169.105 119.423 169.65 123.114C170.196 126.805 169.923 129.18 166.377 129.629C165.484 129.722 164.582 129.62 163.733 129.33C162.884 129.04 162.109 128.568 161.46 127.949C160.811 127.329 160.305 126.575 159.976 125.741C159.648 124.906 159.504 124.009 159.557 123.114L156.828 132.999L158.738 136.797C161.436 137.841 163.929 139.351 166.104 141.258C169.923 144.532 173.742 145.425 172.651 149.073C171.56 152.721 169.378 156.653 157.92 152.095C146.462 147.538 136.914 129.629 136.914 129.629L130.029 67.1831L151.1 57.2337Z" fill="white"/>
<path opacity="0.4" d="M165.457 93.1054C159.273 101.536 166.115 111.244 166.115 111.244C166.115 111.244 161.835 113.63 161.712 119.717C161.664 122.248 162.301 125.783 163.06 129.057C161.948 128.532 161.02 127.684 160.396 126.624C159.772 125.564 159.482 124.341 159.562 123.114L156.828 132.999L158.738 136.792C160.747 137.561 162.641 138.603 164.365 139.889C162.67 143.783 162.151 148.597 162.301 153.561C160.811 153.166 159.348 152.676 157.92 152.096C146.462 147.533 136.914 129.629 136.914 129.629L130.029 67.1781L151.1 57.234C151.1 57.234 158.551 53.5913 163.654 52.1523C163.258 56.9238 164.189 61.861 164.863 64.6105C163.993 65.2475 163.087 65.835 162.151 66.3704C150.693 72.9766 154.1 85.2849 154.1 85.2849H162.29C162.29 85.2849 166.954 87.1892 168.955 89.6659C167.587 90.5868 166.401 91.753 165.457 93.1054Z" class="main-color-svg"/>
<path d="M129.789 145.452C129.789 145.452 114.95 174.546 88.2043 181.147C88.2043 181.147 87.1826 186.903 82.6572 189.374C80.2394 190.69 70.4826 205.309 61.9186 218.655L14.4824 189.556C17.4031 186.668 20.7302 183.34 24.1109 179.869C34.0068 169.78 44.566 158.472 47.7969 152.877C50.6854 147.902 54.3389 139.269 57.5216 131.154C61.5977 120.777 64.9141 111.245 64.9141 111.245L80.7262 93.6673L105.584 66.0283L106.653 69.5641L129.789 145.452Z" fill="white"/>
<path opacity="0.4" d="M105.605 66.0283L129.788 145.452C129.788 145.452 114.95 174.546 88.2038 181.147C88.2038 181.147 87.1822 186.903 82.6568 189.374C80.485 190.556 72.4025 202.458 64.582 214.515C67.4813 204.566 75.8741 188.706 75.8741 188.706C70.4875 182.324 72.0601 175.6 74.2158 177.515C76.3715 179.43 81.7902 184.811 82.1326 185.148C79.7522 182.345 79.2012 177.954 79.2012 177.954C79.2012 177.954 85.877 182.394 86.4172 175.279C86.9575 168.165 82.4161 150.78 82.4161 150.78L70.4928 105.066L105.605 66.0283Z" class="main-color-svg"/>
<path d="M130.029 67.1831L151.1 57.2337C151.1 57.2337 164.74 50.5633 167.741 51.7134C170.742 52.8634 173.625 59.7638 162.151 66.37C150.677 72.9762 154.1 85.2846 154.1 85.2846H162.285C162.285 85.2846 167.195 87.2852 169.105 89.8581C171.014 92.431 172.378 101.204 173.47 104.178C174.561 107.152 174.005 110.131 171.014 111.1C171.014 111.1 169.105 119.423 169.65 123.114C170.196 126.805 169.923 129.18 166.377 129.629C165.484 129.722 164.582 129.62 163.733 129.33C162.884 129.04 162.109 128.568 161.46 127.949C160.811 127.329 160.305 126.575 159.976 125.741C159.648 124.906 159.504 124.009 159.557 123.114L156.828 132.999L158.738 136.797C161.436 137.841 163.929 139.351 166.104 141.258C169.923 144.532 173.742 145.425 172.651 149.073C171.56 152.721 169.378 156.653 157.92 152.095C146.462 147.538 136.914 129.629 136.914 129.629" stroke="#263238" stroke-linecap="round" stroke-linejoin="round"/>
<path d="M171.014 111.1C166.922 112.207 162.151 111.389 160.375 104.146C158.599 96.9033 162.151 89.1685 164.467 88.457" stroke="#263238" stroke-linecap="round" stroke-linejoin="round"/>
<path d="M159.556 123.114C159.556 123.114 159.283 113.801 162.696 111.501" stroke="#263238" stroke-linecap="round" stroke-linejoin="round"/>
<path opacity="0.4" d="M60.047 169.368C60.047 169.368 50.0494 168.121 47.8188 163.649C45.9734 159.948 35.9705 173.813 24.1328 179.868C34.0287 169.779 44.5879 158.471 47.8188 152.876C50.7074 147.901 54.3608 139.268 57.5436 131.153C57.3831 137.883 53.7992 148.185 54.8208 153.55C53.7261 153.84 52.7895 154.549 52.2138 155.524C51.6381 156.499 51.4697 157.662 51.7451 158.76C52.51 163.024 60.047 169.368 60.047 169.368Z" class="main-color-svg"/>
<path d="M129.789 145.452C129.789 145.452 114.951 174.546 88.1998 181.147C88.1998 181.147 87.1834 186.903 82.658 189.374C80.2402 190.69 70.4887 205.309 61.9141 218.655" stroke="#263238" stroke-linecap="round" stroke-linejoin="round"/>
<path d="M14.4824 189.556C25.9082 178.264 43.4694 160.36 47.8183 152.877C54.3977 141.553 64.9355 111.239 64.9355 111.239L105.589 66.0283" stroke="#263238" stroke-linecap="round" stroke-linejoin="round"/>
<path d="M82.3906 100.557C82.3906 100.557 88.6384 106.152 90.4143 111.255" stroke="#263238" stroke-linecap="round" stroke-linejoin="round"/>
<path d="M156.139 19.0625H88.9164C86.9282 19.0625 85.3164 20.6743 85.3164 22.6625V165.768C85.3164 167.756 86.9282 169.368 88.9164 169.368H156.139C158.127 169.368 159.739 167.756 159.739 165.768V22.6625C159.739 20.6743 158.127 19.0625 156.139 19.0625Z" fill="#263238"/>
<path d="M137.278 23.1544L135.855 25.7595C135.704 26.0421 135.48 26.2789 135.206 26.4446C134.932 26.6104 134.619 26.6989 134.298 26.7009H110.762C110.442 26.6992 110.129 26.612 109.854 26.4484C109.58 26.2847 109.354 26.0505 109.2 25.7702L107.783 23.1651C107.63 22.8836 107.405 22.6485 107.13 22.4847C106.855 22.3209 106.541 22.2344 106.221 22.2344H89.772C89.5377 22.2351 89.3057 22.282 89.0896 22.3725C88.8734 22.463 88.6771 22.5953 88.5122 22.7618C88.3472 22.9282 88.2167 23.1256 88.1281 23.3426C88.0396 23.5596 87.9947 23.792 87.9961 24.0263V164.709C87.9961 165.18 88.1831 165.633 88.516 165.966C88.8489 166.3 89.3006 166.489 89.772 166.49H155.278C155.512 166.491 155.745 166.446 155.963 166.358C156.18 166.269 156.378 166.138 156.544 165.972C156.711 165.807 156.843 165.61 156.933 165.393C157.023 165.176 157.07 164.944 157.07 164.709V24.0263C157.07 23.5539 156.882 23.1008 156.548 22.7668C156.214 22.4327 155.761 22.2451 155.288 22.2451H138.845C138.526 22.242 138.212 22.3248 137.937 22.4848C137.661 22.6448 137.433 22.8761 137.278 23.1544Z" class="main-color-svg" stroke="#263238" stroke-linecap="round" stroke-linejoin="round"/>
<path d="M117.42 24.4169C117.949 24.4169 118.378 23.9883 118.378 23.4595C118.378 22.9306 117.949 22.502 117.42 22.502C116.892 22.502 116.463 22.9306 116.463 23.4595C116.463 23.9883 116.892 24.4169 117.42 24.4169Z" stroke="white" stroke-miterlimit="10"/>
<path d="M128.586 23.4595C128.585 23.5767 128.549 23.6909 128.483 23.7879C128.417 23.8848 128.324 23.9601 128.216 24.0042C128.107 24.0483 127.988 24.0593 127.873 24.0358C127.758 24.0123 127.653 23.9553 127.57 23.8721C127.488 23.7888 127.432 23.683 127.409 23.568C127.387 23.453 127.399 23.3339 127.444 23.2257C127.489 23.1175 127.565 23.0251 127.663 22.9601C127.76 22.895 127.875 22.8604 127.992 22.8604C128.071 22.8603 128.148 22.8759 128.221 22.9061C128.293 22.9362 128.359 22.9804 128.414 23.0361C128.469 23.0918 128.513 23.1579 128.542 23.2306C128.572 23.3032 128.587 23.381 128.586 23.4595Z" stroke="white" stroke-miterlimit="10"/>
<path d="M125.921 23.085H120.102C120.053 23.085 120.004 23.0947 119.959 23.1136C119.914 23.1324 119.873 23.1601 119.839 23.1949C119.804 23.2298 119.777 23.2711 119.759 23.3165C119.741 23.3619 119.732 23.4105 119.732 23.4594C119.732 23.5573 119.771 23.6512 119.841 23.7204C119.91 23.7896 120.004 23.8285 120.102 23.8285H125.921C126.019 23.8285 126.113 23.7896 126.182 23.7204C126.252 23.6512 126.291 23.5573 126.291 23.4594C126.291 23.4105 126.282 23.3619 126.264 23.3165C126.246 23.2711 126.219 23.2298 126.184 23.1949C126.15 23.1601 126.109 23.1324 126.064 23.1136C126.019 23.0947 125.97 23.085 125.921 23.085Z" fill="white"/>
<path d="M100.175 25.8027H93.9004V28.4666H100.175V25.8027Z" stroke="#263238" stroke-linecap="round" stroke-linejoin="round"/>
<path d="M101.143 26.252H100.17V28.0225H101.143V26.252Z" stroke="#263238" stroke-linecap="round" stroke-linejoin="round"/>
<path d="M144.638 27.5039H143.525V28.4721H144.638V27.5039Z" stroke="#263238" stroke-linecap="round" stroke-linejoin="round"/>
<path d="M146.81 26.5303H145.697V28.472H146.81V26.5303Z" stroke="#263238" stroke-linecap="round" stroke-linejoin="round"/>
<path d="M148.982 25.5566H147.869V28.4666H148.982V25.5566Z" stroke="#263238" stroke-linecap="round" stroke-linejoin="round"/>
<path d="M151.148 24.5879H150.035V28.4714H151.148V24.5879Z" stroke="#263238" stroke-linecap="round" stroke-linejoin="round"/>
<path opacity="0.5" d="M156.609 53.3242H88.4395V118.343H156.609V53.3242Z" fill="white"/>
<path d="M107.269 42.936V44.0646C107.269 45.4608 106.601 46.2043 105.231 46.2043H104.584V49.4726H103.215V40.7803H105.231C106.601 40.7803 107.269 41.5399 107.269 42.936ZM104.595 42.0266V44.974H105.242C105.675 44.974 105.911 44.7761 105.911 44.1556V42.845C105.911 42.2245 105.675 42.0266 105.242 42.0266H104.595Z" fill="#263238"/>
<path d="M112.174 49.4887H110.794L110.553 47.9107H108.879L108.638 49.4887H107.381L108.777 40.7803H110.778L112.174 49.4887ZM109.05 46.7285H110.371L109.724 42.3262H109.697L109.05 46.7285Z" fill="#263238"/>
<path d="M113.48 46.6055L111.752 40.7803H113.207L114.239 44.7493H114.266L115.298 40.7803H116.604L114.876 46.6055V49.4887H113.506L113.48 46.6055Z" fill="#263238"/>
<path d="M120.011 46.9639H120.037L120.957 40.7803H122.862V49.4887H121.567V43.2462L120.647 49.4887H119.353L118.358 43.3318V49.4887H117.111V40.7803H119.016L120.011 46.9639Z" fill="#263238"/>
<path d="M125.225 44.4498H127.113V45.6961H125.236V48.2477H127.6V49.4887H123.855V40.7803H127.6V42.0266H125.236L125.225 44.4498Z" fill="#263238"/>
<path d="M129.681 43.182H129.654V49.4887H128.424V40.7803H130.141L131.521 45.9957V40.7803H132.741V49.4887H131.339L129.681 43.182Z" fill="#263238"/>
<path d="M133.352 40.7803H137.583V42.0266H136.149V49.4887H134.78V42.0266H133.352V40.7803Z" fill="#263238"/>
<path d="M140.016 40.6836C141.347 40.6836 142.032 41.4806 142.032 42.8714V43.1442H140.738V42.7858C140.738 42.16 140.492 41.9246 140.053 41.9246C139.614 41.9246 139.374 42.16 139.374 42.7858C139.374 43.4117 139.646 43.8931 140.54 44.6741C141.684 45.685 142.048 46.4018 142.048 47.3968C142.048 48.7929 141.347 49.5899 140.005 49.5899C138.662 49.5899 137.967 48.7929 137.967 47.3968V46.8619H139.261V47.4877C139.261 48.1082 139.534 48.3329 139.967 48.3329C140.401 48.3329 140.679 48.1082 140.679 47.4877C140.679 46.8672 140.406 46.3804 139.507 45.5941C138.363 44.5885 138.004 43.8663 138.004 42.8714C138.004 41.4806 138.689 40.6836 140.016 40.6836Z" fill="#263238"/>
<path d="M151.147 61.1973H93.9004V69.7505H151.147V61.1973Z" fill="white" stroke="#263238" stroke-linecap="round" stroke-linejoin="round"/>
<path d="M151.147 77.2402H93.9004V85.7935H151.147V77.2402Z" fill="white" stroke="#263238" stroke-linecap="round" stroke-linejoin="round"/>
<path d="M151.147 91.8271H93.9004V100.38H151.147V91.8271Z" fill="white" stroke="#263238" stroke-linecap="round" stroke-linejoin="round"/>
<path d="M121.004 103.499H93.9004V113.513H121.004V103.499Z" fill="white" stroke="#263238" stroke-linecap="round" stroke-linejoin="round"/>
<path d="M151.153 103.499H124.049V113.513H151.153V103.499Z" fill="white" stroke="#263238" stroke-linecap="round" stroke-linejoin="round"/>
<path d="M97.4697 59.7054V59.9354H95.6777V57.4053H97.4162V57.6353H95.9505V58.5393H97.2557V58.764H95.9505V59.7054H97.4697Z" fill="#263238"/>
<path d="M101.181 58.8331V59.935H100.903V58.8652C100.903 58.464 100.7 58.2554 100.368 58.2554C100.279 58.2516 100.19 58.2673 100.108 58.3014C100.025 58.3355 99.9508 58.3872 99.8902 58.4529C99.8296 58.5185 99.7841 58.5966 99.7567 58.6817C99.7294 58.7667 99.7209 58.8567 99.7319 58.9454V59.9403H99.4751V58.8705C99.4751 58.4693 99.2718 58.2607 98.9402 58.2607C98.8509 58.2569 98.7619 58.2726 98.6793 58.3067C98.5967 58.3409 98.5226 58.3925 98.462 58.4582C98.4014 58.5239 98.3559 58.602 98.3285 58.687C98.3012 58.7721 98.2927 58.8621 98.3036 58.9507V59.9457H98.0469V58.0468H98.2929V58.3944C98.366 58.2762 98.4698 58.18 98.5932 58.116C98.7165 58.0519 98.8549 58.0225 98.9937 58.0307C99.1338 58.0189 99.2742 58.0512 99.395 58.1231C99.5159 58.1951 99.6112 58.3031 99.6677 58.4319C99.7456 58.3033 99.8568 58.1981 99.9895 58.1275C100.122 58.0568 100.272 58.0234 100.422 58.0307C100.527 58.0236 100.633 58.0399 100.731 58.0783C100.829 58.1168 100.918 58.1764 100.991 58.2531C101.063 58.3298 101.118 58.4215 101.151 58.5217C101.184 58.622 101.194 58.7283 101.181 58.8331Z" fill="#263238"/>
<path d="M103.315 58.7589V59.9357H103.069V59.6415C102.997 59.7474 102.898 59.8323 102.782 59.8877C102.667 59.9431 102.538 59.9671 102.411 59.9571C101.983 59.9571 101.721 59.7324 101.721 59.4221C101.721 59.1119 101.908 58.8872 102.454 58.8872H103.042V58.7696C103.042 58.4433 102.855 58.2667 102.507 58.2667C102.276 58.2632 102.052 58.3429 101.876 58.4914L101.758 58.2988C101.98 58.1274 102.254 58.0368 102.534 58.0421C102.635 58.0256 102.738 58.0322 102.836 58.0614C102.933 58.0906 103.023 58.1416 103.098 58.2106C103.174 58.2797 103.232 58.3649 103.27 58.4599C103.307 58.5548 103.323 58.6571 103.315 58.7589ZM103.058 59.3687V59.0531H102.459C102.09 59.0531 101.972 59.1975 101.972 59.3954C101.972 59.5933 102.149 59.7538 102.454 59.7538C102.579 59.7574 102.703 59.7225 102.808 59.6536C102.913 59.5847 102.995 59.4853 103.042 59.3687H103.058Z" fill="#263238"/>
<path d="M103.953 57.4377C103.955 57.389 103.975 57.3428 104.01 57.3088C104.045 57.2748 104.092 57.2558 104.14 57.2559C104.189 57.2559 104.235 57.275 104.269 57.3091C104.303 57.3432 104.322 57.3895 104.322 57.4377C104.322 57.486 104.303 57.5322 104.269 57.5663C104.235 57.6004 104.189 57.6196 104.14 57.6196C104.092 57.6196 104.045 57.6006 104.01 57.5667C103.975 57.5327 103.955 57.4865 103.953 57.4377ZM104.012 58.0368H104.269V59.9358H104.012V58.0368Z" fill="#263238"/>
<path d="M104.984 57.2559H105.241V59.9304H104.984V57.2559Z" fill="#263238"/>
<path d="M99.2392 66.2845V66.5145H97.4473V63.9844H99.1857V64.2144H97.6933V65.113H99.0039V65.3431H97.6933V66.2845H99.2392Z" fill="#263238"/>
<path d="M102.953 65.4019V66.5038H102.696V65.4339C102.696 65.0328 102.493 64.8241 102.161 64.8241C102.072 64.8195 101.983 64.8345 101.9 64.868C101.818 64.9015 101.743 64.9526 101.683 65.0179C101.622 65.0832 101.576 65.161 101.549 65.2458C101.522 65.3306 101.513 65.4204 101.524 65.5088V66.5091H101.268V65.4393C101.268 65.0381 101.064 64.8295 100.733 64.8295C100.644 64.8249 100.555 64.8399 100.472 64.8733C100.39 64.9068 100.315 64.958 100.255 65.0233C100.194 65.0885 100.148 65.1663 100.121 65.2511C100.093 65.336 100.085 65.4257 100.096 65.5142V66.5145H99.834V64.6102H100.08V64.9579C100.154 64.841 100.258 64.7462 100.382 64.6832C100.505 64.6202 100.643 64.5913 100.781 64.5995C100.921 64.5892 101.06 64.6222 101.181 64.694C101.301 64.7658 101.397 64.8728 101.455 65.0007C101.532 64.8716 101.643 64.7661 101.776 64.6954C101.909 64.6248 102.059 64.5916 102.209 64.5995C102.313 64.5948 102.417 64.6129 102.513 64.6524C102.609 64.692 102.696 64.752 102.767 64.8283C102.837 64.9047 102.891 64.9956 102.923 65.0946C102.955 65.1937 102.965 65.2985 102.953 65.4019Z" fill="#263238"/>
<path d="M105.08 65.327V66.5038H104.834V66.2096C104.763 66.3149 104.665 66.3992 104.55 66.4537C104.436 66.5083 104.308 66.5311 104.182 66.5198C103.754 66.5198 103.486 66.2952 103.486 65.9849C103.486 65.6747 103.679 65.45 104.225 65.45H104.829V65.3377C104.829 65.0114 104.642 64.8348 104.294 64.8348C104.062 64.8319 103.836 64.9115 103.657 65.0595L103.545 64.8669C103.765 64.6923 104.04 64.6013 104.321 64.6102C104.42 64.5972 104.521 64.6065 104.616 64.6373C104.711 64.6681 104.798 64.7197 104.871 64.7883C104.943 64.8569 105 64.9408 105.036 65.034C105.072 65.1272 105.088 65.2272 105.08 65.327ZM104.829 65.9314V65.6212H104.23C103.861 65.6212 103.743 65.7656 103.743 65.9635C103.743 66.1614 103.92 66.3219 104.225 66.3219C104.354 66.3293 104.482 66.2955 104.59 66.2253C104.699 66.1551 104.783 66.0522 104.829 65.9314Z" fill="#263238"/>
<path d="M105.717 64.0003C105.718 63.9516 105.739 63.9053 105.773 63.8714C105.808 63.8374 105.855 63.8184 105.904 63.8184C105.928 63.8177 105.953 63.8219 105.975 63.8307C105.998 63.8395 106.019 63.8528 106.036 63.8698C106.054 63.8867 106.067 63.907 106.077 63.9295C106.086 63.9519 106.091 63.976 106.091 64.0003C106.091 64.05 106.072 64.0976 106.036 64.1327C106.001 64.1678 105.954 64.1875 105.904 64.1875C105.854 64.1875 105.807 64.1678 105.772 64.1327C105.737 64.0976 105.717 64.05 105.717 64.0003ZM105.776 64.5994H106.032V66.5037H105.776V64.5994Z" fill="#263238"/>
<path d="M106.756 63.8184H107.007V66.4929H106.756V63.8184Z" fill="#263238"/>
<path d="M109.462 65.4019V66.5038H109.205V65.4339C109.217 65.3549 109.21 65.2743 109.186 65.1981C109.163 65.1219 109.122 65.052 109.068 64.9935C109.013 64.935 108.946 64.8894 108.872 64.8601C108.798 64.8308 108.718 64.8185 108.638 64.8241C108.547 64.8165 108.455 64.8291 108.37 64.8611C108.284 64.893 108.207 64.9435 108.143 65.009C108.079 65.0744 108.03 65.1531 108 65.2395C107.97 65.3259 107.96 65.4179 107.97 65.5088V66.5091H107.713V64.6048H107.959V64.9579C108.036 64.8387 108.144 64.7423 108.271 64.6784C108.398 64.6145 108.539 64.5854 108.681 64.5941C108.788 64.5855 108.896 64.6008 108.996 64.6387C109.097 64.6767 109.188 64.7364 109.262 64.8136C109.337 64.8908 109.394 64.9836 109.428 65.0853C109.463 65.187 109.474 65.2951 109.462 65.4019Z" fill="#263238"/>
<path d="M111.602 65.3277V66.5045H111.356V66.2103C111.285 66.3156 111.187 66.3999 111.072 66.4544C110.957 66.509 110.83 66.5318 110.703 66.5205C110.27 66.5205 110.008 66.2959 110.008 65.9856C110.008 65.6754 110.195 65.4507 110.741 65.4507H111.345V65.3384C111.345 65.0121 111.163 64.8356 110.81 64.8356C110.58 64.832 110.355 64.9118 110.179 65.0602L110.061 64.8677C110.282 64.6939 110.556 64.603 110.837 64.6109C110.936 64.5971 111.038 64.6057 111.134 64.6361C111.229 64.6665 111.317 64.718 111.391 64.7867C111.464 64.8554 111.521 64.9396 111.557 65.0333C111.594 65.1269 111.609 65.2275 111.602 65.3277ZM111.345 65.9321V65.6219H110.751C110.382 65.6219 110.259 65.7663 110.259 65.9642C110.259 66.1622 110.436 66.3226 110.741 66.3226C110.871 66.3312 111 66.298 111.11 66.2277C111.22 66.1574 111.304 66.0538 111.35 65.9321H111.345Z" fill="#263238"/>
<path d="M115.442 65.4024V66.5043H115.185V65.4345C115.185 65.0333 114.982 64.8247 114.65 64.8247C114.561 64.8201 114.472 64.8351 114.39 64.8686C114.307 64.902 114.233 64.9532 114.172 65.0185C114.111 65.0838 114.066 65.1615 114.038 65.2464C114.011 65.3312 114.002 65.421 114.014 65.5094V66.5097H113.741V65.4399C113.741 65.0387 113.537 64.83 113.206 64.83C113.117 64.8255 113.028 64.8404 112.945 64.8739C112.863 64.9074 112.788 64.9586 112.728 65.0238C112.667 65.0891 112.621 65.1669 112.594 65.2517C112.567 65.3365 112.558 65.4263 112.569 65.5147V66.515H112.312V64.6107H112.559V64.9584C112.633 64.8416 112.737 64.7468 112.86 64.6837C112.983 64.6207 113.121 64.5918 113.259 64.6C113.399 64.5882 113.54 64.6205 113.661 64.6925C113.782 64.7644 113.877 64.8724 113.933 65.0012C114.011 64.8726 114.122 64.7674 114.255 64.6968C114.388 64.6262 114.537 64.5927 114.688 64.6C114.792 64.5938 114.897 64.6106 114.995 64.6495C115.093 64.6883 115.181 64.7481 115.253 64.8246C115.324 64.9012 115.379 64.9926 115.411 65.0925C115.444 65.1923 115.454 65.2981 115.442 65.4024Z" fill="#263238"/>
<path d="M117.801 65.6321H116.196C116.21 65.8186 116.297 65.992 116.438 66.1143C116.58 66.2367 116.764 66.2979 116.95 66.2847C117.06 66.2877 117.169 66.2667 117.27 66.2233C117.37 66.1799 117.46 66.115 117.533 66.0333L117.678 66.1991C117.541 66.3424 117.365 66.4422 117.172 66.4861C116.979 66.5299 116.778 66.5159 116.593 66.4456C116.408 66.3754 116.247 66.2521 116.132 66.0912C116.017 65.9303 115.952 65.739 115.945 65.5412C115.938 65.4157 115.957 65.2902 116.001 65.1725C116.045 65.0548 116.113 64.9474 116.2 64.8571C116.288 64.7668 116.393 64.6954 116.509 64.6474C116.625 64.5995 116.75 64.5759 116.875 64.5783C117.001 64.5758 117.125 64.5994 117.24 64.6474C117.356 64.6955 117.46 64.7671 117.547 64.8576C117.633 64.9481 117.7 65.0556 117.743 65.1733C117.786 65.2909 117.804 65.4162 117.795 65.5412C117.795 65.5412 117.801 65.6053 117.801 65.6321ZM116.196 65.4395H117.544C117.544 65.2608 117.473 65.0893 117.347 64.9629C117.22 64.8365 117.049 64.7655 116.87 64.7655C116.691 64.7655 116.52 64.8365 116.393 64.9629C116.267 65.0893 116.196 65.2608 116.196 65.4395Z" fill="#263238"/>
<path d="M121.524 65.5464C121.524 66.1615 121.294 66.5199 120.92 66.5199C120.867 66.5229 120.814 66.5149 120.764 66.4965C120.715 66.4782 120.669 66.4498 120.631 66.4131C120.593 66.3765 120.563 66.3324 120.543 66.2836C120.522 66.2348 120.512 66.1823 120.513 66.1294C120.439 66.2531 120.332 66.3546 120.205 66.4233C120.078 66.4919 119.935 66.5253 119.791 66.5199C119.544 66.5199 119.307 66.4219 119.133 66.2473C118.958 66.0728 118.86 65.836 118.86 65.5892C118.86 65.3423 118.958 65.1056 119.133 64.931C119.307 64.7565 119.544 64.6584 119.791 64.6584C119.933 64.6523 120.075 64.6843 120.201 64.7511C120.327 64.8178 120.433 64.9169 120.508 65.0382V64.6798H120.743V66.0492C120.743 66.2525 120.845 66.3274 120.968 66.3274C121.187 66.3274 121.331 66.0492 121.331 65.5624C121.337 65.3692 121.302 65.1769 121.229 64.998C121.156 64.8191 121.046 64.6576 120.906 64.524C120.766 64.3903 120.6 64.2875 120.418 64.2222C120.236 64.1569 120.043 64.1306 119.85 64.1449C119.659 64.1449 119.469 64.1825 119.293 64.2557C119.116 64.3288 118.956 64.436 118.821 64.5711C118.686 64.7062 118.579 64.8666 118.506 65.0431C118.432 65.2196 118.395 65.4088 118.395 65.5999C118.395 65.7909 118.432 65.9801 118.506 66.1567C118.579 66.3332 118.686 66.4936 118.821 66.6287C118.956 66.7638 119.116 66.871 119.293 66.9441C119.469 67.0172 119.659 67.0548 119.85 67.0548C120.091 67.0542 120.328 66.9994 120.545 66.8944L120.604 67.0709C120.368 67.1818 120.11 67.2385 119.85 67.2367C119.416 67.2367 118.999 67.0643 118.692 66.7573C118.385 66.4503 118.213 66.034 118.213 65.5999C118.213 65.1658 118.385 64.7494 118.692 64.4425C118.999 64.1355 119.416 63.963 119.85 63.963C120.066 63.9474 120.283 63.977 120.487 64.0498C120.691 64.1226 120.878 64.2372 121.035 64.3861C121.193 64.535 121.318 64.7151 121.402 64.9148C121.486 65.1146 121.528 65.3297 121.524 65.5464ZM120.508 65.5838C120.516 65.4885 120.505 65.3924 120.474 65.3017C120.443 65.2111 120.394 65.1278 120.329 65.0572C120.265 64.9865 120.186 64.9302 120.098 64.8916C120.011 64.853 119.916 64.8331 119.82 64.8331C119.725 64.8331 119.63 64.853 119.542 64.8916C119.455 64.9302 119.376 64.9865 119.311 65.0572C119.247 65.1278 119.197 65.2111 119.167 65.3017C119.136 65.3924 119.125 65.4885 119.133 65.5838C119.125 65.6792 119.136 65.7753 119.167 65.8659C119.197 65.9566 119.247 66.0399 119.311 66.1105C119.376 66.1811 119.455 66.2375 119.542 66.2761C119.63 66.3146 119.725 66.3346 119.82 66.3346C119.916 66.3346 120.011 66.3146 120.098 66.2761C120.186 66.2375 120.265 66.1811 120.329 66.1105C120.394 66.0399 120.443 65.9566 120.474 65.8659C120.505 65.7753 120.516 65.6792 120.508 65.5838Z" fill="#263238"/>
<path d="M123.718 65.6321H122.114C122.119 65.7249 122.143 65.8157 122.183 65.8993C122.224 65.9829 122.281 66.0577 122.35 66.1193C122.42 66.1809 122.501 66.2282 122.589 66.2584C122.677 66.2886 122.77 66.3012 122.862 66.2954C122.972 66.2984 123.081 66.2775 123.182 66.2341C123.282 66.1906 123.372 66.1258 123.445 66.044L123.59 66.2098C123.453 66.3531 123.278 66.453 123.085 66.4968C122.892 66.5407 122.69 66.5266 122.505 66.4563C122.32 66.3861 122.16 66.2628 122.044 66.1019C121.929 65.941 121.864 65.7497 121.857 65.5519C121.85 65.4264 121.869 65.3009 121.913 65.1832C121.957 65.0655 122.025 64.9582 122.113 64.8678C122.2 64.7775 122.305 64.7061 122.421 64.6582C122.537 64.6102 122.662 64.5867 122.787 64.589C122.913 64.5866 123.037 64.6101 123.153 64.6582C123.268 64.7062 123.373 64.7778 123.459 64.8683C123.546 64.9588 123.612 65.0663 123.655 65.184C123.698 65.3017 123.716 65.427 123.708 65.5519C123.708 65.5519 123.718 65.6054 123.718 65.6321ZM122.114 65.4396H123.461C123.461 65.2608 123.39 65.0894 123.264 64.963C123.138 64.8366 122.966 64.7656 122.787 64.7656C122.609 64.7656 122.437 64.8366 122.311 64.963C122.185 65.0894 122.114 65.2608 122.114 65.4396Z" fill="#263238"/>
<path d="M127.387 65.402V66.5039H127.114V65.4341C127.114 65.0329 126.911 64.8243 126.579 64.8243C126.49 64.8197 126.401 64.8346 126.319 64.8681C126.236 64.9016 126.162 64.9528 126.101 65.018C126.041 65.0833 125.995 65.1611 125.968 65.2459C125.94 65.3307 125.932 65.4205 125.943 65.509V66.5092H125.686V65.4394C125.686 65.0382 125.483 64.8296 125.151 64.8296C125.062 64.825 124.973 64.84 124.891 64.8735C124.808 64.9069 124.734 64.9581 124.673 65.0234C124.612 65.0887 124.567 65.1665 124.539 65.2513C124.512 65.3361 124.504 65.4259 124.515 65.5143V66.5146H124.258V64.6103H124.504V64.958C124.577 64.8416 124.68 64.747 124.803 64.6839C124.925 64.6209 125.062 64.5918 125.199 64.5996C125.34 64.589 125.48 64.6218 125.602 64.6935C125.723 64.7653 125.82 64.8725 125.879 65.0008C125.955 64.8718 126.065 64.7662 126.197 64.6954C126.329 64.6247 126.478 64.5915 126.627 64.5996C126.733 64.5925 126.838 64.6088 126.937 64.6472C127.035 64.6857 127.124 64.7453 127.196 64.822C127.269 64.8986 127.323 64.9904 127.356 65.0906C127.389 65.1909 127.4 65.2972 127.387 65.402Z" fill="#263238"/>
<path d="M129.516 65.3275V66.5043H129.254V66.2101C129.183 66.315 129.085 66.399 128.97 66.4535C128.855 66.508 128.728 66.5311 128.602 66.5203C128.168 66.5203 127.906 66.2957 127.906 65.9854C127.906 65.6752 128.093 65.4505 128.639 65.4505H129.254V65.3382C129.254 65.0119 129.072 64.8354 128.719 64.8354C128.489 64.8318 128.265 64.9116 128.088 65.06L127.97 64.8675C128.191 64.6937 128.465 64.6028 128.746 64.6107C128.846 64.596 128.948 64.6039 129.044 64.634C129.141 64.664 129.229 64.7153 129.303 64.7841C129.377 64.8529 129.435 64.9375 129.472 65.0315C129.509 65.1256 129.524 65.2267 129.516 65.3275ZM129.26 65.9319V65.6217H128.666C128.297 65.6217 128.174 65.7661 128.174 65.964C128.174 66.1619 128.35 66.3224 128.655 66.3224C128.783 66.3287 128.91 66.2943 129.018 66.2242C129.125 66.1541 129.208 66.0518 129.254 65.9319H129.26Z" fill="#263238"/>
<path d="M130.158 64.0007C130.158 63.9637 130.169 63.9275 130.19 63.8967C130.21 63.8659 130.24 63.8419 130.274 63.8277C130.308 63.8136 130.346 63.8098 130.382 63.8171C130.418 63.8243 130.452 63.8421 130.478 63.8683C130.504 63.8945 130.522 63.9279 130.529 63.9642C130.536 64.0005 130.533 64.0381 130.518 64.0723C130.504 64.1066 130.48 64.1358 130.449 64.1564C130.419 64.1769 130.382 64.1879 130.345 64.1879C130.296 64.1879 130.248 64.1682 130.213 64.1331C130.178 64.098 130.158 64.0504 130.158 64.0007ZM130.212 64.5998H130.468V66.5041H130.212V64.5998Z" fill="#263238"/>
<path d="M131.186 63.8184H131.442V66.4929H131.186V63.8184Z" fill="#263238"/>
<path d="M131.992 66.3225C131.992 66.297 131.996 66.2717 132.005 66.248C132.015 66.2243 132.029 66.2027 132.047 66.1847C132.065 66.1667 132.087 66.1525 132.11 66.1431C132.134 66.1337 132.159 66.1292 132.185 66.13C132.236 66.13 132.285 66.1502 132.321 66.1864C132.357 66.2225 132.377 66.2715 132.377 66.3225C132.377 66.3741 132.357 66.4237 132.321 66.4606C132.285 66.4976 132.236 66.5191 132.185 66.5204C132.159 66.5205 132.134 66.5153 132.11 66.5053C132.086 66.4953 132.065 66.4806 132.047 66.4622C132.029 66.4437 132.015 66.4219 132.005 66.3979C131.996 66.3739 131.992 66.3483 131.992 66.3225Z" fill="#263238"/>
<path d="M132.676 65.5515C132.673 65.4227 132.695 65.2944 132.743 65.1748C132.791 65.0552 132.864 64.9468 132.956 64.8564C133.048 64.766 133.157 64.6956 133.277 64.6495C133.398 64.6035 133.527 64.5828 133.655 64.5887C133.802 64.579 133.949 64.6086 134.08 64.6744C134.212 64.7402 134.324 64.8399 134.404 64.9631L134.212 65.0915C134.151 65.0056 134.071 64.9354 133.978 64.887C133.885 64.8385 133.782 64.8133 133.677 64.8134C133.491 64.8291 133.318 64.914 133.192 65.0512C133.066 65.1884 132.996 65.3679 132.996 65.5542C132.996 65.7405 133.066 65.92 133.192 66.0572C133.318 66.1944 133.491 66.2793 133.677 66.2951C133.782 66.2961 133.886 66.2712 133.979 66.2227C134.072 66.1742 134.152 66.1035 134.212 66.0169L134.404 66.1453C134.323 66.2678 134.211 66.3668 134.08 66.4325C133.948 66.4982 133.802 66.5283 133.655 66.5197C133.526 66.5257 133.397 66.5049 133.276 66.4585C133.155 66.4121 133.046 66.3412 132.954 66.2502C132.862 66.1592 132.79 66.0502 132.742 65.9299C132.694 65.8097 132.672 65.6808 132.676 65.5515Z" fill="#263238"/>
<path d="M134.682 65.5522C134.682 65.3607 134.739 65.1735 134.845 65.0143C134.952 64.8551 135.103 64.731 135.28 64.6577C135.457 64.5844 135.651 64.5652 135.839 64.6026C136.027 64.6399 136.2 64.7322 136.335 64.8676C136.47 65.003 136.563 65.1755 136.6 65.3633C136.637 65.5511 136.618 65.7458 136.545 65.9227C136.472 66.0996 136.348 66.2508 136.188 66.3572C136.029 66.4636 135.842 66.5204 135.65 66.5204C135.522 66.5249 135.394 66.5029 135.275 66.4558C135.155 66.4087 135.047 66.3376 134.956 66.2468C134.865 66.1559 134.794 66.0474 134.747 65.9279C134.7 65.8084 134.678 65.6805 134.682 65.5522ZM136.356 65.5522C136.352 65.4113 136.306 65.275 136.224 65.1603C136.142 65.0457 136.028 64.958 135.896 64.9083C135.764 64.8586 135.621 64.8492 135.484 64.8813C135.346 64.9133 135.222 64.9854 135.126 65.0884C135.029 65.1913 134.966 65.3205 134.943 65.4596C134.921 65.5987 134.94 65.7413 134.998 65.8695C135.057 65.9977 135.152 66.1056 135.272 66.1796C135.392 66.2535 135.531 66.2902 135.672 66.285C135.765 66.2837 135.858 66.2635 135.944 66.2256C136.029 66.1877 136.106 66.1329 136.17 66.0644C136.234 65.996 136.284 65.9153 136.316 65.8273C136.348 65.7393 136.362 65.6457 136.356 65.5522Z" fill="#263238"/>
<path d="M140.277 65.402V66.5039H140.021V65.4341C140.021 65.0329 139.817 64.8243 139.486 64.8243C139.397 64.8197 139.308 64.8346 139.225 64.8681C139.142 64.9016 139.068 64.9528 139.008 65.018C138.947 65.0833 138.901 65.1611 138.874 65.2459C138.846 65.3307 138.838 65.4205 138.849 65.509V66.5092H138.592V65.4394C138.592 65.0382 138.389 64.8296 138.057 64.8296C137.968 64.825 137.879 64.84 137.797 64.8735C137.714 64.9069 137.64 64.9581 137.579 65.0234C137.519 65.0887 137.473 65.1665 137.446 65.2513C137.418 65.3361 137.41 65.4259 137.421 65.5143V66.5146H137.164V64.6103H137.41V64.958C137.483 64.8416 137.587 64.747 137.709 64.6839C137.831 64.6209 137.968 64.5918 138.106 64.5996C138.246 64.589 138.387 64.6218 138.508 64.6935C138.63 64.7653 138.726 64.8725 138.785 65.0008C138.861 64.8722 138.972 64.7669 139.104 64.6962C139.236 64.6255 139.384 64.5921 139.534 64.5996C139.638 64.595 139.742 64.613 139.838 64.6525C139.934 64.6921 140.021 64.7521 140.091 64.8285C140.162 64.9048 140.215 64.9957 140.248 65.0947C140.28 65.1938 140.29 65.2986 140.277 65.402Z" fill="#263238"/>
<path d="M97.903 81.5617L98.3523 81.8184L98.2721 81.9682L97.8174 81.7061V82.241H97.6516V81.7061L97.1969 81.9682L97.1113 81.8184L97.566 81.5617L97.1113 81.3103L97.1969 81.1552L97.6516 81.4226V80.8877H97.8174V81.4226L98.2721 81.1552L98.3523 81.3103L97.903 81.5617Z" fill="#263238"/>
<path d="M99.3732 81.5617L99.8225 81.8184L99.7369 81.9682L99.2876 81.7061V82.241H99.1164V81.7061L98.6671 81.9682L98.5762 81.8184L99.0309 81.5617L98.5762 81.3103L98.6671 81.1552L99.1164 81.4226V80.8877H99.2983V81.4226L99.7476 81.1552L99.8332 81.3103L99.3732 81.5617Z" fill="#263238"/>
<path d="M100.839 81.5617L101.288 81.8184L101.203 81.9682L100.753 81.7061V82.241H100.588V81.7061L100.138 81.9682L100.053 81.8184L100.502 81.5617L100.053 81.3103L100.138 81.1552L100.588 81.4226V80.8877H100.753V81.4226L101.203 81.1552L101.288 81.3103L100.839 81.5617Z" fill="#263238"/>
<path d="M102.305 81.5617L102.755 81.8184L102.674 81.9682L102.22 81.7061V82.241H102.054V81.7061L101.599 81.9682L101.514 81.8184L101.968 81.5617L101.514 81.3103L101.599 81.1552L102.054 81.4226V80.8877H102.22V81.4226L102.674 81.1552L102.755 81.3103L102.305 81.5617Z" fill="#263238"/>
<path d="M103.776 81.5617L104.225 81.8184L104.139 81.9682L103.69 81.7061V82.241H103.519V81.7061L103.069 81.9682L102.979 81.8184L103.433 81.5617L102.979 81.3103L103.069 81.1552L103.519 81.4226V80.8877H103.69V81.4226L104.139 81.1552L104.225 81.3103L103.776 81.5617Z" fill="#263238"/>
<path d="M105.241 81.5617L105.691 81.8184L105.605 81.9682L105.156 81.7061V82.241H104.99V81.7061L104.541 81.9682L104.455 81.8184L104.904 81.5617L104.455 81.3103L104.541 81.1552L104.99 81.4226V80.8877H105.183V81.4226L105.632 81.1552L105.717 81.3103L105.241 81.5617Z" fill="#263238"/>
<path d="M106.708 81.5617L107.157 81.8184L107.077 81.9682L106.622 81.7061V82.241H106.456V81.7061L106.002 81.9682L105.916 81.8184L106.371 81.5617L105.916 81.3103L106.002 81.1552L106.456 81.4226V80.8877H106.622V81.4226L107.077 81.1552L107.157 81.3103L106.708 81.5617Z" fill="#263238"/>
<path d="M108.178 81.5617L108.627 81.8184L108.542 81.9682L108.087 81.7061V82.241H107.921V81.7061L107.472 81.9682L107.381 81.8184L107.836 81.5617L107.381 81.3103L107.472 81.1552L107.921 81.4226V80.8877H108.087V81.4226L108.542 81.1552L108.627 81.3103L108.178 81.5617Z" fill="#263238"/>
<path d="M109.644 81.5617L110.093 81.8184L110.007 81.9682L109.558 81.7061V82.241H109.392V81.7061L108.943 81.9682L108.857 81.8184L109.307 81.5617L108.857 81.3103L108.943 81.1552L109.392 81.4226V80.8877H109.558V81.4226L110.007 81.1552L110.093 81.3103L109.644 81.5617Z" fill="#263238"/>
<path d="M111.11 81.5617L111.559 81.8184L111.479 81.9682L111.024 81.7061V82.241H110.859V81.7061L110.404 81.9682L110.318 81.8184L110.768 81.5617L110.318 81.3103L110.404 81.1552L110.859 81.4226V80.8877H111.024V81.4226L111.479 81.1552L111.559 81.3103L111.11 81.5617Z" fill="#263238"/>
<path d="M112.58 81.5617L113.024 81.8184L112.944 81.9682L112.489 81.7061V82.241H112.323V81.7061L111.874 81.9682L111.783 81.8184L112.238 81.5617L111.783 81.3103L111.874 81.1552L112.323 81.4226V80.8877H112.489V81.4226L112.944 81.1552L113.024 81.3103L112.58 81.5617Z" fill="#263238"/>
<path d="M97.6623 74.308C97.6623 74.8429 97.2718 75.1746 96.6299 75.1746H95.9505V75.9716H95.6777V73.4521H96.6245C97.2718 73.4521 97.6623 73.7731 97.6623 74.308ZM97.3948 74.308C97.3948 73.9015 97.1274 73.6715 96.6192 73.6715H95.9505V74.9392H96.6245C97.1274 74.9499 97.3948 74.7199 97.3948 74.308Z" fill="#263238"/>
<path d="M99.6038 74.8062V75.983H99.3578V75.6888C99.2853 75.7941 99.1863 75.8783 99.0707 75.9328C98.9551 75.9873 98.8271 76.0102 98.6998 75.9991C98.2719 75.9991 98.0098 75.7798 98.0098 75.4642C98.0098 75.1486 98.197 74.9292 98.7426 74.9292H99.3471V74.8169C99.3471 74.4906 99.1598 74.3141 98.8121 74.3141C98.5815 74.3105 98.3574 74.3903 98.1809 74.5387L98.0633 74.3462C98.2837 74.1724 98.5582 74.0815 98.8389 74.0894C98.9384 74.0756 99.0398 74.0842 99.1356 74.1146C99.2314 74.145 99.3191 74.1965 99.3925 74.2652C99.4658 74.3339 99.5228 74.4182 99.5594 74.5118C99.596 74.6054 99.6112 74.706 99.6038 74.8062ZM99.3471 75.4107V75.1004H98.764C98.3949 75.1004 98.2772 75.2448 98.2772 75.4427C98.2772 75.6407 98.4537 75.8011 98.7587 75.8011C98.8851 75.8051 99.0097 75.7697 99.1151 75.6997C99.2206 75.6298 99.3016 75.5287 99.3471 75.4107Z" fill="#263238"/>
<path d="M100.037 75.769L100.149 75.5658C100.348 75.7055 100.586 75.7803 100.829 75.7797C101.187 75.7797 101.337 75.6567 101.337 75.4641C101.337 74.972 100.107 75.3625 100.107 74.6083C100.107 74.298 100.374 74.0734 100.856 74.0734C101.092 74.0703 101.325 74.1313 101.53 74.2499L101.417 74.4531C101.25 74.3447 101.055 74.2888 100.856 74.2927C100.513 74.2927 100.363 74.4264 100.363 74.6083C100.363 75.1432 101.594 74.7366 101.594 75.4641C101.594 75.7958 101.305 75.999 100.807 75.999C100.532 76.008 100.262 75.9272 100.037 75.769Z" fill="#263238"/>
<path d="M101.803 75.7691L101.92 75.5658C102.117 75.7062 102.353 75.781 102.594 75.7798C102.958 75.7798 103.129 75.6568 103.129 75.4642C103.129 74.9721 101.899 75.3625 101.899 74.6083C101.899 74.2981 102.166 74.0734 102.653 74.0734C102.888 74.0697 103.119 74.1308 103.322 74.2499L103.21 74.4532C103.05 74.3495 102.865 74.2937 102.675 74.2927C102.327 74.2927 102.177 74.4264 102.177 74.6083C102.177 75.1432 103.407 74.7367 103.407 75.4642C103.407 75.7958 103.119 75.9991 102.627 75.9991C102.334 76.0197 102.043 75.9385 101.803 75.7691Z" fill="#263238"/>
<path d="M106.589 74.084L105.867 75.9829H105.626L105.027 74.4263L104.428 75.9829H104.182L103.471 74.084H103.717L104.311 75.6887L104.92 74.084H105.145L105.749 75.6887L106.354 74.084H106.589Z" fill="#263238"/>
<path d="M106.729 75.0307C106.729 74.8392 106.786 74.652 106.892 74.4928C106.999 74.3336 107.15 74.2095 107.327 74.1362C107.504 74.0629 107.698 74.0437 107.886 74.0811C108.074 74.1185 108.246 74.2107 108.382 74.3461C108.517 74.4815 108.61 74.654 108.647 74.8418C108.684 75.0296 108.665 75.2243 108.592 75.4012C108.518 75.5781 108.394 75.7293 108.235 75.8357C108.076 75.9421 107.889 75.9989 107.697 75.9989C107.569 76.0034 107.441 75.9814 107.322 75.9343C107.202 75.8872 107.094 75.8161 107.003 75.7253C106.912 75.6345 106.841 75.5259 106.794 75.4064C106.747 75.2869 106.725 75.159 106.729 75.0307ZM108.403 75.0307C108.403 74.8434 108.329 74.6638 108.197 74.5314C108.064 74.399 107.885 74.3246 107.697 74.3246C107.51 74.3246 107.33 74.399 107.198 74.5314C107.066 74.6638 106.991 74.8434 106.991 75.0307C106.991 75.218 107.066 75.3976 107.198 75.53C107.33 75.6624 107.51 75.7368 107.697 75.7368C107.885 75.7368 108.064 75.6624 108.197 75.53C108.329 75.3976 108.403 75.218 108.403 75.0307Z" fill="#263238"/>
<path d="M110.147 74.0675V74.3082H110.083C109.992 74.3042 109.902 74.3201 109.819 74.3548C109.735 74.3895 109.661 74.4422 109.6 74.5091C109.539 74.576 109.494 74.6555 109.467 74.7419C109.441 74.8283 109.434 74.9195 109.446 75.0089V75.9771H109.189V74.0782H109.462V74.4473C109.527 74.3239 109.626 74.2222 109.748 74.1547C109.869 74.0872 110.008 74.0569 110.147 74.0675Z" fill="#263238"/>
<path d="M112.324 73.3032V75.9778H112.078V75.6033C112.002 75.7279 111.894 75.8298 111.765 75.8984C111.636 75.9671 111.491 76 111.346 75.9938C111.102 75.9757 110.874 75.8661 110.708 75.687C110.542 75.5079 110.449 75.2726 110.449 75.0283C110.449 74.784 110.542 74.5487 110.708 74.3696C110.874 74.1905 111.102 74.0809 111.346 74.0628C111.488 74.0574 111.629 74.089 111.756 74.1546C111.883 74.2203 111.99 74.3176 112.068 74.4372V73.2979L112.324 73.3032ZM112.073 75.031C112.066 74.8932 112.018 74.7605 111.936 74.6494C111.854 74.5383 111.742 74.4537 111.612 74.4059C111.483 74.3582 111.342 74.3494 111.208 74.3808C111.073 74.4121 110.951 74.4821 110.856 74.5822C110.761 74.6823 110.697 74.808 110.673 74.9439C110.649 75.0797 110.665 75.2197 110.719 75.3466C110.773 75.4734 110.864 75.5816 110.979 75.6576C111.094 75.7337 111.229 75.7743 111.367 75.7745C111.463 75.7762 111.559 75.7579 111.648 75.7206C111.737 75.6833 111.817 75.628 111.884 75.5581C111.95 75.4882 112.001 75.4052 112.034 75.3144C112.066 75.2237 112.08 75.1272 112.073 75.031Z" fill="#263238"/>
<path d="M116.126 95.1699V97.7054H115.88V95.4053H115.281V95.1699H116.126Z" fill="#263238"/>
<path d="M118.46 97.4598V97.6952H116.684V97.508L117.754 96.4756C118.037 96.1974 118.096 96.0263 118.096 95.8551C118.096 95.5609 117.887 95.379 117.502 95.379C117.373 95.3707 117.244 95.3919 117.124 95.4411C117.005 95.4902 116.898 95.5659 116.812 95.6625L116.625 95.502C116.739 95.3794 116.879 95.2832 117.034 95.2203C117.189 95.1575 117.356 95.1295 117.524 95.1383C118.059 95.1383 118.363 95.4004 118.363 95.823C118.355 95.9773 118.314 96.1279 118.242 96.2646C118.17 96.4012 118.069 96.5207 117.946 96.6147L117.085 97.4598H118.46Z" fill="#263238"/>
<path d="M120.46 96.9672C120.46 97.3898 120.15 97.7161 119.54 97.7161C119.207 97.7266 118.882 97.6099 118.631 97.3898L118.754 97.1812C118.968 97.3777 119.25 97.4832 119.54 97.4754C119.963 97.4754 120.193 97.2828 120.193 96.9672C120.193 96.6516 119.979 96.4644 119.508 96.4644H119.326V96.2718L120.027 95.3946H118.732V95.1699H120.337V95.3571L119.626 96.2398C120.187 96.2772 120.46 96.5607 120.46 96.9672Z" fill="#263238"/>
<path d="M122.974 97.026H122.466V97.6947H122.209V97.026H120.781V96.8388L122.124 95.1592H122.413L121.118 96.7746H122.215V96.1862H122.466V96.7746H122.974V97.026Z" fill="#263238"/>
<path d="M125.878 96.9462C125.878 97.3795 125.579 97.7164 124.958 97.7164C124.625 97.7264 124.3 97.6098 124.049 97.3902L124.177 97.1815C124.28 97.2797 124.402 97.3564 124.535 97.4069C124.669 97.4574 124.81 97.4808 124.953 97.4757C125.386 97.4757 125.611 97.2671 125.611 96.9408C125.611 96.6145 125.408 96.4059 124.766 96.4059H124.231L124.364 95.1328H125.75V95.3682H124.589L124.504 96.1705H124.83C125.589 96.1973 125.878 96.5022 125.878 96.9462Z" fill="#263238"/>
<path d="M128.109 96.9349C128.108 97.0446 128.085 97.1528 128.04 97.2528C127.995 97.3528 127.929 97.4424 127.848 97.5158C127.766 97.5893 127.67 97.645 127.566 97.6794C127.462 97.7138 127.352 97.7262 127.243 97.7159C126.569 97.7159 126.205 97.2451 126.205 96.4481C126.205 95.6511 126.676 95.1376 127.36 95.1376C127.571 95.1296 127.779 95.1776 127.965 95.2767L127.858 95.4853C127.709 95.3997 127.538 95.3589 127.366 95.3676C126.831 95.3676 126.467 95.7153 126.467 96.4053C126.467 96.4642 126.467 96.5337 126.467 96.6086C126.541 96.4694 126.653 96.3544 126.791 96.2775C126.929 96.2007 127.086 96.1652 127.243 96.1753C127.351 96.1617 127.461 96.1711 127.565 96.203C127.669 96.2349 127.765 96.2885 127.847 96.3603C127.929 96.4321 127.994 96.5204 128.04 96.6194C128.085 96.7185 128.109 96.826 128.109 96.9349ZM127.853 96.9349C127.853 96.5979 127.607 96.4 127.216 96.4C127.138 96.3903 127.058 96.3967 126.983 96.4187C126.907 96.4406 126.836 96.4777 126.775 96.5277C126.714 96.5777 126.664 96.6396 126.628 96.7096C126.591 96.7796 126.569 96.8562 126.563 96.9349C126.563 97.213 126.793 97.4698 127.232 97.4698C127.308 97.4822 127.386 97.4779 127.461 97.4573C127.535 97.4366 127.604 97.4002 127.663 97.3504C127.722 97.3006 127.769 97.2386 127.802 97.1688C127.835 97.0989 127.852 97.0228 127.853 96.9456V96.9349Z" fill="#263238"/>
<path d="M130.164 95.1699V95.3571L129.094 97.7054H128.81L129.853 95.4053H128.554V95.876H128.297V95.1699H130.164Z" fill="#263238"/>
<path d="M132.384 96.9886C132.384 97.4379 132.004 97.7161 131.399 97.7161C130.795 97.7161 130.426 97.4379 130.426 96.9886C130.424 96.8446 130.471 96.7043 130.56 96.5906C130.648 96.477 130.773 96.3966 130.913 96.3627C130.796 96.3314 130.693 96.2615 130.621 96.1643C130.549 96.0672 130.513 95.9486 130.517 95.8278C130.517 95.4159 130.864 95.1592 131.399 95.1592C131.934 95.1592 132.293 95.4159 132.293 95.8278C132.291 95.9487 132.25 96.0658 132.177 96.162C132.104 96.2582 132.002 96.3285 131.886 96.3627C132.028 96.3954 132.154 96.4751 132.244 96.5888C132.335 96.7024 132.384 96.8434 132.384 96.9886ZM132.116 96.9886C132.116 96.6783 131.849 96.4804 131.399 96.4804C130.95 96.4804 130.688 96.6783 130.688 96.9886C130.688 97.2988 130.95 97.5235 131.399 97.5235C131.849 97.5235 132.116 97.3095 132.116 96.9832V96.9886ZM131.394 96.2718C131.79 96.2718 132.025 96.0953 132.025 95.8171C132.025 95.539 131.774 95.3624 131.394 95.3624C131.014 95.3624 130.768 95.5336 130.768 95.8171C130.768 96.1006 131.004 96.2718 131.394 96.2718Z" fill="#263238"/>
<path d="M135.517 96.4061C135.517 97.2673 135.046 97.7166 134.356 97.7166C134.147 97.7239 133.941 97.6759 133.757 97.5775L133.864 97.3689C134.013 97.4545 134.184 97.4953 134.356 97.4866C134.891 97.4866 135.249 97.1335 135.249 96.4489C135.254 96.3812 135.254 96.3133 135.249 96.2456C135.177 96.3853 135.066 96.5008 134.929 96.5778C134.792 96.6549 134.636 96.69 134.479 96.6789C134.372 96.6909 134.263 96.6802 134.16 96.6476C134.058 96.6149 133.963 96.5611 133.882 96.4895C133.801 96.4179 133.737 96.3301 133.692 96.2319C133.647 96.1337 133.624 96.0272 133.623 95.9193C133.624 95.8096 133.648 95.7013 133.693 95.6013C133.738 95.5013 133.803 95.4118 133.885 95.3384C133.966 95.2649 134.062 95.2092 134.166 95.1748C134.27 95.1404 134.38 95.1279 134.49 95.1383C135.137 95.1383 135.517 95.609 135.517 96.4061ZM135.158 95.9032C135.158 95.6251 134.928 95.3683 134.49 95.3683C134.413 95.3558 134.334 95.3604 134.259 95.3816C134.183 95.4028 134.114 95.4402 134.055 95.4912C133.996 95.5422 133.948 95.6055 133.916 95.6767C133.884 95.7478 133.868 95.8252 133.869 95.9032C133.869 96.2402 134.115 96.4382 134.506 96.4382C134.66 96.45 134.813 96.4005 134.931 96.3004C135.049 96.2002 135.123 96.0575 135.137 95.9032H135.158Z" fill="#263238"/>
<path d="M136.588 95.1699V97.7054H136.326V95.4053H135.727V95.1699H136.588Z" fill="#263238"/>
<path d="M137.186 96.4268C137.186 95.6191 137.613 95.1377 138.197 95.1377C138.78 95.1377 139.208 95.6191 139.208 96.4268C139.208 97.2346 138.785 97.716 138.197 97.716C137.608 97.716 137.186 97.2346 137.186 96.4268ZM138.94 96.4268C138.94 95.7528 138.641 95.357 138.197 95.357C137.753 95.357 137.453 95.7315 137.453 96.4268C137.453 97.1222 137.758 97.4967 138.197 97.4967C138.635 97.4967 138.94 97.1008 138.94 96.4268Z" fill="#263238"/>
<path d="M140.279 95.1699V97.7054H140.017V95.4053H139.418V95.1699H140.279Z" fill="#263238"/>
<path d="M142.531 95.1699V97.7054H142.269V95.4053H141.67V95.1699H142.531Z" fill="#263238"/>
<path d="M143.83 95.1699V97.7054H143.574V95.4053H142.975V95.1699H143.83Z" fill="#263238"/>
<path d="M146.163 97.4596V97.695H144.387V97.5077L145.457 96.4754C145.74 96.1972 145.799 96.026 145.799 95.8549C145.799 95.5606 145.591 95.3788 145.205 95.3788C145.076 95.3705 144.947 95.3917 144.828 95.4408C144.708 95.49 144.601 95.5657 144.515 95.6623L144.328 95.5018C144.443 95.3797 144.582 95.2839 144.737 95.2211C144.893 95.1583 145.06 95.13 145.227 95.1381C145.762 95.1381 146.067 95.4002 146.067 95.8228C146.058 95.977 146.017 96.1277 145.945 96.2643C145.873 96.401 145.772 96.5204 145.649 96.6144L144.767 97.4596H146.163Z" fill="#263238"/>
<path d="M147.19 95.1699V97.7054H146.906V95.4053H146.312V95.1699H147.19Z" fill="#263238"/>
<path d="M104.534 94.5816V94.1964C104.534 94.0177 104.463 93.8463 104.337 93.7199C104.211 93.5935 104.039 93.5225 103.86 93.5225H97.0295C96.8507 93.5225 96.6793 93.5935 96.5529 93.7199C96.4265 93.8463 96.3555 94.0177 96.3555 94.1964V94.5816H104.534Z" fill="#263238"/>
<path d="M96.3555 95.1113V97.9464C96.3555 98.1251 96.4265 98.2966 96.5529 98.423C96.6793 98.5494 96.8507 98.6204 97.0295 98.6204H103.86C104.039 98.6204 104.211 98.5494 104.337 98.423C104.463 98.2966 104.534 98.1251 104.534 97.9464V95.1113H96.3555Z" fill="#263238"/>
<path d="M96.459 110.041C96.459 109.233 96.8816 108.757 97.47 108.757C98.0584 108.757 98.481 109.233 98.481 110.041C98.481 110.848 98.053 111.33 97.47 111.33C96.8869 111.33 96.459 110.848 96.459 110.041ZM98.2135 110.041C98.2135 109.367 97.9086 108.971 97.47 108.971C97.0313 108.971 96.7264 109.345 96.7264 110.041C96.7264 110.736 97.026 111.11 97.47 111.11C97.914 111.11 98.2295 110.72 98.2295 110.041H98.2135Z" fill="#263238"/>
<path d="M100.796 110.602C100.796 111.052 100.416 111.33 99.8115 111.33C99.2071 111.33 98.838 111.052 98.838 110.602C98.8356 110.459 98.8827 110.319 98.9713 110.206C99.06 110.093 99.1847 110.014 99.3247 109.982C99.2112 109.945 99.1121 109.874 99.0411 109.778C98.9701 109.682 98.9309 109.566 98.9289 109.447C98.9289 109.035 99.2766 108.778 99.8115 108.778C100.346 108.778 100.705 109.035 100.705 109.447C100.702 109.567 100.661 109.683 100.589 109.778C100.518 109.874 100.418 109.945 100.304 109.982C100.444 110.014 100.57 110.092 100.659 110.205C100.749 110.318 100.797 110.458 100.796 110.602ZM100.528 110.602C100.528 110.292 100.261 110.1 99.8115 110.1C99.3622 110.1 99.1001 110.292 99.1001 110.602C99.1001 110.913 99.3622 111.137 99.8115 111.137C100.261 111.137 100.528 110.913 100.528 110.597V110.602ZM99.8329 109.886C100.229 109.886 100.464 109.709 100.464 109.436C100.464 109.163 100.213 108.976 99.8329 108.976C99.4531 108.976 99.2071 109.147 99.2071 109.431C99.2071 109.714 99.421 109.886 99.8329 109.886Z" fill="#263238"/>
<path d="M102.074 108.265H102.304L101.111 111.667H100.902L102.074 108.265Z" fill="#263238"/>
<path d="M104.112 111.073V111.309H102.336V111.121L103.406 110.094C103.69 109.811 103.743 109.64 103.743 109.468C103.743 109.174 103.54 108.992 103.155 108.992C103.025 108.984 102.895 109.005 102.774 109.054C102.654 109.103 102.546 109.179 102.459 109.276L102.277 109.115C102.391 108.993 102.531 108.898 102.687 108.836C102.842 108.774 103.009 108.747 103.176 108.757C103.711 108.757 104.01 109.014 104.01 109.436C104.005 109.591 103.965 109.742 103.894 109.879C103.823 110.016 103.722 110.135 103.599 110.228L102.737 111.073H104.112Z" fill="#263238"/>
<path d="M106.14 110.56C106.14 110.993 105.84 111.33 105.22 111.33C104.886 111.34 104.562 111.224 104.311 111.004L104.439 110.795C104.542 110.894 104.664 110.97 104.797 111.021C104.93 111.071 105.072 111.095 105.215 111.09C105.648 111.09 105.872 110.881 105.872 110.555C105.872 110.228 105.675 110.02 105.027 110.02H104.492L104.621 108.752H106.006V108.982H104.845L104.76 109.79H105.086C105.851 109.816 106.14 110.116 106.14 110.56Z" fill="#263238"/>
<path d="M97.64 107.147V107.291H96.5273V105.719H97.5972V105.869H96.6878V106.403H97.5009V106.548H96.6878V107.131L97.64 107.147Z" fill="#263238"/>
<path d="M98.994 107.291L98.4912 106.596L97.9562 107.291H97.7637L98.3628 106.484L97.8279 105.719H98.0151L98.4912 106.361L98.9619 105.719H99.1384L98.6035 106.478L99.2026 107.291H98.994Z" fill="#263238"/>
<path d="M100.662 106.259C100.662 106.591 100.416 106.794 100.02 106.794H99.5975V107.291H99.4316V105.719H100.02C100.416 105.719 100.662 105.922 100.662 106.259ZM100.496 106.259C100.496 106.008 100.33 105.863 100.015 105.863H99.5975V106.65H100.015C100.33 106.65 100.496 106.505 100.496 106.259Z" fill="#263238"/>
<path d="M101.637 105.719H102.273C102.482 105.719 102.682 105.802 102.829 105.949C102.977 106.097 103.06 106.297 103.06 106.505C103.06 106.714 102.977 106.914 102.829 107.061C102.682 107.209 102.482 107.291 102.273 107.291H101.637V105.719ZM102.263 107.147C102.433 107.147 102.596 107.079 102.716 106.959C102.837 106.839 102.904 106.675 102.904 106.505C102.904 106.335 102.837 106.172 102.716 106.051C102.596 105.931 102.433 105.863 102.263 105.863H101.803V107.147H102.263Z" fill="#263238"/>
<path d="M104.349 106.558V107.291H104.194V107.104C104.15 107.171 104.09 107.224 104.018 107.259C103.946 107.294 103.867 107.309 103.787 107.302C103.525 107.302 103.359 107.163 103.359 106.96C103.359 106.756 103.477 106.623 103.814 106.623H104.188V106.553C104.193 106.509 104.188 106.465 104.172 106.423C104.157 106.382 104.132 106.344 104.1 106.314C104.068 106.283 104.03 106.26 103.987 106.247C103.945 106.234 103.901 106.231 103.857 106.237C103.713 106.235 103.572 106.284 103.461 106.376L103.391 106.259C103.528 106.15 103.699 106.094 103.873 106.098C103.936 106.089 104.001 106.094 104.062 106.114C104.123 106.133 104.178 106.166 104.224 106.211C104.27 106.255 104.306 106.31 104.327 106.37C104.349 106.43 104.356 106.495 104.349 106.558ZM104.188 106.933V106.74H103.819C103.589 106.74 103.515 106.831 103.515 106.954C103.515 107.077 103.627 107.173 103.814 107.173C103.893 107.179 103.972 107.159 104.04 107.117C104.107 107.075 104.159 107.012 104.188 106.938V106.933Z" fill="#263238"/>
<path d="M105.402 107.216C105.334 107.275 105.246 107.306 105.156 107.302C105.11 107.307 105.063 107.301 105.019 107.286C104.974 107.27 104.934 107.246 104.901 107.213C104.868 107.18 104.842 107.14 104.826 107.097C104.81 107.053 104.804 107.006 104.808 106.959V106.243H104.6V106.109H104.808V105.868H104.969V106.125H105.327V106.259H104.969V106.938C104.965 106.966 104.967 106.995 104.975 107.022C104.984 107.049 104.999 107.074 105.018 107.095C105.038 107.115 105.062 107.131 105.088 107.141C105.115 107.151 105.144 107.155 105.172 107.152C105.236 107.153 105.298 107.132 105.348 107.093L105.402 107.216Z" fill="#263238"/>
<path d="M106.679 106.751H105.717C105.725 106.866 105.778 106.974 105.866 107.05C105.953 107.126 106.066 107.165 106.182 107.157C106.25 107.16 106.318 107.148 106.381 107.121C106.444 107.094 106.5 107.054 106.546 107.002L106.637 107.109C106.578 107.173 106.507 107.222 106.428 107.256C106.348 107.289 106.263 107.305 106.177 107.302C106.096 107.306 106.014 107.294 105.938 107.265C105.862 107.237 105.793 107.192 105.735 107.136C105.678 107.079 105.632 107.01 105.602 106.935C105.572 106.859 105.558 106.779 105.561 106.697C105.557 106.62 105.569 106.542 105.595 106.469C105.622 106.396 105.664 106.33 105.718 106.274C105.771 106.217 105.836 106.173 105.907 106.143C105.979 106.113 106.056 106.097 106.134 106.098C106.213 106.092 106.292 106.104 106.366 106.132C106.44 106.16 106.507 106.205 106.562 106.262C106.617 106.319 106.658 106.388 106.683 106.464C106.708 106.539 106.716 106.619 106.706 106.697L106.679 106.751ZM105.69 106.628H106.53C106.518 106.525 106.469 106.429 106.391 106.36C106.314 106.291 106.214 106.253 106.11 106.253C106.006 106.253 105.906 106.291 105.828 106.36C105.751 106.429 105.701 106.525 105.69 106.628Z" fill="#263238"/>
<path d="M126.332 108.778V111.308H126.076V109.008H125.477V108.778H126.332Z" fill="#263238"/>
<path d="M128.665 111.073V111.308H126.889V111.121L127.959 110.094C128.242 109.811 128.301 109.639 128.301 109.468C128.301 109.174 128.092 108.992 127.707 108.992C127.578 108.984 127.449 109.005 127.33 109.054C127.21 109.103 127.103 109.179 127.017 109.276L126.83 109.115C126.945 108.993 127.084 108.898 127.24 108.836C127.395 108.774 127.562 108.747 127.729 108.757C128.264 108.757 128.569 109.013 128.569 109.436C128.56 109.59 128.519 109.741 128.447 109.878C128.375 110.014 128.274 110.134 128.151 110.228L127.29 111.073H128.665Z" fill="#263238"/>
<path d="M130.665 110.581C130.665 111.004 130.355 111.33 129.745 111.33C129.412 111.34 129.087 111.224 128.836 111.004L128.964 110.795C129.068 110.894 129.191 110.971 129.325 111.021C129.459 111.072 129.602 111.095 129.745 111.089C130.168 111.089 130.398 110.897 130.398 110.581C130.398 110.265 130.184 110.078 129.713 110.078H129.531V109.886L130.232 109.008H128.938V108.778H130.542V108.96L129.826 109.859C130.393 109.891 130.665 110.174 130.665 110.581Z" fill="#263238"/>
<path d="M125.563 106.505C125.561 106.398 125.581 106.291 125.623 106.191C125.664 106.092 125.725 106.002 125.802 105.927C125.879 105.852 125.97 105.793 126.071 105.755C126.172 105.716 126.279 105.698 126.386 105.703C126.492 105.699 126.598 105.718 126.697 105.758C126.795 105.797 126.884 105.857 126.959 105.933L126.857 106.04C126.796 105.979 126.724 105.931 126.644 105.898C126.564 105.866 126.478 105.851 126.392 105.853C126.301 105.844 126.21 105.855 126.124 105.884C126.038 105.913 125.96 105.959 125.893 106.021C125.826 106.082 125.772 106.156 125.736 106.239C125.699 106.322 125.68 106.412 125.68 106.502C125.68 106.593 125.699 106.683 125.736 106.766C125.772 106.849 125.826 106.923 125.893 106.984C125.96 107.046 126.038 107.092 126.124 107.121C126.21 107.15 126.301 107.161 126.392 107.152C126.478 107.156 126.564 107.141 126.644 107.108C126.725 107.076 126.797 107.027 126.857 106.965L126.959 107.072C126.885 107.15 126.795 107.21 126.695 107.25C126.595 107.29 126.488 107.307 126.381 107.302C126.274 107.307 126.168 107.289 126.068 107.251C125.968 107.213 125.877 107.154 125.8 107.08C125.724 107.005 125.663 106.916 125.622 106.817C125.581 106.718 125.561 106.612 125.563 106.505Z" fill="#263238"/>
<path d="M129.456 105.719L128.921 107.291H128.745L128.285 105.949L127.825 107.291H127.648L127.113 105.719H127.284L127.739 107.072L128.21 105.719H128.365L128.825 107.077L129.285 105.719H129.456Z" fill="#263238"/>
<path d="M112.302 124.901H110.89L110.585 125.58H110.307L111.462 123.05H111.73L112.885 125.58H112.601L112.302 124.901ZM112.2 124.687L111.601 123.328L110.991 124.687H112.2Z" fill="#263238"/>
<path d="M113.04 124.628C113.035 124.499 113.057 124.37 113.105 124.249C113.153 124.129 113.225 124.02 113.317 123.929C113.409 123.838 113.519 123.767 113.639 123.721C113.76 123.675 113.889 123.654 114.019 123.66C114.165 123.651 114.311 123.682 114.442 123.748C114.573 123.815 114.683 123.916 114.762 124.039L114.575 124.168C114.515 124.081 114.435 124.01 114.342 123.961C114.249 123.912 114.145 123.885 114.04 123.884C113.843 123.884 113.654 123.963 113.514 124.102C113.375 124.242 113.296 124.431 113.296 124.628C113.296 124.825 113.375 125.014 113.514 125.154C113.654 125.293 113.843 125.371 114.04 125.371C114.145 125.371 114.248 125.345 114.341 125.297C114.434 125.248 114.514 125.179 114.575 125.093L114.762 125.222C114.682 125.344 114.571 125.442 114.44 125.508C114.31 125.574 114.164 125.604 114.019 125.596C113.889 125.602 113.76 125.581 113.639 125.535C113.519 125.488 113.409 125.417 113.317 125.326C113.225 125.236 113.153 125.126 113.105 125.006C113.057 124.886 113.035 124.757 113.04 124.628Z" fill="#263238"/>
<path d="M116.287 125.463C116.174 125.555 116.031 125.603 115.886 125.596C115.814 125.601 115.742 125.59 115.675 125.565C115.608 125.54 115.547 125.501 115.497 125.45C115.446 125.4 115.407 125.339 115.382 125.272C115.357 125.205 115.346 125.133 115.351 125.061V123.895H115.014V123.676H115.345V123.259H115.602V123.676H116.185V123.895H115.602V125.029C115.595 125.075 115.599 125.122 115.613 125.166C115.627 125.21 115.651 125.251 115.683 125.284C115.715 125.318 115.754 125.343 115.798 125.359C115.841 125.376 115.888 125.382 115.934 125.377C116.037 125.379 116.137 125.345 116.217 125.281L116.287 125.463Z" fill="#263238"/>
<path d="M116.699 123.077C116.699 123.027 116.719 122.98 116.754 122.944C116.789 122.909 116.837 122.89 116.886 122.89C116.936 122.89 116.984 122.909 117.019 122.944C117.054 122.98 117.074 123.027 117.074 123.077C117.074 123.127 117.054 123.174 117.019 123.209C116.984 123.244 116.936 123.264 116.886 123.264C116.837 123.264 116.789 123.244 116.754 123.209C116.719 123.174 116.699 123.127 116.699 123.077ZM116.758 123.676H117.015V125.58H116.758V123.676Z" fill="#263238"/>
<path d="M117.534 124.627C117.534 124.436 117.59 124.249 117.696 124.09C117.803 123.931 117.953 123.807 118.13 123.733C118.307 123.66 118.501 123.64 118.689 123.677C118.876 123.714 119.049 123.806 119.185 123.941C119.32 124.076 119.413 124.248 119.451 124.435C119.489 124.623 119.47 124.817 119.398 124.994C119.325 125.171 119.202 125.323 119.044 125.43C118.885 125.537 118.698 125.595 118.507 125.596C118.379 125.6 118.25 125.578 118.131 125.531C118.011 125.484 117.902 125.413 117.811 125.322C117.72 125.231 117.648 125.123 117.6 125.003C117.553 124.884 117.53 124.756 117.534 124.627ZM119.208 124.627C119.201 124.489 119.153 124.356 119.071 124.245C118.989 124.134 118.876 124.049 118.746 124.002C118.616 123.954 118.475 123.946 118.341 123.978C118.206 124.009 118.084 124.08 117.989 124.181C117.894 124.281 117.831 124.407 117.807 124.544C117.783 124.68 117.8 124.82 117.855 124.947C117.911 125.073 118.002 125.181 118.118 125.257C118.233 125.332 118.369 125.372 118.507 125.371C118.603 125.372 118.698 125.353 118.787 125.315C118.875 125.278 118.954 125.222 119.02 125.152C119.086 125.083 119.137 125 119.169 124.91C119.201 124.819 119.215 124.723 119.208 124.627Z" fill="#263238"/>
<path d="M121.765 124.478V125.58H121.508V124.51C121.519 124.431 121.511 124.35 121.487 124.275C121.462 124.199 121.421 124.129 121.366 124.071C121.311 124.013 121.244 123.968 121.17 123.94C121.095 123.911 121.015 123.899 120.936 123.906C120.845 123.899 120.754 123.912 120.669 123.944C120.584 123.977 120.507 124.027 120.444 124.093C120.38 124.158 120.332 124.236 120.303 124.322C120.273 124.408 120.263 124.5 120.272 124.59V125.591H120.016V123.686H120.262V124.055C120.339 123.936 120.446 123.838 120.573 123.774C120.7 123.709 120.842 123.679 120.984 123.686C121.089 123.679 121.195 123.695 121.294 123.732C121.392 123.769 121.482 123.828 121.556 123.903C121.63 123.978 121.687 124.068 121.723 124.168C121.759 124.267 121.774 124.373 121.765 124.478Z" fill="#263238"/>
<path d="M123.713 123.28V124.275H125.018V124.505H123.713V125.575H123.445V123.045H125.178V123.275L123.713 123.28Z" fill="#263238"/>
<path d="M125.584 123.077C125.584 123.027 125.604 122.98 125.639 122.944C125.674 122.909 125.722 122.89 125.771 122.89C125.821 122.89 125.868 122.909 125.904 122.944C125.939 122.98 125.958 123.027 125.958 123.077C125.958 123.127 125.939 123.174 125.904 123.209C125.868 123.244 125.821 123.264 125.771 123.264C125.722 123.264 125.674 123.244 125.639 123.209C125.604 123.174 125.584 123.127 125.584 123.077ZM125.637 123.676H125.894V125.58H125.637V123.676Z" fill="#263238"/>
<path d="M128.372 123.676V125.35C128.392 125.479 128.381 125.611 128.34 125.735C128.3 125.859 128.231 125.972 128.139 126.064C128.046 126.156 127.934 126.225 127.81 126.266C127.685 126.306 127.554 126.317 127.425 126.297C127.104 126.311 126.788 126.208 126.537 126.008L126.665 125.81C126.876 125.984 127.141 126.077 127.414 126.072C127.895 126.072 128.115 125.848 128.115 125.382V125.126C128.034 125.245 127.923 125.342 127.794 125.407C127.665 125.472 127.521 125.502 127.377 125.495C127.249 125.504 127.122 125.488 127.001 125.446C126.881 125.404 126.771 125.337 126.677 125.251C126.584 125.164 126.509 125.059 126.458 124.942C126.407 124.825 126.381 124.699 126.381 124.572C126.381 124.444 126.407 124.318 126.458 124.202C126.509 124.085 126.584 123.98 126.677 123.893C126.771 123.806 126.881 123.74 127.001 123.698C127.122 123.656 127.249 123.639 127.377 123.649C127.523 123.643 127.669 123.675 127.8 123.742C127.932 123.808 128.043 123.907 128.125 124.029V123.665L128.372 123.676ZM128.125 124.58C128.13 124.436 128.091 124.295 128.014 124.173C127.938 124.052 127.826 123.956 127.695 123.898C127.563 123.84 127.417 123.822 127.276 123.848C127.135 123.873 127.004 123.94 126.901 124.04C126.798 124.14 126.727 124.269 126.697 124.41C126.667 124.55 126.68 124.696 126.734 124.83C126.788 124.963 126.881 125.077 127 125.157C127.119 125.238 127.26 125.281 127.403 125.281C127.497 125.287 127.591 125.273 127.679 125.241C127.767 125.209 127.848 125.159 127.916 125.094C127.983 125.029 128.037 124.951 128.073 124.864C128.109 124.778 128.127 124.684 128.125 124.591V124.58Z" fill="#263238"/>
<path d="M130.804 123.676V125.58H130.558V125.232C130.487 125.349 130.386 125.444 130.266 125.508C130.145 125.572 130.01 125.603 129.874 125.596C129.764 125.606 129.654 125.592 129.551 125.554C129.448 125.517 129.354 125.456 129.277 125.378C129.201 125.3 129.142 125.205 129.106 125.101C129.071 124.997 129.059 124.887 129.071 124.778V123.676H129.328V124.746C129.316 124.825 129.323 124.906 129.347 124.983C129.371 125.059 129.412 125.13 129.467 125.188C129.522 125.247 129.59 125.292 129.665 125.321C129.74 125.35 129.82 125.362 129.9 125.355C129.99 125.36 130.08 125.345 130.163 125.311C130.247 125.277 130.322 125.226 130.384 125.16C130.445 125.094 130.492 125.016 130.52 124.931C130.548 124.845 130.558 124.755 130.548 124.665V123.665L130.804 123.676Z" fill="#263238"/>
<path d="M132.463 123.66V123.911H132.399C132.308 123.907 132.217 123.924 132.133 123.959C132.049 123.994 131.973 124.047 131.912 124.114C131.851 124.181 131.805 124.261 131.778 124.348C131.751 124.435 131.744 124.527 131.757 124.618V125.586H131.5V123.681H131.746V124.056C131.813 123.926 131.916 123.819 132.044 123.749C132.172 123.678 132.318 123.647 132.463 123.66Z" fill="#263238"/>
<path d="M134.603 124.708H132.998C133.004 124.801 133.027 124.891 133.068 124.975C133.109 125.059 133.165 125.133 133.235 125.195C133.305 125.257 133.386 125.304 133.473 125.334C133.561 125.364 133.654 125.377 133.747 125.371C133.857 125.374 133.966 125.353 134.066 125.31C134.167 125.266 134.257 125.201 134.33 125.12L134.475 125.285C134.338 125.429 134.162 125.529 133.969 125.572C133.776 125.616 133.575 125.602 133.39 125.532C133.205 125.462 133.044 125.338 132.929 125.178C132.814 125.017 132.749 124.825 132.741 124.628C132.735 124.502 132.754 124.376 132.798 124.258C132.842 124.14 132.91 124.032 132.997 123.942C133.084 123.851 133.189 123.779 133.305 123.731C133.422 123.682 133.546 123.658 133.672 123.659C133.798 123.657 133.923 123.68 134.039 123.729C134.155 123.777 134.259 123.849 134.346 123.94C134.432 124.032 134.499 124.14 134.542 124.258C134.584 124.376 134.601 124.502 134.592 124.628C134.592 124.628 134.603 124.676 134.603 124.708ZM132.998 124.515H134.346C134.346 124.336 134.275 124.165 134.149 124.039C134.022 123.912 133.851 123.841 133.672 123.841C133.494 123.841 133.322 123.912 133.196 124.039C133.069 124.165 132.998 124.336 132.998 124.515Z" fill="#263238"/>
<path d="M113.437 135.727V136.84H112.447V135.77C111.563 135.742 110.705 135.466 109.971 134.973L110.506 133.764C111.077 134.163 111.743 134.406 112.437 134.47V132.812C111.329 132.539 110.099 132.175 110.099 130.752C110.099 129.682 110.864 128.795 112.437 128.613V127.511H113.426V128.581C114.137 128.621 114.829 128.83 115.443 129.19L114.945 130.41C114.479 130.133 113.963 129.951 113.426 129.875V131.565C114.528 131.822 115.742 132.191 115.742 133.593C115.753 134.646 114.999 135.54 113.437 135.727ZM112.447 131.341V129.939C111.912 130.057 111.709 130.346 111.709 130.672C111.709 130.998 112.009 131.202 112.447 131.341ZM114.154 133.732C114.154 133.384 113.865 133.197 113.437 133.047V134.416C113.934 134.31 114.154 134.053 114.154 133.732Z" fill="#263238"/>
<path d="M121.609 134.336V135.652H116.356V134.609L119.031 132.074C119.651 131.485 119.758 131.132 119.758 130.79C119.758 130.255 119.378 129.929 118.646 129.929C118.367 129.918 118.09 129.976 117.839 130.097C117.588 130.218 117.371 130.399 117.207 130.624L116.035 129.87C116.352 129.442 116.77 129.1 117.252 128.874C117.734 128.648 118.264 128.545 118.795 128.575C120.347 128.575 121.379 129.372 121.379 130.635C121.379 131.309 121.186 131.924 120.213 132.828L118.608 134.336H121.609Z" fill="#263238"/>
<path d="M122.258 132.175C122.258 129.88 123.531 128.575 125.237 128.575C126.944 128.575 128.217 129.88 128.217 132.175C128.217 134.47 126.954 135.77 125.237 135.77C123.52 135.77 122.258 134.47 122.258 132.175ZM126.601 132.175C126.601 130.57 126.066 129.939 125.237 129.939C124.408 129.939 123.889 130.592 123.889 132.175C123.889 133.759 124.424 134.406 125.237 134.406C126.05 134.406 126.58 133.753 126.58 132.175H126.601Z" fill="#263238"/>
<path d="M129.002 132.175C129.002 129.88 130.275 128.575 131.981 128.575C133.688 128.575 134.961 129.88 134.961 132.175C134.961 134.47 133.699 135.77 131.981 135.77C130.264 135.77 129.002 134.47 129.002 132.175ZM133.34 132.175C133.34 130.57 132.805 129.939 131.981 129.939C131.158 129.939 130.628 130.592 130.628 132.175C130.628 133.759 131.163 134.406 131.981 134.406C132.8 134.406 133.34 133.753 133.34 132.175Z" fill="#263238"/>
<path d="M133.612 153.358H111.435C110.059 153.357 108.74 152.81 107.767 151.837C106.795 150.864 106.248 149.545 106.246 148.17C106.246 146.793 106.793 145.473 107.765 144.499C108.738 143.525 110.058 142.977 111.435 142.976H133.612C134.294 142.976 134.969 143.11 135.599 143.371C136.229 143.632 136.801 144.015 137.283 144.497C137.765 144.98 138.147 145.552 138.408 146.182C138.668 146.812 138.802 147.488 138.801 148.17C138.801 149.546 138.254 150.865 137.281 151.839C136.308 152.812 134.988 153.358 133.612 153.358Z" fill="#263238"/>
<path d="M115.411 147.592C115.411 148.245 114.94 148.635 114.164 148.635H113.34V149.598H113.02V146.549H114.164C114.94 146.57 115.411 146.961 115.411 147.592ZM115.084 147.592C115.084 147.105 114.763 146.827 114.154 146.827H113.34V148.352H114.154C114.763 148.373 115.084 148.095 115.084 147.592Z" fill="white"/>
<path d="M117.748 148.196V149.619H117.454V149.261C117.368 149.389 117.249 149.491 117.11 149.558C116.971 149.625 116.816 149.653 116.663 149.64C116.128 149.64 115.828 149.373 115.828 148.972C115.828 148.571 116.053 148.325 116.711 148.325H117.438V148.185C117.438 147.795 117.219 147.581 116.791 147.581C116.512 147.577 116.241 147.672 116.026 147.848L115.887 147.618C116.153 147.409 116.484 147.299 116.823 147.308C116.945 147.29 117.07 147.301 117.188 147.339C117.306 147.376 117.413 147.441 117.503 147.526C117.592 147.612 117.66 147.717 117.703 147.833C117.746 147.949 117.761 148.073 117.748 148.196ZM117.438 148.929V148.555H116.721C116.277 148.555 116.133 148.731 116.133 148.966C116.133 149.202 116.347 149.4 116.711 149.4C116.866 149.41 117.021 149.369 117.152 149.284C117.283 149.2 117.383 149.075 117.438 148.929Z" fill="white"/>
<path d="M120.469 147.324L119.325 149.892C119.132 150.341 118.891 150.486 118.565 150.486C118.362 150.485 118.166 150.407 118.02 150.266L118.164 150.036C118.218 150.092 118.283 150.137 118.354 150.167C118.426 150.198 118.503 150.213 118.581 150.213C118.79 150.213 118.929 150.116 119.057 149.828L119.159 149.603L118.132 147.313H118.458L119.319 149.266L120.159 147.324H120.469Z" fill="white"/>
<path d="M123.087 149.641V150.143H122.867V149.646C122.483 149.643 122.113 149.502 121.824 149.25L121.953 148.999C122.205 149.224 122.529 149.355 122.867 149.368V148.223C122.386 148.105 121.899 147.956 121.899 147.378C121.899 146.961 122.199 146.597 122.867 146.549V146.046H123.087V146.522C123.4 146.527 123.706 146.62 123.969 146.789L123.862 147.046C123.628 146.9 123.362 146.814 123.087 146.795V147.95C123.579 148.068 124.098 148.207 124.098 148.79C124.098 149.234 123.777 149.603 123.087 149.641ZM122.867 147.918V146.848C122.418 146.886 122.215 147.116 122.215 147.383C122.215 147.651 122.509 147.822 122.867 147.918ZM123.777 148.833C123.777 148.485 123.461 148.367 123.087 148.298V149.368C123.563 149.33 123.777 149.111 123.777 148.833Z" fill="white"/>
<path d="M126.611 149.341V149.619H124.471V149.4L125.739 148.153C126.081 147.816 126.146 147.619 126.146 147.399C126.146 147.046 125.9 146.832 125.434 146.832C125.279 146.824 125.124 146.851 124.98 146.909C124.836 146.967 124.706 147.056 124.6 147.169L124.375 146.977C124.512 146.832 124.678 146.718 124.863 146.643C125.047 146.569 125.246 146.534 125.445 146.543C126.06 146.543 126.456 146.854 126.456 147.367C126.447 147.553 126.397 147.735 126.311 147.899C126.224 148.064 126.102 148.207 125.953 148.319L124.915 149.341H126.611Z" fill="white"/>
<path d="M126.986 148.094C126.986 147.121 127.494 146.543 128.201 146.543C128.907 146.543 129.42 147.121 129.42 148.094C129.42 149.068 128.885 149.645 128.201 149.645C127.516 149.645 126.986 149.068 126.986 148.094ZM129.099 148.094C129.099 147.281 128.735 146.832 128.201 146.832C127.666 146.832 127.302 147.281 127.302 148.094C127.302 148.907 127.671 149.357 128.201 149.357C128.73 149.357 129.099 148.907 129.099 148.094Z" fill="white"/>
<path d="M129.869 148.094C129.869 147.121 130.404 146.543 131.089 146.543C131.773 146.543 132.308 147.121 132.308 148.094C132.308 149.068 131.773 149.645 131.089 149.645C130.404 149.645 129.869 149.068 129.869 148.094ZM132.009 148.094C132.009 147.281 131.645 146.832 131.115 146.832C130.586 146.832 130.217 147.281 130.217 148.094C130.217 148.907 130.581 149.357 131.115 149.357C131.65 149.357 131.982 148.907 131.982 148.094H132.009Z" fill="white"/>
<path d="M88.9693 137.022C89.7717 149.352 84.0588 163.083 84.0588 163.083L53.1996 154.396L47.8184 152.877C53.1675 145.447 55.7137 130.812 54.3176 118.969C54.2106 118.075 54.1464 117.236 54.0983 116.433C53.5633 106.666 57.6233 103.809 61.0521 99.4925C64.7965 94.8174 73.1305 77.1652 73.1305 72.9875C73.1305 68.8098 83.5881 58.5823 81.2612 46.9746C81.2612 46.9746 84.4225 45.0115 87.5999 46.6216C89.0442 47.3491 90.4831 48.8094 91.6439 51.5161C94.3666 57.8762 90.542 75.8547 87.2897 80.2624L81.0258 106.195C81.0258 106.195 83.1387 109.838 85.2142 116.449C87.2773 123.134 88.5379 130.04 88.9693 137.022Z" fill="white"/>
<path opacity="0.4" d="M54.0978 116.433C55.847 121.22 57.7032 124.456 57.5427 131.164C57.3822 137.872 53.7983 148.196 54.82 153.561C54.2363 153.733 53.6914 154.017 53.2152 154.395L47.834 152.876C53.1831 145.446 55.7293 130.811 54.3332 118.968C54.2102 118.075 54.146 117.235 54.0978 116.433Z" class="main-color-svg"/>
<path opacity="0.4" d="M87.2898 80.2619L81.026 106.194C81.026 106.194 83.1389 109.837 85.2144 116.449C80.9725 109.613 77.3672 107.569 77.3672 107.569C80.1915 104.183 82.3686 79.4167 82.3686 79.4167C82.3686 79.4167 91.2215 69.0126 90.3924 58.1271C90.1263 54.1603 89.1818 50.2686 87.6001 46.6211C89.0444 47.3486 90.4833 48.8089 91.6441 51.5156C94.3668 57.8757 90.5421 75.8542 87.2898 80.2619Z" class="main-color-svg"/>
<path d="M47.8184 152.876C53.1675 145.446 55.7137 130.811 54.3229 118.968C52.9321 107.125 57.3398 104.162 61.0575 99.4865C64.7751 94.8114 73.1305 77.1645 73.1305 72.9815C73.1305 68.7985 83.5827 58.587 81.2612 46.974C81.2612 46.974 87.9316 42.8391 91.6439 51.5154C94.3666 57.8809 90.542 75.854 87.2897 80.267L81.0312 106.194C81.0312 106.194 87.7123 117.722 88.9693 137.021C89.7717 149.351 84.0588 163.088 84.0588 163.088" stroke="#263238" stroke-linecap="round" stroke-linejoin="round"/>
<path d="M68.4453 172.952C68.4453 172.952 75.4687 177.274 79.5662 184.11" stroke="#263238" stroke-linecap="round" stroke-linejoin="round"/>
<path d="M88.1713 181.131C88.1713 181.131 82.1214 181.992 76.6546 175.45C73.1509 171.262 62.5115 169.368 60.0723 158.413" stroke="#263238" stroke-linecap="round" stroke-linejoin="round"/>
<path opacity="0.2" d="M176.102 213.524C160.616 206.116 169.993 200.178 148.687 190.983C127.382 181.788 127.168 173.93 129.735 155.861C132.303 137.791 130.27 118.572 136.465 116.94C142.659 115.309 131.618 90.3872 138.84 81.5771L174.379 150.709L176.102 213.524Z" fill="black" fill-opacity="0.7"/>
<path d="M233.802 212.803C233.075 210.722 232.337 208.448 231.764 206.384C231.026 203.709 230.448 201.569 229.09 199.082C228.876 198.686 228.646 198.269 228.389 197.82C226.939 195.236 224.955 191.7 223.794 187.357C223.013 184.431 223.794 177.225 224.522 170.24C225.057 165.222 225.543 160.488 225.399 157.803L225.356 156.851C224.992 149.827 224.233 135.213 222.682 131.175C221.157 127.281 219.734 126.698 217.14 125.66C216.872 125.542 216.605 125.435 216.295 125.307C215.321 124.9 213.663 124.044 211.753 123.055C207.447 120.824 202.087 118.048 199.365 117.706C196.818 117.419 194.241 117.539 191.731 118.059C188.377 115.486 182.67 112.175 180.969 112.105C179.578 112.036 176.54 112.907 175.085 113.362L174.352 113.597C173.431 112.883 172.454 112.242 171.431 111.682C171.362 111.645 171.292 111.618 171.233 111.592C169.345 110.816 166.494 110.789 164.938 110.832C164.467 110.832 164.098 110.88 163.932 110.896C160.995 106.376 158.107 101.877 156.85 99.9037C154.229 95.7527 146.114 78.6729 146.034 78.5071C146.024 78.4851 146.01 78.4657 145.991 78.4508C145.972 78.4359 145.95 78.4258 145.927 78.4215C145.902 78.4181 145.877 78.4181 145.852 78.4215C145.221 78.2396 140.572 77.0575 138.705 81.5614C136.662 86.4666 139.577 97.2344 142.423 101.145C143.792 103.028 147.531 110.709 151.324 118.658C150.35 119.562 142.562 126.756 138.78 128.099C135.683 129.196 136.411 145.072 136.994 157.819C137.213 162.526 137.395 166.575 137.341 169.009C137.234 173.716 145.798 180.2 154.1 186.469C161.589 192.15 169.356 198.018 170.265 202.281C170.517 203.479 171.233 204.453 172.089 205.549C173.518 207.368 175.358 209.513 176.139 213.573C176.369 214.793 178.326 216.387 179.883 218.992H236.07C235.6 217.724 234.712 215.413 233.802 212.803ZM155.881 128.233C158.604 133.935 160.289 137.326 160.696 137.706C161.102 138.086 161.075 139.894 161.065 141.654C161.006 143.194 161.06 144.737 161.225 146.27C160.562 146.853 156.374 150.667 155.528 153.759L151.971 149.57L151.073 136.428C151.607 135.861 155.266 131.993 155.881 128.233Z" fill="white"/>
<path opacity="0.4" d="M217.68 164.875C219.001 177.204 219.017 183.891 220.499 187.459C223.002 193.482 226.688 194.701 226.688 194.701C225.462 192.367 224.489 189.908 223.783 187.368C223.008 184.442 223.783 177.236 224.511 170.25C225.046 165.233 225.538 160.494 225.399 157.808L225.351 156.856C224.987 149.838 224.227 135.224 222.676 131.18C221.157 127.286 219.729 126.703 217.134 125.66C216.867 125.548 216.6 125.441 216.289 125.312C215.316 124.906 213.663 124.05 211.748 123.06C207.442 120.83 202.082 118.053 199.359 117.711C196.812 117.422 194.235 117.541 191.726 118.064C188.372 115.491 182.665 112.18 180.964 112.105C179.573 112.041 175.802 113.138 174.336 113.603C180.755 118.84 189.998 125.371 189.998 125.371C197.311 126.826 196.374 129.998 199.332 131.79C202.007 133.395 204.564 128.698 206.821 128.286C209.774 127.751 213.128 130.865 212.978 134.641C212.518 145.045 216.546 154.289 217.68 164.875Z" class="main-color-svg"/>
<path opacity="0.4" d="M180.719 126.665C180.719 126.665 174.926 121.851 172.16 120.246C169.395 118.641 168.951 113.11 171.133 111.768C171.216 111.718 171.31 111.689 171.406 111.682L171.208 111.591C169.32 110.816 166.469 110.784 164.912 110.832C168.122 116.807 170.684 121.391 171.374 122.397C173.701 125.756 180.719 126.665 180.719 126.665Z" class="main-color-svg"/>
<path opacity="0.4" d="M171.929 201.532C172.175 200.253 170.068 196.509 169.142 194.99C167.04 191.524 142.632 169.956 146.168 164.2C149.704 158.445 152.934 162.702 155.17 163.077C156.775 163.344 161.183 160.718 161.161 160.499C160.659 156.064 164.751 153.181 164.751 153.181C164.751 153.181 164.376 135.529 163.435 135.828C162.493 136.128 151.228 109.323 151.228 109.323C151.228 109.323 139.321 93.4899 139.995 86.1027C140.669 78.7156 145.836 78.5872 145.836 78.5872V78.3893C145.205 78.2074 140.557 77.0252 138.69 81.5292C136.646 86.4344 139.562 97.2022 142.407 101.112C143.777 102.995 147.516 110.677 151.308 118.626C150.335 119.53 142.546 126.724 138.765 128.067C135.667 129.163 136.395 145.04 136.978 157.787C137.197 162.494 137.379 166.543 137.326 168.977C137.219 173.684 145.783 180.167 154.085 186.437C161.573 192.117 169.34 197.985 170.25 202.249C170.501 203.447 171.218 204.42 172.074 205.517C171.903 204.196 171.855 202.862 171.929 201.532ZM155.882 128.249C158.605 133.951 160.29 137.342 160.696 137.722C161.103 138.102 161.076 139.91 161.065 141.67C161.006 143.21 161.06 144.753 161.226 146.286C160.562 146.869 156.374 150.683 155.529 153.775L151.972 149.586L151.073 136.444C151.608 135.86 155.267 131.993 155.882 128.233V128.249Z" class="main-color-svg"/>
<path d="M177.396 126.596C175.005 125.843 172.905 124.371 171.383 122.38C168.939 119.107 159.337 104.193 156.679 99.989C154.02 95.7845 145.836 78.5871 145.836 78.5871C145.836 78.5871 140.808 76.9021 138.85 81.5986C136.892 86.2952 139.572 96.9079 142.551 100.995C145.531 105.081 159.69 136.55 160.813 137.567C161.937 138.583 160.252 146.981 162.504 149.014" stroke="#263238" stroke-linecap="round" stroke-linejoin="round"/>
<path d="M161.424 146.344C161.424 146.344 156.236 150.864 155.626 154.165L151.775 149.634L150.865 136.357C150.865 136.357 155.514 131.704 155.77 127.563" stroke="#263238" stroke-linecap="round" stroke-linejoin="round"/>
<path d="M151.522 118.642C151.522 118.642 142.904 126.772 138.807 128.222C134.71 129.672 137.7 160.135 137.496 168.956C137.293 177.776 168.495 193.144 170.41 202.174C171.169 205.768 174.315 206.501 176.235 213.407" stroke="#263238" stroke-linecap="round" stroke-linejoin="round"/>
<path d="M163.787 111.073C163.787 111.073 168.478 110.65 171.121 111.752C173.763 112.854 184.494 122.071 187.083 123.83C189.672 125.59 193.566 126.259 194.304 128.158" stroke="#263238" stroke-linecap="round" stroke-linejoin="round"/>
<path d="M174.277 113.79C174.277 113.79 179.092 112.185 180.932 112.276C182.772 112.367 189.694 116.449 192.796 119.177C195.173 121.286 197.911 122.949 200.879 124.087" stroke="#263238" stroke-linecap="round" stroke-linejoin="round"/>
<path d="M191.668 118.251C194.18 117.711 196.764 117.586 199.317 117.882C203.233 118.417 213.065 124.194 216.199 125.5C219.334 126.805 220.831 127.045 222.479 131.261C224.127 135.476 224.881 151.502 225.212 157.835C225.544 164.168 222.244 182.307 223.608 187.41C224.972 192.514 227.432 196.451 228.925 199.179" stroke="#263238" stroke-linecap="round" stroke-linejoin="round"/>
<path d="M150.864 136.358C150.864 136.358 150.115 133.228 149.045 132.827" stroke="#263238" stroke-linecap="round" stroke-linejoin="round"/>
<path d="M151.773 149.635C152.134 151.459 152.622 153.255 153.234 155.011C154.004 156.91 152.806 159.659 152.806 159.659" stroke="#263238" stroke-linecap="round" stroke-linejoin="round"/>
<path d="M155.625 154.165C155.502 157.203 158.524 160.755 159.257 160.252" stroke="#263238" stroke-linecap="round" stroke-linejoin="round"/>
<path d="M171.016 136.358C171.016 136.358 174.263 131.105 177.376 130.848C180.489 130.591 184.084 135.01 186.004 134.592C187.924 134.175 190.342 131.351 193.573 130.848C196.804 130.345 198.318 131.886 200.88 132.014C203.442 132.142 203.704 128.719 206.764 128.27C209.824 127.82 210.867 129.34 212.921 129.735C214.975 130.131 215.488 128.51 217.152 127.596" stroke="#263238" stroke-linecap="round" stroke-linejoin="round"/>
</g>
<defs>
<clipPath id="clip0_15224_316753">
<rect width="240" height="218.234" fill="white" transform="translate(0.585938 0.704102)"/>
</clipPath>
</defs>
</svg>
