<svg width="221" height="220" viewBox="0 0 221 220" fill="none" xmlns="http://www.w3.org/2000/svg">
<g clip-path="url(#clip0_15224_317027)">
<path d="M217.629 20.9133C212.304 6.86331 200.969 -1.88393 192.312 1.39289C187.825 3.09248 184.943 7.69725 183.946 13.6889C166.701 6.71375 144.125 11.3548 128.689 14.5681C105.511 19.395 81.3946 -11.4787 42.1589 9.42404C39.1271 11.0493 36.3206 13.0636 33.8104 15.4157C33.8104 11.1644 32.7907 7.04461 29.4142 4.6969C21.1881 -1.01827 12.4182 15.6378 12.4182 15.6378C12.4182 15.6378 0.743146 27.0636 0.34884 67.5456C-0.0454661 108.028 8.72897 87.338 8.72897 87.338L10.6914 82.3253C9.21392 105.163 11.2398 126.225 12.5723 134.337C13.661 141.311 15.9977 148.031 19.4704 154.175C16.8961 154.492 14.7297 155.458 13.1615 157.13C6.75291 163.96 12.7083 179.95 26.4455 192.84C40.1828 205.729 56.5261 210.651 62.9347 203.821C66.769 199.742 66.1752 192.364 62.137 184.333C87.7578 191.883 118.287 191.562 141.596 190.08C142.371 190.161 143.024 190.225 143.505 190.261C148.177 190.592 129.491 195.246 132.496 203.273C135.501 211.3 179.54 205.942 199.573 190.927C219.606 175.912 214.253 167.903 213.251 160.896C212.25 153.89 202.573 156.894 200.561 162.564C200.289 163.339 200.108 163.715 199.954 163.788C200.765 157.139 200.407 150.123 200.901 143.814C202.315 125.726 206.29 107.846 208.035 89.7718C209.177 77.9335 210.156 65.1662 208.728 52.9337C209.702 52.8548 210.66 52.6397 211.574 52.2946C220.231 49.0268 222.932 34.9723 217.629 20.9133Z" class="main-color-svg fill-opacity-svg" fill-opacity="0.3"/>
<path d="M112.169 219.743C168.018 219.743 213.292 217.461 213.292 214.645C213.292 211.829 168.018 209.546 112.169 209.546C56.3195 209.546 11.0449 211.829 11.0449 214.645C11.0449 217.461 56.3195 219.743 112.169 219.743Z" fill="#263238" stroke="#263238" stroke-miterlimit="10"/>
<path d="M183.946 189.476C184.712 189.812 186.588 189.766 186.588 189.766C186.588 189.766 186.185 188.538 186.135 188.466C185.723 187.604 184.422 186.199 183.366 186.326C183.191 186.355 183.023 186.42 182.875 186.518C182.726 186.615 182.6 186.743 182.504 186.893C182.408 187.043 182.345 187.211 182.319 187.386C182.292 187.562 182.303 187.741 182.351 187.913C182.541 188.647 183.293 189.191 183.946 189.476Z" fill="#263238"/>
<path d="M184.595 194.906C185.388 195.02 187.06 194.535 187.192 194.498C187.469 195.455 187.808 196.392 188.207 197.304C188.438 197.839 188.687 198.369 188.941 198.895C188.792 198.673 188.651 198.473 188.628 198.441C188.008 197.721 186.362 196.697 185.392 197.114C185.228 197.187 185.082 197.294 184.963 197.429C184.844 197.563 184.755 197.722 184.702 197.893C184.65 198.065 184.634 198.246 184.657 198.424C184.68 198.602 184.741 198.774 184.835 198.926C185.198 199.588 186.068 199.914 186.77 200.014C187.473 200.114 188.919 199.738 189.299 199.629L189.598 200.232C190.083 201.197 190.568 202.158 191.022 203.114C191.18 203.454 191.321 203.79 191.475 204.129C191.339 203.93 191.225 203.762 191.203 203.74C190.582 203.019 188.937 201.99 187.967 202.412C187.803 202.485 187.657 202.593 187.538 202.727C187.418 202.861 187.329 203.02 187.276 203.191C187.223 203.363 187.207 203.544 187.229 203.722C187.251 203.9 187.311 204.071 187.405 204.225C187.772 204.886 188.638 205.213 189.345 205.312C190.052 205.412 191.357 205.068 191.806 204.945C191.942 205.294 192.082 205.643 192.2 205.992C192.277 206.228 192.363 206.445 192.427 206.695C192.49 206.944 192.558 207.148 192.626 207.406C192.735 207.859 192.848 208.313 192.948 208.766C193.016 209.079 193.075 209.373 193.134 209.672C192.984 209.332 192.68 208.68 192.635 208.625C192.127 207.819 190.673 206.559 189.635 206.813C189.464 206.861 189.306 206.945 189.17 207.059C189.034 207.173 188.923 207.314 188.845 207.474C188.768 207.633 188.724 207.807 188.718 207.985C188.712 208.162 188.743 208.339 188.81 208.503C189.068 209.21 189.879 209.663 190.559 209.863C191.312 210.094 192.97 209.885 193.179 209.863C193.279 210.357 193.369 210.842 193.451 211.299C193.51 211.639 193.564 211.961 193.614 212.274H194.28C194.217 211.929 194.149 211.562 194.072 211.182C193.972 210.679 193.859 210.139 193.732 209.591C194.231 209.392 194.719 209.163 195.191 208.906C195.836 209.455 196.553 209.912 197.321 210.266C197.131 210.719 196.941 211.173 196.755 211.626L196.469 212.274H197.172L197.339 211.871C197.534 211.417 197.734 210.887 197.933 210.357C198.133 210.402 199.778 210.733 200.544 210.561C201.237 210.402 202.08 210.012 202.393 209.323C202.471 209.164 202.515 208.991 202.522 208.814C202.529 208.637 202.498 208.46 202.432 208.296C202.367 208.131 202.267 207.982 202.14 207.859C202.013 207.735 201.861 207.64 201.695 207.578C200.68 207.239 199.134 208.385 198.572 209.156C198.536 209.201 198.228 209.731 198.042 210.062C198.119 209.845 198.201 209.636 198.282 209.414C198.445 208.961 198.59 208.508 198.735 208.054C198.803 207.823 198.876 207.601 198.948 207.347C199.021 207.094 199.071 206.858 199.139 206.609C199.275 206.028 199.384 205.439 199.483 204.836C199.868 204.977 201.251 205.457 201.962 205.408C202.674 205.358 203.562 205.095 203.975 204.465C204.073 204.32 204.141 204.157 204.173 203.985C204.205 203.813 204.201 203.636 204.162 203.466C204.122 203.295 204.048 203.135 203.943 202.995C203.838 202.855 203.705 202.738 203.553 202.652C202.601 202.162 200.902 203.064 200.222 203.735C200.181 203.776 199.769 204.315 199.519 204.614C199.578 204.256 199.637 203.894 199.683 203.527C199.814 202.471 199.914 201.392 200.018 200.318C200.05 199.991 200.086 199.665 200.118 199.334C200.254 199.389 201.881 199.991 202.683 199.937C203.39 199.887 204.283 199.624 204.695 198.994C204.794 198.85 204.862 198.686 204.894 198.514C204.927 198.342 204.923 198.164 204.883 197.994C204.842 197.823 204.767 197.663 204.662 197.523C204.556 197.383 204.422 197.267 204.269 197.181C203.322 196.692 201.618 197.594 200.943 198.265C200.893 198.315 200.272 199.09 200.127 199.294C200.199 198.573 200.285 197.857 200.394 197.15C200.538 196.198 200.744 195.256 201.011 194.331C201.074 194.353 202.769 194.992 203.585 194.933C204.296 194.884 205.189 194.625 205.602 193.991C205.7 193.846 205.767 193.682 205.799 193.51C205.831 193.338 205.827 193.161 205.787 192.991C205.747 192.82 205.672 192.66 205.567 192.52C205.461 192.38 205.328 192.264 205.176 192.178C204.224 191.688 202.524 192.59 201.849 193.266C201.795 193.315 201.128 194.149 201.02 194.308C201.02 194.254 201.047 194.199 201.06 194.145C201.353 193.223 201.728 192.33 202.18 191.475C202.425 190.999 202.683 190.569 202.941 190.138C203.245 190.288 204.641 190.963 205.384 190.995C206.128 191.027 207.011 190.859 207.487 190.279C207.604 190.146 207.692 189.989 207.744 189.82C207.797 189.65 207.813 189.472 207.792 189.296C207.771 189.12 207.713 188.95 207.623 188.798C207.532 188.645 207.41 188.514 207.265 188.412C206.359 187.818 204.587 188.529 203.839 189.123C203.798 189.155 203.422 189.531 203.154 189.808C203.277 189.617 203.395 189.422 203.517 189.241C203.97 188.57 204.423 187.981 204.818 187.46C205.049 187.17 205.271 186.911 205.466 186.667C205.842 186.667 207.356 186.617 208.013 186.304C208.67 185.991 209.395 185.438 209.554 184.7C209.596 184.527 209.602 184.348 209.57 184.173C209.538 183.999 209.47 183.832 209.37 183.686C209.27 183.539 209.141 183.415 208.989 183.322C208.838 183.229 208.669 183.169 208.493 183.145C207.433 183.027 206.173 184.505 205.774 185.357C205.742 185.429 205.353 186.671 205.371 186.671H205.393C205.194 186.902 204.981 187.147 204.754 187.424C204.337 187.936 203.875 188.516 203.395 189.178C202.89 189.891 202.425 190.633 202.003 191.398C201.527 192.254 201.13 193.15 200.816 194.077V194.109C200.816 193.796 200.816 192.921 200.816 192.853C200.693 191.91 199.909 190.134 198.849 189.962C198.673 189.934 198.494 189.944 198.323 189.99C198.152 190.036 197.992 190.118 197.854 190.23C197.717 190.342 197.604 190.482 197.524 190.64C197.444 190.798 197.398 190.972 197.389 191.149C197.33 191.901 197.874 192.654 198.405 193.125C199.003 193.66 200.671 194.181 200.802 194.222C200.502 195.172 200.267 196.141 200.1 197.123C199.995 197.694 199.909 198.274 199.832 198.854C199.832 198.582 199.832 198.342 199.832 198.305C199.71 197.363 198.926 195.586 197.865 195.414C197.69 195.386 197.511 195.396 197.34 195.442C197.169 195.488 197.01 195.57 196.872 195.682C196.735 195.794 196.623 195.934 196.543 196.093C196.464 196.251 196.418 196.424 196.41 196.601C196.347 197.354 196.891 198.106 197.426 198.577C197.96 199.049 199.37 199.529 199.746 199.652C199.719 199.874 199.687 200.105 199.66 200.318C199.533 201.392 199.411 202.462 199.257 203.49C199.202 203.857 199.139 204.22 199.071 204.583C199.071 204.342 199.071 204.129 199.071 204.107C198.944 203.16 198.164 201.387 197.104 201.211C196.928 201.183 196.749 201.193 196.577 201.239C196.405 201.286 196.245 201.368 196.108 201.48C195.97 201.593 195.858 201.733 195.778 201.892C195.698 202.051 195.652 202.225 195.644 202.403C195.585 203.15 196.129 203.903 196.66 204.379C197.357 204.843 198.121 205.198 198.926 205.43C198.849 205.797 198.767 206.164 198.676 206.518C198.609 206.758 198.559 206.994 198.477 207.229C198.395 207.465 198.328 207.683 198.25 207.932C198.092 208.385 197.929 208.838 197.761 209.255C197.648 209.555 197.53 209.836 197.417 210.121C197.475 209.754 197.575 209.033 197.575 208.974C197.561 208.136 197.334 207.314 196.918 206.586C196.925 206.492 196.925 206.398 196.918 206.305C196.896 206.129 196.837 205.959 196.745 205.808C196.653 205.656 196.531 205.525 196.385 205.424C196.239 205.323 196.073 205.254 195.899 205.222C195.724 205.189 195.545 205.194 195.372 205.235C194.339 205.507 193.686 207.32 193.637 208.272C193.637 208.326 193.668 208.943 193.7 209.328C193.646 209.101 193.6 208.875 193.541 208.653C193.433 208.199 193.315 207.746 193.183 207.257C193.115 207.026 193.043 206.803 192.97 206.55C192.898 206.296 192.803 206.096 192.721 205.829C192.517 205.272 192.268 204.714 192.037 204.161C192.436 204.066 193.85 203.708 194.416 203.255C194.983 202.801 195.581 202.113 195.576 201.36C195.581 201.183 195.548 201.008 195.48 200.844C195.413 200.681 195.311 200.533 195.183 200.411C195.055 200.289 194.903 200.195 194.737 200.135C194.57 200.076 194.393 200.051 194.217 200.064C193.152 200.182 192.232 201.877 192.037 202.806C192.037 202.865 191.964 203.549 191.937 203.925C191.783 203.595 191.633 203.264 191.484 202.933C191.008 201.977 190.5 201.025 189.993 200.069C189.839 199.778 189.689 199.488 189.539 199.194C189.68 199.162 191.352 198.768 192.005 198.287C192.658 197.807 193.17 197.141 193.165 196.388C193.17 196.211 193.138 196.036 193.071 195.872C193.003 195.708 192.902 195.561 192.774 195.439C192.645 195.317 192.493 195.224 192.326 195.165C192.159 195.106 191.982 195.083 191.806 195.097C190.741 195.21 189.82 196.91 189.63 197.816C189.63 197.889 189.526 198.877 189.512 199.126C189.181 198.482 188.851 197.839 188.556 197.191C188.15 196.317 187.802 195.418 187.514 194.498C187.582 194.498 189.326 194.081 189.997 193.592C190.559 193.139 191.162 192.445 191.153 191.693C191.158 191.516 191.126 191.34 191.058 191.177C190.991 191.013 190.89 190.866 190.761 190.744C190.633 190.622 190.481 190.528 190.314 190.469C190.147 190.41 189.97 190.387 189.793 190.401C188.733 190.515 187.813 192.214 187.618 193.121C187.618 193.198 187.509 194.258 187.504 194.453C187.504 194.399 187.464 194.344 187.45 194.29C187.186 193.361 187.005 192.41 186.911 191.448C186.847 190.918 186.82 190.406 186.807 189.912C187.142 189.871 188.678 189.662 189.313 189.282C189.947 188.901 190.6 188.271 190.673 187.523C190.696 187.348 190.683 187.169 190.633 186.999C190.583 186.829 190.498 186.671 190.384 186.536C190.269 186.4 190.128 186.29 189.968 186.213C189.809 186.136 189.635 186.093 189.458 186.087C188.388 186.087 187.287 187.664 186.992 188.57C186.992 188.62 186.87 189.141 186.797 189.517C186.797 189.295 186.797 189.064 186.797 188.847C186.797 188.04 186.852 187.301 186.902 186.644C186.933 186.272 186.97 185.937 187.006 185.624C187.319 185.411 188.551 184.541 188.932 183.916C189.313 183.29 189.607 182.429 189.331 181.731C189.272 181.564 189.178 181.411 189.055 181.282C188.933 181.154 188.785 181.052 188.621 180.985C188.456 180.917 188.28 180.885 188.102 180.89C187.925 180.895 187.751 180.938 187.591 181.015C186.639 181.504 186.39 183.417 186.548 184.355C186.548 184.437 186.92 185.683 186.938 185.674C186.893 185.976 186.852 186.303 186.816 186.653C186.752 187.306 186.684 188.049 186.666 188.86C186.635 189.734 186.655 190.609 186.725 191.48C186.803 192.455 186.965 193.42 187.21 194.367V194.403C187.042 194.136 186.548 193.415 186.503 193.365C185.877 192.645 184.237 191.616 183.267 192.033C183.103 192.106 182.957 192.214 182.838 192.348C182.718 192.483 182.629 192.641 182.576 192.812C182.523 192.984 182.507 193.165 182.529 193.343C182.551 193.521 182.611 193.693 182.705 193.846C183.018 194.476 183.888 194.802 184.595 194.906Z" fill="#263238"/>
<path d="M202.91 189.89C202.91 189.89 203.25 188.643 203.263 188.562C203.395 187.614 203.091 185.715 202.13 185.249C201.968 185.175 201.793 185.137 201.615 185.137C201.438 185.136 201.262 185.173 201.099 185.245C200.937 185.317 200.791 185.422 200.672 185.554C200.553 185.686 200.463 185.841 200.408 186.01C200.154 186.717 200.481 187.587 200.861 188.185C201.315 188.888 202.91 189.89 202.91 189.89Z" fill="#263238"/>
<path d="M15.6683 191.634C16.3618 191.933 18.0614 191.896 18.0614 191.896C18.0614 191.896 17.6988 190.786 17.6671 190.718C17.2909 189.938 16.117 188.651 15.1562 188.783C14.9991 188.811 14.8495 188.871 14.717 188.96C14.5845 189.048 14.4721 189.164 14.3867 189.299C14.3014 189.434 14.2452 189.585 14.2216 189.742C14.198 189.9 14.2076 190.061 14.2497 190.215C14.3702 190.54 14.5594 190.834 14.8042 191.079C15.049 191.324 15.3438 191.513 15.6683 191.634Z" fill="#263238"/>
<path d="M16.254 196.547C16.9746 196.656 18.4929 196.217 18.6107 196.18C18.8558 197.047 19.1586 197.897 19.5172 198.723C19.7257 199.203 19.9704 199.684 20.1834 200.16L19.8979 199.756C19.3314 199.104 17.8584 198.175 16.9655 198.551C16.8195 198.618 16.6892 198.715 16.583 198.835C16.4769 198.956 16.3973 199.098 16.3495 199.251C16.3016 199.405 16.2865 199.566 16.3052 199.726C16.3239 199.886 16.3759 200.04 16.4579 200.178C16.7888 200.776 17.5774 201.084 18.2164 201.166C18.9929 201.165 19.7647 201.046 20.5052 200.812C20.5959 200.994 20.682 201.179 20.7726 201.361C21.2258 202.235 21.6791 203.106 22.0598 203.971C22.2048 204.275 22.3362 204.583 22.4677 204.878C22.3453 204.696 22.2365 204.547 22.2184 204.529C21.6564 203.872 20.1789 202.942 19.2906 203.323C19.1442 203.389 19.0134 203.485 18.9069 203.606C18.8004 203.726 18.7205 203.867 18.6726 204.02C18.6246 204.174 18.6097 204.335 18.6287 204.495C18.6477 204.654 18.7003 204.808 18.783 204.946C19.1093 205.544 19.8979 205.852 20.5369 205.934C21.2914 205.94 22.0422 205.828 22.7623 205.603C22.8892 205.916 23.0161 206.233 23.1203 206.546C23.1883 206.763 23.2699 206.967 23.3288 207.185L23.5056 207.828C23.6053 208.241 23.7095 208.667 23.7956 209.075C23.8591 209.356 23.9135 209.623 23.9679 209.895C23.8319 209.591 23.5464 208.988 23.5146 208.952C23.0614 208.218 21.738 207.076 20.7953 207.316C20.6407 207.36 20.4972 207.436 20.374 207.54C20.2508 207.643 20.1507 207.771 20.0802 207.915C20.0097 208.06 19.9703 208.218 19.9647 208.378C19.9591 208.539 19.9873 208.699 20.0475 208.848C20.2831 209.487 21.0174 209.899 21.6337 210.09C22.2501 210.28 23.8138 210.09 24.0041 210.09C24.0948 210.543 24.1763 210.996 24.2489 211.391C24.3032 211.693 24.3531 211.987 24.3984 212.274H25.0103C24.9514 211.962 24.8879 211.631 24.8199 211.286C24.7338 210.833 24.625 210.344 24.5163 209.845C24.9673 209.663 25.4076 209.456 25.8351 209.224C26.4182 209.725 27.068 210.143 27.7659 210.466C27.5937 210.892 27.4214 211.304 27.2492 211.69C27.1631 211.894 27.077 212.084 26.9909 212.274H27.6254C27.6752 212.157 27.7296 212.039 27.7795 211.912C27.9562 211.481 28.1375 211.005 28.3188 210.552C28.5001 210.593 29.9867 210.892 30.6801 210.738C31.3736 210.584 32.0715 210.239 32.3525 209.618C32.4242 209.475 32.4646 209.317 32.4713 209.157C32.478 208.996 32.4507 208.836 32.3912 208.687C32.3318 208.537 32.2415 208.402 32.1262 208.29C32.011 208.178 31.8734 208.092 31.7225 208.037C30.8161 207.729 29.4066 208.766 28.8944 209.464C28.8627 209.505 28.5862 209.986 28.414 210.294C28.4865 210.099 28.559 209.909 28.6315 209.705C28.7811 209.306 28.9125 208.907 29.0576 208.472C29.121 208.263 29.189 208.046 29.2525 207.833C29.3159 207.62 29.3658 207.38 29.4247 207.162C29.5471 206.641 29.6513 206.101 29.7374 205.562C30.4619 205.849 31.2263 206.021 32.0035 206.074C32.3492 206.071 32.69 205.993 33.0028 205.846C33.3157 205.699 33.5932 205.486 33.8164 205.222C33.9082 205.09 33.9713 204.941 34.0017 204.783C34.0321 204.626 34.029 204.463 33.9927 204.307C33.9563 204.151 33.8876 204.004 33.7909 203.876C33.6942 203.748 33.5716 203.641 33.4312 203.563C32.5701 203.11 31.0291 203.935 30.4172 204.547C30.381 204.583 29.964 205.068 29.7782 205.34C29.8326 205.014 29.8824 204.687 29.9232 204.357C30.0456 203.4 30.1362 202.426 30.2314 201.451C30.2586 201.157 30.2903 200.858 30.3221 200.545C30.4444 200.59 31.9174 201.139 32.6426 201.089C33.2862 201.043 34.0929 200.808 34.4555 200.232C34.548 200.101 34.6117 199.951 34.6424 199.793C34.6732 199.636 34.6703 199.473 34.6339 199.317C34.5975 199.16 34.5285 199.013 34.4314 198.885C34.3343 198.757 34.2112 198.651 34.0702 198.573C33.2136 198.12 31.6727 198.95 31.0608 199.557C31.011 199.602 30.4535 200.305 30.3175 200.49C30.3855 199.838 30.4626 199.185 30.5623 198.546C30.6957 197.693 30.8849 196.85 31.1288 196.022C31.1877 196.044 32.7196 196.62 33.4629 196.57C34.1065 196.525 34.9132 196.289 35.2758 195.718C35.3677 195.586 35.4309 195.436 35.4613 195.278C35.4917 195.12 35.4886 194.958 35.4523 194.801C35.416 194.644 35.3473 194.497 35.2505 194.368C35.1538 194.24 35.0311 194.133 34.8906 194.055C34.0295 193.601 32.4885 194.431 31.8766 195.038C31.8313 195.088 31.2285 195.84 31.1288 195.985C31.1288 195.94 31.1288 195.886 31.1651 195.836C31.432 195.002 31.7717 194.194 32.1803 193.42C32.3978 192.99 32.6335 192.591 32.8692 192.21C33.1457 192.346 34.4056 192.958 35.0764 192.985C35.4224 193.022 35.7723 192.983 36.1018 192.871C36.4313 192.759 36.7325 192.577 36.9845 192.337C37.0908 192.217 37.1706 192.075 37.2185 191.922C37.2664 191.768 37.2815 191.607 37.2627 191.447C37.2438 191.288 37.1916 191.134 37.1093 190.996C37.027 190.858 36.9165 190.739 36.7851 190.646C35.9783 190.112 34.3558 190.755 33.6805 191.29C33.6442 191.322 33.3043 191.662 33.0595 191.911L33.3859 191.399C33.7938 190.791 34.2017 190.257 34.5643 189.785L35.1534 189.069C35.4934 189.069 36.8621 189.019 37.4604 188.738C37.7843 188.612 38.0769 188.417 38.3179 188.167C38.559 187.916 38.7427 187.617 38.8563 187.288C38.8946 187.132 38.8996 186.969 38.871 186.811C38.8424 186.653 38.7807 186.502 38.6901 186.369C38.5995 186.236 38.4819 186.124 38.345 186.039C38.2081 185.955 38.0549 185.9 37.8955 185.879C36.9346 185.774 35.7925 187.093 35.4435 187.882C35.4118 187.95 35.0583 189.069 35.0764 189.069C34.8906 189.278 34.7002 189.5 34.4963 189.749C34.1201 190.202 33.6986 190.737 33.2771 191.34C32.8167 191.983 32.3959 192.653 32.0171 193.348C31.5857 194.122 31.2247 194.934 30.9385 195.772C30.9399 195.783 30.9399 195.794 30.9385 195.804C30.9385 195.519 30.9385 194.725 30.9385 194.667C30.8251 193.81 30.1091 192.219 29.1573 192.042C28.9985 192.018 28.8364 192.027 28.6814 192.07C28.5265 192.112 28.3821 192.187 28.2578 192.288C28.1335 192.39 28.0319 192.517 27.9596 192.66C27.8874 192.804 27.8461 192.961 27.8384 193.121C27.784 193.801 28.2916 194.481 28.7448 194.911C29.1981 195.342 30.7934 195.868 30.9113 195.904C30.6414 196.763 30.4294 197.64 30.2767 198.528C30.1816 199.049 30.1045 199.57 30.0365 200.096C30.0365 199.851 30.0365 199.643 30.0365 199.602C29.9278 198.746 29.2071 197.159 28.2554 196.983C28.0968 196.958 27.9348 196.966 27.7799 197.008C27.6249 197.05 27.4805 197.124 27.3561 197.225C27.2316 197.326 27.13 197.453 27.0577 197.596C26.9854 197.739 26.9441 197.896 26.9365 198.057C26.949 198.403 27.0365 198.742 27.193 199.051C27.3495 199.36 27.5712 199.632 27.8429 199.847C28.4885 200.279 29.1982 200.606 29.9459 200.817C29.9187 201.021 29.8915 201.225 29.8688 201.424C29.7555 202.394 29.6422 203.364 29.5017 204.311C29.4564 204.647 29.393 204.973 29.334 205.299C29.334 205.082 29.334 204.9 29.334 204.869C29.2207 204.012 28.5046 202.426 27.5529 202.249C27.394 202.224 27.2316 202.233 27.0763 202.275C26.9211 202.317 26.7765 202.391 26.652 202.493C26.5274 202.595 26.4259 202.722 26.3538 202.866C26.2818 203.01 26.241 203.167 26.234 203.328C26.1751 204.008 26.6872 204.687 27.1404 205.118C27.7666 205.538 28.4548 205.858 29.1799 206.065C29.112 206.401 29.0394 206.736 28.9579 207.053C28.8944 207.271 28.8491 207.484 28.7766 207.701C28.7041 207.919 28.6361 208.123 28.5726 208.336C28.4231 208.735 28.278 209.147 28.1194 209.532C28.0152 209.804 27.9109 210.058 27.8067 210.312C27.8611 209.981 27.9472 209.328 27.9472 209.274C27.9362 208.515 27.7318 207.771 27.3534 207.112C27.3623 207.028 27.3623 206.943 27.3534 206.858C27.3336 206.699 27.2804 206.546 27.1974 206.409C27.1144 206.272 27.0035 206.153 26.8718 206.062C26.7401 205.97 26.5907 205.908 26.4331 205.878C26.2756 205.848 26.1136 205.852 25.9575 205.888C25.0239 206.138 24.4301 207.778 24.3848 208.639C24.3848 208.694 24.4165 209.247 24.4437 209.596C24.3939 209.392 24.3531 209.197 24.2987 208.988C24.2035 208.576 24.0948 208.164 23.9769 207.724C23.9135 207.511 23.85 207.298 23.782 207.085C23.714 206.872 23.6325 206.632 23.5554 206.432C23.3741 205.925 23.1611 205.422 22.9345 204.919C23.691 204.763 24.4187 204.49 25.0919 204.112C25.604 203.717 26.1479 203.078 26.1388 202.394C26.1438 202.234 26.1149 202.074 26.0539 201.926C25.9928 201.777 25.9011 201.643 25.7846 201.533C25.6682 201.422 25.5297 201.338 25.3783 201.285C25.2269 201.232 25.0659 201.211 24.906 201.225C23.9452 201.329 23.0931 202.856 22.9345 203.704C22.9345 203.758 22.8665 204.379 22.8439 204.719C22.7034 204.42 22.5674 204.116 22.4178 203.813C21.9918 202.947 21.5114 202.086 21.0581 201.225L20.6457 200.432C20.7726 200.4 22.3045 200.046 22.8801 199.602C23.1695 199.41 23.4132 199.156 23.594 198.859C23.7749 198.563 23.8886 198.23 23.9271 197.884C23.9334 197.727 23.9072 197.57 23.8501 197.424C23.7929 197.277 23.7061 197.144 23.595 197.032C23.4839 196.921 23.351 196.833 23.2046 196.776C23.0582 196.718 22.9014 196.691 22.7441 196.697C21.7788 196.801 20.9312 198.333 20.7726 199.176C20.7726 199.24 20.6774 200.137 20.6684 200.364C20.3647 199.779 20.0701 199.194 19.8027 198.61C19.4341 197.818 19.1177 197.004 18.8555 196.171C18.9189 196.171 20.5143 195.795 21.1216 195.342C21.6337 194.948 22.1776 194.309 22.1731 193.624C22.1775 193.464 22.1479 193.304 22.0864 193.155C22.0248 193.007 21.9326 192.873 21.8159 192.763C21.6991 192.652 21.5603 192.568 21.4087 192.515C21.257 192.462 21.0959 192.441 20.9358 192.455C19.9749 192.559 19.1229 194.091 18.9642 194.934C18.9642 195.002 18.8645 195.963 18.8645 196.14C18.8645 196.09 18.8283 196.04 18.8147 195.995C18.5755 195.153 18.4117 194.291 18.3252 193.42C18.2708 192.94 18.2436 192.477 18.23 192.024C19.0102 191.951 19.7746 191.759 20.4961 191.453C21.0491 191.122 21.6609 190.547 21.7289 189.862C21.7506 189.703 21.7385 189.541 21.6936 189.387C21.6486 189.233 21.5717 189.089 21.4678 188.967C21.364 188.844 21.2355 188.745 21.0908 188.675C20.946 188.605 20.7882 188.567 20.6276 188.562C19.6622 188.562 18.6651 189.994 18.3977 190.828C18.3977 190.873 18.2889 191.34 18.221 191.684C18.221 191.48 18.221 191.272 18.221 191.077C18.221 190.347 18.2708 189.677 18.3161 189.083C18.3433 188.747 18.3751 188.444 18.4113 188.176C19.0672 187.753 19.6542 187.232 20.1517 186.631C20.4871 186.082 20.7636 185.271 20.5097 184.65C20.4556 184.499 20.3705 184.362 20.2599 184.246C20.1492 184.13 20.0155 184.038 19.8673 183.977C19.7191 183.916 19.5597 183.887 19.3995 183.891C19.2393 183.895 19.0817 183.933 18.9371 184.002C18.0759 184.455 17.8493 186.178 17.9943 187.03C17.9943 187.102 18.3297 188.231 18.3433 188.222C18.3071 188.498 18.2663 188.788 18.2346 189.128C18.1756 189.722 18.1122 190.393 18.0986 191.127C18.068 191.917 18.0862 192.709 18.153 193.497C18.2263 194.381 18.3779 195.256 18.6062 196.112C18.6077 196.123 18.6077 196.134 18.6062 196.144C18.4566 195.904 18.0079 195.238 17.9672 195.206C17.4006 194.553 15.9276 193.624 15.0348 194C14.8944 194.066 14.7686 194.159 14.6651 194.274C14.5616 194.389 14.4824 194.524 14.4325 194.67C14.3825 194.817 14.3627 194.972 14.3743 195.126C14.3859 195.281 14.4287 195.431 14.5 195.568C14.7037 195.849 14.9662 196.082 15.2691 196.251C15.572 196.42 15.9081 196.521 16.254 196.547Z" fill="#263238"/>
<path d="M32.8362 192.006C32.8362 192.006 33.1489 190.877 33.158 190.805C33.2758 189.948 33.0039 188.226 32.1337 187.805C31.9871 187.739 31.8283 187.705 31.6675 187.704C31.5068 187.704 31.3478 187.737 31.2008 187.802C31.0538 187.867 30.9221 187.962 30.8142 188.081C30.7063 188.2 30.6247 188.341 30.5746 188.494C30.4969 188.832 30.4935 189.184 30.5647 189.525C30.6359 189.865 30.78 190.186 30.9871 190.465C31.3995 191.1 32.8362 192.006 32.8362 192.006Z" fill="#263238"/>
<path d="M174.089 130.226H166.026C164.888 130.226 163.796 129.774 162.991 128.969C162.187 128.164 161.734 127.073 161.734 125.934V114.15C161.734 113.012 162.187 111.92 162.991 111.116C163.796 110.311 164.888 109.858 166.026 109.858H176.772C177.336 109.858 177.894 109.969 178.415 110.185C178.936 110.401 179.409 110.717 179.807 111.116C180.206 111.514 180.522 111.987 180.738 112.508C180.953 113.029 181.064 113.587 181.064 114.15V125.934C181.064 126.498 180.953 127.056 180.738 127.577C180.522 128.098 180.206 128.571 179.807 128.969C179.409 129.368 178.936 129.684 178.415 129.9C177.894 130.115 177.336 130.226 176.772 130.226" stroke="#263238" stroke-miterlimit="10" stroke-linecap="round"/>
<path d="M161.734 150.245V143.9C161.736 142.762 162.188 141.672 162.993 140.868C163.798 140.064 164.889 139.612 166.026 139.612H176.772C177.91 139.612 179.001 140.064 179.806 140.868C180.61 141.672 181.063 142.762 181.064 143.9V155.684C181.064 156.247 180.953 156.805 180.738 157.325C180.522 157.846 180.206 158.319 179.807 158.717C179.408 159.115 178.935 159.431 178.415 159.646C177.894 159.861 177.336 159.972 176.772 159.971H166.026C165.463 159.972 164.905 159.861 164.384 159.646C163.864 159.431 163.39 159.115 162.992 158.717C162.593 158.319 162.277 157.846 162.061 157.325C161.845 156.805 161.734 156.247 161.734 155.684V152.964" stroke="#263238" stroke-miterlimit="10" stroke-linecap="round"/>
<path d="M181.064 182.901V185.52C181.064 186.084 180.953 186.642 180.738 187.163C180.522 187.683 180.206 188.157 179.807 188.555C179.409 188.954 178.936 189.27 178.415 189.486C177.894 189.701 177.336 189.812 176.772 189.812H166.026C164.888 189.812 163.796 189.36 162.991 188.555C162.187 187.75 161.734 186.659 161.734 185.52V173.736C161.734 173.173 161.845 172.615 162.061 172.094C162.277 171.573 162.593 171.1 162.991 170.701C163.39 170.303 163.863 169.987 164.384 169.771C164.905 169.555 165.463 169.444 166.026 169.444H176.772C177.336 169.444 177.894 169.555 178.415 169.771C178.936 169.987 179.409 170.303 179.807 170.701C180.206 171.1 180.522 171.573 180.738 172.094C180.953 172.615 181.064 173.173 181.064 173.736V180.159" stroke="#263238" stroke-miterlimit="10" stroke-linecap="round"/>
<path d="M173.327 120.033L178.312 115.047C178.439 114.921 178.54 114.77 178.608 114.604C178.677 114.439 178.712 114.261 178.712 114.082C178.712 113.903 178.677 113.725 178.608 113.56C178.54 113.394 178.439 113.243 178.312 113.117C178.186 112.99 178.035 112.889 177.869 112.821C177.704 112.752 177.526 112.717 177.347 112.717C177.168 112.717 176.99 112.752 176.825 112.821C176.659 112.889 176.508 112.99 176.382 113.117L171.396 118.102L166.411 113.117C166.155 112.861 165.808 112.718 165.446 112.718C165.084 112.719 164.738 112.863 164.482 113.119C164.227 113.375 164.084 113.722 164.084 114.084C164.084 114.445 164.228 114.792 164.485 115.047L169.47 120.033L164.485 125.018C164.358 125.145 164.257 125.295 164.189 125.46C164.12 125.625 164.085 125.803 164.085 125.981C164.085 126.16 164.12 126.338 164.189 126.503C164.257 126.668 164.358 126.818 164.485 126.945C164.739 127.2 165.085 127.343 165.445 127.343C165.625 127.344 165.802 127.309 165.968 127.24C166.134 127.172 166.284 127.071 166.411 126.945L171.396 121.959L176.382 126.945C176.508 127.071 176.658 127.172 176.824 127.241C176.989 127.309 177.166 127.345 177.345 127.345C177.525 127.345 177.702 127.31 177.867 127.242C178.033 127.174 178.183 127.073 178.31 126.947C178.437 126.82 178.538 126.67 178.606 126.505C178.675 126.339 178.71 126.162 178.711 125.983C178.711 125.804 178.676 125.627 178.607 125.461C178.539 125.296 178.439 125.145 178.312 125.018L173.327 120.033Z" class="main-color-svg" stroke="#263238" stroke-miterlimit="10"/>
<path d="M173.327 150.218L178.312 145.233C178.439 145.106 178.54 144.956 178.608 144.79C178.677 144.624 178.712 144.447 178.712 144.268C178.712 144.088 178.677 143.911 178.608 143.745C178.54 143.579 178.439 143.429 178.312 143.302C178.186 143.175 178.035 143.075 177.869 143.006C177.704 142.938 177.526 142.902 177.347 142.902C177.168 142.902 176.99 142.938 176.825 143.006C176.659 143.075 176.508 143.175 176.382 143.302L171.396 148.288L166.411 143.302C166.155 143.047 165.808 142.904 165.446 142.904C165.084 142.904 164.738 143.048 164.482 143.304C164.227 143.561 164.084 143.908 164.084 144.269C164.084 144.631 164.228 144.978 164.485 145.233L169.47 150.218L164.485 155.204C164.358 155.33 164.257 155.48 164.189 155.646C164.12 155.811 164.085 155.988 164.085 156.167C164.085 156.346 164.12 156.523 164.189 156.688C164.257 156.854 164.358 157.004 164.485 157.13C164.739 157.385 165.085 157.529 165.445 157.529C165.625 157.529 165.802 157.494 165.968 157.426C166.134 157.357 166.284 157.257 166.411 157.13L171.396 152.145L176.382 157.13C176.508 157.257 176.658 157.358 176.824 157.426C176.989 157.495 177.166 157.53 177.345 157.531C177.525 157.531 177.702 157.496 177.867 157.427C178.033 157.359 178.183 157.259 178.31 157.132C178.437 157.006 178.538 156.856 178.606 156.69C178.675 156.525 178.71 156.348 178.711 156.169C178.711 155.99 178.676 155.812 178.607 155.647C178.539 155.481 178.439 155.331 178.312 155.204L173.327 150.218Z" class="main-color-svg" stroke="#263238" stroke-miterlimit="10"/>
<path d="M54.5461 130.226H49.0303C47.892 130.226 46.8003 129.774 45.9954 128.969C45.1905 128.164 44.7383 127.073 44.7383 125.934V114.15C44.7383 113.012 45.1905 111.92 45.9954 111.116C46.8003 110.311 47.892 109.858 49.0303 109.858H59.7763C60.9146 109.858 62.0063 110.311 62.8112 111.116C63.6161 111.92 64.0683 113.012 64.0683 114.15V125.934C64.0683 127.073 63.6161 128.164 62.8112 128.969C62.0063 129.774 60.9146 130.226 59.7763 130.226H57.3243" stroke="#263238" stroke-miterlimit="10" stroke-linecap="round"/>
<path d="M55.8287 139.641H59.7446C60.8821 139.641 61.9731 140.092 62.7779 140.896C63.5827 141.7 64.0354 142.791 64.0366 143.928V155.712C64.0366 156.275 63.9256 156.833 63.7098 157.354C63.4941 157.874 63.1778 158.347 62.7792 158.745C62.3806 159.144 61.9074 159.459 61.3867 159.674C60.866 159.89 60.308 160 59.7446 159.999H49.0303C48.4669 160 47.9089 159.89 47.3882 159.674C46.8675 159.459 46.3943 159.144 45.9957 158.745C45.5971 158.347 45.2808 157.874 45.0651 157.354C44.8493 156.833 44.7383 156.275 44.7383 155.712V143.928C44.7395 142.791 45.1922 141.7 45.997 140.896C46.8018 140.092 47.8928 139.641 49.0303 139.641H51.9627" stroke="#263238" stroke-miterlimit="10" stroke-linecap="round"/>
<path d="M44.7207 177.865V173.723C44.7207 173.159 44.8317 172.601 45.0474 172.08C45.2631 171.559 45.5793 171.086 45.9778 170.688C46.3764 170.289 46.8495 169.973 47.3703 169.757C47.891 169.542 48.4491 169.431 49.0127 169.431H59.7587C60.3223 169.431 60.8805 169.542 61.4012 169.757C61.9219 169.973 62.3951 170.289 62.7936 170.688C63.1922 171.086 63.5083 171.559 63.724 172.08C63.9397 172.601 64.0508 173.159 64.0508 173.723V185.507C64.0508 186.645 63.5986 187.737 62.7936 188.541C61.9887 189.346 60.897 189.799 59.7587 189.799H49.0309C47.8926 189.799 46.8009 189.346 45.9959 188.541C45.191 187.737 44.7388 186.645 44.7388 185.507V181.101" stroke="#263238" stroke-miterlimit="10" stroke-linecap="round"/>
<path d="M54.0169 125.812H53.8764C53.6515 125.791 53.4348 125.716 53.2442 125.595C53.0536 125.474 52.8944 125.309 52.7796 125.114L48.8138 118.429C48.7111 118.266 48.6421 118.084 48.6109 117.894C48.5796 117.704 48.5868 117.51 48.632 117.323C48.6772 117.135 48.7595 116.959 48.8739 116.804C48.9884 116.649 49.1328 116.519 49.2985 116.421C49.4643 116.322 49.648 116.258 49.8389 116.233C50.0298 116.207 50.2239 116.219 50.4098 116.27C50.5958 116.32 50.7697 116.407 50.9214 116.526C51.0731 116.644 51.1995 116.792 51.293 116.961L54.2571 121.946L64.8399 110.162C64.9629 110.011 65.1154 109.886 65.2882 109.795C65.461 109.704 65.6505 109.649 65.8452 109.633C66.0398 109.618 66.2356 109.642 66.4206 109.705C66.6056 109.767 66.776 109.867 66.9214 109.997C67.0668 110.127 67.1842 110.286 67.2665 110.463C67.3488 110.64 67.3942 110.832 67.4 111.027C67.4058 111.222 67.3719 111.417 67.3003 111.598C67.2288 111.78 67.121 111.945 66.9836 112.084L55.082 125.318C54.949 125.471 54.7855 125.594 54.602 125.679C54.4185 125.764 54.2191 125.809 54.0169 125.812Z" class="main-color-svg" stroke="#263238" stroke-miterlimit="10"/>
<path d="M76.2462 58.0048C75.6844 56.8509 75.058 55.7297 74.3699 54.6464C73.681 53.6992 71.365 53.3728 70.8075 53.2369C70.2501 53.1009 67.3721 52.208 66.6832 51.714C65.9943 51.22 65.6997 51.6551 65.7767 52.1673C65.8674 53.1009 67.0231 53.8034 67.431 53.7853C67.5965 53.7803 67.7582 53.8347 67.887 53.9386C68.0159 54.0425 68.1033 54.1891 68.1335 54.3518C68.1335 54.3518 63.7554 55.1631 63.5333 55.0679C63.3112 54.9727 61.317 54.2929 60.7731 54.6872C60.4785 54.9002 60.5193 54.941 60.5828 55.5664C60.4872 55.9837 60.4146 56.4058 60.3652 56.8309C60.4695 57.0711 60.4559 57.325 60.7459 57.5742C61.036 57.8235 61.7521 58.1634 61.8654 58.3084C62.4455 59.0472 64.4669 60.2347 65.3145 60.3208C66.162 60.4069 72.5661 59.718 72.5661 59.718L79.5367 71.7692L86.607 67.9848L76.2462 58.0048Z" fill="white" stroke="#263238" stroke-miterlimit="10" stroke-linecap="round"/>
<path d="M66.9336 58.3672C66.4396 58.7117 65.7325 59.1423 65.7325 59.1423L64.7354 59.0788C64.7354 59.0788 62.6914 57.7463 62.2608 57.8913C62.2608 57.8913 61.8076 57.7055 61.8439 58.2902" fill="white"/>
<path d="M66.9336 58.3672C66.4396 58.7117 65.7325 59.1423 65.7325 59.1423L64.7354 59.0788C64.7354 59.0788 62.6914 57.7463 62.2608 57.8913C62.2608 57.8913 61.8076 57.7055 61.8439 58.2902" stroke="#263238" stroke-miterlimit="10" stroke-linecap="round"/>
<path d="M73.2197 56.9903C72.5753 56.5471 71.817 56.2985 71.0352 56.2742C70.446 56.2425 68.9912 57.1807 67.9805 57.7925" fill="white"/>
<path d="M73.2197 56.9903C72.5753 56.5471 71.817 56.2985 71.0352 56.2742C70.446 56.2425 68.9912 57.1807 67.9805 57.7925" stroke="#263238" stroke-miterlimit="10" stroke-linecap="round"/>
<path d="M68.1074 54.3652L70.5594 54.4921" stroke="#263238" stroke-miterlimit="10" stroke-linecap="round"/>
<path d="M60.5605 55.5484C60.6148 55.3982 60.7264 55.2757 60.8708 55.2078C61.0153 55.1398 61.1808 55.1319 61.331 55.1858C62.0783 55.4484 62.7967 55.7871 63.4748 56.1965L66.3845 55.8656" fill="white"/>
<path d="M60.5605 55.5484C60.6148 55.3982 60.7264 55.2757 60.8708 55.2078C61.0153 55.1398 61.1808 55.1319 61.331 55.1858C62.0783 55.4484 62.7967 55.7871 63.4748 56.1965L66.3845 55.8656" stroke="#263238" stroke-miterlimit="10" stroke-linecap="round"/>
<path d="M60.3613 56.8133C60.4339 56.6726 60.5469 56.5569 60.6859 56.4809C60.8248 56.405 60.9833 56.3724 61.1409 56.3873C62.0012 56.6826 62.8388 57.0401 63.6472 57.4569L66.5388 57.2303" fill="white"/>
<path d="M60.3613 56.8133C60.4339 56.6726 60.5469 56.5569 60.6859 56.4809C60.8248 56.405 60.9833 56.3724 61.1409 56.3873C62.0012 56.6826 62.8388 57.0401 63.6472 57.4569L66.5388 57.2303" stroke="#263238" stroke-miterlimit="10" stroke-linecap="round"/>
<path d="M164.232 76.6688C164.232 76.6688 165.302 74.6701 165.823 73.6186C166.344 72.5671 168.583 71.8692 169.109 71.6426C169.635 71.416 172.331 70.0699 172.93 69.4716C173.528 68.8734 173.89 69.2541 173.922 69.7753C173.986 70.718 172.957 71.5882 172.562 71.6426C172.398 71.6651 172.247 71.7455 172.137 71.8692C172.026 71.993 171.964 72.152 171.96 72.3179C171.96 72.3179 176.383 72.3949 176.61 72.2453C176.836 72.0958 178.667 71.1168 179.27 71.416C179.597 71.5791 179.56 71.6244 179.601 72.2499C179.762 72.6473 179.903 73.0527 180.023 73.4645C179.955 73.7183 180.023 73.9676 179.769 74.2577C179.515 74.5477 178.862 75.0055 178.781 75.1641C178.328 75.989 176.515 77.4892 175.708 77.7112C174.901 77.9333 167.677 78.3186 167.677 78.3186L160.579 87.7003L155.594 83.6213L164.232 76.6688Z" fill="white" stroke="#263238" stroke-miterlimit="10" stroke-linecap="round"/>
<path d="M173.771 76.0752C174.311 76.3335 175.081 76.6417 175.081 76.6417L176.056 76.4196C176.056 76.4196 177.869 74.7699 178.322 74.8424C178.322 74.8424 178.716 74.5886 178.775 75.1687" fill="white"/>
<path d="M173.771 76.0752C174.311 76.3335 175.081 76.6417 175.081 76.6417L176.056 76.4196C176.056 76.4196 177.869 74.7699 178.322 74.8424C178.322 74.8424 178.716 74.5886 178.775 75.1687" stroke="#263238" stroke-miterlimit="10" stroke-linecap="round"/>
<path d="M167.322 75.7444C167.886 75.201 168.594 74.8313 169.362 74.6793C169.937 74.5524 171.528 75.2459 172.625 75.6764" stroke="#263238" stroke-miterlimit="10" stroke-linecap="round"/>
<path d="M171.955 72.3184L169.553 72.8441" stroke="#263238" stroke-miterlimit="10" stroke-linecap="round"/>
<path d="M179.595 72.2498C179.516 72.1112 179.386 72.0094 179.232 71.9661C179.079 71.9229 178.914 71.9417 178.775 72.0186C178.08 72.4045 177.427 72.8601 176.826 73.3783L173.902 73.5278" fill="white"/>
<path d="M179.595 72.2498C179.516 72.1112 179.386 72.0094 179.232 71.9661C179.079 71.9229 178.914 71.9417 178.775 72.0186C178.08 72.4045 177.427 72.8601 176.826 73.3783L173.902 73.5278" stroke="#263238" stroke-miterlimit="10" stroke-linecap="round"/>
<path d="M180.014 73.4645C179.92 73.3363 179.79 73.2395 179.64 73.1869C179.49 73.1343 179.328 73.1284 179.175 73.1699C178.375 73.6018 177.607 74.091 176.877 74.6338L173.99 74.8876" fill="white"/>
<path d="M180.014 73.4645C179.92 73.3363 179.79 73.2395 179.64 73.1869C179.49 73.1343 179.328 73.1284 179.175 73.1699C178.375 73.6018 177.607 74.091 176.877 74.6338L173.99 74.8876" stroke="#263238" stroke-miterlimit="10" stroke-linecap="round"/>
<path d="M92.088 117.99C91.0265 121.498 90.5398 125.154 90.6468 128.817C90.8462 134.8 93.144 148.025 92.2013 150.046C91.2586 152.068 87.8866 152.693 85.4664 157.212C83.0462 161.73 76.8551 183.812 76.8868 184.442C76.9186 185.072 82.0989 186.862 82.0989 186.862C82.0989 186.862 96.4662 162.089 100.826 157.253C105.186 152.417 109.392 126.433 109.392 126.433C109.392 126.433 107.878 154.764 108.078 159.55C108.277 164.337 112.778 176.089 113.97 180.852C115.162 185.615 115.366 197.005 115.366 197.005C115.366 197.005 119.553 198.002 120.949 197.603L122.345 197.204C122.345 197.204 122.644 182.565 123.043 177.784C123.442 173.002 120.736 158.236 120.736 158.236C120.736 158.236 128.328 133.395 128.926 124.244C128.926 124.244 126.533 113.081 121.747 109.288C116.961 105.494 109.188 103.704 104.203 105.499C99.2172 107.294 92.088 117.99 92.088 117.99Z" fill="#263238" stroke="#263238" stroke-miterlimit="10"/>
<path d="M111.363 111.853C111.364 112.026 111.313 112.195 111.218 112.34C111.122 112.484 110.986 112.597 110.826 112.664C110.666 112.731 110.49 112.749 110.32 112.716C110.15 112.682 109.994 112.599 109.871 112.477C109.748 112.355 109.665 112.199 109.63 112.029C109.596 111.86 109.613 111.684 109.679 111.523C109.745 111.363 109.858 111.226 110.002 111.13C110.145 111.034 110.315 110.982 110.488 110.982C110.719 110.982 110.941 111.074 111.105 111.237C111.269 111.4 111.362 111.621 111.363 111.853Z" fill="white" stroke="#263238" stroke-miterlimit="10" stroke-linecap="round"/>
<path d="M109.613 111.853C109.613 111.853 108.103 119.131 108.335 120.178C108.566 121.225 109.731 121.085 109.731 121.085L110.664 118.175" stroke="#858585" stroke-miterlimit="10"/>
<path d="M103.793 111.214C103.793 111.214 106.589 111.042 108.103 111.45" stroke="#858585" stroke-miterlimit="10"/>
<path d="M100.771 118.429C102.087 120.53 103.524 122.552 105.077 124.484" stroke="#858585" stroke-miterlimit="10"/>
<path d="M118.927 119.594L114.268 122.852" stroke="#858585" stroke-miterlimit="10"/>
<path d="M115.378 197.013C115.378 197.013 115.528 202.543 115.378 203.25C115.229 203.957 113.262 211.013 113.262 212.99C113.262 214.966 115.664 218.782 117.64 217.934C119.616 217.087 121.878 214.544 122.299 212.568C122.721 210.592 121.32 204.378 121.32 203.272V196.188L115.378 197.013Z" fill="white" stroke="#263238" stroke-miterlimit="10"/>
<path d="M117.648 217.935C119.624 217.087 121.886 214.545 122.307 212.569C122.543 211.463 122.208 209.038 121.854 206.917C121.342 208.195 120.495 210.171 120.041 210.733C119.339 211.581 117.503 212.569 115.808 211.295C114.113 210.022 114.68 206.922 114.68 206.922L114.444 206.953C113.877 209.219 113.266 211.893 113.266 212.99C113.27 214.971 115.654 218.782 117.648 217.935Z" class="main-color-svg" stroke="#263238" stroke-miterlimit="10"/>
<path d="M76.8958 184.441C76.8958 184.441 75.4182 187.881 74.5707 189.993C73.7232 192.105 73.2382 192.858 73.279 194.911C73.3198 196.964 71.9783 201.007 74.0359 203.726C75.3956 205.539 78.4684 205.766 79.5698 202.113C80.6711 198.46 79.8553 192.115 79.8961 191.394C79.9369 190.673 81.0292 186.766 81.0292 186.766L76.8958 184.441Z" fill="white" stroke="#263238" stroke-miterlimit="10"/>
<path d="M73.2776 194.911C73.3229 196.969 71.9768 200.993 74.0344 203.722C75.3941 205.535 78.467 205.761 79.5683 202.108C80.0147 200.331 80.21 198.501 80.1485 196.669C79.4595 198.174 78.6392 199.638 77.6331 200.572C76.2734 201.823 74.8321 200.118 74.2973 198.818C73.7625 197.517 74.5693 189.984 74.5693 189.984C73.7217 192.11 73.2368 192.849 73.2776 194.911Z" class="main-color-svg" stroke="#263238" stroke-miterlimit="10"/>
<path d="M156.368 82.9369C156.219 82.8893 156.061 82.8728 155.906 82.8884C155.75 82.904 155.599 82.9514 155.462 83.0276L154.632 84.2286H153.984C153.531 84.2286 152.887 85.0762 152.588 85.5249L151.809 86.1322C151.761 86.1346 151.715 86.147 151.673 86.1684C150.934 86.5401 149.733 87.0749 149.733 87.0749C149.733 87.0749 149.28 85.688 148.532 85.4116C148.079 85.2439 147.263 84.8722 146.687 84.6048L137.573 73.1518C137.972 71.7604 126.786 67.3732 126.786 67.3732L111.503 64.3955L103.373 66.1178L94.5483 72.9479C94.2582 72.7077 93.5421 72.1683 93.1025 72.3134C92.5496 72.4992 91.4392 73.9767 91.4392 73.9767C91.4392 73.9767 91.1627 72.4992 90.7956 72.2227C90.2954 71.9525 89.7683 71.7352 89.2229 71.5746C89.3617 71.4052 89.4376 71.193 89.4376 70.9741C89.4376 70.7551 89.3617 70.5429 89.2229 70.3735C88.7697 69.6348 87.7454 69.1725 87.4689 68.7102C87.1924 68.2479 86.9114 67.2327 86.4492 67.0469L85.9959 66.8611C85.9959 66.8611 82.5786 68.4337 80.8201 69.8206C79.0616 71.2075 78.418 71.0217 78.6945 72.0369C78.9709 73.0521 79.6553 73.1292 79.6553 73.1292C79.6553 73.1292 78.8803 74.1625 79.4378 75.0871C79.7636 75.6368 80.2042 76.1099 80.7295 76.474L82.0257 79.0619C82.3293 79.6783 83.7026 80.6572 84.6408 81.3552C86.5126 84.419 87.9947 86.7939 88.3663 87.1882C89.8347 88.8062 90.3696 88.702 91.7564 87.9134C92.5269 87.4601 96.2887 85.4387 101.469 83.0412L102.375 89.1869C102.375 89.1869 95.6814 103.527 95.1239 104.85C94.5664 106.174 95.5363 106.69 95.5363 106.69C95.5363 106.69 92.5088 111.223 92.3184 112.184C92.1281 113.144 92.1371 117.989 92.1371 117.989L99.7921 113.144C103.817 109.849 105.394 109.065 105.879 109.065C108.054 109.224 112.414 109.682 113.502 110.461C113.502 110.461 128.273 125.341 128.608 126.234C128.944 127.126 129.845 123.229 130.421 121.556C130.997 119.884 130.199 119.109 130.199 119.109C130.514 118.88 130.77 118.578 130.944 118.23C131.119 117.881 131.207 117.495 131.201 117.106C131.128 116.322 131.654 115.293 131.155 112.315C131.155 110.425 129.945 105.616 129.995 105.027C130.049 104.338 128.635 96.3071 128.93 95.378C130.829 91.5528 131.436 92.8898 133.915 89.486C138.525 92.6133 150.032 100.49 150.639 100.223C151.6 99.7924 154.41 97.4673 156.944 93.9322L158.267 92.3595L159.006 91.3397C159.745 90.3245 160.026 89.1235 160.393 88.847C160.76 88.5705 160.95 87.9406 160.95 87.1837C160.95 86.4268 156.83 83.1228 156.368 82.9369Z" class="main-color-svg" stroke="#263238" stroke-miterlimit="10"/>
<path d="M133.865 89.4907L131.291 88.0947" stroke="#263238" stroke-miterlimit="10"/>
<path d="M115.578 96.584C116.111 97.2772 116.688 97.9357 117.305 98.5555" stroke="#263238" stroke-miterlimit="10"/>
<path d="M111.09 88.8604C111.949 90.8285 112.964 92.7245 114.126 94.5302" stroke="#263238" stroke-miterlimit="10"/>
<path d="M112.705 93.833L115.066 97.8123" stroke="#263238" stroke-miterlimit="10"/>
<path d="M113.103 67.6455C113.103 67.6455 111.585 71.9602 112.831 75.8036" stroke="#263238" stroke-miterlimit="10"/>
<path d="M115.764 110.212C115.764 110.212 125.254 116.253 128.119 118.066L115.764 110.212Z" fill="white"/>
<path d="M115.764 110.212C115.764 110.212 125.254 116.253 128.119 118.066" stroke="#263238" stroke-miterlimit="10"/>
<path d="M93.7598 113.829L103.631 109.342" stroke="#263238" stroke-miterlimit="10"/>
<path d="M113.488 110.479C113.488 110.479 117.268 112.175 120.287 113.978L113.488 110.479Z" fill="white"/>
<path d="M113.488 110.479C113.488 110.479 117.268 112.175 120.287 113.978" stroke="#263238" stroke-miterlimit="10"/>
<path d="M103.79 75.5088C102.901 77.5734 102.189 79.7097 101.66 81.8947L103.79 75.5088Z" fill="white"/>
<path d="M103.79 75.5088C102.901 77.5734 102.189 79.7097 101.66 81.8947" stroke="#263238" stroke-miterlimit="10"/>
<path d="M91.3302 74.8193C91.3302 74.8193 89.7122 78.7941 89.5898 80.7838L91.3302 74.8193Z" fill="#B8B8B8"/>
<path d="M91.3302 74.8193C91.3302 74.8193 89.7122 78.7941 89.5898 80.7838" stroke="#263238" stroke-miterlimit="10"/>
<path d="M88.221 71.2168C88.221 71.2168 83.4984 74.4483 82.5059 76.8096L88.221 71.2168Z" fill="#B8B8B8"/>
<path d="M88.221 71.2168C88.221 71.2168 83.4984 74.4483 82.5059 76.8096" stroke="#263238" stroke-miterlimit="10"/>
<path d="M80.8887 72.458C80.8887 72.458 83.7395 69.8157 86.2322 69.0996L80.8887 72.458Z" fill="#B8B8B8"/>
<path d="M80.8887 72.458C80.8887 72.458 83.7395 69.8157 86.2322 69.0996" stroke="#263238" stroke-miterlimit="10"/>
<path d="M90.2102 75.4629C90.2102 75.4629 86.3578 82.0256 87.1011 82.2613C87.8444 82.4969 88.4608 80.6478 88.4608 80.6478" fill="#B8B8B8"/>
<path d="M90.2102 75.4629C90.2102 75.4629 86.3578 82.0256 87.1011 82.2613C87.8444 82.4969 88.4608 80.6478 88.4608 80.6478" stroke="#263238" stroke-miterlimit="10"/>
<path d="M149.592 88.4346C149.592 88.4346 149.841 94.0228 150.462 93.7781C151.083 93.5334 150.584 90.5466 150.584 90.5466" stroke="#263238" stroke-miterlimit="10"/>
<path d="M152.945 86.4453C152.945 86.4453 154.935 90.0711 155.805 90.6694" stroke="#263238" stroke-miterlimit="10"/>
<path d="M154.633 84.2285C154.633 84.2285 158.064 86.6941 158.934 87.9359" stroke="#263238" stroke-miterlimit="10"/>
<path d="M148.351 86.5674C148.351 86.5674 146.86 91.1676 147.853 93.6513" stroke="#263238" stroke-miterlimit="10"/>
<path d="M120.052 64.1734L118.719 63.3757C118.719 63.3757 117.559 63.0041 116.453 64.9801C116.453 64.9801 115.026 67.8309 114.917 70.65C114.817 73.2379 117.487 75.2412 122.041 73.1201C122.506 72.9393 122.948 72.7067 123.36 72.4266C124.864 71.2966 126.267 70.0379 127.553 68.6649L128.536 61.1504C126.533 62.3197 122.282 63.557 120.052 64.1734Z" fill="white" stroke="#263238" stroke-miterlimit="10"/>
<path d="M124.487 62.6328C124.487 62.6328 118.106 68.978 115.246 70.111L116.56 64.133L124.691 61.749L124.487 62.6328Z" fill="#263238" stroke="#263238" stroke-miterlimit="10"/>
<path d="M125.503 46.6608C125.503 46.6608 126.935 46.8194 128.05 49.8333C129.165 52.8473 128.87 53.654 129.89 55.1905C130.91 56.7269 131.871 59.1879 131.481 61.4404C131.091 63.693 130.801 66.7568 128.83 67.9533C125.702 69.8477 121.438 66.6525 119.167 65.3925C116.896 64.1326 114.929 61.6716 114.218 60.5974C113.506 59.5233 111.979 56.881 112.088 54.0438C112.196 51.2066 115.455 47.9388 117.223 47.1004C118.99 46.2619 122.154 45.7815 125.503 46.6608Z" fill="white" stroke="#263238" stroke-miterlimit="10"/>
<path d="M117.59 43.9914C117.59 43.9914 118.537 41.5666 115.061 41.0409C111.585 40.5151 111.793 42.7269 111.055 42.9354C110.316 43.1438 108.526 39.1419 105.163 40.5151C101.8 41.8884 102.965 45.1516 102.838 46.0037C102.711 46.8558 101.047 44.7437 99.5699 47.4812C98.0924 50.2187 99.5699 52.0135 99.3614 52.6434C99.1529 53.2734 96.1163 51.737 95.3821 54.0711C94.6479 56.4052 96.5378 58.2861 96.5378 58.7076C96.5378 59.1291 94.87 59.1155 94.4485 60.6973C94.027 62.279 95.1691 63.1356 95.2733 63.9741C95.3776 64.8125 93.5964 66.4759 95.0739 68.7964C96.5514 71.1169 99.3614 70.3419 99.2572 71.5157C99.1529 72.6896 98.3099 73.6232 99.5699 74.4662C100.83 75.3092 102.208 73.8363 102.208 73.8363C102.208 73.8363 101.89 71.9372 102.416 71.9372C102.942 71.9372 104.419 73.2969 105.471 72.5718C106.522 71.8466 106.314 69.934 107.157 69.7255C108 69.517 107.578 70.147 109.899 69.8297C112.219 69.5125 111.898 66.5665 111.898 66.0362C111.898 65.506 113.479 66.2493 114.322 64.8805C114.57 64.5246 114.719 64.109 114.754 63.6764C114.788 63.2439 114.706 62.8101 114.517 62.4195C114.517 62.4195 112.111 58.4538 112.428 56.1333" fill="#263238"/>
<path d="M117.59 43.9914C117.59 43.9914 118.537 41.5666 115.061 41.0409C111.585 40.5151 111.793 42.7269 111.055 42.9354C110.316 43.1438 108.526 39.1419 105.163 40.5151C101.8 41.8884 102.965 45.1516 102.838 46.0037C102.711 46.8558 101.047 44.7437 99.5699 47.4812C98.0924 50.2187 99.5699 52.0135 99.3614 52.6434C99.1529 53.2734 96.1163 51.737 95.3821 54.0711C94.6479 56.4052 96.5378 58.2861 96.5378 58.7076C96.5378 59.1291 94.87 59.1155 94.4485 60.6973C94.027 62.279 95.1691 63.1356 95.2733 63.9741C95.3776 64.8125 93.5964 66.4759 95.0739 68.7964C96.5514 71.1169 99.3614 70.3419 99.2572 71.5157C99.1529 72.6896 98.3099 73.6232 99.5699 74.4662C100.83 75.3092 102.208 73.8363 102.208 73.8363C102.208 73.8363 101.89 71.9372 102.416 71.9372C102.942 71.9372 104.419 73.2969 105.471 72.5718C106.522 71.8466 106.314 69.934 107.157 69.7255C108 69.517 107.578 70.147 109.899 69.8297C112.219 69.5125 111.898 66.5665 111.898 66.0362C111.898 65.506 113.479 66.2493 114.322 64.8805C114.57 64.5246 114.719 64.109 114.754 63.6764C114.788 63.2439 114.706 62.8101 114.517 62.4195C114.517 62.4195 112.111 58.4538 112.428 56.1333" stroke="#263238" stroke-miterlimit="10"/>
<path d="M115.927 61.6806C115.823 61.1975 115.82 60.698 115.918 60.2136C116.016 59.7292 116.214 59.2704 116.498 58.8661C117.477 57.3342 117.609 55.6935 116.498 55.0046C115.388 54.3157 114.944 53.16 116.584 51.2972C118.225 49.4345 121.117 51.687 122.821 50.1053C124.525 48.5235 124.566 47.3859 125.871 47.2001C127.176 47.0143 127.584 48.6096 127.584 48.6096C127.127 47.4725 126.406 46.4607 125.48 45.6583C124.554 44.8559 123.449 44.2859 122.259 43.9958C118.18 43.0395 111.835 45.9356 109.754 51.5057C107.674 57.0759 114.531 62.3831 114.531 62.3831C114.531 62.3831 114.953 62.5463 115.927 61.6806Z" fill="#263238" stroke="#263238" stroke-miterlimit="10"/>
<path d="M126.406 56.6182L129.479 60.8105L127.104 61.6852" stroke="#263238" stroke-miterlimit="10"/>
<path d="M129.202 63.5068C129.202 63.5068 127.815 64.7577 126.41 64.1414" stroke="#263238" stroke-miterlimit="10"/>
<path d="M123.446 58.5132C123.668 58.9982 123.636 59.4876 123.383 59.6055C123.129 59.7233 122.744 59.4151 122.522 58.9302C122.299 58.4452 122.331 57.9557 122.585 57.8379C122.839 57.7201 123.229 58.0237 123.446 58.5132Z" fill="#263238"/>
<path d="M128.454 55.3723C128.676 55.8618 128.649 56.3468 128.39 56.4646C128.132 56.5824 127.751 56.2788 127.529 55.7893C127.307 55.2998 127.339 54.8149 127.593 54.697C127.847 54.5792 128.236 54.8874 128.454 55.3723Z" fill="#263238"/>
<path d="M120.15 57.7875C120.15 57.7875 120.853 55.2495 122.929 55.4897" stroke="#263238" stroke-width="2" stroke-miterlimit="10" stroke-linecap="round"/>
<path d="M125.758 53.6316C125.758 53.6316 126.238 51.932 127.802 52.1994" stroke="#263238" stroke-width="2" stroke-miterlimit="10" stroke-linecap="round"/>
<path d="M116.489 61.8667C116.489 61.8667 113.865 59.0703 113.421 61.5766C112.977 64.0829 115.306 64.7492 116.457 64.9849C117.609 65.2205 117.994 63.9696 117.994 63.9696" fill="white"/>
<path d="M116.489 61.8667C116.489 61.8667 113.865 59.0703 113.421 61.5766C112.977 64.0829 115.306 64.7492 116.457 64.9849C117.609 65.2205 117.994 63.9696 117.994 63.9696" stroke="#263238" stroke-miterlimit="10"/>
<path d="M169.403 74.8471C184.627 74.8471 196.968 62.5058 196.968 47.2819C196.968 32.0581 184.627 19.7168 169.403 19.7168C154.179 19.7168 141.838 32.0581 141.838 47.2819C141.838 62.5058 154.179 74.8471 169.403 74.8471Z" fill="white" stroke="#263238" stroke-miterlimit="10"/>
<path d="M169.402 68.3934C181.062 68.3934 190.513 58.9415 190.513 47.2821C190.513 35.6227 181.062 26.1709 169.402 26.1709C157.743 26.1709 148.291 35.6227 148.291 47.2821C148.291 58.9415 157.743 68.3934 169.402 68.3934Z" class="main-color-svg" stroke="#263238" stroke-miterlimit="10"/>
<path d="M183.639 64.6268C183.218 64.6274 182.8 64.544 182.411 64.3814C182.022 64.2187 181.669 63.9801 181.373 63.6795L153.681 35.9875C153.086 35.3925 152.752 34.5855 152.752 33.744C152.752 32.9026 153.086 32.0956 153.681 31.5006C154.276 30.9056 155.083 30.5713 155.925 30.5713C156.766 30.5713 157.573 30.9056 158.168 31.5006L185.86 59.1926C186.313 59.6364 186.623 60.2058 186.749 60.8273C186.876 61.4488 186.813 62.0939 186.569 62.6793C186.325 63.2647 185.911 63.7636 185.381 64.1115C184.851 64.4595 184.228 64.6405 183.594 64.6313L183.639 64.6268Z" fill="#263238"/>
<path d="M155.928 64.6268C155.296 64.6314 154.677 64.447 154.15 64.0973C153.623 63.7476 153.213 63.2485 152.972 62.6641C152.731 62.0796 152.67 61.4365 152.797 60.8171C152.924 60.1978 153.233 59.6305 153.685 59.1881L181.372 31.5006C181.667 31.2059 182.017 30.9722 182.402 30.8128C182.787 30.6534 183.199 30.5713 183.616 30.5713C184.032 30.5713 184.445 30.6534 184.83 30.8128C185.215 30.9722 185.565 31.2059 185.859 31.5006C186.154 31.7952 186.388 32.1449 186.547 32.5299C186.706 32.9148 186.788 33.3274 186.788 33.744C186.788 34.1607 186.706 34.5732 186.547 34.9582C186.388 35.3431 186.154 35.6929 185.859 35.9875L158.172 63.6795C157.879 63.9774 157.529 64.2144 157.144 64.377C156.759 64.5395 156.346 64.6244 155.928 64.6268Z" fill="#263238"/>
<path d="M60.2077 57.8373C75.4315 57.8373 87.7729 45.496 87.7729 30.2722C87.7729 15.0484 75.4315 2.70703 60.2077 2.70703C44.9839 2.70703 32.6426 15.0484 32.6426 30.2722C32.6426 45.496 44.9839 57.8373 60.2077 57.8373Z" fill="white" stroke="#263238" stroke-miterlimit="10"/>
<path d="M60.2069 51.3836C71.8663 51.3836 81.3182 41.9318 81.3182 30.2724C81.3182 18.613 71.8663 9.16113 60.2069 9.16113C48.5475 9.16113 39.0957 18.613 39.0957 30.2724C39.0957 41.9318 48.5475 51.3836 60.2069 51.3836Z" class="main-color-svg" stroke="#263238" stroke-miterlimit="10"/>
<path d="M59.3775 41.426C59.2717 41.426 59.1675 41.426 59.0647 41.426C58.5694 41.3767 58.0927 41.2115 57.673 40.9438C57.2534 40.6761 56.9026 40.3134 56.649 39.885L47.9154 25.1552C47.6685 24.7977 47.4977 24.3932 47.4136 23.9669C47.3294 23.5406 47.3337 23.1016 47.4263 22.6771C47.5188 22.2525 47.6975 21.8515 47.9514 21.4989C48.2053 21.1463 48.5289 20.8495 48.9022 20.6271C49.2754 20.4047 49.6904 20.2614 50.1214 20.2059C50.5524 20.1505 50.9901 20.1842 51.4075 20.3049C51.8249 20.4256 52.2131 20.6308 52.5479 20.9077C52.8828 21.1846 53.1572 21.5273 53.3541 21.9147L59.9077 32.919L83.2171 6.94464C83.7797 6.32068 84.5667 5.94533 85.4057 5.90092C86.2446 5.85652 87.0669 6.14668 87.6922 6.70776C88.3175 7.26883 88.6947 8.05502 88.7411 8.89386C88.7875 9.73269 88.4993 10.5557 87.9397 11.1823L61.7206 40.3745C61.4249 40.7034 61.0637 40.9669 60.6602 41.148C60.2567 41.3291 59.8198 41.4238 59.3775 41.426Z" fill="#263238"/>
</g>
<defs>
<clipPath id="clip0_15224_317027">
<rect width="220" height="219.261" fill="white" transform="translate(0.335938 0.704102)"/>
</clipPath>
</defs>
</svg>
