<svg width="80" height="80" viewBox="0 0 80 80" fill="none" xmlns="http://www.w3.org/2000/svg">
<path d="M22.9713 54C22.9809 54 22.9904 53.9993 23 53.9993H22.9434C13.0011 53.961 12.9996 44 12.9996 44C12.9996 44 12.9989 53.961 3.05661 53.9993H3C3.00956 53.9993 3.01911 54 3.02867 54C3.01911 54 3.00956 54.0007 3 54.0007H3.05661C12.9989 54.039 12.9996 64 12.9996 64C12.9996 64 13.0004 54.039 22.9427 54.0007H22.9993C22.9904 54 22.9809 54 22.9713 54Z" fill="#FF7800"/>
<path d="M62.5 5L63.1601 11.5441L65.9093 5.56892L64.4089 11.9727L68.9492 7.21402L65.4507 12.7837L71.2902 9.75704L66.1728 13.8889L72.6787 12.9224L66.4969 15.1688L72.9641 16.3671L66.3879 16.4846L72.1156 19.7178L65.8576 17.6936L70.2251 22.6115L64.9634 18.665L67.4974 24.7345L63.8023 19.2933L64.2282 25.8568L62.5 19.5106L60.7718 25.8568L61.1977 19.2933L57.5026 24.7345L60.0366 18.665L54.7749 22.6115L59.1424 17.6936L52.8844 19.7178L58.6121 16.4846L52.0359 16.3671L58.5031 15.1688L52.3213 12.9224L58.8272 13.8889L53.7098 9.75704L59.5493 12.7837L56.0508 7.21402L60.5911 11.9727L59.0907 5.56892L61.8399 11.5441L62.5 5Z" fill="#68E348"/>
<path d="M18 9.50879H47.9249L62 23.722V69.5088H18V9.50879Z" fill="#023DFF"/>
<path d="M47.5 11.4142C47.5 10.9688 48.0386 10.7457 48.3536 11.0607L59.9393 22.6464C60.2543 22.9614 60.0312 23.5 59.5858 23.5H48C47.7239 23.5 47.5 23.2761 47.5 23V11.4142Z" fill="white" stroke="#023DFF" stroke-linejoin="bevel"/>
<rect x="18.5" y="60.7637" width="43" height="11" fill="#68E348" stroke="#023DFF"/>
<rect x="18.4277" y="66.8696" width="43" height="5" fill="white" stroke="#023DFF"/>
<rect x="29.418" y="48.0527" width="20.9813" height="1.04567" rx="0.522837" fill="#FF7800" stroke="#FF7800"/>
<rect x="29.418" y="38.3984" width="20.9813" height="1.04567" rx="0.522837" fill="#FF7800" stroke="#FF7800"/>
<rect x="29.418" y="28.7432" width="13.0241" height="1.04567" rx="0.522837" fill="#FF7800" stroke="#FF7800"/>
</svg>
