<svg width="24" height="16" viewBox="0 0 24 16" fill="none" xmlns="http://www.w3.org/2000/svg">
<rect x="0.5" width="23" height="16" rx="2" fill="white"/>
<mask id="mask0_14_2130" style="mask-type:luminance" maskUnits="userSpaceOnUse" x="0" y="0" width="24" height="16">
<rect x="0.5" width="23" height="16" rx="2" fill="white"/>
</mask>
<g mask="url(#mask0_14_2130)">
<rect x="0.5" width="23" height="16" fill="#0A17A7"/>
<path fill-rule="evenodd" clip-rule="evenodd" d="M-0.553421 -1.5332L9.26194 4.91463V-1.06671H14.7381V4.91463L24.5535 -1.5332L25.7784 0.23541L18.018 5.33329H23.5V10.6666H18.018L25.7784 15.7645L24.5535 17.5331L14.7381 11.0853V17.0666H9.26194V11.0853L-0.553421 17.5331L-1.77832 15.7645L5.98204 10.6666H0.500035V5.33329H5.98204L-1.77832 0.23541L-0.553421 -1.5332Z" fill="white"/>
<path d="M15.8345 5.06566L26.2382 -1.6001" stroke="#DB1F35" stroke-width="0.666667" stroke-linecap="round"/>
<path d="M16.939 10.9578L26.2653 17.0801" stroke="#DB1F35" stroke-width="0.666667" stroke-linecap="round"/>
<path d="M7.07585 5.04824L-2.65234 -1.33691" stroke="#DB1F35" stroke-width="0.666667" stroke-linecap="round"/>
<path d="M8.13098 10.8837L-2.65234 17.8481" stroke="#DB1F35" stroke-width="0.666667" stroke-linecap="round"/>
<path fill-rule="evenodd" clip-rule="evenodd" d="M0.5 9.6H10.3571V16H13.6429V9.6H23.5V6.4H13.6429V0H10.3571V6.4H0.5V9.6Z" fill="#DB1F35"/>
</g>
</svg>
